%FSLAX34Y34*%
%MOMM*%
%LNSOLDERMASK_TOP*%
G71*
G01*
%ADD10C, 2.00*%
%ADD11C, 2.40*%
%ADD12C, 2.40*%
%ADD13C, 2.20*%
%ADD14C, 2.40*%
%ADD15C, 2.00*%
%LPD*%
G36*
X143350Y825975D02*
X143350Y805975D01*
X123350Y805975D01*
X123350Y825975D01*
X143350Y825975D01*
G37*
X133350Y790575D02*
G54D10*
D03*
X133350Y765175D02*
G54D10*
D03*
X133350Y739775D02*
G54D10*
D03*
X209550Y739775D02*
G54D10*
D03*
X209550Y765175D02*
G54D10*
D03*
X209550Y790575D02*
G54D10*
D03*
X209550Y815975D02*
G54D10*
D03*
X57150Y917575D02*
G54D11*
D03*
X57150Y892175D02*
G54D11*
D03*
X82550Y790575D02*
G54D11*
D03*
X107950Y815975D02*
G54D11*
D03*
X57150Y815975D02*
G54D11*
D03*
G36*
X19750Y897155D02*
X26770Y904175D01*
X36730Y904175D01*
X43750Y897155D01*
X43750Y887195D01*
X36730Y880175D01*
X26770Y880175D01*
X19750Y887195D01*
X19750Y897155D01*
G37*
G36*
X19750Y922555D02*
X26770Y929575D01*
X36730Y929575D01*
X43750Y922555D01*
X43750Y912595D01*
X36730Y905575D01*
X26770Y905575D01*
X19750Y912595D01*
X19750Y922555D01*
G37*
G36*
X19750Y947955D02*
X26770Y954975D01*
X36730Y954975D01*
X43750Y947955D01*
X43750Y937995D01*
X36730Y930975D01*
X26770Y930975D01*
X19750Y937995D01*
X19750Y947955D01*
G37*
G36*
X19750Y973355D02*
X26770Y980375D01*
X36730Y980375D01*
X43750Y973355D01*
X43750Y963395D01*
X36730Y956375D01*
X26770Y956375D01*
X19750Y963395D01*
X19750Y973355D01*
G37*
G36*
X273750Y744755D02*
X280770Y751775D01*
X290730Y751775D01*
X297750Y744755D01*
X297750Y734795D01*
X290730Y727775D01*
X280770Y727775D01*
X273750Y734795D01*
X273750Y744755D01*
G37*
G36*
X273750Y770155D02*
X280770Y777175D01*
X290730Y777175D01*
X297750Y770155D01*
X297750Y760195D01*
X290730Y753175D01*
X280770Y753175D01*
X273750Y760195D01*
X273750Y770155D01*
G37*
G36*
X273750Y795555D02*
X280770Y802575D01*
X290730Y802575D01*
X297750Y795555D01*
X297750Y785595D01*
X290730Y778575D01*
X280770Y778575D01*
X273750Y785595D01*
X273750Y795555D01*
G37*
G36*
X273750Y820955D02*
X280770Y827975D01*
X290730Y827975D01*
X297750Y820955D01*
X297750Y810995D01*
X290730Y803975D01*
X280770Y803975D01*
X273750Y810995D01*
X273750Y820955D01*
G37*
G36*
X19750Y719360D02*
X26770Y726380D01*
X36730Y726380D01*
X43750Y719360D01*
X43750Y709400D01*
X36730Y702380D01*
X26770Y702380D01*
X19750Y709400D01*
X19750Y719360D01*
G37*
G36*
X19750Y846355D02*
X26770Y853375D01*
X36730Y853375D01*
X43750Y846355D01*
X43750Y836395D01*
X36730Y829375D01*
X26770Y829375D01*
X19750Y836395D01*
X19750Y846355D01*
G37*
G36*
X19750Y922555D02*
X26770Y929575D01*
X36730Y929575D01*
X43750Y922555D01*
X43750Y912595D01*
X36730Y905575D01*
X26770Y905575D01*
X19750Y912595D01*
X19750Y922555D01*
G37*
X107950Y815975D02*
G54D12*
D03*
X57150Y917575D02*
G54D12*
D03*
X133350Y739775D02*
G54D12*
D03*
X285750Y765180D02*
G54D12*
D03*
X82550Y739775D02*
G54D11*
D03*
X82550Y765175D02*
G54D11*
D03*
G36*
X19750Y795555D02*
X26770Y802575D01*
X36730Y802575D01*
X43750Y795555D01*
X43750Y785595D01*
X36730Y778575D01*
X26770Y778575D01*
X19750Y785595D01*
X19750Y795555D01*
G37*
G36*
X146750Y719355D02*
X153770Y726375D01*
X163730Y726375D01*
X170750Y719355D01*
X170750Y709395D01*
X163730Y702375D01*
X153770Y702375D01*
X146750Y709395D01*
X146750Y719355D01*
G37*
X285750Y892175D02*
G54D13*
D03*
X285750Y866775D02*
G54D13*
D03*
X285750Y892175D02*
G54D13*
D03*
X260350Y841375D02*
G54D11*
D03*
X285750Y841375D02*
G54D11*
D03*
G36*
X121350Y719355D02*
X128370Y726375D01*
X138330Y726375D01*
X145350Y719355D01*
X145350Y709395D01*
X138330Y702375D01*
X128370Y702375D01*
X121350Y709395D01*
X121350Y719355D01*
G37*
G36*
X95950Y719355D02*
X102970Y726375D01*
X112930Y726375D01*
X119950Y719355D01*
X119950Y709395D01*
X112930Y702375D01*
X102970Y702375D01*
X95950Y709395D01*
X95950Y719355D01*
G37*
X234950Y714375D02*
G54D14*
D03*
X260350Y714375D02*
G54D14*
D03*
X285750Y714380D02*
G54D14*
D03*
X184150Y714375D02*
G54D11*
D03*
X209550Y714375D02*
G54D11*
D03*
X82550Y739775D02*
G54D11*
D03*
X82550Y714375D02*
G54D11*
D03*
X82550Y714380D02*
G54D12*
D03*
X260350Y815975D02*
G54D11*
D03*
X260350Y765175D02*
G54D11*
D03*
X82550Y815975D02*
G54D12*
D03*
G36*
X273750Y973355D02*
X280770Y980375D01*
X290730Y980375D01*
X297750Y973355D01*
X297750Y963395D01*
X290730Y956375D01*
X280770Y956375D01*
X273750Y963395D01*
X273750Y973355D01*
G37*
G36*
X273750Y947955D02*
X280770Y954975D01*
X290730Y954975D01*
X297750Y947955D01*
X297750Y937995D01*
X290730Y930975D01*
X280770Y930975D01*
X273750Y937995D01*
X273750Y947955D01*
G37*
G36*
X273750Y922555D02*
X280770Y929575D01*
X290730Y929575D01*
X297750Y922555D01*
X297750Y912595D01*
X290730Y905575D01*
X280770Y905575D01*
X273750Y912595D01*
X273750Y922555D01*
G37*
X234950Y765175D02*
G54D11*
D03*
X234950Y739775D02*
G54D11*
D03*
X184150Y714375D02*
G54D12*
D03*
G36*
X19750Y770160D02*
X26770Y777180D01*
X36730Y777180D01*
X43750Y770160D01*
X43750Y760200D01*
X36730Y753180D01*
X26770Y753180D01*
X19750Y760200D01*
X19750Y770160D01*
G37*
G36*
X19750Y744755D02*
X26770Y751775D01*
X36730Y751775D01*
X43750Y744755D01*
X43750Y734795D01*
X36730Y727775D01*
X26770Y727775D01*
X19750Y734795D01*
X19750Y744755D01*
G37*
G36*
X19750Y871755D02*
X26770Y878775D01*
X36730Y878775D01*
X43750Y871755D01*
X43750Y861795D01*
X36730Y854775D01*
X26770Y854775D01*
X19750Y861795D01*
X19750Y871755D01*
G37*
X165100Y866775D02*
G54D11*
D03*
X165100Y841375D02*
G54D11*
D03*
X165100Y866770D02*
G54D12*
D03*
X95250Y901700D02*
G54D14*
D03*
X120650Y901700D02*
G54D14*
D03*
X114300Y863600D02*
G54D15*
D03*
X127000Y876300D02*
G54D15*
D03*
X139700Y863600D02*
G54D15*
D03*
G36*
X153100Y900330D02*
X160120Y907350D01*
X170080Y907350D01*
X177100Y900330D01*
X177100Y890370D01*
X170080Y883350D01*
X160120Y883350D01*
X153100Y890370D01*
X153100Y900330D01*
G37*
G36*
X153100Y925730D02*
X160120Y932750D01*
X170080Y932750D01*
X177100Y925730D01*
X177100Y915770D01*
X170080Y908750D01*
X160120Y908750D01*
X153100Y915770D01*
X153100Y925730D01*
G37*
X209550Y861375D02*
G54D13*
D03*
X209550Y841375D02*
G54D13*
D03*
X209550Y861380D02*
G54D13*
D03*
X95250Y901700D02*
G54D14*
D03*
G36*
X178500Y925730D02*
X185520Y932750D01*
X195480Y932750D01*
X202500Y925730D01*
X202500Y915770D01*
X195480Y908750D01*
X185520Y908750D01*
X178500Y915770D01*
X178500Y925730D01*
G37*
X254736Y907766D02*
G54D13*
D03*
X240594Y921908D02*
G54D13*
D03*
X254740Y907770D02*
G54D13*
D03*
X127000Y876300D02*
G54D15*
D03*
X82550Y866775D02*
G54D11*
D03*
X57150Y866775D02*
G54D11*
D03*
G36*
X19750Y820955D02*
X26770Y827975D01*
X36730Y827975D01*
X43750Y820955D01*
X43750Y810995D01*
X36730Y803975D01*
X26770Y803975D01*
X19750Y810995D01*
X19750Y820955D01*
G37*
G36*
X448150Y825975D02*
X448150Y805975D01*
X428150Y805975D01*
X428150Y825975D01*
X448150Y825975D01*
G37*
X438150Y790575D02*
G54D10*
D03*
X438150Y765175D02*
G54D10*
D03*
X438150Y739775D02*
G54D10*
D03*
X514350Y739775D02*
G54D10*
D03*
X514350Y765175D02*
G54D10*
D03*
X514350Y790575D02*
G54D10*
D03*
X514350Y815975D02*
G54D10*
D03*
X361950Y917575D02*
G54D11*
D03*
X361950Y892175D02*
G54D11*
D03*
X387350Y790575D02*
G54D11*
D03*
X412750Y815975D02*
G54D11*
D03*
X361950Y815975D02*
G54D11*
D03*
G36*
X324550Y897155D02*
X331570Y904175D01*
X341530Y904175D01*
X348550Y897155D01*
X348550Y887195D01*
X341530Y880175D01*
X331570Y880175D01*
X324550Y887195D01*
X324550Y897155D01*
G37*
G36*
X324550Y922555D02*
X331570Y929575D01*
X341530Y929575D01*
X348550Y922555D01*
X348550Y912595D01*
X341530Y905575D01*
X331570Y905575D01*
X324550Y912595D01*
X324550Y922555D01*
G37*
G36*
X324550Y947955D02*
X331570Y954975D01*
X341530Y954975D01*
X348550Y947955D01*
X348550Y937995D01*
X341530Y930975D01*
X331570Y930975D01*
X324550Y937995D01*
X324550Y947955D01*
G37*
G36*
X324550Y973355D02*
X331570Y980375D01*
X341530Y980375D01*
X348550Y973355D01*
X348550Y963395D01*
X341530Y956375D01*
X331570Y956375D01*
X324550Y963395D01*
X324550Y973355D01*
G37*
G36*
X578550Y744755D02*
X585570Y751775D01*
X595530Y751775D01*
X602550Y744755D01*
X602550Y734795D01*
X595530Y727775D01*
X585570Y727775D01*
X578550Y734795D01*
X578550Y744755D01*
G37*
G36*
X578550Y770155D02*
X585570Y777175D01*
X595530Y777175D01*
X602550Y770155D01*
X602550Y760195D01*
X595530Y753175D01*
X585570Y753175D01*
X578550Y760195D01*
X578550Y770155D01*
G37*
G36*
X578550Y795555D02*
X585570Y802575D01*
X595530Y802575D01*
X602550Y795555D01*
X602550Y785595D01*
X595530Y778575D01*
X585570Y778575D01*
X578550Y785595D01*
X578550Y795555D01*
G37*
G36*
X578550Y820955D02*
X585570Y827975D01*
X595530Y827975D01*
X602550Y820955D01*
X602550Y810995D01*
X595530Y803975D01*
X585570Y803975D01*
X578550Y810995D01*
X578550Y820955D01*
G37*
G36*
X324550Y719360D02*
X331570Y726380D01*
X341530Y726380D01*
X348550Y719360D01*
X348550Y709400D01*
X341530Y702380D01*
X331570Y702380D01*
X324550Y709400D01*
X324550Y719360D01*
G37*
G36*
X324550Y846355D02*
X331570Y853375D01*
X341530Y853375D01*
X348550Y846355D01*
X348550Y836395D01*
X341530Y829375D01*
X331570Y829375D01*
X324550Y836395D01*
X324550Y846355D01*
G37*
G36*
X324550Y922555D02*
X331570Y929575D01*
X341530Y929575D01*
X348550Y922555D01*
X348550Y912595D01*
X341530Y905575D01*
X331570Y905575D01*
X324550Y912595D01*
X324550Y922555D01*
G37*
X412750Y815975D02*
G54D12*
D03*
X361950Y917575D02*
G54D12*
D03*
X438150Y739775D02*
G54D12*
D03*
X590550Y765180D02*
G54D12*
D03*
X387350Y739775D02*
G54D11*
D03*
X387350Y765175D02*
G54D11*
D03*
G36*
X324550Y795555D02*
X331570Y802575D01*
X341530Y802575D01*
X348550Y795555D01*
X348550Y785595D01*
X341530Y778575D01*
X331570Y778575D01*
X324550Y785595D01*
X324550Y795555D01*
G37*
G36*
X451550Y719355D02*
X458570Y726375D01*
X468530Y726375D01*
X475550Y719355D01*
X475550Y709395D01*
X468530Y702375D01*
X458570Y702375D01*
X451550Y709395D01*
X451550Y719355D01*
G37*
X590550Y892175D02*
G54D13*
D03*
X590550Y866775D02*
G54D13*
D03*
X590550Y892175D02*
G54D13*
D03*
X565150Y841375D02*
G54D11*
D03*
X590550Y841375D02*
G54D11*
D03*
G36*
X426150Y719355D02*
X433170Y726375D01*
X443130Y726375D01*
X450150Y719355D01*
X450150Y709395D01*
X443130Y702375D01*
X433170Y702375D01*
X426150Y709395D01*
X426150Y719355D01*
G37*
G36*
X400750Y719355D02*
X407770Y726375D01*
X417730Y726375D01*
X424750Y719355D01*
X424750Y709395D01*
X417730Y702375D01*
X407770Y702375D01*
X400750Y709395D01*
X400750Y719355D01*
G37*
X539750Y714375D02*
G54D14*
D03*
X565150Y714375D02*
G54D14*
D03*
X590550Y714380D02*
G54D14*
D03*
X488950Y714375D02*
G54D11*
D03*
X514350Y714375D02*
G54D11*
D03*
X387350Y739775D02*
G54D11*
D03*
X387350Y714375D02*
G54D11*
D03*
X387350Y714380D02*
G54D12*
D03*
X565150Y815975D02*
G54D11*
D03*
X565150Y765175D02*
G54D11*
D03*
X387350Y815975D02*
G54D12*
D03*
G36*
X578550Y973355D02*
X585570Y980375D01*
X595530Y980375D01*
X602550Y973355D01*
X602550Y963395D01*
X595530Y956375D01*
X585570Y956375D01*
X578550Y963395D01*
X578550Y973355D01*
G37*
G36*
X578550Y947955D02*
X585570Y954975D01*
X595530Y954975D01*
X602550Y947955D01*
X602550Y937995D01*
X595530Y930975D01*
X585570Y930975D01*
X578550Y937995D01*
X578550Y947955D01*
G37*
G36*
X578550Y922555D02*
X585570Y929575D01*
X595530Y929575D01*
X602550Y922555D01*
X602550Y912595D01*
X595530Y905575D01*
X585570Y905575D01*
X578550Y912595D01*
X578550Y922555D01*
G37*
X539750Y765175D02*
G54D11*
D03*
X539750Y739775D02*
G54D11*
D03*
X488950Y714375D02*
G54D12*
D03*
G36*
X324550Y770160D02*
X331570Y777180D01*
X341530Y777180D01*
X348550Y770160D01*
X348550Y760200D01*
X341530Y753180D01*
X331570Y753180D01*
X324550Y760200D01*
X324550Y770160D01*
G37*
G36*
X324550Y744755D02*
X331570Y751775D01*
X341530Y751775D01*
X348550Y744755D01*
X348550Y734795D01*
X341530Y727775D01*
X331570Y727775D01*
X324550Y734795D01*
X324550Y744755D01*
G37*
G36*
X324550Y871755D02*
X331570Y878775D01*
X341530Y878775D01*
X348550Y871755D01*
X348550Y861795D01*
X341530Y854775D01*
X331570Y854775D01*
X324550Y861795D01*
X324550Y871755D01*
G37*
X469900Y866775D02*
G54D11*
D03*
X469900Y841375D02*
G54D11*
D03*
X469900Y866770D02*
G54D12*
D03*
X400050Y901700D02*
G54D14*
D03*
X425450Y901700D02*
G54D14*
D03*
X419100Y863600D02*
G54D15*
D03*
X431800Y876300D02*
G54D15*
D03*
X444500Y863600D02*
G54D15*
D03*
G36*
X457900Y900330D02*
X464920Y907350D01*
X474880Y907350D01*
X481900Y900330D01*
X481900Y890370D01*
X474880Y883350D01*
X464920Y883350D01*
X457900Y890370D01*
X457900Y900330D01*
G37*
G36*
X457900Y925730D02*
X464920Y932750D01*
X474880Y932750D01*
X481900Y925730D01*
X481900Y915770D01*
X474880Y908750D01*
X464920Y908750D01*
X457900Y915770D01*
X457900Y925730D01*
G37*
X514350Y861375D02*
G54D13*
D03*
X514350Y841375D02*
G54D13*
D03*
X514350Y861380D02*
G54D13*
D03*
X400050Y901700D02*
G54D14*
D03*
G36*
X483300Y925730D02*
X490320Y932750D01*
X500280Y932750D01*
X507300Y925730D01*
X507300Y915770D01*
X500280Y908750D01*
X490320Y908750D01*
X483300Y915770D01*
X483300Y925730D01*
G37*
X559536Y907766D02*
G54D13*
D03*
X545394Y921908D02*
G54D13*
D03*
X559540Y907770D02*
G54D13*
D03*
X431800Y876300D02*
G54D15*
D03*
X387350Y866775D02*
G54D11*
D03*
X361950Y866775D02*
G54D11*
D03*
G36*
X324550Y820955D02*
X331570Y827975D01*
X341530Y827975D01*
X348550Y820955D01*
X348550Y810995D01*
X341530Y803975D01*
X331570Y803975D01*
X324550Y810995D01*
X324550Y820955D01*
G37*
G36*
X752950Y825975D02*
X752950Y805975D01*
X732950Y805975D01*
X732950Y825975D01*
X752950Y825975D01*
G37*
X742950Y790575D02*
G54D10*
D03*
X742950Y765175D02*
G54D10*
D03*
X742950Y739775D02*
G54D10*
D03*
X819150Y739775D02*
G54D10*
D03*
X819150Y765175D02*
G54D10*
D03*
X819150Y790575D02*
G54D10*
D03*
X819150Y815975D02*
G54D10*
D03*
X666750Y917575D02*
G54D11*
D03*
X666750Y892175D02*
G54D11*
D03*
X692150Y790575D02*
G54D11*
D03*
X717550Y815975D02*
G54D11*
D03*
X666750Y815975D02*
G54D11*
D03*
G36*
X629350Y897155D02*
X636370Y904175D01*
X646330Y904175D01*
X653350Y897155D01*
X653350Y887195D01*
X646330Y880175D01*
X636370Y880175D01*
X629350Y887195D01*
X629350Y897155D01*
G37*
G36*
X629350Y922555D02*
X636370Y929575D01*
X646330Y929575D01*
X653350Y922555D01*
X653350Y912595D01*
X646330Y905575D01*
X636370Y905575D01*
X629350Y912595D01*
X629350Y922555D01*
G37*
G36*
X629350Y947955D02*
X636370Y954975D01*
X646330Y954975D01*
X653350Y947955D01*
X653350Y937995D01*
X646330Y930975D01*
X636370Y930975D01*
X629350Y937995D01*
X629350Y947955D01*
G37*
G36*
X629350Y973355D02*
X636370Y980375D01*
X646330Y980375D01*
X653350Y973355D01*
X653350Y963395D01*
X646330Y956375D01*
X636370Y956375D01*
X629350Y963395D01*
X629350Y973355D01*
G37*
G36*
X883350Y744755D02*
X890370Y751775D01*
X900330Y751775D01*
X907350Y744755D01*
X907350Y734795D01*
X900330Y727775D01*
X890370Y727775D01*
X883350Y734795D01*
X883350Y744755D01*
G37*
G36*
X883350Y770155D02*
X890370Y777175D01*
X900330Y777175D01*
X907350Y770155D01*
X907350Y760195D01*
X900330Y753175D01*
X890370Y753175D01*
X883350Y760195D01*
X883350Y770155D01*
G37*
G36*
X883350Y795555D02*
X890370Y802575D01*
X900330Y802575D01*
X907350Y795555D01*
X907350Y785595D01*
X900330Y778575D01*
X890370Y778575D01*
X883350Y785595D01*
X883350Y795555D01*
G37*
G36*
X883350Y820955D02*
X890370Y827975D01*
X900330Y827975D01*
X907350Y820955D01*
X907350Y810995D01*
X900330Y803975D01*
X890370Y803975D01*
X883350Y810995D01*
X883350Y820955D01*
G37*
G36*
X629350Y719360D02*
X636370Y726380D01*
X646330Y726380D01*
X653350Y719360D01*
X653350Y709400D01*
X646330Y702380D01*
X636370Y702380D01*
X629350Y709400D01*
X629350Y719360D01*
G37*
G36*
X629350Y846355D02*
X636370Y853375D01*
X646330Y853375D01*
X653350Y846355D01*
X653350Y836395D01*
X646330Y829375D01*
X636370Y829375D01*
X629350Y836395D01*
X629350Y846355D01*
G37*
G36*
X629350Y922555D02*
X636370Y929575D01*
X646330Y929575D01*
X653350Y922555D01*
X653350Y912595D01*
X646330Y905575D01*
X636370Y905575D01*
X629350Y912595D01*
X629350Y922555D01*
G37*
X717550Y815975D02*
G54D12*
D03*
X666750Y917575D02*
G54D12*
D03*
X742950Y739775D02*
G54D12*
D03*
X895350Y765180D02*
G54D12*
D03*
X692150Y739775D02*
G54D11*
D03*
X692150Y765175D02*
G54D11*
D03*
G36*
X629350Y795555D02*
X636370Y802575D01*
X646330Y802575D01*
X653350Y795555D01*
X653350Y785595D01*
X646330Y778575D01*
X636370Y778575D01*
X629350Y785595D01*
X629350Y795555D01*
G37*
G36*
X756350Y719355D02*
X763370Y726375D01*
X773330Y726375D01*
X780350Y719355D01*
X780350Y709395D01*
X773330Y702375D01*
X763370Y702375D01*
X756350Y709395D01*
X756350Y719355D01*
G37*
X895350Y892175D02*
G54D13*
D03*
X895350Y866775D02*
G54D13*
D03*
X895350Y892175D02*
G54D13*
D03*
X869950Y841375D02*
G54D11*
D03*
X895350Y841375D02*
G54D11*
D03*
G36*
X730950Y719355D02*
X737970Y726375D01*
X747930Y726375D01*
X754950Y719355D01*
X754950Y709395D01*
X747930Y702375D01*
X737970Y702375D01*
X730950Y709395D01*
X730950Y719355D01*
G37*
G36*
X705550Y719355D02*
X712570Y726375D01*
X722530Y726375D01*
X729550Y719355D01*
X729550Y709395D01*
X722530Y702375D01*
X712570Y702375D01*
X705550Y709395D01*
X705550Y719355D01*
G37*
X844550Y714375D02*
G54D14*
D03*
X869950Y714375D02*
G54D14*
D03*
X895350Y714380D02*
G54D14*
D03*
X793750Y714375D02*
G54D11*
D03*
X819150Y714375D02*
G54D11*
D03*
X692150Y739775D02*
G54D11*
D03*
X692150Y714375D02*
G54D11*
D03*
X692150Y714380D02*
G54D12*
D03*
X869950Y815975D02*
G54D11*
D03*
X869950Y765175D02*
G54D11*
D03*
X692150Y815975D02*
G54D12*
D03*
G36*
X883350Y973355D02*
X890370Y980375D01*
X900330Y980375D01*
X907350Y973355D01*
X907350Y963395D01*
X900330Y956375D01*
X890370Y956375D01*
X883350Y963395D01*
X883350Y973355D01*
G37*
G36*
X883350Y947955D02*
X890370Y954975D01*
X900330Y954975D01*
X907350Y947955D01*
X907350Y937995D01*
X900330Y930975D01*
X890370Y930975D01*
X883350Y937995D01*
X883350Y947955D01*
G37*
G36*
X883350Y922555D02*
X890370Y929575D01*
X900330Y929575D01*
X907350Y922555D01*
X907350Y912595D01*
X900330Y905575D01*
X890370Y905575D01*
X883350Y912595D01*
X883350Y922555D01*
G37*
X844550Y765175D02*
G54D11*
D03*
X844550Y739775D02*
G54D11*
D03*
X793750Y714375D02*
G54D12*
D03*
G36*
X629350Y770160D02*
X636370Y777180D01*
X646330Y777180D01*
X653350Y770160D01*
X653350Y760200D01*
X646330Y753180D01*
X636370Y753180D01*
X629350Y760200D01*
X629350Y770160D01*
G37*
G36*
X629350Y744755D02*
X636370Y751775D01*
X646330Y751775D01*
X653350Y744755D01*
X653350Y734795D01*
X646330Y727775D01*
X636370Y727775D01*
X629350Y734795D01*
X629350Y744755D01*
G37*
G36*
X629350Y871755D02*
X636370Y878775D01*
X646330Y878775D01*
X653350Y871755D01*
X653350Y861795D01*
X646330Y854775D01*
X636370Y854775D01*
X629350Y861795D01*
X629350Y871755D01*
G37*
X774700Y866775D02*
G54D11*
D03*
X774700Y841375D02*
G54D11*
D03*
X774700Y866770D02*
G54D12*
D03*
X704850Y901700D02*
G54D14*
D03*
X730250Y901700D02*
G54D14*
D03*
X723900Y863600D02*
G54D15*
D03*
X736600Y876300D02*
G54D15*
D03*
X749300Y863600D02*
G54D15*
D03*
G36*
X762700Y900330D02*
X769720Y907350D01*
X779680Y907350D01*
X786700Y900330D01*
X786700Y890370D01*
X779680Y883350D01*
X769720Y883350D01*
X762700Y890370D01*
X762700Y900330D01*
G37*
G36*
X762700Y925730D02*
X769720Y932750D01*
X779680Y932750D01*
X786700Y925730D01*
X786700Y915770D01*
X779680Y908750D01*
X769720Y908750D01*
X762700Y915770D01*
X762700Y925730D01*
G37*
X819150Y861375D02*
G54D13*
D03*
X819150Y841375D02*
G54D13*
D03*
X819150Y861380D02*
G54D13*
D03*
X704850Y901700D02*
G54D14*
D03*
G36*
X788100Y925730D02*
X795120Y932750D01*
X805080Y932750D01*
X812100Y925730D01*
X812100Y915770D01*
X805080Y908750D01*
X795120Y908750D01*
X788100Y915770D01*
X788100Y925730D01*
G37*
X864336Y907766D02*
G54D13*
D03*
X850194Y921908D02*
G54D13*
D03*
X864340Y907770D02*
G54D13*
D03*
X736600Y876300D02*
G54D15*
D03*
X692150Y866775D02*
G54D11*
D03*
X666750Y866775D02*
G54D11*
D03*
G36*
X629350Y820955D02*
X636370Y827975D01*
X646330Y827975D01*
X653350Y820955D01*
X653350Y810995D01*
X646330Y803975D01*
X636370Y803975D01*
X629350Y810995D01*
X629350Y820955D01*
G37*
G36*
X143350Y521175D02*
X143350Y501175D01*
X123350Y501175D01*
X123350Y521175D01*
X143350Y521175D01*
G37*
X133350Y485775D02*
G54D10*
D03*
X133350Y460375D02*
G54D10*
D03*
X133350Y434975D02*
G54D10*
D03*
X209550Y434975D02*
G54D10*
D03*
X209550Y460375D02*
G54D10*
D03*
X209550Y485775D02*
G54D10*
D03*
X209550Y511175D02*
G54D10*
D03*
X57150Y612775D02*
G54D11*
D03*
X57150Y587375D02*
G54D11*
D03*
X82550Y485775D02*
G54D11*
D03*
X107950Y511175D02*
G54D11*
D03*
X57150Y511175D02*
G54D11*
D03*
G36*
X19750Y592355D02*
X26770Y599375D01*
X36730Y599375D01*
X43750Y592355D01*
X43750Y582395D01*
X36730Y575375D01*
X26770Y575375D01*
X19750Y582395D01*
X19750Y592355D01*
G37*
G36*
X19750Y617755D02*
X26770Y624775D01*
X36730Y624775D01*
X43750Y617755D01*
X43750Y607795D01*
X36730Y600775D01*
X26770Y600775D01*
X19750Y607795D01*
X19750Y617755D01*
G37*
G36*
X19750Y643155D02*
X26770Y650175D01*
X36730Y650175D01*
X43750Y643155D01*
X43750Y633195D01*
X36730Y626175D01*
X26770Y626175D01*
X19750Y633195D01*
X19750Y643155D01*
G37*
G36*
X19750Y668555D02*
X26770Y675575D01*
X36730Y675575D01*
X43750Y668555D01*
X43750Y658595D01*
X36730Y651575D01*
X26770Y651575D01*
X19750Y658595D01*
X19750Y668555D01*
G37*
G36*
X273750Y439955D02*
X280770Y446975D01*
X290730Y446975D01*
X297750Y439955D01*
X297750Y429995D01*
X290730Y422975D01*
X280770Y422975D01*
X273750Y429995D01*
X273750Y439955D01*
G37*
G36*
X273750Y465355D02*
X280770Y472375D01*
X290730Y472375D01*
X297750Y465355D01*
X297750Y455395D01*
X290730Y448375D01*
X280770Y448375D01*
X273750Y455395D01*
X273750Y465355D01*
G37*
G36*
X273750Y490755D02*
X280770Y497775D01*
X290730Y497775D01*
X297750Y490755D01*
X297750Y480795D01*
X290730Y473775D01*
X280770Y473775D01*
X273750Y480795D01*
X273750Y490755D01*
G37*
G36*
X273750Y516155D02*
X280770Y523175D01*
X290730Y523175D01*
X297750Y516155D01*
X297750Y506195D01*
X290730Y499175D01*
X280770Y499175D01*
X273750Y506195D01*
X273750Y516155D01*
G37*
G36*
X19750Y414560D02*
X26770Y421580D01*
X36730Y421580D01*
X43750Y414560D01*
X43750Y404600D01*
X36730Y397580D01*
X26770Y397580D01*
X19750Y404600D01*
X19750Y414560D01*
G37*
G36*
X19750Y541555D02*
X26770Y548575D01*
X36730Y548575D01*
X43750Y541555D01*
X43750Y531595D01*
X36730Y524575D01*
X26770Y524575D01*
X19750Y531595D01*
X19750Y541555D01*
G37*
G36*
X19750Y617755D02*
X26770Y624775D01*
X36730Y624775D01*
X43750Y617755D01*
X43750Y607795D01*
X36730Y600775D01*
X26770Y600775D01*
X19750Y607795D01*
X19750Y617755D01*
G37*
X107950Y511175D02*
G54D12*
D03*
X57150Y612775D02*
G54D12*
D03*
X133350Y434975D02*
G54D12*
D03*
X285750Y460380D02*
G54D12*
D03*
X82550Y434975D02*
G54D11*
D03*
X82550Y460375D02*
G54D11*
D03*
G36*
X19750Y490755D02*
X26770Y497775D01*
X36730Y497775D01*
X43750Y490755D01*
X43750Y480795D01*
X36730Y473775D01*
X26770Y473775D01*
X19750Y480795D01*
X19750Y490755D01*
G37*
G36*
X146750Y414555D02*
X153770Y421575D01*
X163730Y421575D01*
X170750Y414555D01*
X170750Y404595D01*
X163730Y397575D01*
X153770Y397575D01*
X146750Y404595D01*
X146750Y414555D01*
G37*
X285750Y587375D02*
G54D13*
D03*
X285750Y561975D02*
G54D13*
D03*
X285750Y587375D02*
G54D13*
D03*
X260350Y536575D02*
G54D11*
D03*
X285750Y536575D02*
G54D11*
D03*
G36*
X121350Y414555D02*
X128370Y421575D01*
X138330Y421575D01*
X145350Y414555D01*
X145350Y404595D01*
X138330Y397575D01*
X128370Y397575D01*
X121350Y404595D01*
X121350Y414555D01*
G37*
G36*
X95950Y414555D02*
X102970Y421575D01*
X112930Y421575D01*
X119950Y414555D01*
X119950Y404595D01*
X112930Y397575D01*
X102970Y397575D01*
X95950Y404595D01*
X95950Y414555D01*
G37*
X234950Y409575D02*
G54D14*
D03*
X260350Y409575D02*
G54D14*
D03*
X285750Y409580D02*
G54D14*
D03*
X184150Y409575D02*
G54D11*
D03*
X209550Y409575D02*
G54D11*
D03*
X82550Y434975D02*
G54D11*
D03*
X82550Y409575D02*
G54D11*
D03*
X82550Y409580D02*
G54D12*
D03*
X260350Y511175D02*
G54D11*
D03*
X260350Y460375D02*
G54D11*
D03*
X82550Y511175D02*
G54D12*
D03*
G36*
X273750Y668555D02*
X280770Y675575D01*
X290730Y675575D01*
X297750Y668555D01*
X297750Y658595D01*
X290730Y651575D01*
X280770Y651575D01*
X273750Y658595D01*
X273750Y668555D01*
G37*
G36*
X273750Y643155D02*
X280770Y650175D01*
X290730Y650175D01*
X297750Y643155D01*
X297750Y633195D01*
X290730Y626175D01*
X280770Y626175D01*
X273750Y633195D01*
X273750Y643155D01*
G37*
G36*
X273750Y617755D02*
X280770Y624775D01*
X290730Y624775D01*
X297750Y617755D01*
X297750Y607795D01*
X290730Y600775D01*
X280770Y600775D01*
X273750Y607795D01*
X273750Y617755D01*
G37*
X234950Y460375D02*
G54D11*
D03*
X234950Y434975D02*
G54D11*
D03*
X184150Y409575D02*
G54D12*
D03*
G36*
X19750Y465360D02*
X26770Y472380D01*
X36730Y472380D01*
X43750Y465360D01*
X43750Y455400D01*
X36730Y448380D01*
X26770Y448380D01*
X19750Y455400D01*
X19750Y465360D01*
G37*
G36*
X19750Y439955D02*
X26770Y446975D01*
X36730Y446975D01*
X43750Y439955D01*
X43750Y429995D01*
X36730Y422975D01*
X26770Y422975D01*
X19750Y429995D01*
X19750Y439955D01*
G37*
G36*
X19750Y566955D02*
X26770Y573975D01*
X36730Y573975D01*
X43750Y566955D01*
X43750Y556995D01*
X36730Y549975D01*
X26770Y549975D01*
X19750Y556995D01*
X19750Y566955D01*
G37*
X165100Y561975D02*
G54D11*
D03*
X165100Y536575D02*
G54D11*
D03*
X165100Y561970D02*
G54D12*
D03*
X95250Y596900D02*
G54D14*
D03*
X120650Y596900D02*
G54D14*
D03*
X114300Y558800D02*
G54D15*
D03*
X127000Y571500D02*
G54D15*
D03*
X139700Y558800D02*
G54D15*
D03*
G36*
X153100Y595530D02*
X160120Y602550D01*
X170080Y602550D01*
X177100Y595530D01*
X177100Y585570D01*
X170080Y578550D01*
X160120Y578550D01*
X153100Y585570D01*
X153100Y595530D01*
G37*
G36*
X153100Y620930D02*
X160120Y627950D01*
X170080Y627950D01*
X177100Y620930D01*
X177100Y610970D01*
X170080Y603950D01*
X160120Y603950D01*
X153100Y610970D01*
X153100Y620930D01*
G37*
X209550Y556575D02*
G54D13*
D03*
X209550Y536575D02*
G54D13*
D03*
X209550Y556580D02*
G54D13*
D03*
X95250Y596900D02*
G54D14*
D03*
G36*
X178500Y620930D02*
X185520Y627950D01*
X195480Y627950D01*
X202500Y620930D01*
X202500Y610970D01*
X195480Y603950D01*
X185520Y603950D01*
X178500Y610970D01*
X178500Y620930D01*
G37*
X254736Y602966D02*
G54D13*
D03*
X240594Y617108D02*
G54D13*
D03*
X254740Y602970D02*
G54D13*
D03*
X127000Y571500D02*
G54D15*
D03*
X82550Y561975D02*
G54D11*
D03*
X57150Y561975D02*
G54D11*
D03*
G36*
X19750Y516155D02*
X26770Y523175D01*
X36730Y523175D01*
X43750Y516155D01*
X43750Y506195D01*
X36730Y499175D01*
X26770Y499175D01*
X19750Y506195D01*
X19750Y516155D01*
G37*
G36*
X448150Y521175D02*
X448150Y501175D01*
X428150Y501175D01*
X428150Y521175D01*
X448150Y521175D01*
G37*
X438150Y485775D02*
G54D10*
D03*
X438150Y460375D02*
G54D10*
D03*
X438150Y434975D02*
G54D10*
D03*
X514350Y434975D02*
G54D10*
D03*
X514350Y460375D02*
G54D10*
D03*
X514350Y485775D02*
G54D10*
D03*
X514350Y511175D02*
G54D10*
D03*
X361950Y612775D02*
G54D11*
D03*
X361950Y587375D02*
G54D11*
D03*
X387350Y485775D02*
G54D11*
D03*
X412750Y511175D02*
G54D11*
D03*
X361950Y511175D02*
G54D11*
D03*
G36*
X324550Y592355D02*
X331570Y599375D01*
X341530Y599375D01*
X348550Y592355D01*
X348550Y582395D01*
X341530Y575375D01*
X331570Y575375D01*
X324550Y582395D01*
X324550Y592355D01*
G37*
G36*
X324550Y617755D02*
X331570Y624775D01*
X341530Y624775D01*
X348550Y617755D01*
X348550Y607795D01*
X341530Y600775D01*
X331570Y600775D01*
X324550Y607795D01*
X324550Y617755D01*
G37*
G36*
X324550Y643155D02*
X331570Y650175D01*
X341530Y650175D01*
X348550Y643155D01*
X348550Y633195D01*
X341530Y626175D01*
X331570Y626175D01*
X324550Y633195D01*
X324550Y643155D01*
G37*
G36*
X324550Y668555D02*
X331570Y675575D01*
X341530Y675575D01*
X348550Y668555D01*
X348550Y658595D01*
X341530Y651575D01*
X331570Y651575D01*
X324550Y658595D01*
X324550Y668555D01*
G37*
G36*
X578550Y439955D02*
X585570Y446975D01*
X595530Y446975D01*
X602550Y439955D01*
X602550Y429995D01*
X595530Y422975D01*
X585570Y422975D01*
X578550Y429995D01*
X578550Y439955D01*
G37*
G36*
X578550Y465355D02*
X585570Y472375D01*
X595530Y472375D01*
X602550Y465355D01*
X602550Y455395D01*
X595530Y448375D01*
X585570Y448375D01*
X578550Y455395D01*
X578550Y465355D01*
G37*
G36*
X578550Y490755D02*
X585570Y497775D01*
X595530Y497775D01*
X602550Y490755D01*
X602550Y480795D01*
X595530Y473775D01*
X585570Y473775D01*
X578550Y480795D01*
X578550Y490755D01*
G37*
G36*
X578550Y516155D02*
X585570Y523175D01*
X595530Y523175D01*
X602550Y516155D01*
X602550Y506195D01*
X595530Y499175D01*
X585570Y499175D01*
X578550Y506195D01*
X578550Y516155D01*
G37*
G36*
X324550Y414560D02*
X331570Y421580D01*
X341530Y421580D01*
X348550Y414560D01*
X348550Y404600D01*
X341530Y397580D01*
X331570Y397580D01*
X324550Y404600D01*
X324550Y414560D01*
G37*
G36*
X324550Y541555D02*
X331570Y548575D01*
X341530Y548575D01*
X348550Y541555D01*
X348550Y531595D01*
X341530Y524575D01*
X331570Y524575D01*
X324550Y531595D01*
X324550Y541555D01*
G37*
G36*
X324550Y617755D02*
X331570Y624775D01*
X341530Y624775D01*
X348550Y617755D01*
X348550Y607795D01*
X341530Y600775D01*
X331570Y600775D01*
X324550Y607795D01*
X324550Y617755D01*
G37*
X412750Y511175D02*
G54D12*
D03*
X361950Y612775D02*
G54D12*
D03*
X438150Y434975D02*
G54D12*
D03*
X590550Y460380D02*
G54D12*
D03*
X387350Y434975D02*
G54D11*
D03*
X387350Y460375D02*
G54D11*
D03*
G36*
X324550Y490755D02*
X331570Y497775D01*
X341530Y497775D01*
X348550Y490755D01*
X348550Y480795D01*
X341530Y473775D01*
X331570Y473775D01*
X324550Y480795D01*
X324550Y490755D01*
G37*
G36*
X451550Y414555D02*
X458570Y421575D01*
X468530Y421575D01*
X475550Y414555D01*
X475550Y404595D01*
X468530Y397575D01*
X458570Y397575D01*
X451550Y404595D01*
X451550Y414555D01*
G37*
X590550Y587375D02*
G54D13*
D03*
X590550Y561975D02*
G54D13*
D03*
X590550Y587375D02*
G54D13*
D03*
X565150Y536575D02*
G54D11*
D03*
X590550Y536575D02*
G54D11*
D03*
G36*
X426150Y414555D02*
X433170Y421575D01*
X443130Y421575D01*
X450150Y414555D01*
X450150Y404595D01*
X443130Y397575D01*
X433170Y397575D01*
X426150Y404595D01*
X426150Y414555D01*
G37*
G36*
X400750Y414555D02*
X407770Y421575D01*
X417730Y421575D01*
X424750Y414555D01*
X424750Y404595D01*
X417730Y397575D01*
X407770Y397575D01*
X400750Y404595D01*
X400750Y414555D01*
G37*
X539750Y409575D02*
G54D14*
D03*
X565150Y409575D02*
G54D14*
D03*
X590550Y409580D02*
G54D14*
D03*
X488950Y409575D02*
G54D11*
D03*
X514350Y409575D02*
G54D11*
D03*
X387350Y434975D02*
G54D11*
D03*
X387350Y409575D02*
G54D11*
D03*
X387350Y409580D02*
G54D12*
D03*
X565150Y511175D02*
G54D11*
D03*
X565150Y460375D02*
G54D11*
D03*
X387350Y511175D02*
G54D12*
D03*
G36*
X578550Y668555D02*
X585570Y675575D01*
X595530Y675575D01*
X602550Y668555D01*
X602550Y658595D01*
X595530Y651575D01*
X585570Y651575D01*
X578550Y658595D01*
X578550Y668555D01*
G37*
G36*
X578550Y643155D02*
X585570Y650175D01*
X595530Y650175D01*
X602550Y643155D01*
X602550Y633195D01*
X595530Y626175D01*
X585570Y626175D01*
X578550Y633195D01*
X578550Y643155D01*
G37*
G36*
X578550Y617755D02*
X585570Y624775D01*
X595530Y624775D01*
X602550Y617755D01*
X602550Y607795D01*
X595530Y600775D01*
X585570Y600775D01*
X578550Y607795D01*
X578550Y617755D01*
G37*
X539750Y460375D02*
G54D11*
D03*
X539750Y434975D02*
G54D11*
D03*
X488950Y409575D02*
G54D12*
D03*
G36*
X324550Y465360D02*
X331570Y472380D01*
X341530Y472380D01*
X348550Y465360D01*
X348550Y455400D01*
X341530Y448380D01*
X331570Y448380D01*
X324550Y455400D01*
X324550Y465360D01*
G37*
G36*
X324550Y439955D02*
X331570Y446975D01*
X341530Y446975D01*
X348550Y439955D01*
X348550Y429995D01*
X341530Y422975D01*
X331570Y422975D01*
X324550Y429995D01*
X324550Y439955D01*
G37*
G36*
X324550Y566955D02*
X331570Y573975D01*
X341530Y573975D01*
X348550Y566955D01*
X348550Y556995D01*
X341530Y549975D01*
X331570Y549975D01*
X324550Y556995D01*
X324550Y566955D01*
G37*
X469900Y561975D02*
G54D11*
D03*
X469900Y536575D02*
G54D11*
D03*
X469900Y561970D02*
G54D12*
D03*
X400050Y596900D02*
G54D14*
D03*
X425450Y596900D02*
G54D14*
D03*
X419100Y558800D02*
G54D15*
D03*
X431800Y571500D02*
G54D15*
D03*
X444500Y558800D02*
G54D15*
D03*
G36*
X457900Y595530D02*
X464920Y602550D01*
X474880Y602550D01*
X481900Y595530D01*
X481900Y585570D01*
X474880Y578550D01*
X464920Y578550D01*
X457900Y585570D01*
X457900Y595530D01*
G37*
G36*
X457900Y620930D02*
X464920Y627950D01*
X474880Y627950D01*
X481900Y620930D01*
X481900Y610970D01*
X474880Y603950D01*
X464920Y603950D01*
X457900Y610970D01*
X457900Y620930D01*
G37*
X514350Y556575D02*
G54D13*
D03*
X514350Y536575D02*
G54D13*
D03*
X514350Y556580D02*
G54D13*
D03*
X400050Y596900D02*
G54D14*
D03*
G36*
X483300Y620930D02*
X490320Y627950D01*
X500280Y627950D01*
X507300Y620930D01*
X507300Y610970D01*
X500280Y603950D01*
X490320Y603950D01*
X483300Y610970D01*
X483300Y620930D01*
G37*
X559536Y602966D02*
G54D13*
D03*
X545394Y617108D02*
G54D13*
D03*
X559540Y602970D02*
G54D13*
D03*
X431800Y571500D02*
G54D15*
D03*
X387350Y561975D02*
G54D11*
D03*
X361950Y561975D02*
G54D11*
D03*
G36*
X324550Y516155D02*
X331570Y523175D01*
X341530Y523175D01*
X348550Y516155D01*
X348550Y506195D01*
X341530Y499175D01*
X331570Y499175D01*
X324550Y506195D01*
X324550Y516155D01*
G37*
G36*
X752950Y521175D02*
X752950Y501175D01*
X732950Y501175D01*
X732950Y521175D01*
X752950Y521175D01*
G37*
X742950Y485775D02*
G54D10*
D03*
X742950Y460375D02*
G54D10*
D03*
X742950Y434975D02*
G54D10*
D03*
X819150Y434975D02*
G54D10*
D03*
X819150Y460375D02*
G54D10*
D03*
X819150Y485775D02*
G54D10*
D03*
X819150Y511175D02*
G54D10*
D03*
X666750Y612775D02*
G54D11*
D03*
X666750Y587375D02*
G54D11*
D03*
X692150Y485775D02*
G54D11*
D03*
X717550Y511175D02*
G54D11*
D03*
X666750Y511175D02*
G54D11*
D03*
G36*
X629350Y592355D02*
X636370Y599375D01*
X646330Y599375D01*
X653350Y592355D01*
X653350Y582395D01*
X646330Y575375D01*
X636370Y575375D01*
X629350Y582395D01*
X629350Y592355D01*
G37*
G36*
X629350Y617755D02*
X636370Y624775D01*
X646330Y624775D01*
X653350Y617755D01*
X653350Y607795D01*
X646330Y600775D01*
X636370Y600775D01*
X629350Y607795D01*
X629350Y617755D01*
G37*
G36*
X629350Y643155D02*
X636370Y650175D01*
X646330Y650175D01*
X653350Y643155D01*
X653350Y633195D01*
X646330Y626175D01*
X636370Y626175D01*
X629350Y633195D01*
X629350Y643155D01*
G37*
G36*
X629350Y668555D02*
X636370Y675575D01*
X646330Y675575D01*
X653350Y668555D01*
X653350Y658595D01*
X646330Y651575D01*
X636370Y651575D01*
X629350Y658595D01*
X629350Y668555D01*
G37*
G36*
X883350Y439955D02*
X890370Y446975D01*
X900330Y446975D01*
X907350Y439955D01*
X907350Y429995D01*
X900330Y422975D01*
X890370Y422975D01*
X883350Y429995D01*
X883350Y439955D01*
G37*
G36*
X883350Y465355D02*
X890370Y472375D01*
X900330Y472375D01*
X907350Y465355D01*
X907350Y455395D01*
X900330Y448375D01*
X890370Y448375D01*
X883350Y455395D01*
X883350Y465355D01*
G37*
G36*
X883350Y490755D02*
X890370Y497775D01*
X900330Y497775D01*
X907350Y490755D01*
X907350Y480795D01*
X900330Y473775D01*
X890370Y473775D01*
X883350Y480795D01*
X883350Y490755D01*
G37*
G36*
X883350Y516155D02*
X890370Y523175D01*
X900330Y523175D01*
X907350Y516155D01*
X907350Y506195D01*
X900330Y499175D01*
X890370Y499175D01*
X883350Y506195D01*
X883350Y516155D01*
G37*
G36*
X629350Y414560D02*
X636370Y421580D01*
X646330Y421580D01*
X653350Y414560D01*
X653350Y404600D01*
X646330Y397580D01*
X636370Y397580D01*
X629350Y404600D01*
X629350Y414560D01*
G37*
G36*
X629350Y541555D02*
X636370Y548575D01*
X646330Y548575D01*
X653350Y541555D01*
X653350Y531595D01*
X646330Y524575D01*
X636370Y524575D01*
X629350Y531595D01*
X629350Y541555D01*
G37*
G36*
X629350Y617755D02*
X636370Y624775D01*
X646330Y624775D01*
X653350Y617755D01*
X653350Y607795D01*
X646330Y600775D01*
X636370Y600775D01*
X629350Y607795D01*
X629350Y617755D01*
G37*
X717550Y511175D02*
G54D12*
D03*
X666750Y612775D02*
G54D12*
D03*
X742950Y434975D02*
G54D12*
D03*
X895350Y460380D02*
G54D12*
D03*
X692150Y434975D02*
G54D11*
D03*
X692150Y460375D02*
G54D11*
D03*
G36*
X629350Y490755D02*
X636370Y497775D01*
X646330Y497775D01*
X653350Y490755D01*
X653350Y480795D01*
X646330Y473775D01*
X636370Y473775D01*
X629350Y480795D01*
X629350Y490755D01*
G37*
G36*
X756350Y414555D02*
X763370Y421575D01*
X773330Y421575D01*
X780350Y414555D01*
X780350Y404595D01*
X773330Y397575D01*
X763370Y397575D01*
X756350Y404595D01*
X756350Y414555D01*
G37*
X895350Y587375D02*
G54D13*
D03*
X895350Y561975D02*
G54D13*
D03*
X895350Y587375D02*
G54D13*
D03*
X869950Y536575D02*
G54D11*
D03*
X895350Y536575D02*
G54D11*
D03*
G36*
X730950Y414555D02*
X737970Y421575D01*
X747930Y421575D01*
X754950Y414555D01*
X754950Y404595D01*
X747930Y397575D01*
X737970Y397575D01*
X730950Y404595D01*
X730950Y414555D01*
G37*
G36*
X705550Y414555D02*
X712570Y421575D01*
X722530Y421575D01*
X729550Y414555D01*
X729550Y404595D01*
X722530Y397575D01*
X712570Y397575D01*
X705550Y404595D01*
X705550Y414555D01*
G37*
X844550Y409575D02*
G54D14*
D03*
X869950Y409575D02*
G54D14*
D03*
X895350Y409580D02*
G54D14*
D03*
X793750Y409575D02*
G54D11*
D03*
X819150Y409575D02*
G54D11*
D03*
X692150Y434975D02*
G54D11*
D03*
X692150Y409575D02*
G54D11*
D03*
X692150Y409580D02*
G54D12*
D03*
X869950Y511175D02*
G54D11*
D03*
X869950Y460375D02*
G54D11*
D03*
X692150Y511175D02*
G54D12*
D03*
G36*
X883350Y668555D02*
X890370Y675575D01*
X900330Y675575D01*
X907350Y668555D01*
X907350Y658595D01*
X900330Y651575D01*
X890370Y651575D01*
X883350Y658595D01*
X883350Y668555D01*
G37*
G36*
X883350Y643155D02*
X890370Y650175D01*
X900330Y650175D01*
X907350Y643155D01*
X907350Y633195D01*
X900330Y626175D01*
X890370Y626175D01*
X883350Y633195D01*
X883350Y643155D01*
G37*
G36*
X883350Y617755D02*
X890370Y624775D01*
X900330Y624775D01*
X907350Y617755D01*
X907350Y607795D01*
X900330Y600775D01*
X890370Y600775D01*
X883350Y607795D01*
X883350Y617755D01*
G37*
X844550Y460375D02*
G54D11*
D03*
X844550Y434975D02*
G54D11*
D03*
X793750Y409575D02*
G54D12*
D03*
G36*
X629350Y465360D02*
X636370Y472380D01*
X646330Y472380D01*
X653350Y465360D01*
X653350Y455400D01*
X646330Y448380D01*
X636370Y448380D01*
X629350Y455400D01*
X629350Y465360D01*
G37*
G36*
X629350Y439955D02*
X636370Y446975D01*
X646330Y446975D01*
X653350Y439955D01*
X653350Y429995D01*
X646330Y422975D01*
X636370Y422975D01*
X629350Y429995D01*
X629350Y439955D01*
G37*
G36*
X629350Y566955D02*
X636370Y573975D01*
X646330Y573975D01*
X653350Y566955D01*
X653350Y556995D01*
X646330Y549975D01*
X636370Y549975D01*
X629350Y556995D01*
X629350Y566955D01*
G37*
X774700Y561975D02*
G54D11*
D03*
X774700Y536575D02*
G54D11*
D03*
X774700Y561970D02*
G54D12*
D03*
X704850Y596900D02*
G54D14*
D03*
X730250Y596900D02*
G54D14*
D03*
X723900Y558800D02*
G54D15*
D03*
X736600Y571500D02*
G54D15*
D03*
X749300Y558800D02*
G54D15*
D03*
G36*
X762700Y595530D02*
X769720Y602550D01*
X779680Y602550D01*
X786700Y595530D01*
X786700Y585570D01*
X779680Y578550D01*
X769720Y578550D01*
X762700Y585570D01*
X762700Y595530D01*
G37*
G36*
X762700Y620930D02*
X769720Y627950D01*
X779680Y627950D01*
X786700Y620930D01*
X786700Y610970D01*
X779680Y603950D01*
X769720Y603950D01*
X762700Y610970D01*
X762700Y620930D01*
G37*
X819150Y556575D02*
G54D13*
D03*
X819150Y536575D02*
G54D13*
D03*
X819150Y556580D02*
G54D13*
D03*
X704850Y596900D02*
G54D14*
D03*
G36*
X788100Y620930D02*
X795120Y627950D01*
X805080Y627950D01*
X812100Y620930D01*
X812100Y610970D01*
X805080Y603950D01*
X795120Y603950D01*
X788100Y610970D01*
X788100Y620930D01*
G37*
X864336Y602966D02*
G54D13*
D03*
X850194Y617108D02*
G54D13*
D03*
X864340Y602970D02*
G54D13*
D03*
X736600Y571500D02*
G54D15*
D03*
X692150Y561975D02*
G54D11*
D03*
X666750Y561975D02*
G54D11*
D03*
G36*
X629350Y516155D02*
X636370Y523175D01*
X646330Y523175D01*
X653350Y516155D01*
X653350Y506195D01*
X646330Y499175D01*
X636370Y499175D01*
X629350Y506195D01*
X629350Y516155D01*
G37*
G36*
X143350Y216375D02*
X143350Y196375D01*
X123350Y196375D01*
X123350Y216375D01*
X143350Y216375D01*
G37*
X133350Y180975D02*
G54D10*
D03*
X133350Y155575D02*
G54D10*
D03*
X133350Y130175D02*
G54D10*
D03*
X209550Y130175D02*
G54D10*
D03*
X209550Y155575D02*
G54D10*
D03*
X209550Y180975D02*
G54D10*
D03*
X209550Y206375D02*
G54D10*
D03*
X57150Y307975D02*
G54D11*
D03*
X57150Y282575D02*
G54D11*
D03*
X82550Y180975D02*
G54D11*
D03*
X107950Y206375D02*
G54D11*
D03*
X57150Y206375D02*
G54D11*
D03*
G36*
X19750Y287555D02*
X26770Y294575D01*
X36730Y294575D01*
X43750Y287555D01*
X43750Y277595D01*
X36730Y270575D01*
X26770Y270575D01*
X19750Y277595D01*
X19750Y287555D01*
G37*
G36*
X19750Y312955D02*
X26770Y319975D01*
X36730Y319975D01*
X43750Y312955D01*
X43750Y302995D01*
X36730Y295975D01*
X26770Y295975D01*
X19750Y302995D01*
X19750Y312955D01*
G37*
G36*
X19750Y338355D02*
X26770Y345375D01*
X36730Y345375D01*
X43750Y338355D01*
X43750Y328395D01*
X36730Y321375D01*
X26770Y321375D01*
X19750Y328395D01*
X19750Y338355D01*
G37*
G36*
X19750Y363755D02*
X26770Y370775D01*
X36730Y370775D01*
X43750Y363755D01*
X43750Y353795D01*
X36730Y346775D01*
X26770Y346775D01*
X19750Y353795D01*
X19750Y363755D01*
G37*
G36*
X273750Y135155D02*
X280770Y142175D01*
X290730Y142175D01*
X297750Y135155D01*
X297750Y125195D01*
X290730Y118175D01*
X280770Y118175D01*
X273750Y125195D01*
X273750Y135155D01*
G37*
G36*
X273750Y160555D02*
X280770Y167575D01*
X290730Y167575D01*
X297750Y160555D01*
X297750Y150595D01*
X290730Y143575D01*
X280770Y143575D01*
X273750Y150595D01*
X273750Y160555D01*
G37*
G36*
X273750Y185955D02*
X280770Y192975D01*
X290730Y192975D01*
X297750Y185955D01*
X297750Y175995D01*
X290730Y168975D01*
X280770Y168975D01*
X273750Y175995D01*
X273750Y185955D01*
G37*
G36*
X273750Y211355D02*
X280770Y218375D01*
X290730Y218375D01*
X297750Y211355D01*
X297750Y201395D01*
X290730Y194375D01*
X280770Y194375D01*
X273750Y201395D01*
X273750Y211355D01*
G37*
G36*
X19750Y109760D02*
X26770Y116780D01*
X36730Y116780D01*
X43750Y109760D01*
X43750Y99800D01*
X36730Y92780D01*
X26770Y92780D01*
X19750Y99800D01*
X19750Y109760D01*
G37*
G36*
X19750Y236755D02*
X26770Y243775D01*
X36730Y243775D01*
X43750Y236755D01*
X43750Y226795D01*
X36730Y219775D01*
X26770Y219775D01*
X19750Y226795D01*
X19750Y236755D01*
G37*
G36*
X19750Y312955D02*
X26770Y319975D01*
X36730Y319975D01*
X43750Y312955D01*
X43750Y302995D01*
X36730Y295975D01*
X26770Y295975D01*
X19750Y302995D01*
X19750Y312955D01*
G37*
X107950Y206375D02*
G54D12*
D03*
X57150Y307975D02*
G54D12*
D03*
X133350Y130175D02*
G54D12*
D03*
X285750Y155580D02*
G54D12*
D03*
X82550Y130175D02*
G54D11*
D03*
X82550Y155575D02*
G54D11*
D03*
G36*
X19750Y185955D02*
X26770Y192975D01*
X36730Y192975D01*
X43750Y185955D01*
X43750Y175995D01*
X36730Y168975D01*
X26770Y168975D01*
X19750Y175995D01*
X19750Y185955D01*
G37*
G36*
X146750Y109755D02*
X153770Y116775D01*
X163730Y116775D01*
X170750Y109755D01*
X170750Y99795D01*
X163730Y92775D01*
X153770Y92775D01*
X146750Y99795D01*
X146750Y109755D01*
G37*
X285750Y282575D02*
G54D13*
D03*
X285750Y257175D02*
G54D13*
D03*
X285750Y282575D02*
G54D13*
D03*
X260350Y231775D02*
G54D11*
D03*
X285750Y231775D02*
G54D11*
D03*
G36*
X121350Y109755D02*
X128370Y116775D01*
X138330Y116775D01*
X145350Y109755D01*
X145350Y99795D01*
X138330Y92775D01*
X128370Y92775D01*
X121350Y99795D01*
X121350Y109755D01*
G37*
G36*
X95950Y109755D02*
X102970Y116775D01*
X112930Y116775D01*
X119950Y109755D01*
X119950Y99795D01*
X112930Y92775D01*
X102970Y92775D01*
X95950Y99795D01*
X95950Y109755D01*
G37*
X234950Y104775D02*
G54D14*
D03*
X260350Y104775D02*
G54D14*
D03*
X285750Y104780D02*
G54D14*
D03*
X184150Y104775D02*
G54D11*
D03*
X209550Y104775D02*
G54D11*
D03*
X82550Y130175D02*
G54D11*
D03*
X82550Y104775D02*
G54D11*
D03*
X82550Y104780D02*
G54D12*
D03*
X260350Y206375D02*
G54D11*
D03*
X260350Y155575D02*
G54D11*
D03*
X82550Y206375D02*
G54D12*
D03*
G36*
X273750Y363755D02*
X280770Y370775D01*
X290730Y370775D01*
X297750Y363755D01*
X297750Y353795D01*
X290730Y346775D01*
X280770Y346775D01*
X273750Y353795D01*
X273750Y363755D01*
G37*
G36*
X273750Y338355D02*
X280770Y345375D01*
X290730Y345375D01*
X297750Y338355D01*
X297750Y328395D01*
X290730Y321375D01*
X280770Y321375D01*
X273750Y328395D01*
X273750Y338355D01*
G37*
G36*
X273750Y312955D02*
X280770Y319975D01*
X290730Y319975D01*
X297750Y312955D01*
X297750Y302995D01*
X290730Y295975D01*
X280770Y295975D01*
X273750Y302995D01*
X273750Y312955D01*
G37*
X234950Y155575D02*
G54D11*
D03*
X234950Y130175D02*
G54D11*
D03*
X184150Y104775D02*
G54D12*
D03*
G36*
X19750Y160560D02*
X26770Y167580D01*
X36730Y167580D01*
X43750Y160560D01*
X43750Y150600D01*
X36730Y143580D01*
X26770Y143580D01*
X19750Y150600D01*
X19750Y160560D01*
G37*
G36*
X19750Y135155D02*
X26770Y142175D01*
X36730Y142175D01*
X43750Y135155D01*
X43750Y125195D01*
X36730Y118175D01*
X26770Y118175D01*
X19750Y125195D01*
X19750Y135155D01*
G37*
G36*
X19750Y262155D02*
X26770Y269175D01*
X36730Y269175D01*
X43750Y262155D01*
X43750Y252195D01*
X36730Y245175D01*
X26770Y245175D01*
X19750Y252195D01*
X19750Y262155D01*
G37*
X165100Y257175D02*
G54D11*
D03*
X165100Y231775D02*
G54D11*
D03*
X165100Y257170D02*
G54D12*
D03*
X95250Y292100D02*
G54D14*
D03*
X120650Y292100D02*
G54D14*
D03*
X114300Y254000D02*
G54D15*
D03*
X127000Y266700D02*
G54D15*
D03*
X139700Y254000D02*
G54D15*
D03*
G36*
X153100Y290730D02*
X160120Y297750D01*
X170080Y297750D01*
X177100Y290730D01*
X177100Y280770D01*
X170080Y273750D01*
X160120Y273750D01*
X153100Y280770D01*
X153100Y290730D01*
G37*
G36*
X153100Y316130D02*
X160120Y323150D01*
X170080Y323150D01*
X177100Y316130D01*
X177100Y306170D01*
X170080Y299150D01*
X160120Y299150D01*
X153100Y306170D01*
X153100Y316130D01*
G37*
X209550Y251775D02*
G54D13*
D03*
X209550Y231775D02*
G54D13*
D03*
X209550Y251780D02*
G54D13*
D03*
X95250Y292100D02*
G54D14*
D03*
G36*
X178500Y316130D02*
X185520Y323150D01*
X195480Y323150D01*
X202500Y316130D01*
X202500Y306170D01*
X195480Y299150D01*
X185520Y299150D01*
X178500Y306170D01*
X178500Y316130D01*
G37*
X254736Y298166D02*
G54D13*
D03*
X240594Y312308D02*
G54D13*
D03*
X254740Y298170D02*
G54D13*
D03*
X127000Y266700D02*
G54D15*
D03*
X82550Y257175D02*
G54D11*
D03*
X57150Y257175D02*
G54D11*
D03*
G36*
X19750Y211355D02*
X26770Y218375D01*
X36730Y218375D01*
X43750Y211355D01*
X43750Y201395D01*
X36730Y194375D01*
X26770Y194375D01*
X19750Y201395D01*
X19750Y211355D01*
G37*
G36*
X448150Y216375D02*
X448150Y196375D01*
X428150Y196375D01*
X428150Y216375D01*
X448150Y216375D01*
G37*
X438150Y180975D02*
G54D10*
D03*
X438150Y155575D02*
G54D10*
D03*
X438150Y130175D02*
G54D10*
D03*
X514350Y130175D02*
G54D10*
D03*
X514350Y155575D02*
G54D10*
D03*
X514350Y180975D02*
G54D10*
D03*
X514350Y206375D02*
G54D10*
D03*
X361950Y307975D02*
G54D11*
D03*
X361950Y282575D02*
G54D11*
D03*
X387350Y180975D02*
G54D11*
D03*
X412750Y206375D02*
G54D11*
D03*
X361950Y206375D02*
G54D11*
D03*
G36*
X324550Y287555D02*
X331570Y294575D01*
X341530Y294575D01*
X348550Y287555D01*
X348550Y277595D01*
X341530Y270575D01*
X331570Y270575D01*
X324550Y277595D01*
X324550Y287555D01*
G37*
G36*
X324550Y312955D02*
X331570Y319975D01*
X341530Y319975D01*
X348550Y312955D01*
X348550Y302995D01*
X341530Y295975D01*
X331570Y295975D01*
X324550Y302995D01*
X324550Y312955D01*
G37*
G36*
X324550Y338355D02*
X331570Y345375D01*
X341530Y345375D01*
X348550Y338355D01*
X348550Y328395D01*
X341530Y321375D01*
X331570Y321375D01*
X324550Y328395D01*
X324550Y338355D01*
G37*
G36*
X324550Y363755D02*
X331570Y370775D01*
X341530Y370775D01*
X348550Y363755D01*
X348550Y353795D01*
X341530Y346775D01*
X331570Y346775D01*
X324550Y353795D01*
X324550Y363755D01*
G37*
G36*
X578550Y135155D02*
X585570Y142175D01*
X595530Y142175D01*
X602550Y135155D01*
X602550Y125195D01*
X595530Y118175D01*
X585570Y118175D01*
X578550Y125195D01*
X578550Y135155D01*
G37*
G36*
X578550Y160555D02*
X585570Y167575D01*
X595530Y167575D01*
X602550Y160555D01*
X602550Y150595D01*
X595530Y143575D01*
X585570Y143575D01*
X578550Y150595D01*
X578550Y160555D01*
G37*
G36*
X578550Y185955D02*
X585570Y192975D01*
X595530Y192975D01*
X602550Y185955D01*
X602550Y175995D01*
X595530Y168975D01*
X585570Y168975D01*
X578550Y175995D01*
X578550Y185955D01*
G37*
G36*
X578550Y211355D02*
X585570Y218375D01*
X595530Y218375D01*
X602550Y211355D01*
X602550Y201395D01*
X595530Y194375D01*
X585570Y194375D01*
X578550Y201395D01*
X578550Y211355D01*
G37*
G36*
X324550Y109760D02*
X331570Y116780D01*
X341530Y116780D01*
X348550Y109760D01*
X348550Y99800D01*
X341530Y92780D01*
X331570Y92780D01*
X324550Y99800D01*
X324550Y109760D01*
G37*
G36*
X324550Y236755D02*
X331570Y243775D01*
X341530Y243775D01*
X348550Y236755D01*
X348550Y226795D01*
X341530Y219775D01*
X331570Y219775D01*
X324550Y226795D01*
X324550Y236755D01*
G37*
G36*
X324550Y312955D02*
X331570Y319975D01*
X341530Y319975D01*
X348550Y312955D01*
X348550Y302995D01*
X341530Y295975D01*
X331570Y295975D01*
X324550Y302995D01*
X324550Y312955D01*
G37*
X412750Y206375D02*
G54D12*
D03*
X361950Y307975D02*
G54D12*
D03*
X438150Y130175D02*
G54D12*
D03*
X590550Y155580D02*
G54D12*
D03*
X387350Y130175D02*
G54D11*
D03*
X387350Y155575D02*
G54D11*
D03*
G36*
X324550Y185955D02*
X331570Y192975D01*
X341530Y192975D01*
X348550Y185955D01*
X348550Y175995D01*
X341530Y168975D01*
X331570Y168975D01*
X324550Y175995D01*
X324550Y185955D01*
G37*
G36*
X451550Y109755D02*
X458570Y116775D01*
X468530Y116775D01*
X475550Y109755D01*
X475550Y99795D01*
X468530Y92775D01*
X458570Y92775D01*
X451550Y99795D01*
X451550Y109755D01*
G37*
X590550Y282575D02*
G54D13*
D03*
X590550Y257175D02*
G54D13*
D03*
X590550Y282575D02*
G54D13*
D03*
X565150Y231775D02*
G54D11*
D03*
X590550Y231775D02*
G54D11*
D03*
G36*
X426150Y109755D02*
X433170Y116775D01*
X443130Y116775D01*
X450150Y109755D01*
X450150Y99795D01*
X443130Y92775D01*
X433170Y92775D01*
X426150Y99795D01*
X426150Y109755D01*
G37*
G36*
X400750Y109755D02*
X407770Y116775D01*
X417730Y116775D01*
X424750Y109755D01*
X424750Y99795D01*
X417730Y92775D01*
X407770Y92775D01*
X400750Y99795D01*
X400750Y109755D01*
G37*
X539750Y104775D02*
G54D14*
D03*
X565150Y104775D02*
G54D14*
D03*
X590550Y104780D02*
G54D14*
D03*
X488950Y104775D02*
G54D11*
D03*
X514350Y104775D02*
G54D11*
D03*
X387350Y130175D02*
G54D11*
D03*
X387350Y104775D02*
G54D11*
D03*
X387350Y104780D02*
G54D12*
D03*
X565150Y206375D02*
G54D11*
D03*
X565150Y155575D02*
G54D11*
D03*
X387350Y206375D02*
G54D12*
D03*
G36*
X578550Y363755D02*
X585570Y370775D01*
X595530Y370775D01*
X602550Y363755D01*
X602550Y353795D01*
X595530Y346775D01*
X585570Y346775D01*
X578550Y353795D01*
X578550Y363755D01*
G37*
G36*
X578550Y338355D02*
X585570Y345375D01*
X595530Y345375D01*
X602550Y338355D01*
X602550Y328395D01*
X595530Y321375D01*
X585570Y321375D01*
X578550Y328395D01*
X578550Y338355D01*
G37*
G36*
X578550Y312955D02*
X585570Y319975D01*
X595530Y319975D01*
X602550Y312955D01*
X602550Y302995D01*
X595530Y295975D01*
X585570Y295975D01*
X578550Y302995D01*
X578550Y312955D01*
G37*
X539750Y155575D02*
G54D11*
D03*
X539750Y130175D02*
G54D11*
D03*
X488950Y104775D02*
G54D12*
D03*
G36*
X324550Y160560D02*
X331570Y167580D01*
X341530Y167580D01*
X348550Y160560D01*
X348550Y150600D01*
X341530Y143580D01*
X331570Y143580D01*
X324550Y150600D01*
X324550Y160560D01*
G37*
G36*
X324550Y135155D02*
X331570Y142175D01*
X341530Y142175D01*
X348550Y135155D01*
X348550Y125195D01*
X341530Y118175D01*
X331570Y118175D01*
X324550Y125195D01*
X324550Y135155D01*
G37*
G36*
X324550Y262155D02*
X331570Y269175D01*
X341530Y269175D01*
X348550Y262155D01*
X348550Y252195D01*
X341530Y245175D01*
X331570Y245175D01*
X324550Y252195D01*
X324550Y262155D01*
G37*
X469900Y257175D02*
G54D11*
D03*
X469900Y231775D02*
G54D11*
D03*
X469900Y257170D02*
G54D12*
D03*
X400050Y292100D02*
G54D14*
D03*
X425450Y292100D02*
G54D14*
D03*
X419100Y254000D02*
G54D15*
D03*
X431800Y266700D02*
G54D15*
D03*
X444500Y254000D02*
G54D15*
D03*
G36*
X457900Y290730D02*
X464920Y297750D01*
X474880Y297750D01*
X481900Y290730D01*
X481900Y280770D01*
X474880Y273750D01*
X464920Y273750D01*
X457900Y280770D01*
X457900Y290730D01*
G37*
G36*
X457900Y316130D02*
X464920Y323150D01*
X474880Y323150D01*
X481900Y316130D01*
X481900Y306170D01*
X474880Y299150D01*
X464920Y299150D01*
X457900Y306170D01*
X457900Y316130D01*
G37*
X514350Y251775D02*
G54D13*
D03*
X514350Y231775D02*
G54D13*
D03*
X514350Y251780D02*
G54D13*
D03*
X400050Y292100D02*
G54D14*
D03*
G36*
X483300Y316130D02*
X490320Y323150D01*
X500280Y323150D01*
X507300Y316130D01*
X507300Y306170D01*
X500280Y299150D01*
X490320Y299150D01*
X483300Y306170D01*
X483300Y316130D01*
G37*
X559536Y298166D02*
G54D13*
D03*
X545394Y312308D02*
G54D13*
D03*
X559540Y298170D02*
G54D13*
D03*
X431800Y266700D02*
G54D15*
D03*
X387350Y257175D02*
G54D11*
D03*
X361950Y257175D02*
G54D11*
D03*
G36*
X324550Y211355D02*
X331570Y218375D01*
X341530Y218375D01*
X348550Y211355D01*
X348550Y201395D01*
X341530Y194375D01*
X331570Y194375D01*
X324550Y201395D01*
X324550Y211355D01*
G37*
G36*
X752950Y216375D02*
X752950Y196375D01*
X732950Y196375D01*
X732950Y216375D01*
X752950Y216375D01*
G37*
X742950Y180975D02*
G54D10*
D03*
X742950Y155575D02*
G54D10*
D03*
X742950Y130175D02*
G54D10*
D03*
X819150Y130175D02*
G54D10*
D03*
X819150Y155575D02*
G54D10*
D03*
X819150Y180975D02*
G54D10*
D03*
X819150Y206375D02*
G54D10*
D03*
X666750Y307975D02*
G54D11*
D03*
X666750Y282575D02*
G54D11*
D03*
X692150Y180975D02*
G54D11*
D03*
X717550Y206375D02*
G54D11*
D03*
X666750Y206375D02*
G54D11*
D03*
G36*
X629350Y287555D02*
X636370Y294575D01*
X646330Y294575D01*
X653350Y287555D01*
X653350Y277595D01*
X646330Y270575D01*
X636370Y270575D01*
X629350Y277595D01*
X629350Y287555D01*
G37*
G36*
X629350Y312955D02*
X636370Y319975D01*
X646330Y319975D01*
X653350Y312955D01*
X653350Y302995D01*
X646330Y295975D01*
X636370Y295975D01*
X629350Y302995D01*
X629350Y312955D01*
G37*
G36*
X629350Y338355D02*
X636370Y345375D01*
X646330Y345375D01*
X653350Y338355D01*
X653350Y328395D01*
X646330Y321375D01*
X636370Y321375D01*
X629350Y328395D01*
X629350Y338355D01*
G37*
G36*
X629350Y363755D02*
X636370Y370775D01*
X646330Y370775D01*
X653350Y363755D01*
X653350Y353795D01*
X646330Y346775D01*
X636370Y346775D01*
X629350Y353795D01*
X629350Y363755D01*
G37*
G36*
X883350Y135155D02*
X890370Y142175D01*
X900330Y142175D01*
X907350Y135155D01*
X907350Y125195D01*
X900330Y118175D01*
X890370Y118175D01*
X883350Y125195D01*
X883350Y135155D01*
G37*
G36*
X883350Y160555D02*
X890370Y167575D01*
X900330Y167575D01*
X907350Y160555D01*
X907350Y150595D01*
X900330Y143575D01*
X890370Y143575D01*
X883350Y150595D01*
X883350Y160555D01*
G37*
G36*
X883350Y185955D02*
X890370Y192975D01*
X900330Y192975D01*
X907350Y185955D01*
X907350Y175995D01*
X900330Y168975D01*
X890370Y168975D01*
X883350Y175995D01*
X883350Y185955D01*
G37*
G36*
X883350Y211355D02*
X890370Y218375D01*
X900330Y218375D01*
X907350Y211355D01*
X907350Y201395D01*
X900330Y194375D01*
X890370Y194375D01*
X883350Y201395D01*
X883350Y211355D01*
G37*
G36*
X629350Y109760D02*
X636370Y116780D01*
X646330Y116780D01*
X653350Y109760D01*
X653350Y99800D01*
X646330Y92780D01*
X636370Y92780D01*
X629350Y99800D01*
X629350Y109760D01*
G37*
G36*
X629350Y236755D02*
X636370Y243775D01*
X646330Y243775D01*
X653350Y236755D01*
X653350Y226795D01*
X646330Y219775D01*
X636370Y219775D01*
X629350Y226795D01*
X629350Y236755D01*
G37*
G36*
X629350Y312955D02*
X636370Y319975D01*
X646330Y319975D01*
X653350Y312955D01*
X653350Y302995D01*
X646330Y295975D01*
X636370Y295975D01*
X629350Y302995D01*
X629350Y312955D01*
G37*
X717550Y206375D02*
G54D12*
D03*
X666750Y307975D02*
G54D12*
D03*
X742950Y130175D02*
G54D12*
D03*
X895350Y155580D02*
G54D12*
D03*
X692150Y130175D02*
G54D11*
D03*
X692150Y155575D02*
G54D11*
D03*
G36*
X629350Y185955D02*
X636370Y192975D01*
X646330Y192975D01*
X653350Y185955D01*
X653350Y175995D01*
X646330Y168975D01*
X636370Y168975D01*
X629350Y175995D01*
X629350Y185955D01*
G37*
G36*
X756350Y109755D02*
X763370Y116775D01*
X773330Y116775D01*
X780350Y109755D01*
X780350Y99795D01*
X773330Y92775D01*
X763370Y92775D01*
X756350Y99795D01*
X756350Y109755D01*
G37*
X895350Y282575D02*
G54D13*
D03*
X895350Y257175D02*
G54D13*
D03*
X895350Y282575D02*
G54D13*
D03*
X869950Y231775D02*
G54D11*
D03*
X895350Y231775D02*
G54D11*
D03*
G36*
X730950Y109755D02*
X737970Y116775D01*
X747930Y116775D01*
X754950Y109755D01*
X754950Y99795D01*
X747930Y92775D01*
X737970Y92775D01*
X730950Y99795D01*
X730950Y109755D01*
G37*
G36*
X705550Y109755D02*
X712570Y116775D01*
X722530Y116775D01*
X729550Y109755D01*
X729550Y99795D01*
X722530Y92775D01*
X712570Y92775D01*
X705550Y99795D01*
X705550Y109755D01*
G37*
X844550Y104775D02*
G54D14*
D03*
X869950Y104775D02*
G54D14*
D03*
X895350Y104780D02*
G54D14*
D03*
X793750Y104775D02*
G54D11*
D03*
X819150Y104775D02*
G54D11*
D03*
X692150Y130175D02*
G54D11*
D03*
X692150Y104775D02*
G54D11*
D03*
X692150Y104780D02*
G54D12*
D03*
X869950Y206375D02*
G54D11*
D03*
X869950Y155575D02*
G54D11*
D03*
X692150Y206375D02*
G54D12*
D03*
G36*
X883350Y363755D02*
X890370Y370775D01*
X900330Y370775D01*
X907350Y363755D01*
X907350Y353795D01*
X900330Y346775D01*
X890370Y346775D01*
X883350Y353795D01*
X883350Y363755D01*
G37*
G36*
X883350Y338355D02*
X890370Y345375D01*
X900330Y345375D01*
X907350Y338355D01*
X907350Y328395D01*
X900330Y321375D01*
X890370Y321375D01*
X883350Y328395D01*
X883350Y338355D01*
G37*
G36*
X883350Y312955D02*
X890370Y319975D01*
X900330Y319975D01*
X907350Y312955D01*
X907350Y302995D01*
X900330Y295975D01*
X890370Y295975D01*
X883350Y302995D01*
X883350Y312955D01*
G37*
X844550Y155575D02*
G54D11*
D03*
X844550Y130175D02*
G54D11*
D03*
X793750Y104775D02*
G54D12*
D03*
G36*
X629350Y160560D02*
X636370Y167580D01*
X646330Y167580D01*
X653350Y160560D01*
X653350Y150600D01*
X646330Y143580D01*
X636370Y143580D01*
X629350Y150600D01*
X629350Y160560D01*
G37*
G36*
X629350Y135155D02*
X636370Y142175D01*
X646330Y142175D01*
X653350Y135155D01*
X653350Y125195D01*
X646330Y118175D01*
X636370Y118175D01*
X629350Y125195D01*
X629350Y135155D01*
G37*
G36*
X629350Y262155D02*
X636370Y269175D01*
X646330Y269175D01*
X653350Y262155D01*
X653350Y252195D01*
X646330Y245175D01*
X636370Y245175D01*
X629350Y252195D01*
X629350Y262155D01*
G37*
X774700Y257175D02*
G54D11*
D03*
X774700Y231775D02*
G54D11*
D03*
X774700Y257170D02*
G54D12*
D03*
X704850Y292100D02*
G54D14*
D03*
X730250Y292100D02*
G54D14*
D03*
X723900Y254000D02*
G54D15*
D03*
X736600Y266700D02*
G54D15*
D03*
X749300Y254000D02*
G54D15*
D03*
G36*
X762700Y290730D02*
X769720Y297750D01*
X779680Y297750D01*
X786700Y290730D01*
X786700Y280770D01*
X779680Y273750D01*
X769720Y273750D01*
X762700Y280770D01*
X762700Y290730D01*
G37*
G36*
X762700Y316130D02*
X769720Y323150D01*
X779680Y323150D01*
X786700Y316130D01*
X786700Y306170D01*
X779680Y299150D01*
X769720Y299150D01*
X762700Y306170D01*
X762700Y316130D01*
G37*
X819150Y251775D02*
G54D13*
D03*
X819150Y231775D02*
G54D13*
D03*
X819150Y251780D02*
G54D13*
D03*
X704850Y292100D02*
G54D14*
D03*
G36*
X788100Y316130D02*
X795120Y323150D01*
X805080Y323150D01*
X812100Y316130D01*
X812100Y306170D01*
X805080Y299150D01*
X795120Y299150D01*
X788100Y306170D01*
X788100Y316130D01*
G37*
X864336Y298166D02*
G54D13*
D03*
X850194Y312308D02*
G54D13*
D03*
X864340Y298170D02*
G54D13*
D03*
X736600Y266700D02*
G54D15*
D03*
X692150Y257175D02*
G54D11*
D03*
X666750Y257175D02*
G54D11*
D03*
G36*
X629350Y211355D02*
X636370Y218375D01*
X646330Y218375D01*
X653350Y211355D01*
X653350Y201395D01*
X646330Y194375D01*
X636370Y194375D01*
X629350Y201395D01*
X629350Y211355D01*
G37*
M02*
