%FSLAX34Y34*%
%MOMM*%
%LNSOLDERMASK_BOTTOM*%
G71*
G01*
%ADD10C, 2.00*%
%ADD11C, 2.40*%
%ADD12C, 2.40*%
%ADD13C, 0.31*%
%ADD14C, 2.20*%
%ADD15C, 2.40*%
%ADD16C, 2.00*%
%LPD*%
G36*
X143350Y825975D02*
X143350Y805975D01*
X123350Y805975D01*
X123350Y825975D01*
X143350Y825975D01*
G37*
X133350Y790575D02*
G54D10*
D03*
X133350Y765175D02*
G54D10*
D03*
X133350Y739775D02*
G54D10*
D03*
X209550Y739775D02*
G54D10*
D03*
X209550Y765175D02*
G54D10*
D03*
X209550Y790575D02*
G54D10*
D03*
X209550Y815975D02*
G54D10*
D03*
X57150Y917575D02*
G54D11*
D03*
X57150Y892175D02*
G54D11*
D03*
X82550Y790575D02*
G54D11*
D03*
X107950Y815975D02*
G54D11*
D03*
X57150Y815975D02*
G54D11*
D03*
G36*
X19750Y897155D02*
X26770Y904175D01*
X36730Y904175D01*
X43750Y897155D01*
X43750Y887195D01*
X36730Y880175D01*
X26770Y880175D01*
X19750Y887195D01*
X19750Y897155D01*
G37*
G36*
X19750Y922555D02*
X26770Y929575D01*
X36730Y929575D01*
X43750Y922555D01*
X43750Y912595D01*
X36730Y905575D01*
X26770Y905575D01*
X19750Y912595D01*
X19750Y922555D01*
G37*
G36*
X19750Y947955D02*
X26770Y954975D01*
X36730Y954975D01*
X43750Y947955D01*
X43750Y937995D01*
X36730Y930975D01*
X26770Y930975D01*
X19750Y937995D01*
X19750Y947955D01*
G37*
G36*
X19750Y973355D02*
X26770Y980375D01*
X36730Y980375D01*
X43750Y973355D01*
X43750Y963395D01*
X36730Y956375D01*
X26770Y956375D01*
X19750Y963395D01*
X19750Y973355D01*
G37*
G36*
X273750Y744755D02*
X280770Y751775D01*
X290730Y751775D01*
X297750Y744755D01*
X297750Y734795D01*
X290730Y727775D01*
X280770Y727775D01*
X273750Y734795D01*
X273750Y744755D01*
G37*
G36*
X273750Y770155D02*
X280770Y777175D01*
X290730Y777175D01*
X297750Y770155D01*
X297750Y760195D01*
X290730Y753175D01*
X280770Y753175D01*
X273750Y760195D01*
X273750Y770155D01*
G37*
G36*
X273750Y795555D02*
X280770Y802575D01*
X290730Y802575D01*
X297750Y795555D01*
X297750Y785595D01*
X290730Y778575D01*
X280770Y778575D01*
X273750Y785595D01*
X273750Y795555D01*
G37*
G36*
X273750Y820955D02*
X280770Y827975D01*
X290730Y827975D01*
X297750Y820955D01*
X297750Y810995D01*
X290730Y803975D01*
X280770Y803975D01*
X273750Y810995D01*
X273750Y820955D01*
G37*
G36*
X19750Y719360D02*
X26770Y726380D01*
X36730Y726380D01*
X43750Y719360D01*
X43750Y709400D01*
X36730Y702380D01*
X26770Y702380D01*
X19750Y709400D01*
X19750Y719360D01*
G37*
G36*
X19750Y846355D02*
X26770Y853375D01*
X36730Y853375D01*
X43750Y846355D01*
X43750Y836395D01*
X36730Y829375D01*
X26770Y829375D01*
X19750Y836395D01*
X19750Y846355D01*
G37*
G36*
X19750Y922555D02*
X26770Y929575D01*
X36730Y929575D01*
X43750Y922555D01*
X43750Y912595D01*
X36730Y905575D01*
X26770Y905575D01*
X19750Y912595D01*
X19750Y922555D01*
G37*
X107950Y815975D02*
G54D12*
D03*
X57150Y917575D02*
G54D12*
D03*
X133350Y739775D02*
G54D12*
D03*
X285750Y765180D02*
G54D12*
D03*
X82550Y739775D02*
G54D11*
D03*
X82550Y765175D02*
G54D11*
D03*
G36*
X19750Y795555D02*
X26770Y802575D01*
X36730Y802575D01*
X43750Y795555D01*
X43750Y785595D01*
X36730Y778575D01*
X26770Y778575D01*
X19750Y785595D01*
X19750Y795555D01*
G37*
G36*
X146750Y719355D02*
X153770Y726375D01*
X163730Y726375D01*
X170750Y719355D01*
X170750Y709395D01*
X163730Y702375D01*
X153770Y702375D01*
X146750Y709395D01*
X146750Y719355D01*
G37*
G54D13*
X268288Y977900D02*
X264954Y986789D01*
X261621Y977900D01*
G54D13*
X266954Y981233D02*
X262954Y981233D01*
G54D13*
X256510Y977900D02*
X256510Y986789D01*
G54D13*
X259176Y986789D02*
X253843Y986789D01*
G54D13*
X248733Y977900D02*
X248733Y986789D01*
G54D13*
X251400Y986789D02*
X246066Y986789D01*
G54D13*
X243622Y977900D02*
X243622Y986789D01*
G54D13*
X241178Y977900D02*
X241178Y986789D01*
X235845Y977900D01*
X235845Y986789D01*
G54D13*
X233402Y986789D02*
X230068Y982344D01*
X230068Y977900D01*
G54D13*
X230068Y982344D02*
X226735Y986789D01*
G54D13*
X218957Y977900D02*
X224290Y977900D01*
X224290Y978456D01*
X223624Y979567D01*
X219624Y982900D01*
X218957Y984011D01*
X218957Y985122D01*
X219624Y986233D01*
X220957Y986789D01*
X222290Y986789D01*
X223624Y986233D01*
X224290Y985122D01*
G54D13*
X211180Y986789D02*
X216514Y986789D01*
X216514Y982900D01*
X215847Y982900D01*
X214514Y983456D01*
X213180Y983456D01*
X211847Y982900D01*
X211180Y981789D01*
X211180Y979567D01*
X211847Y978456D01*
X213180Y977900D01*
X214514Y977900D01*
X215847Y978456D01*
X216514Y979567D01*
G54D13*
X208736Y977900D02*
X203403Y986789D01*
G54D13*
X196960Y977900D02*
X196960Y986789D01*
X200960Y981233D01*
X200960Y980122D01*
X195626Y980122D01*
G54D13*
X187849Y986789D02*
X193182Y986789D01*
X193182Y982900D01*
X192516Y982900D01*
X191182Y983456D01*
X189849Y983456D01*
X188516Y982900D01*
X187849Y981789D01*
X187849Y979567D01*
X188516Y978456D01*
X189849Y977900D01*
X191182Y977900D01*
X192516Y978456D01*
X193182Y979567D01*
G54D13*
X185406Y977900D02*
X180072Y986789D01*
G54D13*
X174295Y982344D02*
X175628Y982344D01*
X176962Y982900D01*
X177628Y984011D01*
X177628Y985122D01*
X176962Y986233D01*
X175628Y986789D01*
X174295Y986789D01*
X172962Y986233D01*
X172295Y985122D01*
X172295Y984011D01*
X172962Y982900D01*
X174295Y982344D01*
X172962Y981789D01*
X172295Y980678D01*
X172295Y979567D01*
X172962Y978456D01*
X174295Y977900D01*
X175628Y977900D01*
X176962Y978456D01*
X177628Y979567D01*
X177628Y980678D01*
X176962Y981789D01*
X175628Y982344D01*
G54D13*
X164518Y986789D02*
X169852Y986789D01*
X169852Y982900D01*
X169185Y982900D01*
X167852Y983456D01*
X166518Y983456D01*
X165185Y982900D01*
X164518Y981789D01*
X164518Y979567D01*
X165185Y978456D01*
X166518Y977900D01*
X167852Y977900D01*
X169185Y978456D01*
X169852Y979567D01*
G54D13*
X159498Y977900D02*
X159498Y986789D01*
X156164Y986789D01*
X154831Y986233D01*
X154164Y985122D01*
X154164Y984011D01*
X154831Y982900D01*
X156164Y982344D01*
X154831Y981789D01*
X154164Y980678D01*
X154164Y979567D01*
X154831Y978456D01*
X156164Y977900D01*
X159498Y977900D01*
G54D13*
X159498Y982344D02*
X156164Y982344D01*
G54D13*
X151720Y977900D02*
X151720Y982900D01*
G54D13*
X151720Y981789D02*
X150387Y982900D01*
X149054Y982900D01*
G54D13*
X142610Y978456D02*
X143676Y977900D01*
X145010Y977900D01*
X146343Y978456D01*
X146610Y979567D01*
X146610Y981456D01*
X145943Y982567D01*
X144610Y982900D01*
X143276Y982567D01*
X142610Y981789D01*
X142610Y980678D01*
X146610Y980678D01*
G54D13*
X140166Y982344D02*
X138832Y982900D01*
X137232Y982900D01*
X136166Y981789D01*
X136166Y977900D01*
G54D13*
X136166Y979567D02*
X136832Y980678D01*
X138166Y980900D01*
X139499Y980678D01*
X140166Y979567D01*
X139899Y978456D01*
X138832Y977900D01*
X138166Y977900D01*
X137899Y977900D01*
X136832Y978456D01*
X136166Y979567D01*
G54D13*
X133722Y977900D02*
X133722Y986789D01*
G54D13*
X131722Y981233D02*
X129722Y977900D01*
G54D13*
X133722Y980122D02*
X129722Y982900D01*
G54D13*
X123278Y979233D02*
X123278Y981456D01*
X123944Y982567D01*
X125278Y982900D01*
X126611Y982567D01*
X127278Y981456D01*
X127278Y979233D01*
X126611Y978122D01*
X125278Y977900D01*
X123944Y978122D01*
X123278Y979233D01*
G54D13*
X116834Y982900D02*
X116834Y977900D01*
G54D13*
X116834Y979011D02*
X117500Y978122D01*
X118834Y977900D01*
X120167Y978122D01*
X120834Y979011D01*
X120834Y982900D01*
G54D13*
X113056Y986789D02*
X113056Y978456D01*
X112390Y977900D01*
X111723Y978122D01*
G54D13*
X114390Y982900D02*
X111723Y982900D01*
G54D13*
X106702Y977900D02*
X106702Y986789D01*
X103368Y986789D01*
X102035Y986233D01*
X101368Y985122D01*
X101368Y984011D01*
X102035Y982900D01*
X103368Y982344D01*
X106702Y982344D01*
G54D13*
X93591Y979567D02*
X94258Y978456D01*
X95591Y977900D01*
X96924Y977900D01*
X98258Y978456D01*
X98924Y979567D01*
X98924Y985122D01*
X98258Y986233D01*
X96924Y986789D01*
X95591Y986789D01*
X94258Y986233D01*
X93591Y985122D01*
G54D13*
X91148Y977900D02*
X91148Y986789D01*
X87814Y986789D01*
X86481Y986233D01*
X85814Y985122D01*
X85814Y984011D01*
X86481Y982900D01*
X87814Y982344D01*
X86481Y981789D01*
X85814Y980678D01*
X85814Y979567D01*
X86481Y978456D01*
X87814Y977900D01*
X91148Y977900D01*
G54D13*
X91148Y982344D02*
X87814Y982344D01*
X285750Y892175D02*
G54D14*
D03*
X285750Y866775D02*
G54D14*
D03*
X285750Y892175D02*
G54D14*
D03*
X260350Y841375D02*
G54D11*
D03*
X285750Y841375D02*
G54D11*
D03*
G36*
X121350Y719355D02*
X128370Y726375D01*
X138330Y726375D01*
X145350Y719355D01*
X145350Y709395D01*
X138330Y702375D01*
X128370Y702375D01*
X121350Y709395D01*
X121350Y719355D01*
G37*
G36*
X95950Y719355D02*
X102970Y726375D01*
X112930Y726375D01*
X119950Y719355D01*
X119950Y709395D01*
X112930Y702375D01*
X102970Y702375D01*
X95950Y709395D01*
X95950Y719355D01*
G37*
X234950Y714375D02*
G54D15*
D03*
X260350Y714375D02*
G54D15*
D03*
X285750Y714380D02*
G54D15*
D03*
X184150Y714375D02*
G54D11*
D03*
X209550Y714375D02*
G54D11*
D03*
X82550Y739775D02*
G54D11*
D03*
X82550Y714375D02*
G54D11*
D03*
X82550Y714380D02*
G54D12*
D03*
X260350Y815975D02*
G54D11*
D03*
X260350Y765175D02*
G54D11*
D03*
X82550Y815975D02*
G54D12*
D03*
G36*
X273750Y973355D02*
X280770Y980375D01*
X290730Y980375D01*
X297750Y973355D01*
X297750Y963395D01*
X290730Y956375D01*
X280770Y956375D01*
X273750Y963395D01*
X273750Y973355D01*
G37*
G36*
X273750Y947955D02*
X280770Y954975D01*
X290730Y954975D01*
X297750Y947955D01*
X297750Y937995D01*
X290730Y930975D01*
X280770Y930975D01*
X273750Y937995D01*
X273750Y947955D01*
G37*
G36*
X273750Y922555D02*
X280770Y929575D01*
X290730Y929575D01*
X297750Y922555D01*
X297750Y912595D01*
X290730Y905575D01*
X280770Y905575D01*
X273750Y912595D01*
X273750Y922555D01*
G37*
X234950Y765175D02*
G54D11*
D03*
X234950Y739775D02*
G54D11*
D03*
X184150Y714375D02*
G54D12*
D03*
G36*
X19750Y770160D02*
X26770Y777180D01*
X36730Y777180D01*
X43750Y770160D01*
X43750Y760200D01*
X36730Y753180D01*
X26770Y753180D01*
X19750Y760200D01*
X19750Y770160D01*
G37*
G36*
X19750Y744755D02*
X26770Y751775D01*
X36730Y751775D01*
X43750Y744755D01*
X43750Y734795D01*
X36730Y727775D01*
X26770Y727775D01*
X19750Y734795D01*
X19750Y744755D01*
G37*
G36*
X19750Y871755D02*
X26770Y878775D01*
X36730Y878775D01*
X43750Y871755D01*
X43750Y861795D01*
X36730Y854775D01*
X26770Y854775D01*
X19750Y861795D01*
X19750Y871755D01*
G37*
X165100Y866775D02*
G54D11*
D03*
X165100Y841375D02*
G54D11*
D03*
X165100Y866770D02*
G54D12*
D03*
X95250Y901700D02*
G54D15*
D03*
X120650Y901700D02*
G54D15*
D03*
X114300Y863600D02*
G54D16*
D03*
X127000Y876300D02*
G54D16*
D03*
X139700Y863600D02*
G54D16*
D03*
G36*
X153100Y900330D02*
X160120Y907350D01*
X170080Y907350D01*
X177100Y900330D01*
X177100Y890370D01*
X170080Y883350D01*
X160120Y883350D01*
X153100Y890370D01*
X153100Y900330D01*
G37*
G36*
X153100Y925730D02*
X160120Y932750D01*
X170080Y932750D01*
X177100Y925730D01*
X177100Y915770D01*
X170080Y908750D01*
X160120Y908750D01*
X153100Y915770D01*
X153100Y925730D01*
G37*
X209550Y861375D02*
G54D14*
D03*
X209550Y841375D02*
G54D14*
D03*
X209550Y861380D02*
G54D14*
D03*
X95250Y901700D02*
G54D15*
D03*
G36*
X178500Y925730D02*
X185520Y932750D01*
X195480Y932750D01*
X202500Y925730D01*
X202500Y915770D01*
X195480Y908750D01*
X185520Y908750D01*
X178500Y915770D01*
X178500Y925730D01*
G37*
X254736Y907766D02*
G54D14*
D03*
X240594Y921908D02*
G54D14*
D03*
X254740Y907770D02*
G54D14*
D03*
X127000Y876300D02*
G54D16*
D03*
X82550Y866775D02*
G54D11*
D03*
X57150Y866775D02*
G54D11*
D03*
G36*
X19750Y820955D02*
X26770Y827975D01*
X36730Y827975D01*
X43750Y820955D01*
X43750Y810995D01*
X36730Y803975D01*
X26770Y803975D01*
X19750Y810995D01*
X19750Y820955D01*
G37*
G36*
X448150Y825975D02*
X448150Y805975D01*
X428150Y805975D01*
X428150Y825975D01*
X448150Y825975D01*
G37*
X438150Y790575D02*
G54D10*
D03*
X438150Y765175D02*
G54D10*
D03*
X438150Y739775D02*
G54D10*
D03*
X514350Y739775D02*
G54D10*
D03*
X514350Y765175D02*
G54D10*
D03*
X514350Y790575D02*
G54D10*
D03*
X514350Y815975D02*
G54D10*
D03*
X361950Y917575D02*
G54D11*
D03*
X361950Y892175D02*
G54D11*
D03*
X387350Y790575D02*
G54D11*
D03*
X412750Y815975D02*
G54D11*
D03*
X361950Y815975D02*
G54D11*
D03*
G36*
X324550Y897155D02*
X331570Y904175D01*
X341530Y904175D01*
X348550Y897155D01*
X348550Y887195D01*
X341530Y880175D01*
X331570Y880175D01*
X324550Y887195D01*
X324550Y897155D01*
G37*
G36*
X324550Y922555D02*
X331570Y929575D01*
X341530Y929575D01*
X348550Y922555D01*
X348550Y912595D01*
X341530Y905575D01*
X331570Y905575D01*
X324550Y912595D01*
X324550Y922555D01*
G37*
G36*
X324550Y947955D02*
X331570Y954975D01*
X341530Y954975D01*
X348550Y947955D01*
X348550Y937995D01*
X341530Y930975D01*
X331570Y930975D01*
X324550Y937995D01*
X324550Y947955D01*
G37*
G36*
X324550Y973355D02*
X331570Y980375D01*
X341530Y980375D01*
X348550Y973355D01*
X348550Y963395D01*
X341530Y956375D01*
X331570Y956375D01*
X324550Y963395D01*
X324550Y973355D01*
G37*
G36*
X578550Y744755D02*
X585570Y751775D01*
X595530Y751775D01*
X602550Y744755D01*
X602550Y734795D01*
X595530Y727775D01*
X585570Y727775D01*
X578550Y734795D01*
X578550Y744755D01*
G37*
G36*
X578550Y770155D02*
X585570Y777175D01*
X595530Y777175D01*
X602550Y770155D01*
X602550Y760195D01*
X595530Y753175D01*
X585570Y753175D01*
X578550Y760195D01*
X578550Y770155D01*
G37*
G36*
X578550Y795555D02*
X585570Y802575D01*
X595530Y802575D01*
X602550Y795555D01*
X602550Y785595D01*
X595530Y778575D01*
X585570Y778575D01*
X578550Y785595D01*
X578550Y795555D01*
G37*
G36*
X578550Y820955D02*
X585570Y827975D01*
X595530Y827975D01*
X602550Y820955D01*
X602550Y810995D01*
X595530Y803975D01*
X585570Y803975D01*
X578550Y810995D01*
X578550Y820955D01*
G37*
G36*
X324550Y719360D02*
X331570Y726380D01*
X341530Y726380D01*
X348550Y719360D01*
X348550Y709400D01*
X341530Y702380D01*
X331570Y702380D01*
X324550Y709400D01*
X324550Y719360D01*
G37*
G36*
X324550Y846355D02*
X331570Y853375D01*
X341530Y853375D01*
X348550Y846355D01*
X348550Y836395D01*
X341530Y829375D01*
X331570Y829375D01*
X324550Y836395D01*
X324550Y846355D01*
G37*
G36*
X324550Y922555D02*
X331570Y929575D01*
X341530Y929575D01*
X348550Y922555D01*
X348550Y912595D01*
X341530Y905575D01*
X331570Y905575D01*
X324550Y912595D01*
X324550Y922555D01*
G37*
X412750Y815975D02*
G54D12*
D03*
X361950Y917575D02*
G54D12*
D03*
X438150Y739775D02*
G54D12*
D03*
X590550Y765180D02*
G54D12*
D03*
X387350Y739775D02*
G54D11*
D03*
X387350Y765175D02*
G54D11*
D03*
G36*
X324550Y795555D02*
X331570Y802575D01*
X341530Y802575D01*
X348550Y795555D01*
X348550Y785595D01*
X341530Y778575D01*
X331570Y778575D01*
X324550Y785595D01*
X324550Y795555D01*
G37*
G36*
X451550Y719355D02*
X458570Y726375D01*
X468530Y726375D01*
X475550Y719355D01*
X475550Y709395D01*
X468530Y702375D01*
X458570Y702375D01*
X451550Y709395D01*
X451550Y719355D01*
G37*
G54D13*
X573088Y977900D02*
X569754Y986789D01*
X566421Y977900D01*
G54D13*
X571754Y981233D02*
X567754Y981233D01*
G54D13*
X561310Y977900D02*
X561310Y986789D01*
G54D13*
X563976Y986789D02*
X558643Y986789D01*
G54D13*
X553533Y977900D02*
X553533Y986789D01*
G54D13*
X556200Y986789D02*
X550866Y986789D01*
G54D13*
X548422Y977900D02*
X548422Y986789D01*
G54D13*
X545978Y977900D02*
X545978Y986789D01*
X540645Y977900D01*
X540645Y986789D01*
G54D13*
X538202Y986789D02*
X534868Y982344D01*
X534868Y977900D01*
G54D13*
X534868Y982344D02*
X531535Y986789D01*
G54D13*
X523757Y977900D02*
X529090Y977900D01*
X529090Y978456D01*
X528424Y979567D01*
X524424Y982900D01*
X523757Y984011D01*
X523757Y985122D01*
X524424Y986233D01*
X525757Y986789D01*
X527090Y986789D01*
X528424Y986233D01*
X529090Y985122D01*
G54D13*
X515980Y986789D02*
X521314Y986789D01*
X521314Y982900D01*
X520647Y982900D01*
X519314Y983456D01*
X517980Y983456D01*
X516647Y982900D01*
X515980Y981789D01*
X515980Y979567D01*
X516647Y978456D01*
X517980Y977900D01*
X519314Y977900D01*
X520647Y978456D01*
X521314Y979567D01*
G54D13*
X513536Y977900D02*
X508203Y986789D01*
G54D13*
X501760Y977900D02*
X501760Y986789D01*
X505760Y981233D01*
X505760Y980122D01*
X500426Y980122D01*
G54D13*
X492649Y986789D02*
X497982Y986789D01*
X497982Y982900D01*
X497316Y982900D01*
X495982Y983456D01*
X494649Y983456D01*
X493316Y982900D01*
X492649Y981789D01*
X492649Y979567D01*
X493316Y978456D01*
X494649Y977900D01*
X495982Y977900D01*
X497316Y978456D01*
X497982Y979567D01*
G54D13*
X490206Y977900D02*
X484872Y986789D01*
G54D13*
X479095Y982344D02*
X480428Y982344D01*
X481762Y982900D01*
X482428Y984011D01*
X482428Y985122D01*
X481762Y986233D01*
X480428Y986789D01*
X479095Y986789D01*
X477762Y986233D01*
X477095Y985122D01*
X477095Y984011D01*
X477762Y982900D01*
X479095Y982344D01*
X477762Y981789D01*
X477095Y980678D01*
X477095Y979567D01*
X477762Y978456D01*
X479095Y977900D01*
X480428Y977900D01*
X481762Y978456D01*
X482428Y979567D01*
X482428Y980678D01*
X481762Y981789D01*
X480428Y982344D01*
G54D13*
X469318Y986789D02*
X474652Y986789D01*
X474652Y982900D01*
X473985Y982900D01*
X472652Y983456D01*
X471318Y983456D01*
X469985Y982900D01*
X469318Y981789D01*
X469318Y979567D01*
X469985Y978456D01*
X471318Y977900D01*
X472652Y977900D01*
X473985Y978456D01*
X474652Y979567D01*
G54D13*
X464298Y977900D02*
X464298Y986789D01*
X460964Y986789D01*
X459631Y986233D01*
X458964Y985122D01*
X458964Y984011D01*
X459631Y982900D01*
X460964Y982344D01*
X459631Y981789D01*
X458964Y980678D01*
X458964Y979567D01*
X459631Y978456D01*
X460964Y977900D01*
X464298Y977900D01*
G54D13*
X464298Y982344D02*
X460964Y982344D01*
G54D13*
X456520Y977900D02*
X456520Y982900D01*
G54D13*
X456520Y981789D02*
X455187Y982900D01*
X453854Y982900D01*
G54D13*
X447410Y978456D02*
X448476Y977900D01*
X449810Y977900D01*
X451143Y978456D01*
X451410Y979567D01*
X451410Y981456D01*
X450743Y982567D01*
X449410Y982900D01*
X448076Y982567D01*
X447410Y981789D01*
X447410Y980678D01*
X451410Y980678D01*
G54D13*
X444966Y982344D02*
X443632Y982900D01*
X442032Y982900D01*
X440966Y981789D01*
X440966Y977900D01*
G54D13*
X440966Y979567D02*
X441632Y980678D01*
X442966Y980900D01*
X444299Y980678D01*
X444966Y979567D01*
X444699Y978456D01*
X443632Y977900D01*
X442966Y977900D01*
X442699Y977900D01*
X441632Y978456D01*
X440966Y979567D01*
G54D13*
X438522Y977900D02*
X438522Y986789D01*
G54D13*
X436522Y981233D02*
X434522Y977900D01*
G54D13*
X438522Y980122D02*
X434522Y982900D01*
G54D13*
X428078Y979233D02*
X428078Y981456D01*
X428744Y982567D01*
X430078Y982900D01*
X431411Y982567D01*
X432078Y981456D01*
X432078Y979233D01*
X431411Y978122D01*
X430078Y977900D01*
X428744Y978122D01*
X428078Y979233D01*
G54D13*
X421634Y982900D02*
X421634Y977900D01*
G54D13*
X421634Y979011D02*
X422300Y978122D01*
X423634Y977900D01*
X424967Y978122D01*
X425634Y979011D01*
X425634Y982900D01*
G54D13*
X417856Y986789D02*
X417856Y978456D01*
X417190Y977900D01*
X416523Y978122D01*
G54D13*
X419190Y982900D02*
X416523Y982900D01*
G54D13*
X411502Y977900D02*
X411502Y986789D01*
X408168Y986789D01*
X406835Y986233D01*
X406168Y985122D01*
X406168Y984011D01*
X406835Y982900D01*
X408168Y982344D01*
X411502Y982344D01*
G54D13*
X398391Y979567D02*
X399058Y978456D01*
X400391Y977900D01*
X401724Y977900D01*
X403058Y978456D01*
X403724Y979567D01*
X403724Y985122D01*
X403058Y986233D01*
X401724Y986789D01*
X400391Y986789D01*
X399058Y986233D01*
X398391Y985122D01*
G54D13*
X395948Y977900D02*
X395948Y986789D01*
X392614Y986789D01*
X391281Y986233D01*
X390614Y985122D01*
X390614Y984011D01*
X391281Y982900D01*
X392614Y982344D01*
X391281Y981789D01*
X390614Y980678D01*
X390614Y979567D01*
X391281Y978456D01*
X392614Y977900D01*
X395948Y977900D01*
G54D13*
X395948Y982344D02*
X392614Y982344D01*
X590550Y892175D02*
G54D14*
D03*
X590550Y866775D02*
G54D14*
D03*
X590550Y892175D02*
G54D14*
D03*
X565150Y841375D02*
G54D11*
D03*
X590550Y841375D02*
G54D11*
D03*
G36*
X426150Y719355D02*
X433170Y726375D01*
X443130Y726375D01*
X450150Y719355D01*
X450150Y709395D01*
X443130Y702375D01*
X433170Y702375D01*
X426150Y709395D01*
X426150Y719355D01*
G37*
G36*
X400750Y719355D02*
X407770Y726375D01*
X417730Y726375D01*
X424750Y719355D01*
X424750Y709395D01*
X417730Y702375D01*
X407770Y702375D01*
X400750Y709395D01*
X400750Y719355D01*
G37*
X539750Y714375D02*
G54D15*
D03*
X565150Y714375D02*
G54D15*
D03*
X590550Y714380D02*
G54D15*
D03*
X488950Y714375D02*
G54D11*
D03*
X514350Y714375D02*
G54D11*
D03*
X387350Y739775D02*
G54D11*
D03*
X387350Y714375D02*
G54D11*
D03*
X387350Y714380D02*
G54D12*
D03*
X565150Y815975D02*
G54D11*
D03*
X565150Y765175D02*
G54D11*
D03*
X387350Y815975D02*
G54D12*
D03*
G36*
X578550Y973355D02*
X585570Y980375D01*
X595530Y980375D01*
X602550Y973355D01*
X602550Y963395D01*
X595530Y956375D01*
X585570Y956375D01*
X578550Y963395D01*
X578550Y973355D01*
G37*
G36*
X578550Y947955D02*
X585570Y954975D01*
X595530Y954975D01*
X602550Y947955D01*
X602550Y937995D01*
X595530Y930975D01*
X585570Y930975D01*
X578550Y937995D01*
X578550Y947955D01*
G37*
G36*
X578550Y922555D02*
X585570Y929575D01*
X595530Y929575D01*
X602550Y922555D01*
X602550Y912595D01*
X595530Y905575D01*
X585570Y905575D01*
X578550Y912595D01*
X578550Y922555D01*
G37*
X539750Y765175D02*
G54D11*
D03*
X539750Y739775D02*
G54D11*
D03*
X488950Y714375D02*
G54D12*
D03*
G36*
X324550Y770160D02*
X331570Y777180D01*
X341530Y777180D01*
X348550Y770160D01*
X348550Y760200D01*
X341530Y753180D01*
X331570Y753180D01*
X324550Y760200D01*
X324550Y770160D01*
G37*
G36*
X324550Y744755D02*
X331570Y751775D01*
X341530Y751775D01*
X348550Y744755D01*
X348550Y734795D01*
X341530Y727775D01*
X331570Y727775D01*
X324550Y734795D01*
X324550Y744755D01*
G37*
G36*
X324550Y871755D02*
X331570Y878775D01*
X341530Y878775D01*
X348550Y871755D01*
X348550Y861795D01*
X341530Y854775D01*
X331570Y854775D01*
X324550Y861795D01*
X324550Y871755D01*
G37*
X469900Y866775D02*
G54D11*
D03*
X469900Y841375D02*
G54D11*
D03*
X469900Y866770D02*
G54D12*
D03*
X400050Y901700D02*
G54D15*
D03*
X425450Y901700D02*
G54D15*
D03*
X419100Y863600D02*
G54D16*
D03*
X431800Y876300D02*
G54D16*
D03*
X444500Y863600D02*
G54D16*
D03*
G36*
X457900Y900330D02*
X464920Y907350D01*
X474880Y907350D01*
X481900Y900330D01*
X481900Y890370D01*
X474880Y883350D01*
X464920Y883350D01*
X457900Y890370D01*
X457900Y900330D01*
G37*
G36*
X457900Y925730D02*
X464920Y932750D01*
X474880Y932750D01*
X481900Y925730D01*
X481900Y915770D01*
X474880Y908750D01*
X464920Y908750D01*
X457900Y915770D01*
X457900Y925730D01*
G37*
X514350Y861375D02*
G54D14*
D03*
X514350Y841375D02*
G54D14*
D03*
X514350Y861380D02*
G54D14*
D03*
X400050Y901700D02*
G54D15*
D03*
G36*
X483300Y925730D02*
X490320Y932750D01*
X500280Y932750D01*
X507300Y925730D01*
X507300Y915770D01*
X500280Y908750D01*
X490320Y908750D01*
X483300Y915770D01*
X483300Y925730D01*
G37*
X559536Y907766D02*
G54D14*
D03*
X545394Y921908D02*
G54D14*
D03*
X559540Y907770D02*
G54D14*
D03*
X431800Y876300D02*
G54D16*
D03*
X387350Y866775D02*
G54D11*
D03*
X361950Y866775D02*
G54D11*
D03*
G36*
X324550Y820955D02*
X331570Y827975D01*
X341530Y827975D01*
X348550Y820955D01*
X348550Y810995D01*
X341530Y803975D01*
X331570Y803975D01*
X324550Y810995D01*
X324550Y820955D01*
G37*
G36*
X752950Y825975D02*
X752950Y805975D01*
X732950Y805975D01*
X732950Y825975D01*
X752950Y825975D01*
G37*
X742950Y790575D02*
G54D10*
D03*
X742950Y765175D02*
G54D10*
D03*
X742950Y739775D02*
G54D10*
D03*
X819150Y739775D02*
G54D10*
D03*
X819150Y765175D02*
G54D10*
D03*
X819150Y790575D02*
G54D10*
D03*
X819150Y815975D02*
G54D10*
D03*
X666750Y917575D02*
G54D11*
D03*
X666750Y892175D02*
G54D11*
D03*
X692150Y790575D02*
G54D11*
D03*
X717550Y815975D02*
G54D11*
D03*
X666750Y815975D02*
G54D11*
D03*
G36*
X629350Y897155D02*
X636370Y904175D01*
X646330Y904175D01*
X653350Y897155D01*
X653350Y887195D01*
X646330Y880175D01*
X636370Y880175D01*
X629350Y887195D01*
X629350Y897155D01*
G37*
G36*
X629350Y922555D02*
X636370Y929575D01*
X646330Y929575D01*
X653350Y922555D01*
X653350Y912595D01*
X646330Y905575D01*
X636370Y905575D01*
X629350Y912595D01*
X629350Y922555D01*
G37*
G36*
X629350Y947955D02*
X636370Y954975D01*
X646330Y954975D01*
X653350Y947955D01*
X653350Y937995D01*
X646330Y930975D01*
X636370Y930975D01*
X629350Y937995D01*
X629350Y947955D01*
G37*
G36*
X629350Y973355D02*
X636370Y980375D01*
X646330Y980375D01*
X653350Y973355D01*
X653350Y963395D01*
X646330Y956375D01*
X636370Y956375D01*
X629350Y963395D01*
X629350Y973355D01*
G37*
G36*
X883350Y744755D02*
X890370Y751775D01*
X900330Y751775D01*
X907350Y744755D01*
X907350Y734795D01*
X900330Y727775D01*
X890370Y727775D01*
X883350Y734795D01*
X883350Y744755D01*
G37*
G36*
X883350Y770155D02*
X890370Y777175D01*
X900330Y777175D01*
X907350Y770155D01*
X907350Y760195D01*
X900330Y753175D01*
X890370Y753175D01*
X883350Y760195D01*
X883350Y770155D01*
G37*
G36*
X883350Y795555D02*
X890370Y802575D01*
X900330Y802575D01*
X907350Y795555D01*
X907350Y785595D01*
X900330Y778575D01*
X890370Y778575D01*
X883350Y785595D01*
X883350Y795555D01*
G37*
G36*
X883350Y820955D02*
X890370Y827975D01*
X900330Y827975D01*
X907350Y820955D01*
X907350Y810995D01*
X900330Y803975D01*
X890370Y803975D01*
X883350Y810995D01*
X883350Y820955D01*
G37*
G36*
X629350Y719360D02*
X636370Y726380D01*
X646330Y726380D01*
X653350Y719360D01*
X653350Y709400D01*
X646330Y702380D01*
X636370Y702380D01*
X629350Y709400D01*
X629350Y719360D01*
G37*
G36*
X629350Y846355D02*
X636370Y853375D01*
X646330Y853375D01*
X653350Y846355D01*
X653350Y836395D01*
X646330Y829375D01*
X636370Y829375D01*
X629350Y836395D01*
X629350Y846355D01*
G37*
G36*
X629350Y922555D02*
X636370Y929575D01*
X646330Y929575D01*
X653350Y922555D01*
X653350Y912595D01*
X646330Y905575D01*
X636370Y905575D01*
X629350Y912595D01*
X629350Y922555D01*
G37*
X717550Y815975D02*
G54D12*
D03*
X666750Y917575D02*
G54D12*
D03*
X742950Y739775D02*
G54D12*
D03*
X895350Y765180D02*
G54D12*
D03*
X692150Y739775D02*
G54D11*
D03*
X692150Y765175D02*
G54D11*
D03*
G36*
X629350Y795555D02*
X636370Y802575D01*
X646330Y802575D01*
X653350Y795555D01*
X653350Y785595D01*
X646330Y778575D01*
X636370Y778575D01*
X629350Y785595D01*
X629350Y795555D01*
G37*
G36*
X756350Y719355D02*
X763370Y726375D01*
X773330Y726375D01*
X780350Y719355D01*
X780350Y709395D01*
X773330Y702375D01*
X763370Y702375D01*
X756350Y709395D01*
X756350Y719355D01*
G37*
G54D13*
X877888Y977900D02*
X874554Y986789D01*
X871221Y977900D01*
G54D13*
X876554Y981233D02*
X872554Y981233D01*
G54D13*
X866110Y977900D02*
X866110Y986789D01*
G54D13*
X868776Y986789D02*
X863443Y986789D01*
G54D13*
X858333Y977900D02*
X858333Y986789D01*
G54D13*
X861000Y986789D02*
X855666Y986789D01*
G54D13*
X853222Y977900D02*
X853222Y986789D01*
G54D13*
X850778Y977900D02*
X850778Y986789D01*
X845445Y977900D01*
X845445Y986789D01*
G54D13*
X843002Y986789D02*
X839668Y982344D01*
X839668Y977900D01*
G54D13*
X839668Y982344D02*
X836335Y986789D01*
G54D13*
X828557Y977900D02*
X833890Y977900D01*
X833890Y978456D01*
X833224Y979567D01*
X829224Y982900D01*
X828557Y984011D01*
X828557Y985122D01*
X829224Y986233D01*
X830557Y986789D01*
X831890Y986789D01*
X833224Y986233D01*
X833890Y985122D01*
G54D13*
X820780Y986789D02*
X826114Y986789D01*
X826114Y982900D01*
X825447Y982900D01*
X824114Y983456D01*
X822780Y983456D01*
X821447Y982900D01*
X820780Y981789D01*
X820780Y979567D01*
X821447Y978456D01*
X822780Y977900D01*
X824114Y977900D01*
X825447Y978456D01*
X826114Y979567D01*
G54D13*
X818336Y977900D02*
X813003Y986789D01*
G54D13*
X806560Y977900D02*
X806560Y986789D01*
X810560Y981233D01*
X810560Y980122D01*
X805226Y980122D01*
G54D13*
X797449Y986789D02*
X802782Y986789D01*
X802782Y982900D01*
X802116Y982900D01*
X800782Y983456D01*
X799449Y983456D01*
X798116Y982900D01*
X797449Y981789D01*
X797449Y979567D01*
X798116Y978456D01*
X799449Y977900D01*
X800782Y977900D01*
X802116Y978456D01*
X802782Y979567D01*
G54D13*
X795006Y977900D02*
X789672Y986789D01*
G54D13*
X783895Y982344D02*
X785228Y982344D01*
X786562Y982900D01*
X787228Y984011D01*
X787228Y985122D01*
X786562Y986233D01*
X785228Y986789D01*
X783895Y986789D01*
X782562Y986233D01*
X781895Y985122D01*
X781895Y984011D01*
X782562Y982900D01*
X783895Y982344D01*
X782562Y981789D01*
X781895Y980678D01*
X781895Y979567D01*
X782562Y978456D01*
X783895Y977900D01*
X785228Y977900D01*
X786562Y978456D01*
X787228Y979567D01*
X787228Y980678D01*
X786562Y981789D01*
X785228Y982344D01*
G54D13*
X774118Y986789D02*
X779452Y986789D01*
X779452Y982900D01*
X778785Y982900D01*
X777452Y983456D01*
X776118Y983456D01*
X774785Y982900D01*
X774118Y981789D01*
X774118Y979567D01*
X774785Y978456D01*
X776118Y977900D01*
X777452Y977900D01*
X778785Y978456D01*
X779452Y979567D01*
G54D13*
X769098Y977900D02*
X769098Y986789D01*
X765764Y986789D01*
X764431Y986233D01*
X763764Y985122D01*
X763764Y984011D01*
X764431Y982900D01*
X765764Y982344D01*
X764431Y981789D01*
X763764Y980678D01*
X763764Y979567D01*
X764431Y978456D01*
X765764Y977900D01*
X769098Y977900D01*
G54D13*
X769098Y982344D02*
X765764Y982344D01*
G54D13*
X761320Y977900D02*
X761320Y982900D01*
G54D13*
X761320Y981789D02*
X759987Y982900D01*
X758654Y982900D01*
G54D13*
X752210Y978456D02*
X753276Y977900D01*
X754610Y977900D01*
X755943Y978456D01*
X756210Y979567D01*
X756210Y981456D01*
X755543Y982567D01*
X754210Y982900D01*
X752876Y982567D01*
X752210Y981789D01*
X752210Y980678D01*
X756210Y980678D01*
G54D13*
X749766Y982344D02*
X748432Y982900D01*
X746832Y982900D01*
X745766Y981789D01*
X745766Y977900D01*
G54D13*
X745766Y979567D02*
X746432Y980678D01*
X747766Y980900D01*
X749099Y980678D01*
X749766Y979567D01*
X749499Y978456D01*
X748432Y977900D01*
X747766Y977900D01*
X747499Y977900D01*
X746432Y978456D01*
X745766Y979567D01*
G54D13*
X743322Y977900D02*
X743322Y986789D01*
G54D13*
X741322Y981233D02*
X739322Y977900D01*
G54D13*
X743322Y980122D02*
X739322Y982900D01*
G54D13*
X732878Y979233D02*
X732878Y981456D01*
X733544Y982567D01*
X734878Y982900D01*
X736211Y982567D01*
X736878Y981456D01*
X736878Y979233D01*
X736211Y978122D01*
X734878Y977900D01*
X733544Y978122D01*
X732878Y979233D01*
G54D13*
X726434Y982900D02*
X726434Y977900D01*
G54D13*
X726434Y979011D02*
X727100Y978122D01*
X728434Y977900D01*
X729767Y978122D01*
X730434Y979011D01*
X730434Y982900D01*
G54D13*
X722656Y986789D02*
X722656Y978456D01*
X721990Y977900D01*
X721323Y978122D01*
G54D13*
X723990Y982900D02*
X721323Y982900D01*
G54D13*
X716302Y977900D02*
X716302Y986789D01*
X712968Y986789D01*
X711635Y986233D01*
X710968Y985122D01*
X710968Y984011D01*
X711635Y982900D01*
X712968Y982344D01*
X716302Y982344D01*
G54D13*
X703191Y979567D02*
X703858Y978456D01*
X705191Y977900D01*
X706524Y977900D01*
X707858Y978456D01*
X708524Y979567D01*
X708524Y985122D01*
X707858Y986233D01*
X706524Y986789D01*
X705191Y986789D01*
X703858Y986233D01*
X703191Y985122D01*
G54D13*
X700748Y977900D02*
X700748Y986789D01*
X697414Y986789D01*
X696081Y986233D01*
X695414Y985122D01*
X695414Y984011D01*
X696081Y982900D01*
X697414Y982344D01*
X696081Y981789D01*
X695414Y980678D01*
X695414Y979567D01*
X696081Y978456D01*
X697414Y977900D01*
X700748Y977900D01*
G54D13*
X700748Y982344D02*
X697414Y982344D01*
X895350Y892175D02*
G54D14*
D03*
X895350Y866775D02*
G54D14*
D03*
X895350Y892175D02*
G54D14*
D03*
X869950Y841375D02*
G54D11*
D03*
X895350Y841375D02*
G54D11*
D03*
G36*
X730950Y719355D02*
X737970Y726375D01*
X747930Y726375D01*
X754950Y719355D01*
X754950Y709395D01*
X747930Y702375D01*
X737970Y702375D01*
X730950Y709395D01*
X730950Y719355D01*
G37*
G36*
X705550Y719355D02*
X712570Y726375D01*
X722530Y726375D01*
X729550Y719355D01*
X729550Y709395D01*
X722530Y702375D01*
X712570Y702375D01*
X705550Y709395D01*
X705550Y719355D01*
G37*
X844550Y714375D02*
G54D15*
D03*
X869950Y714375D02*
G54D15*
D03*
X895350Y714380D02*
G54D15*
D03*
X793750Y714375D02*
G54D11*
D03*
X819150Y714375D02*
G54D11*
D03*
X692150Y739775D02*
G54D11*
D03*
X692150Y714375D02*
G54D11*
D03*
X692150Y714380D02*
G54D12*
D03*
X869950Y815975D02*
G54D11*
D03*
X869950Y765175D02*
G54D11*
D03*
X692150Y815975D02*
G54D12*
D03*
G36*
X883350Y973355D02*
X890370Y980375D01*
X900330Y980375D01*
X907350Y973355D01*
X907350Y963395D01*
X900330Y956375D01*
X890370Y956375D01*
X883350Y963395D01*
X883350Y973355D01*
G37*
G36*
X883350Y947955D02*
X890370Y954975D01*
X900330Y954975D01*
X907350Y947955D01*
X907350Y937995D01*
X900330Y930975D01*
X890370Y930975D01*
X883350Y937995D01*
X883350Y947955D01*
G37*
G36*
X883350Y922555D02*
X890370Y929575D01*
X900330Y929575D01*
X907350Y922555D01*
X907350Y912595D01*
X900330Y905575D01*
X890370Y905575D01*
X883350Y912595D01*
X883350Y922555D01*
G37*
X844550Y765175D02*
G54D11*
D03*
X844550Y739775D02*
G54D11*
D03*
X793750Y714375D02*
G54D12*
D03*
G36*
X629350Y770160D02*
X636370Y777180D01*
X646330Y777180D01*
X653350Y770160D01*
X653350Y760200D01*
X646330Y753180D01*
X636370Y753180D01*
X629350Y760200D01*
X629350Y770160D01*
G37*
G36*
X629350Y744755D02*
X636370Y751775D01*
X646330Y751775D01*
X653350Y744755D01*
X653350Y734795D01*
X646330Y727775D01*
X636370Y727775D01*
X629350Y734795D01*
X629350Y744755D01*
G37*
G36*
X629350Y871755D02*
X636370Y878775D01*
X646330Y878775D01*
X653350Y871755D01*
X653350Y861795D01*
X646330Y854775D01*
X636370Y854775D01*
X629350Y861795D01*
X629350Y871755D01*
G37*
X774700Y866775D02*
G54D11*
D03*
X774700Y841375D02*
G54D11*
D03*
X774700Y866770D02*
G54D12*
D03*
X704850Y901700D02*
G54D15*
D03*
X730250Y901700D02*
G54D15*
D03*
X723900Y863600D02*
G54D16*
D03*
X736600Y876300D02*
G54D16*
D03*
X749300Y863600D02*
G54D16*
D03*
G36*
X762700Y900330D02*
X769720Y907350D01*
X779680Y907350D01*
X786700Y900330D01*
X786700Y890370D01*
X779680Y883350D01*
X769720Y883350D01*
X762700Y890370D01*
X762700Y900330D01*
G37*
G36*
X762700Y925730D02*
X769720Y932750D01*
X779680Y932750D01*
X786700Y925730D01*
X786700Y915770D01*
X779680Y908750D01*
X769720Y908750D01*
X762700Y915770D01*
X762700Y925730D01*
G37*
X819150Y861375D02*
G54D14*
D03*
X819150Y841375D02*
G54D14*
D03*
X819150Y861380D02*
G54D14*
D03*
X704850Y901700D02*
G54D15*
D03*
G36*
X788100Y925730D02*
X795120Y932750D01*
X805080Y932750D01*
X812100Y925730D01*
X812100Y915770D01*
X805080Y908750D01*
X795120Y908750D01*
X788100Y915770D01*
X788100Y925730D01*
G37*
X864336Y907766D02*
G54D14*
D03*
X850194Y921908D02*
G54D14*
D03*
X864340Y907770D02*
G54D14*
D03*
X736600Y876300D02*
G54D16*
D03*
X692150Y866775D02*
G54D11*
D03*
X666750Y866775D02*
G54D11*
D03*
G36*
X629350Y820955D02*
X636370Y827975D01*
X646330Y827975D01*
X653350Y820955D01*
X653350Y810995D01*
X646330Y803975D01*
X636370Y803975D01*
X629350Y810995D01*
X629350Y820955D01*
G37*
G36*
X143350Y521175D02*
X143350Y501175D01*
X123350Y501175D01*
X123350Y521175D01*
X143350Y521175D01*
G37*
X133350Y485775D02*
G54D10*
D03*
X133350Y460375D02*
G54D10*
D03*
X133350Y434975D02*
G54D10*
D03*
X209550Y434975D02*
G54D10*
D03*
X209550Y460375D02*
G54D10*
D03*
X209550Y485775D02*
G54D10*
D03*
X209550Y511175D02*
G54D10*
D03*
X57150Y612775D02*
G54D11*
D03*
X57150Y587375D02*
G54D11*
D03*
X82550Y485775D02*
G54D11*
D03*
X107950Y511175D02*
G54D11*
D03*
X57150Y511175D02*
G54D11*
D03*
G36*
X19750Y592355D02*
X26770Y599375D01*
X36730Y599375D01*
X43750Y592355D01*
X43750Y582395D01*
X36730Y575375D01*
X26770Y575375D01*
X19750Y582395D01*
X19750Y592355D01*
G37*
G36*
X19750Y617755D02*
X26770Y624775D01*
X36730Y624775D01*
X43750Y617755D01*
X43750Y607795D01*
X36730Y600775D01*
X26770Y600775D01*
X19750Y607795D01*
X19750Y617755D01*
G37*
G36*
X19750Y643155D02*
X26770Y650175D01*
X36730Y650175D01*
X43750Y643155D01*
X43750Y633195D01*
X36730Y626175D01*
X26770Y626175D01*
X19750Y633195D01*
X19750Y643155D01*
G37*
G36*
X19750Y668555D02*
X26770Y675575D01*
X36730Y675575D01*
X43750Y668555D01*
X43750Y658595D01*
X36730Y651575D01*
X26770Y651575D01*
X19750Y658595D01*
X19750Y668555D01*
G37*
G36*
X273750Y439955D02*
X280770Y446975D01*
X290730Y446975D01*
X297750Y439955D01*
X297750Y429995D01*
X290730Y422975D01*
X280770Y422975D01*
X273750Y429995D01*
X273750Y439955D01*
G37*
G36*
X273750Y465355D02*
X280770Y472375D01*
X290730Y472375D01*
X297750Y465355D01*
X297750Y455395D01*
X290730Y448375D01*
X280770Y448375D01*
X273750Y455395D01*
X273750Y465355D01*
G37*
G36*
X273750Y490755D02*
X280770Y497775D01*
X290730Y497775D01*
X297750Y490755D01*
X297750Y480795D01*
X290730Y473775D01*
X280770Y473775D01*
X273750Y480795D01*
X273750Y490755D01*
G37*
G36*
X273750Y516155D02*
X280770Y523175D01*
X290730Y523175D01*
X297750Y516155D01*
X297750Y506195D01*
X290730Y499175D01*
X280770Y499175D01*
X273750Y506195D01*
X273750Y516155D01*
G37*
G36*
X19750Y414560D02*
X26770Y421580D01*
X36730Y421580D01*
X43750Y414560D01*
X43750Y404600D01*
X36730Y397580D01*
X26770Y397580D01*
X19750Y404600D01*
X19750Y414560D01*
G37*
G36*
X19750Y541555D02*
X26770Y548575D01*
X36730Y548575D01*
X43750Y541555D01*
X43750Y531595D01*
X36730Y524575D01*
X26770Y524575D01*
X19750Y531595D01*
X19750Y541555D01*
G37*
G36*
X19750Y617755D02*
X26770Y624775D01*
X36730Y624775D01*
X43750Y617755D01*
X43750Y607795D01*
X36730Y600775D01*
X26770Y600775D01*
X19750Y607795D01*
X19750Y617755D01*
G37*
X107950Y511175D02*
G54D12*
D03*
X57150Y612775D02*
G54D12*
D03*
X133350Y434975D02*
G54D12*
D03*
X285750Y460380D02*
G54D12*
D03*
X82550Y434975D02*
G54D11*
D03*
X82550Y460375D02*
G54D11*
D03*
G36*
X19750Y490755D02*
X26770Y497775D01*
X36730Y497775D01*
X43750Y490755D01*
X43750Y480795D01*
X36730Y473775D01*
X26770Y473775D01*
X19750Y480795D01*
X19750Y490755D01*
G37*
G36*
X146750Y414555D02*
X153770Y421575D01*
X163730Y421575D01*
X170750Y414555D01*
X170750Y404595D01*
X163730Y397575D01*
X153770Y397575D01*
X146750Y404595D01*
X146750Y414555D01*
G37*
G54D13*
X268288Y673100D02*
X264954Y681989D01*
X261621Y673100D01*
G54D13*
X266954Y676433D02*
X262954Y676433D01*
G54D13*
X256510Y673100D02*
X256510Y681989D01*
G54D13*
X259176Y681989D02*
X253843Y681989D01*
G54D13*
X248733Y673100D02*
X248733Y681989D01*
G54D13*
X251400Y681989D02*
X246066Y681989D01*
G54D13*
X243622Y673100D02*
X243622Y681989D01*
G54D13*
X241178Y673100D02*
X241178Y681989D01*
X235845Y673100D01*
X235845Y681989D01*
G54D13*
X233402Y681989D02*
X230068Y677544D01*
X230068Y673100D01*
G54D13*
X230068Y677544D02*
X226735Y681989D01*
G54D13*
X218957Y673100D02*
X224290Y673100D01*
X224290Y673656D01*
X223624Y674767D01*
X219624Y678100D01*
X218957Y679211D01*
X218957Y680322D01*
X219624Y681433D01*
X220957Y681989D01*
X222290Y681989D01*
X223624Y681433D01*
X224290Y680322D01*
G54D13*
X211180Y681989D02*
X216514Y681989D01*
X216514Y678100D01*
X215847Y678100D01*
X214514Y678656D01*
X213180Y678656D01*
X211847Y678100D01*
X211180Y676989D01*
X211180Y674767D01*
X211847Y673656D01*
X213180Y673100D01*
X214514Y673100D01*
X215847Y673656D01*
X216514Y674767D01*
G54D13*
X208736Y673100D02*
X203403Y681989D01*
G54D13*
X196960Y673100D02*
X196960Y681989D01*
X200960Y676433D01*
X200960Y675322D01*
X195626Y675322D01*
G54D13*
X187849Y681989D02*
X193182Y681989D01*
X193182Y678100D01*
X192516Y678100D01*
X191182Y678656D01*
X189849Y678656D01*
X188516Y678100D01*
X187849Y676989D01*
X187849Y674767D01*
X188516Y673656D01*
X189849Y673100D01*
X191182Y673100D01*
X192516Y673656D01*
X193182Y674767D01*
G54D13*
X185406Y673100D02*
X180072Y681989D01*
G54D13*
X174295Y677544D02*
X175628Y677544D01*
X176962Y678100D01*
X177628Y679211D01*
X177628Y680322D01*
X176962Y681433D01*
X175628Y681989D01*
X174295Y681989D01*
X172962Y681433D01*
X172295Y680322D01*
X172295Y679211D01*
X172962Y678100D01*
X174295Y677544D01*
X172962Y676989D01*
X172295Y675878D01*
X172295Y674767D01*
X172962Y673656D01*
X174295Y673100D01*
X175628Y673100D01*
X176962Y673656D01*
X177628Y674767D01*
X177628Y675878D01*
X176962Y676989D01*
X175628Y677544D01*
G54D13*
X164518Y681989D02*
X169852Y681989D01*
X169852Y678100D01*
X169185Y678100D01*
X167852Y678656D01*
X166518Y678656D01*
X165185Y678100D01*
X164518Y676989D01*
X164518Y674767D01*
X165185Y673656D01*
X166518Y673100D01*
X167852Y673100D01*
X169185Y673656D01*
X169852Y674767D01*
G54D13*
X159498Y673100D02*
X159498Y681989D01*
X156164Y681989D01*
X154831Y681433D01*
X154164Y680322D01*
X154164Y679211D01*
X154831Y678100D01*
X156164Y677544D01*
X154831Y676989D01*
X154164Y675878D01*
X154164Y674767D01*
X154831Y673656D01*
X156164Y673100D01*
X159498Y673100D01*
G54D13*
X159498Y677544D02*
X156164Y677544D01*
G54D13*
X151720Y673100D02*
X151720Y678100D01*
G54D13*
X151720Y676989D02*
X150387Y678100D01*
X149054Y678100D01*
G54D13*
X142610Y673656D02*
X143676Y673100D01*
X145010Y673100D01*
X146343Y673656D01*
X146610Y674767D01*
X146610Y676656D01*
X145943Y677767D01*
X144610Y678100D01*
X143276Y677767D01*
X142610Y676989D01*
X142610Y675878D01*
X146610Y675878D01*
G54D13*
X140166Y677544D02*
X138832Y678100D01*
X137232Y678100D01*
X136166Y676989D01*
X136166Y673100D01*
G54D13*
X136166Y674767D02*
X136832Y675878D01*
X138166Y676100D01*
X139499Y675878D01*
X140166Y674767D01*
X139899Y673656D01*
X138832Y673100D01*
X138166Y673100D01*
X137899Y673100D01*
X136832Y673656D01*
X136166Y674767D01*
G54D13*
X133722Y673100D02*
X133722Y681989D01*
G54D13*
X131722Y676433D02*
X129722Y673100D01*
G54D13*
X133722Y675322D02*
X129722Y678100D01*
G54D13*
X123278Y674433D02*
X123278Y676656D01*
X123944Y677767D01*
X125278Y678100D01*
X126611Y677767D01*
X127278Y676656D01*
X127278Y674433D01*
X126611Y673322D01*
X125278Y673100D01*
X123944Y673322D01*
X123278Y674433D01*
G54D13*
X116834Y678100D02*
X116834Y673100D01*
G54D13*
X116834Y674211D02*
X117500Y673322D01*
X118834Y673100D01*
X120167Y673322D01*
X120834Y674211D01*
X120834Y678100D01*
G54D13*
X113056Y681989D02*
X113056Y673656D01*
X112390Y673100D01*
X111723Y673322D01*
G54D13*
X114390Y678100D02*
X111723Y678100D01*
G54D13*
X106702Y673100D02*
X106702Y681989D01*
X103368Y681989D01*
X102035Y681433D01*
X101368Y680322D01*
X101368Y679211D01*
X102035Y678100D01*
X103368Y677544D01*
X106702Y677544D01*
G54D13*
X93591Y674767D02*
X94258Y673656D01*
X95591Y673100D01*
X96924Y673100D01*
X98258Y673656D01*
X98924Y674767D01*
X98924Y680322D01*
X98258Y681433D01*
X96924Y681989D01*
X95591Y681989D01*
X94258Y681433D01*
X93591Y680322D01*
G54D13*
X91148Y673100D02*
X91148Y681989D01*
X87814Y681989D01*
X86481Y681433D01*
X85814Y680322D01*
X85814Y679211D01*
X86481Y678100D01*
X87814Y677544D01*
X86481Y676989D01*
X85814Y675878D01*
X85814Y674767D01*
X86481Y673656D01*
X87814Y673100D01*
X91148Y673100D01*
G54D13*
X91148Y677544D02*
X87814Y677544D01*
X285750Y587375D02*
G54D14*
D03*
X285750Y561975D02*
G54D14*
D03*
X285750Y587375D02*
G54D14*
D03*
X260350Y536575D02*
G54D11*
D03*
X285750Y536575D02*
G54D11*
D03*
G36*
X121350Y414555D02*
X128370Y421575D01*
X138330Y421575D01*
X145350Y414555D01*
X145350Y404595D01*
X138330Y397575D01*
X128370Y397575D01*
X121350Y404595D01*
X121350Y414555D01*
G37*
G36*
X95950Y414555D02*
X102970Y421575D01*
X112930Y421575D01*
X119950Y414555D01*
X119950Y404595D01*
X112930Y397575D01*
X102970Y397575D01*
X95950Y404595D01*
X95950Y414555D01*
G37*
X234950Y409575D02*
G54D15*
D03*
X260350Y409575D02*
G54D15*
D03*
X285750Y409580D02*
G54D15*
D03*
X184150Y409575D02*
G54D11*
D03*
X209550Y409575D02*
G54D11*
D03*
X82550Y434975D02*
G54D11*
D03*
X82550Y409575D02*
G54D11*
D03*
X82550Y409580D02*
G54D12*
D03*
X260350Y511175D02*
G54D11*
D03*
X260350Y460375D02*
G54D11*
D03*
X82550Y511175D02*
G54D12*
D03*
G36*
X273750Y668555D02*
X280770Y675575D01*
X290730Y675575D01*
X297750Y668555D01*
X297750Y658595D01*
X290730Y651575D01*
X280770Y651575D01*
X273750Y658595D01*
X273750Y668555D01*
G37*
G36*
X273750Y643155D02*
X280770Y650175D01*
X290730Y650175D01*
X297750Y643155D01*
X297750Y633195D01*
X290730Y626175D01*
X280770Y626175D01*
X273750Y633195D01*
X273750Y643155D01*
G37*
G36*
X273750Y617755D02*
X280770Y624775D01*
X290730Y624775D01*
X297750Y617755D01*
X297750Y607795D01*
X290730Y600775D01*
X280770Y600775D01*
X273750Y607795D01*
X273750Y617755D01*
G37*
X234950Y460375D02*
G54D11*
D03*
X234950Y434975D02*
G54D11*
D03*
X184150Y409575D02*
G54D12*
D03*
G36*
X19750Y465360D02*
X26770Y472380D01*
X36730Y472380D01*
X43750Y465360D01*
X43750Y455400D01*
X36730Y448380D01*
X26770Y448380D01*
X19750Y455400D01*
X19750Y465360D01*
G37*
G36*
X19750Y439955D02*
X26770Y446975D01*
X36730Y446975D01*
X43750Y439955D01*
X43750Y429995D01*
X36730Y422975D01*
X26770Y422975D01*
X19750Y429995D01*
X19750Y439955D01*
G37*
G36*
X19750Y566955D02*
X26770Y573975D01*
X36730Y573975D01*
X43750Y566955D01*
X43750Y556995D01*
X36730Y549975D01*
X26770Y549975D01*
X19750Y556995D01*
X19750Y566955D01*
G37*
X165100Y561975D02*
G54D11*
D03*
X165100Y536575D02*
G54D11*
D03*
X165100Y561970D02*
G54D12*
D03*
X95250Y596900D02*
G54D15*
D03*
X120650Y596900D02*
G54D15*
D03*
X114300Y558800D02*
G54D16*
D03*
X127000Y571500D02*
G54D16*
D03*
X139700Y558800D02*
G54D16*
D03*
G36*
X153100Y595530D02*
X160120Y602550D01*
X170080Y602550D01*
X177100Y595530D01*
X177100Y585570D01*
X170080Y578550D01*
X160120Y578550D01*
X153100Y585570D01*
X153100Y595530D01*
G37*
G36*
X153100Y620930D02*
X160120Y627950D01*
X170080Y627950D01*
X177100Y620930D01*
X177100Y610970D01*
X170080Y603950D01*
X160120Y603950D01*
X153100Y610970D01*
X153100Y620930D01*
G37*
X209550Y556575D02*
G54D14*
D03*
X209550Y536575D02*
G54D14*
D03*
X209550Y556580D02*
G54D14*
D03*
X95250Y596900D02*
G54D15*
D03*
G36*
X178500Y620930D02*
X185520Y627950D01*
X195480Y627950D01*
X202500Y620930D01*
X202500Y610970D01*
X195480Y603950D01*
X185520Y603950D01*
X178500Y610970D01*
X178500Y620930D01*
G37*
X254736Y602966D02*
G54D14*
D03*
X240594Y617108D02*
G54D14*
D03*
X254740Y602970D02*
G54D14*
D03*
X127000Y571500D02*
G54D16*
D03*
X82550Y561975D02*
G54D11*
D03*
X57150Y561975D02*
G54D11*
D03*
G36*
X19750Y516155D02*
X26770Y523175D01*
X36730Y523175D01*
X43750Y516155D01*
X43750Y506195D01*
X36730Y499175D01*
X26770Y499175D01*
X19750Y506195D01*
X19750Y516155D01*
G37*
G36*
X448150Y521175D02*
X448150Y501175D01*
X428150Y501175D01*
X428150Y521175D01*
X448150Y521175D01*
G37*
X438150Y485775D02*
G54D10*
D03*
X438150Y460375D02*
G54D10*
D03*
X438150Y434975D02*
G54D10*
D03*
X514350Y434975D02*
G54D10*
D03*
X514350Y460375D02*
G54D10*
D03*
X514350Y485775D02*
G54D10*
D03*
X514350Y511175D02*
G54D10*
D03*
X361950Y612775D02*
G54D11*
D03*
X361950Y587375D02*
G54D11*
D03*
X387350Y485775D02*
G54D11*
D03*
X412750Y511175D02*
G54D11*
D03*
X361950Y511175D02*
G54D11*
D03*
G36*
X324550Y592355D02*
X331570Y599375D01*
X341530Y599375D01*
X348550Y592355D01*
X348550Y582395D01*
X341530Y575375D01*
X331570Y575375D01*
X324550Y582395D01*
X324550Y592355D01*
G37*
G36*
X324550Y617755D02*
X331570Y624775D01*
X341530Y624775D01*
X348550Y617755D01*
X348550Y607795D01*
X341530Y600775D01*
X331570Y600775D01*
X324550Y607795D01*
X324550Y617755D01*
G37*
G36*
X324550Y643155D02*
X331570Y650175D01*
X341530Y650175D01*
X348550Y643155D01*
X348550Y633195D01*
X341530Y626175D01*
X331570Y626175D01*
X324550Y633195D01*
X324550Y643155D01*
G37*
G36*
X324550Y668555D02*
X331570Y675575D01*
X341530Y675575D01*
X348550Y668555D01*
X348550Y658595D01*
X341530Y651575D01*
X331570Y651575D01*
X324550Y658595D01*
X324550Y668555D01*
G37*
G36*
X578550Y439955D02*
X585570Y446975D01*
X595530Y446975D01*
X602550Y439955D01*
X602550Y429995D01*
X595530Y422975D01*
X585570Y422975D01*
X578550Y429995D01*
X578550Y439955D01*
G37*
G36*
X578550Y465355D02*
X585570Y472375D01*
X595530Y472375D01*
X602550Y465355D01*
X602550Y455395D01*
X595530Y448375D01*
X585570Y448375D01*
X578550Y455395D01*
X578550Y465355D01*
G37*
G36*
X578550Y490755D02*
X585570Y497775D01*
X595530Y497775D01*
X602550Y490755D01*
X602550Y480795D01*
X595530Y473775D01*
X585570Y473775D01*
X578550Y480795D01*
X578550Y490755D01*
G37*
G36*
X578550Y516155D02*
X585570Y523175D01*
X595530Y523175D01*
X602550Y516155D01*
X602550Y506195D01*
X595530Y499175D01*
X585570Y499175D01*
X578550Y506195D01*
X578550Y516155D01*
G37*
G36*
X324550Y414560D02*
X331570Y421580D01*
X341530Y421580D01*
X348550Y414560D01*
X348550Y404600D01*
X341530Y397580D01*
X331570Y397580D01*
X324550Y404600D01*
X324550Y414560D01*
G37*
G36*
X324550Y541555D02*
X331570Y548575D01*
X341530Y548575D01*
X348550Y541555D01*
X348550Y531595D01*
X341530Y524575D01*
X331570Y524575D01*
X324550Y531595D01*
X324550Y541555D01*
G37*
G36*
X324550Y617755D02*
X331570Y624775D01*
X341530Y624775D01*
X348550Y617755D01*
X348550Y607795D01*
X341530Y600775D01*
X331570Y600775D01*
X324550Y607795D01*
X324550Y617755D01*
G37*
X412750Y511175D02*
G54D12*
D03*
X361950Y612775D02*
G54D12*
D03*
X438150Y434975D02*
G54D12*
D03*
X590550Y460380D02*
G54D12*
D03*
X387350Y434975D02*
G54D11*
D03*
X387350Y460375D02*
G54D11*
D03*
G36*
X324550Y490755D02*
X331570Y497775D01*
X341530Y497775D01*
X348550Y490755D01*
X348550Y480795D01*
X341530Y473775D01*
X331570Y473775D01*
X324550Y480795D01*
X324550Y490755D01*
G37*
G36*
X451550Y414555D02*
X458570Y421575D01*
X468530Y421575D01*
X475550Y414555D01*
X475550Y404595D01*
X468530Y397575D01*
X458570Y397575D01*
X451550Y404595D01*
X451550Y414555D01*
G37*
G54D13*
X573088Y673100D02*
X569754Y681989D01*
X566421Y673100D01*
G54D13*
X571754Y676433D02*
X567754Y676433D01*
G54D13*
X561310Y673100D02*
X561310Y681989D01*
G54D13*
X563976Y681989D02*
X558643Y681989D01*
G54D13*
X553533Y673100D02*
X553533Y681989D01*
G54D13*
X556200Y681989D02*
X550866Y681989D01*
G54D13*
X548422Y673100D02*
X548422Y681989D01*
G54D13*
X545978Y673100D02*
X545978Y681989D01*
X540645Y673100D01*
X540645Y681989D01*
G54D13*
X538202Y681989D02*
X534868Y677544D01*
X534868Y673100D01*
G54D13*
X534868Y677544D02*
X531535Y681989D01*
G54D13*
X523757Y673100D02*
X529090Y673100D01*
X529090Y673656D01*
X528424Y674767D01*
X524424Y678100D01*
X523757Y679211D01*
X523757Y680322D01*
X524424Y681433D01*
X525757Y681989D01*
X527090Y681989D01*
X528424Y681433D01*
X529090Y680322D01*
G54D13*
X515980Y681989D02*
X521314Y681989D01*
X521314Y678100D01*
X520647Y678100D01*
X519314Y678656D01*
X517980Y678656D01*
X516647Y678100D01*
X515980Y676989D01*
X515980Y674767D01*
X516647Y673656D01*
X517980Y673100D01*
X519314Y673100D01*
X520647Y673656D01*
X521314Y674767D01*
G54D13*
X513536Y673100D02*
X508203Y681989D01*
G54D13*
X501760Y673100D02*
X501760Y681989D01*
X505760Y676433D01*
X505760Y675322D01*
X500426Y675322D01*
G54D13*
X492649Y681989D02*
X497982Y681989D01*
X497982Y678100D01*
X497316Y678100D01*
X495982Y678656D01*
X494649Y678656D01*
X493316Y678100D01*
X492649Y676989D01*
X492649Y674767D01*
X493316Y673656D01*
X494649Y673100D01*
X495982Y673100D01*
X497316Y673656D01*
X497982Y674767D01*
G54D13*
X490206Y673100D02*
X484872Y681989D01*
G54D13*
X479095Y677544D02*
X480428Y677544D01*
X481762Y678100D01*
X482428Y679211D01*
X482428Y680322D01*
X481762Y681433D01*
X480428Y681989D01*
X479095Y681989D01*
X477762Y681433D01*
X477095Y680322D01*
X477095Y679211D01*
X477762Y678100D01*
X479095Y677544D01*
X477762Y676989D01*
X477095Y675878D01*
X477095Y674767D01*
X477762Y673656D01*
X479095Y673100D01*
X480428Y673100D01*
X481762Y673656D01*
X482428Y674767D01*
X482428Y675878D01*
X481762Y676989D01*
X480428Y677544D01*
G54D13*
X469318Y681989D02*
X474652Y681989D01*
X474652Y678100D01*
X473985Y678100D01*
X472652Y678656D01*
X471318Y678656D01*
X469985Y678100D01*
X469318Y676989D01*
X469318Y674767D01*
X469985Y673656D01*
X471318Y673100D01*
X472652Y673100D01*
X473985Y673656D01*
X474652Y674767D01*
G54D13*
X464298Y673100D02*
X464298Y681989D01*
X460964Y681989D01*
X459631Y681433D01*
X458964Y680322D01*
X458964Y679211D01*
X459631Y678100D01*
X460964Y677544D01*
X459631Y676989D01*
X458964Y675878D01*
X458964Y674767D01*
X459631Y673656D01*
X460964Y673100D01*
X464298Y673100D01*
G54D13*
X464298Y677544D02*
X460964Y677544D01*
G54D13*
X456520Y673100D02*
X456520Y678100D01*
G54D13*
X456520Y676989D02*
X455187Y678100D01*
X453854Y678100D01*
G54D13*
X447410Y673656D02*
X448476Y673100D01*
X449810Y673100D01*
X451143Y673656D01*
X451410Y674767D01*
X451410Y676656D01*
X450743Y677767D01*
X449410Y678100D01*
X448076Y677767D01*
X447410Y676989D01*
X447410Y675878D01*
X451410Y675878D01*
G54D13*
X444966Y677544D02*
X443632Y678100D01*
X442032Y678100D01*
X440966Y676989D01*
X440966Y673100D01*
G54D13*
X440966Y674767D02*
X441632Y675878D01*
X442966Y676100D01*
X444299Y675878D01*
X444966Y674767D01*
X444699Y673656D01*
X443632Y673100D01*
X442966Y673100D01*
X442699Y673100D01*
X441632Y673656D01*
X440966Y674767D01*
G54D13*
X438522Y673100D02*
X438522Y681989D01*
G54D13*
X436522Y676433D02*
X434522Y673100D01*
G54D13*
X438522Y675322D02*
X434522Y678100D01*
G54D13*
X428078Y674433D02*
X428078Y676656D01*
X428744Y677767D01*
X430078Y678100D01*
X431411Y677767D01*
X432078Y676656D01*
X432078Y674433D01*
X431411Y673322D01*
X430078Y673100D01*
X428744Y673322D01*
X428078Y674433D01*
G54D13*
X421634Y678100D02*
X421634Y673100D01*
G54D13*
X421634Y674211D02*
X422300Y673322D01*
X423634Y673100D01*
X424967Y673322D01*
X425634Y674211D01*
X425634Y678100D01*
G54D13*
X417856Y681989D02*
X417856Y673656D01*
X417190Y673100D01*
X416523Y673322D01*
G54D13*
X419190Y678100D02*
X416523Y678100D01*
G54D13*
X411502Y673100D02*
X411502Y681989D01*
X408168Y681989D01*
X406835Y681433D01*
X406168Y680322D01*
X406168Y679211D01*
X406835Y678100D01*
X408168Y677544D01*
X411502Y677544D01*
G54D13*
X398391Y674767D02*
X399058Y673656D01*
X400391Y673100D01*
X401724Y673100D01*
X403058Y673656D01*
X403724Y674767D01*
X403724Y680322D01*
X403058Y681433D01*
X401724Y681989D01*
X400391Y681989D01*
X399058Y681433D01*
X398391Y680322D01*
G54D13*
X395948Y673100D02*
X395948Y681989D01*
X392614Y681989D01*
X391281Y681433D01*
X390614Y680322D01*
X390614Y679211D01*
X391281Y678100D01*
X392614Y677544D01*
X391281Y676989D01*
X390614Y675878D01*
X390614Y674767D01*
X391281Y673656D01*
X392614Y673100D01*
X395948Y673100D01*
G54D13*
X395948Y677544D02*
X392614Y677544D01*
X590550Y587375D02*
G54D14*
D03*
X590550Y561975D02*
G54D14*
D03*
X590550Y587375D02*
G54D14*
D03*
X565150Y536575D02*
G54D11*
D03*
X590550Y536575D02*
G54D11*
D03*
G36*
X426150Y414555D02*
X433170Y421575D01*
X443130Y421575D01*
X450150Y414555D01*
X450150Y404595D01*
X443130Y397575D01*
X433170Y397575D01*
X426150Y404595D01*
X426150Y414555D01*
G37*
G36*
X400750Y414555D02*
X407770Y421575D01*
X417730Y421575D01*
X424750Y414555D01*
X424750Y404595D01*
X417730Y397575D01*
X407770Y397575D01*
X400750Y404595D01*
X400750Y414555D01*
G37*
X539750Y409575D02*
G54D15*
D03*
X565150Y409575D02*
G54D15*
D03*
X590550Y409580D02*
G54D15*
D03*
X488950Y409575D02*
G54D11*
D03*
X514350Y409575D02*
G54D11*
D03*
X387350Y434975D02*
G54D11*
D03*
X387350Y409575D02*
G54D11*
D03*
X387350Y409580D02*
G54D12*
D03*
X565150Y511175D02*
G54D11*
D03*
X565150Y460375D02*
G54D11*
D03*
X387350Y511175D02*
G54D12*
D03*
G36*
X578550Y668555D02*
X585570Y675575D01*
X595530Y675575D01*
X602550Y668555D01*
X602550Y658595D01*
X595530Y651575D01*
X585570Y651575D01*
X578550Y658595D01*
X578550Y668555D01*
G37*
G36*
X578550Y643155D02*
X585570Y650175D01*
X595530Y650175D01*
X602550Y643155D01*
X602550Y633195D01*
X595530Y626175D01*
X585570Y626175D01*
X578550Y633195D01*
X578550Y643155D01*
G37*
G36*
X578550Y617755D02*
X585570Y624775D01*
X595530Y624775D01*
X602550Y617755D01*
X602550Y607795D01*
X595530Y600775D01*
X585570Y600775D01*
X578550Y607795D01*
X578550Y617755D01*
G37*
X539750Y460375D02*
G54D11*
D03*
X539750Y434975D02*
G54D11*
D03*
X488950Y409575D02*
G54D12*
D03*
G36*
X324550Y465360D02*
X331570Y472380D01*
X341530Y472380D01*
X348550Y465360D01*
X348550Y455400D01*
X341530Y448380D01*
X331570Y448380D01*
X324550Y455400D01*
X324550Y465360D01*
G37*
G36*
X324550Y439955D02*
X331570Y446975D01*
X341530Y446975D01*
X348550Y439955D01*
X348550Y429995D01*
X341530Y422975D01*
X331570Y422975D01*
X324550Y429995D01*
X324550Y439955D01*
G37*
G36*
X324550Y566955D02*
X331570Y573975D01*
X341530Y573975D01*
X348550Y566955D01*
X348550Y556995D01*
X341530Y549975D01*
X331570Y549975D01*
X324550Y556995D01*
X324550Y566955D01*
G37*
X469900Y561975D02*
G54D11*
D03*
X469900Y536575D02*
G54D11*
D03*
X469900Y561970D02*
G54D12*
D03*
X400050Y596900D02*
G54D15*
D03*
X425450Y596900D02*
G54D15*
D03*
X419100Y558800D02*
G54D16*
D03*
X431800Y571500D02*
G54D16*
D03*
X444500Y558800D02*
G54D16*
D03*
G36*
X457900Y595530D02*
X464920Y602550D01*
X474880Y602550D01*
X481900Y595530D01*
X481900Y585570D01*
X474880Y578550D01*
X464920Y578550D01*
X457900Y585570D01*
X457900Y595530D01*
G37*
G36*
X457900Y620930D02*
X464920Y627950D01*
X474880Y627950D01*
X481900Y620930D01*
X481900Y610970D01*
X474880Y603950D01*
X464920Y603950D01*
X457900Y610970D01*
X457900Y620930D01*
G37*
X514350Y556575D02*
G54D14*
D03*
X514350Y536575D02*
G54D14*
D03*
X514350Y556580D02*
G54D14*
D03*
X400050Y596900D02*
G54D15*
D03*
G36*
X483300Y620930D02*
X490320Y627950D01*
X500280Y627950D01*
X507300Y620930D01*
X507300Y610970D01*
X500280Y603950D01*
X490320Y603950D01*
X483300Y610970D01*
X483300Y620930D01*
G37*
X559536Y602966D02*
G54D14*
D03*
X545394Y617108D02*
G54D14*
D03*
X559540Y602970D02*
G54D14*
D03*
X431800Y571500D02*
G54D16*
D03*
X387350Y561975D02*
G54D11*
D03*
X361950Y561975D02*
G54D11*
D03*
G36*
X324550Y516155D02*
X331570Y523175D01*
X341530Y523175D01*
X348550Y516155D01*
X348550Y506195D01*
X341530Y499175D01*
X331570Y499175D01*
X324550Y506195D01*
X324550Y516155D01*
G37*
G36*
X752950Y521175D02*
X752950Y501175D01*
X732950Y501175D01*
X732950Y521175D01*
X752950Y521175D01*
G37*
X742950Y485775D02*
G54D10*
D03*
X742950Y460375D02*
G54D10*
D03*
X742950Y434975D02*
G54D10*
D03*
X819150Y434975D02*
G54D10*
D03*
X819150Y460375D02*
G54D10*
D03*
X819150Y485775D02*
G54D10*
D03*
X819150Y511175D02*
G54D10*
D03*
X666750Y612775D02*
G54D11*
D03*
X666750Y587375D02*
G54D11*
D03*
X692150Y485775D02*
G54D11*
D03*
X717550Y511175D02*
G54D11*
D03*
X666750Y511175D02*
G54D11*
D03*
G36*
X629350Y592355D02*
X636370Y599375D01*
X646330Y599375D01*
X653350Y592355D01*
X653350Y582395D01*
X646330Y575375D01*
X636370Y575375D01*
X629350Y582395D01*
X629350Y592355D01*
G37*
G36*
X629350Y617755D02*
X636370Y624775D01*
X646330Y624775D01*
X653350Y617755D01*
X653350Y607795D01*
X646330Y600775D01*
X636370Y600775D01*
X629350Y607795D01*
X629350Y617755D01*
G37*
G36*
X629350Y643155D02*
X636370Y650175D01*
X646330Y650175D01*
X653350Y643155D01*
X653350Y633195D01*
X646330Y626175D01*
X636370Y626175D01*
X629350Y633195D01*
X629350Y643155D01*
G37*
G36*
X629350Y668555D02*
X636370Y675575D01*
X646330Y675575D01*
X653350Y668555D01*
X653350Y658595D01*
X646330Y651575D01*
X636370Y651575D01*
X629350Y658595D01*
X629350Y668555D01*
G37*
G36*
X883350Y439955D02*
X890370Y446975D01*
X900330Y446975D01*
X907350Y439955D01*
X907350Y429995D01*
X900330Y422975D01*
X890370Y422975D01*
X883350Y429995D01*
X883350Y439955D01*
G37*
G36*
X883350Y465355D02*
X890370Y472375D01*
X900330Y472375D01*
X907350Y465355D01*
X907350Y455395D01*
X900330Y448375D01*
X890370Y448375D01*
X883350Y455395D01*
X883350Y465355D01*
G37*
G36*
X883350Y490755D02*
X890370Y497775D01*
X900330Y497775D01*
X907350Y490755D01*
X907350Y480795D01*
X900330Y473775D01*
X890370Y473775D01*
X883350Y480795D01*
X883350Y490755D01*
G37*
G36*
X883350Y516155D02*
X890370Y523175D01*
X900330Y523175D01*
X907350Y516155D01*
X907350Y506195D01*
X900330Y499175D01*
X890370Y499175D01*
X883350Y506195D01*
X883350Y516155D01*
G37*
G36*
X629350Y414560D02*
X636370Y421580D01*
X646330Y421580D01*
X653350Y414560D01*
X653350Y404600D01*
X646330Y397580D01*
X636370Y397580D01*
X629350Y404600D01*
X629350Y414560D01*
G37*
G36*
X629350Y541555D02*
X636370Y548575D01*
X646330Y548575D01*
X653350Y541555D01*
X653350Y531595D01*
X646330Y524575D01*
X636370Y524575D01*
X629350Y531595D01*
X629350Y541555D01*
G37*
G36*
X629350Y617755D02*
X636370Y624775D01*
X646330Y624775D01*
X653350Y617755D01*
X653350Y607795D01*
X646330Y600775D01*
X636370Y600775D01*
X629350Y607795D01*
X629350Y617755D01*
G37*
X717550Y511175D02*
G54D12*
D03*
X666750Y612775D02*
G54D12*
D03*
X742950Y434975D02*
G54D12*
D03*
X895350Y460380D02*
G54D12*
D03*
X692150Y434975D02*
G54D11*
D03*
X692150Y460375D02*
G54D11*
D03*
G36*
X629350Y490755D02*
X636370Y497775D01*
X646330Y497775D01*
X653350Y490755D01*
X653350Y480795D01*
X646330Y473775D01*
X636370Y473775D01*
X629350Y480795D01*
X629350Y490755D01*
G37*
G36*
X756350Y414555D02*
X763370Y421575D01*
X773330Y421575D01*
X780350Y414555D01*
X780350Y404595D01*
X773330Y397575D01*
X763370Y397575D01*
X756350Y404595D01*
X756350Y414555D01*
G37*
G54D13*
X877888Y673100D02*
X874554Y681989D01*
X871221Y673100D01*
G54D13*
X876554Y676433D02*
X872554Y676433D01*
G54D13*
X866110Y673100D02*
X866110Y681989D01*
G54D13*
X868776Y681989D02*
X863443Y681989D01*
G54D13*
X858333Y673100D02*
X858333Y681989D01*
G54D13*
X861000Y681989D02*
X855666Y681989D01*
G54D13*
X853222Y673100D02*
X853222Y681989D01*
G54D13*
X850778Y673100D02*
X850778Y681989D01*
X845445Y673100D01*
X845445Y681989D01*
G54D13*
X843002Y681989D02*
X839668Y677544D01*
X839668Y673100D01*
G54D13*
X839668Y677544D02*
X836335Y681989D01*
G54D13*
X828557Y673100D02*
X833890Y673100D01*
X833890Y673656D01*
X833224Y674767D01*
X829224Y678100D01*
X828557Y679211D01*
X828557Y680322D01*
X829224Y681433D01*
X830557Y681989D01*
X831890Y681989D01*
X833224Y681433D01*
X833890Y680322D01*
G54D13*
X820780Y681989D02*
X826114Y681989D01*
X826114Y678100D01*
X825447Y678100D01*
X824114Y678656D01*
X822780Y678656D01*
X821447Y678100D01*
X820780Y676989D01*
X820780Y674767D01*
X821447Y673656D01*
X822780Y673100D01*
X824114Y673100D01*
X825447Y673656D01*
X826114Y674767D01*
G54D13*
X818336Y673100D02*
X813003Y681989D01*
G54D13*
X806560Y673100D02*
X806560Y681989D01*
X810560Y676433D01*
X810560Y675322D01*
X805226Y675322D01*
G54D13*
X797449Y681989D02*
X802782Y681989D01*
X802782Y678100D01*
X802116Y678100D01*
X800782Y678656D01*
X799449Y678656D01*
X798116Y678100D01*
X797449Y676989D01*
X797449Y674767D01*
X798116Y673656D01*
X799449Y673100D01*
X800782Y673100D01*
X802116Y673656D01*
X802782Y674767D01*
G54D13*
X795006Y673100D02*
X789672Y681989D01*
G54D13*
X783895Y677544D02*
X785228Y677544D01*
X786562Y678100D01*
X787228Y679211D01*
X787228Y680322D01*
X786562Y681433D01*
X785228Y681989D01*
X783895Y681989D01*
X782562Y681433D01*
X781895Y680322D01*
X781895Y679211D01*
X782562Y678100D01*
X783895Y677544D01*
X782562Y676989D01*
X781895Y675878D01*
X781895Y674767D01*
X782562Y673656D01*
X783895Y673100D01*
X785228Y673100D01*
X786562Y673656D01*
X787228Y674767D01*
X787228Y675878D01*
X786562Y676989D01*
X785228Y677544D01*
G54D13*
X774118Y681989D02*
X779452Y681989D01*
X779452Y678100D01*
X778785Y678100D01*
X777452Y678656D01*
X776118Y678656D01*
X774785Y678100D01*
X774118Y676989D01*
X774118Y674767D01*
X774785Y673656D01*
X776118Y673100D01*
X777452Y673100D01*
X778785Y673656D01*
X779452Y674767D01*
G54D13*
X769098Y673100D02*
X769098Y681989D01*
X765764Y681989D01*
X764431Y681433D01*
X763764Y680322D01*
X763764Y679211D01*
X764431Y678100D01*
X765764Y677544D01*
X764431Y676989D01*
X763764Y675878D01*
X763764Y674767D01*
X764431Y673656D01*
X765764Y673100D01*
X769098Y673100D01*
G54D13*
X769098Y677544D02*
X765764Y677544D01*
G54D13*
X761320Y673100D02*
X761320Y678100D01*
G54D13*
X761320Y676989D02*
X759987Y678100D01*
X758654Y678100D01*
G54D13*
X752210Y673656D02*
X753276Y673100D01*
X754610Y673100D01*
X755943Y673656D01*
X756210Y674767D01*
X756210Y676656D01*
X755543Y677767D01*
X754210Y678100D01*
X752876Y677767D01*
X752210Y676989D01*
X752210Y675878D01*
X756210Y675878D01*
G54D13*
X749766Y677544D02*
X748432Y678100D01*
X746832Y678100D01*
X745766Y676989D01*
X745766Y673100D01*
G54D13*
X745766Y674767D02*
X746432Y675878D01*
X747766Y676100D01*
X749099Y675878D01*
X749766Y674767D01*
X749499Y673656D01*
X748432Y673100D01*
X747766Y673100D01*
X747499Y673100D01*
X746432Y673656D01*
X745766Y674767D01*
G54D13*
X743322Y673100D02*
X743322Y681989D01*
G54D13*
X741322Y676433D02*
X739322Y673100D01*
G54D13*
X743322Y675322D02*
X739322Y678100D01*
G54D13*
X732878Y674433D02*
X732878Y676656D01*
X733544Y677767D01*
X734878Y678100D01*
X736211Y677767D01*
X736878Y676656D01*
X736878Y674433D01*
X736211Y673322D01*
X734878Y673100D01*
X733544Y673322D01*
X732878Y674433D01*
G54D13*
X726434Y678100D02*
X726434Y673100D01*
G54D13*
X726434Y674211D02*
X727100Y673322D01*
X728434Y673100D01*
X729767Y673322D01*
X730434Y674211D01*
X730434Y678100D01*
G54D13*
X722656Y681989D02*
X722656Y673656D01*
X721990Y673100D01*
X721323Y673322D01*
G54D13*
X723990Y678100D02*
X721323Y678100D01*
G54D13*
X716302Y673100D02*
X716302Y681989D01*
X712968Y681989D01*
X711635Y681433D01*
X710968Y680322D01*
X710968Y679211D01*
X711635Y678100D01*
X712968Y677544D01*
X716302Y677544D01*
G54D13*
X703191Y674767D02*
X703858Y673656D01*
X705191Y673100D01*
X706524Y673100D01*
X707858Y673656D01*
X708524Y674767D01*
X708524Y680322D01*
X707858Y681433D01*
X706524Y681989D01*
X705191Y681989D01*
X703858Y681433D01*
X703191Y680322D01*
G54D13*
X700748Y673100D02*
X700748Y681989D01*
X697414Y681989D01*
X696081Y681433D01*
X695414Y680322D01*
X695414Y679211D01*
X696081Y678100D01*
X697414Y677544D01*
X696081Y676989D01*
X695414Y675878D01*
X695414Y674767D01*
X696081Y673656D01*
X697414Y673100D01*
X700748Y673100D01*
G54D13*
X700748Y677544D02*
X697414Y677544D01*
X895350Y587375D02*
G54D14*
D03*
X895350Y561975D02*
G54D14*
D03*
X895350Y587375D02*
G54D14*
D03*
X869950Y536575D02*
G54D11*
D03*
X895350Y536575D02*
G54D11*
D03*
G36*
X730950Y414555D02*
X737970Y421575D01*
X747930Y421575D01*
X754950Y414555D01*
X754950Y404595D01*
X747930Y397575D01*
X737970Y397575D01*
X730950Y404595D01*
X730950Y414555D01*
G37*
G36*
X705550Y414555D02*
X712570Y421575D01*
X722530Y421575D01*
X729550Y414555D01*
X729550Y404595D01*
X722530Y397575D01*
X712570Y397575D01*
X705550Y404595D01*
X705550Y414555D01*
G37*
X844550Y409575D02*
G54D15*
D03*
X869950Y409575D02*
G54D15*
D03*
X895350Y409580D02*
G54D15*
D03*
X793750Y409575D02*
G54D11*
D03*
X819150Y409575D02*
G54D11*
D03*
X692150Y434975D02*
G54D11*
D03*
X692150Y409575D02*
G54D11*
D03*
X692150Y409580D02*
G54D12*
D03*
X869950Y511175D02*
G54D11*
D03*
X869950Y460375D02*
G54D11*
D03*
X692150Y511175D02*
G54D12*
D03*
G36*
X883350Y668555D02*
X890370Y675575D01*
X900330Y675575D01*
X907350Y668555D01*
X907350Y658595D01*
X900330Y651575D01*
X890370Y651575D01*
X883350Y658595D01*
X883350Y668555D01*
G37*
G36*
X883350Y643155D02*
X890370Y650175D01*
X900330Y650175D01*
X907350Y643155D01*
X907350Y633195D01*
X900330Y626175D01*
X890370Y626175D01*
X883350Y633195D01*
X883350Y643155D01*
G37*
G36*
X883350Y617755D02*
X890370Y624775D01*
X900330Y624775D01*
X907350Y617755D01*
X907350Y607795D01*
X900330Y600775D01*
X890370Y600775D01*
X883350Y607795D01*
X883350Y617755D01*
G37*
X844550Y460375D02*
G54D11*
D03*
X844550Y434975D02*
G54D11*
D03*
X793750Y409575D02*
G54D12*
D03*
G36*
X629350Y465360D02*
X636370Y472380D01*
X646330Y472380D01*
X653350Y465360D01*
X653350Y455400D01*
X646330Y448380D01*
X636370Y448380D01*
X629350Y455400D01*
X629350Y465360D01*
G37*
G36*
X629350Y439955D02*
X636370Y446975D01*
X646330Y446975D01*
X653350Y439955D01*
X653350Y429995D01*
X646330Y422975D01*
X636370Y422975D01*
X629350Y429995D01*
X629350Y439955D01*
G37*
G36*
X629350Y566955D02*
X636370Y573975D01*
X646330Y573975D01*
X653350Y566955D01*
X653350Y556995D01*
X646330Y549975D01*
X636370Y549975D01*
X629350Y556995D01*
X629350Y566955D01*
G37*
X774700Y561975D02*
G54D11*
D03*
X774700Y536575D02*
G54D11*
D03*
X774700Y561970D02*
G54D12*
D03*
X704850Y596900D02*
G54D15*
D03*
X730250Y596900D02*
G54D15*
D03*
X723900Y558800D02*
G54D16*
D03*
X736600Y571500D02*
G54D16*
D03*
X749300Y558800D02*
G54D16*
D03*
G36*
X762700Y595530D02*
X769720Y602550D01*
X779680Y602550D01*
X786700Y595530D01*
X786700Y585570D01*
X779680Y578550D01*
X769720Y578550D01*
X762700Y585570D01*
X762700Y595530D01*
G37*
G36*
X762700Y620930D02*
X769720Y627950D01*
X779680Y627950D01*
X786700Y620930D01*
X786700Y610970D01*
X779680Y603950D01*
X769720Y603950D01*
X762700Y610970D01*
X762700Y620930D01*
G37*
X819150Y556575D02*
G54D14*
D03*
X819150Y536575D02*
G54D14*
D03*
X819150Y556580D02*
G54D14*
D03*
X704850Y596900D02*
G54D15*
D03*
G36*
X788100Y620930D02*
X795120Y627950D01*
X805080Y627950D01*
X812100Y620930D01*
X812100Y610970D01*
X805080Y603950D01*
X795120Y603950D01*
X788100Y610970D01*
X788100Y620930D01*
G37*
X864336Y602966D02*
G54D14*
D03*
X850194Y617108D02*
G54D14*
D03*
X864340Y602970D02*
G54D14*
D03*
X736600Y571500D02*
G54D16*
D03*
X692150Y561975D02*
G54D11*
D03*
X666750Y561975D02*
G54D11*
D03*
G36*
X629350Y516155D02*
X636370Y523175D01*
X646330Y523175D01*
X653350Y516155D01*
X653350Y506195D01*
X646330Y499175D01*
X636370Y499175D01*
X629350Y506195D01*
X629350Y516155D01*
G37*
G36*
X143350Y216375D02*
X143350Y196375D01*
X123350Y196375D01*
X123350Y216375D01*
X143350Y216375D01*
G37*
X133350Y180975D02*
G54D10*
D03*
X133350Y155575D02*
G54D10*
D03*
X133350Y130175D02*
G54D10*
D03*
X209550Y130175D02*
G54D10*
D03*
X209550Y155575D02*
G54D10*
D03*
X209550Y180975D02*
G54D10*
D03*
X209550Y206375D02*
G54D10*
D03*
X57150Y307975D02*
G54D11*
D03*
X57150Y282575D02*
G54D11*
D03*
X82550Y180975D02*
G54D11*
D03*
X107950Y206375D02*
G54D11*
D03*
X57150Y206375D02*
G54D11*
D03*
G36*
X19750Y287555D02*
X26770Y294575D01*
X36730Y294575D01*
X43750Y287555D01*
X43750Y277595D01*
X36730Y270575D01*
X26770Y270575D01*
X19750Y277595D01*
X19750Y287555D01*
G37*
G36*
X19750Y312955D02*
X26770Y319975D01*
X36730Y319975D01*
X43750Y312955D01*
X43750Y302995D01*
X36730Y295975D01*
X26770Y295975D01*
X19750Y302995D01*
X19750Y312955D01*
G37*
G36*
X19750Y338355D02*
X26770Y345375D01*
X36730Y345375D01*
X43750Y338355D01*
X43750Y328395D01*
X36730Y321375D01*
X26770Y321375D01*
X19750Y328395D01*
X19750Y338355D01*
G37*
G36*
X19750Y363755D02*
X26770Y370775D01*
X36730Y370775D01*
X43750Y363755D01*
X43750Y353795D01*
X36730Y346775D01*
X26770Y346775D01*
X19750Y353795D01*
X19750Y363755D01*
G37*
G36*
X273750Y135155D02*
X280770Y142175D01*
X290730Y142175D01*
X297750Y135155D01*
X297750Y125195D01*
X290730Y118175D01*
X280770Y118175D01*
X273750Y125195D01*
X273750Y135155D01*
G37*
G36*
X273750Y160555D02*
X280770Y167575D01*
X290730Y167575D01*
X297750Y160555D01*
X297750Y150595D01*
X290730Y143575D01*
X280770Y143575D01*
X273750Y150595D01*
X273750Y160555D01*
G37*
G36*
X273750Y185955D02*
X280770Y192975D01*
X290730Y192975D01*
X297750Y185955D01*
X297750Y175995D01*
X290730Y168975D01*
X280770Y168975D01*
X273750Y175995D01*
X273750Y185955D01*
G37*
G36*
X273750Y211355D02*
X280770Y218375D01*
X290730Y218375D01*
X297750Y211355D01*
X297750Y201395D01*
X290730Y194375D01*
X280770Y194375D01*
X273750Y201395D01*
X273750Y211355D01*
G37*
G36*
X19750Y109760D02*
X26770Y116780D01*
X36730Y116780D01*
X43750Y109760D01*
X43750Y99800D01*
X36730Y92780D01*
X26770Y92780D01*
X19750Y99800D01*
X19750Y109760D01*
G37*
G36*
X19750Y236755D02*
X26770Y243775D01*
X36730Y243775D01*
X43750Y236755D01*
X43750Y226795D01*
X36730Y219775D01*
X26770Y219775D01*
X19750Y226795D01*
X19750Y236755D01*
G37*
G36*
X19750Y312955D02*
X26770Y319975D01*
X36730Y319975D01*
X43750Y312955D01*
X43750Y302995D01*
X36730Y295975D01*
X26770Y295975D01*
X19750Y302995D01*
X19750Y312955D01*
G37*
X107950Y206375D02*
G54D12*
D03*
X57150Y307975D02*
G54D12*
D03*
X133350Y130175D02*
G54D12*
D03*
X285750Y155580D02*
G54D12*
D03*
X82550Y130175D02*
G54D11*
D03*
X82550Y155575D02*
G54D11*
D03*
G36*
X19750Y185955D02*
X26770Y192975D01*
X36730Y192975D01*
X43750Y185955D01*
X43750Y175995D01*
X36730Y168975D01*
X26770Y168975D01*
X19750Y175995D01*
X19750Y185955D01*
G37*
G36*
X146750Y109755D02*
X153770Y116775D01*
X163730Y116775D01*
X170750Y109755D01*
X170750Y99795D01*
X163730Y92775D01*
X153770Y92775D01*
X146750Y99795D01*
X146750Y109755D01*
G37*
G54D13*
X268288Y368300D02*
X264954Y377189D01*
X261621Y368300D01*
G54D13*
X266954Y371633D02*
X262954Y371633D01*
G54D13*
X256510Y368300D02*
X256510Y377189D01*
G54D13*
X259176Y377189D02*
X253843Y377189D01*
G54D13*
X248733Y368300D02*
X248733Y377189D01*
G54D13*
X251400Y377189D02*
X246066Y377189D01*
G54D13*
X243622Y368300D02*
X243622Y377189D01*
G54D13*
X241178Y368300D02*
X241178Y377189D01*
X235845Y368300D01*
X235845Y377189D01*
G54D13*
X233402Y377189D02*
X230068Y372744D01*
X230068Y368300D01*
G54D13*
X230068Y372744D02*
X226735Y377189D01*
G54D13*
X218957Y368300D02*
X224290Y368300D01*
X224290Y368856D01*
X223624Y369967D01*
X219624Y373300D01*
X218957Y374411D01*
X218957Y375522D01*
X219624Y376633D01*
X220957Y377189D01*
X222290Y377189D01*
X223624Y376633D01*
X224290Y375522D01*
G54D13*
X211180Y377189D02*
X216514Y377189D01*
X216514Y373300D01*
X215847Y373300D01*
X214514Y373856D01*
X213180Y373856D01*
X211847Y373300D01*
X211180Y372189D01*
X211180Y369967D01*
X211847Y368856D01*
X213180Y368300D01*
X214514Y368300D01*
X215847Y368856D01*
X216514Y369967D01*
G54D13*
X208736Y368300D02*
X203403Y377189D01*
G54D13*
X196960Y368300D02*
X196960Y377189D01*
X200960Y371633D01*
X200960Y370522D01*
X195626Y370522D01*
G54D13*
X187849Y377189D02*
X193182Y377189D01*
X193182Y373300D01*
X192516Y373300D01*
X191182Y373856D01*
X189849Y373856D01*
X188516Y373300D01*
X187849Y372189D01*
X187849Y369967D01*
X188516Y368856D01*
X189849Y368300D01*
X191182Y368300D01*
X192516Y368856D01*
X193182Y369967D01*
G54D13*
X185406Y368300D02*
X180072Y377189D01*
G54D13*
X174295Y372744D02*
X175628Y372744D01*
X176962Y373300D01*
X177628Y374411D01*
X177628Y375522D01*
X176962Y376633D01*
X175628Y377189D01*
X174295Y377189D01*
X172962Y376633D01*
X172295Y375522D01*
X172295Y374411D01*
X172962Y373300D01*
X174295Y372744D01*
X172962Y372189D01*
X172295Y371078D01*
X172295Y369967D01*
X172962Y368856D01*
X174295Y368300D01*
X175628Y368300D01*
X176962Y368856D01*
X177628Y369967D01*
X177628Y371078D01*
X176962Y372189D01*
X175628Y372744D01*
G54D13*
X164518Y377189D02*
X169852Y377189D01*
X169852Y373300D01*
X169185Y373300D01*
X167852Y373856D01*
X166518Y373856D01*
X165185Y373300D01*
X164518Y372189D01*
X164518Y369967D01*
X165185Y368856D01*
X166518Y368300D01*
X167852Y368300D01*
X169185Y368856D01*
X169852Y369967D01*
G54D13*
X159498Y368300D02*
X159498Y377189D01*
X156164Y377189D01*
X154831Y376633D01*
X154164Y375522D01*
X154164Y374411D01*
X154831Y373300D01*
X156164Y372744D01*
X154831Y372189D01*
X154164Y371078D01*
X154164Y369967D01*
X154831Y368856D01*
X156164Y368300D01*
X159498Y368300D01*
G54D13*
X159498Y372744D02*
X156164Y372744D01*
G54D13*
X151720Y368300D02*
X151720Y373300D01*
G54D13*
X151720Y372189D02*
X150387Y373300D01*
X149054Y373300D01*
G54D13*
X142610Y368856D02*
X143676Y368300D01*
X145010Y368300D01*
X146343Y368856D01*
X146610Y369967D01*
X146610Y371856D01*
X145943Y372967D01*
X144610Y373300D01*
X143276Y372967D01*
X142610Y372189D01*
X142610Y371078D01*
X146610Y371078D01*
G54D13*
X140166Y372744D02*
X138832Y373300D01*
X137232Y373300D01*
X136166Y372189D01*
X136166Y368300D01*
G54D13*
X136166Y369967D02*
X136832Y371078D01*
X138166Y371300D01*
X139499Y371078D01*
X140166Y369967D01*
X139899Y368856D01*
X138832Y368300D01*
X138166Y368300D01*
X137899Y368300D01*
X136832Y368856D01*
X136166Y369967D01*
G54D13*
X133722Y368300D02*
X133722Y377189D01*
G54D13*
X131722Y371633D02*
X129722Y368300D01*
G54D13*
X133722Y370522D02*
X129722Y373300D01*
G54D13*
X123278Y369633D02*
X123278Y371856D01*
X123944Y372967D01*
X125278Y373300D01*
X126611Y372967D01*
X127278Y371856D01*
X127278Y369633D01*
X126611Y368522D01*
X125278Y368300D01*
X123944Y368522D01*
X123278Y369633D01*
G54D13*
X116834Y373300D02*
X116834Y368300D01*
G54D13*
X116834Y369411D02*
X117500Y368522D01*
X118834Y368300D01*
X120167Y368522D01*
X120834Y369411D01*
X120834Y373300D01*
G54D13*
X113056Y377189D02*
X113056Y368856D01*
X112390Y368300D01*
X111723Y368522D01*
G54D13*
X114390Y373300D02*
X111723Y373300D01*
G54D13*
X106702Y368300D02*
X106702Y377189D01*
X103368Y377189D01*
X102035Y376633D01*
X101368Y375522D01*
X101368Y374411D01*
X102035Y373300D01*
X103368Y372744D01*
X106702Y372744D01*
G54D13*
X93591Y369967D02*
X94258Y368856D01*
X95591Y368300D01*
X96924Y368300D01*
X98258Y368856D01*
X98924Y369967D01*
X98924Y375522D01*
X98258Y376633D01*
X96924Y377189D01*
X95591Y377189D01*
X94258Y376633D01*
X93591Y375522D01*
G54D13*
X91148Y368300D02*
X91148Y377189D01*
X87814Y377189D01*
X86481Y376633D01*
X85814Y375522D01*
X85814Y374411D01*
X86481Y373300D01*
X87814Y372744D01*
X86481Y372189D01*
X85814Y371078D01*
X85814Y369967D01*
X86481Y368856D01*
X87814Y368300D01*
X91148Y368300D01*
G54D13*
X91148Y372744D02*
X87814Y372744D01*
X285750Y282575D02*
G54D14*
D03*
X285750Y257175D02*
G54D14*
D03*
X285750Y282575D02*
G54D14*
D03*
X260350Y231775D02*
G54D11*
D03*
X285750Y231775D02*
G54D11*
D03*
G36*
X121350Y109755D02*
X128370Y116775D01*
X138330Y116775D01*
X145350Y109755D01*
X145350Y99795D01*
X138330Y92775D01*
X128370Y92775D01*
X121350Y99795D01*
X121350Y109755D01*
G37*
G36*
X95950Y109755D02*
X102970Y116775D01*
X112930Y116775D01*
X119950Y109755D01*
X119950Y99795D01*
X112930Y92775D01*
X102970Y92775D01*
X95950Y99795D01*
X95950Y109755D01*
G37*
X234950Y104775D02*
G54D15*
D03*
X260350Y104775D02*
G54D15*
D03*
X285750Y104780D02*
G54D15*
D03*
X184150Y104775D02*
G54D11*
D03*
X209550Y104775D02*
G54D11*
D03*
X82550Y130175D02*
G54D11*
D03*
X82550Y104775D02*
G54D11*
D03*
X82550Y104780D02*
G54D12*
D03*
X260350Y206375D02*
G54D11*
D03*
X260350Y155575D02*
G54D11*
D03*
X82550Y206375D02*
G54D12*
D03*
G36*
X273750Y363755D02*
X280770Y370775D01*
X290730Y370775D01*
X297750Y363755D01*
X297750Y353795D01*
X290730Y346775D01*
X280770Y346775D01*
X273750Y353795D01*
X273750Y363755D01*
G37*
G36*
X273750Y338355D02*
X280770Y345375D01*
X290730Y345375D01*
X297750Y338355D01*
X297750Y328395D01*
X290730Y321375D01*
X280770Y321375D01*
X273750Y328395D01*
X273750Y338355D01*
G37*
G36*
X273750Y312955D02*
X280770Y319975D01*
X290730Y319975D01*
X297750Y312955D01*
X297750Y302995D01*
X290730Y295975D01*
X280770Y295975D01*
X273750Y302995D01*
X273750Y312955D01*
G37*
X234950Y155575D02*
G54D11*
D03*
X234950Y130175D02*
G54D11*
D03*
X184150Y104775D02*
G54D12*
D03*
G36*
X19750Y160560D02*
X26770Y167580D01*
X36730Y167580D01*
X43750Y160560D01*
X43750Y150600D01*
X36730Y143580D01*
X26770Y143580D01*
X19750Y150600D01*
X19750Y160560D01*
G37*
G36*
X19750Y135155D02*
X26770Y142175D01*
X36730Y142175D01*
X43750Y135155D01*
X43750Y125195D01*
X36730Y118175D01*
X26770Y118175D01*
X19750Y125195D01*
X19750Y135155D01*
G37*
G36*
X19750Y262155D02*
X26770Y269175D01*
X36730Y269175D01*
X43750Y262155D01*
X43750Y252195D01*
X36730Y245175D01*
X26770Y245175D01*
X19750Y252195D01*
X19750Y262155D01*
G37*
X165100Y257175D02*
G54D11*
D03*
X165100Y231775D02*
G54D11*
D03*
X165100Y257170D02*
G54D12*
D03*
X95250Y292100D02*
G54D15*
D03*
X120650Y292100D02*
G54D15*
D03*
X114300Y254000D02*
G54D16*
D03*
X127000Y266700D02*
G54D16*
D03*
X139700Y254000D02*
G54D16*
D03*
G36*
X153100Y290730D02*
X160120Y297750D01*
X170080Y297750D01*
X177100Y290730D01*
X177100Y280770D01*
X170080Y273750D01*
X160120Y273750D01*
X153100Y280770D01*
X153100Y290730D01*
G37*
G36*
X153100Y316130D02*
X160120Y323150D01*
X170080Y323150D01*
X177100Y316130D01*
X177100Y306170D01*
X170080Y299150D01*
X160120Y299150D01*
X153100Y306170D01*
X153100Y316130D01*
G37*
X209550Y251775D02*
G54D14*
D03*
X209550Y231775D02*
G54D14*
D03*
X209550Y251780D02*
G54D14*
D03*
X95250Y292100D02*
G54D15*
D03*
G36*
X178500Y316130D02*
X185520Y323150D01*
X195480Y323150D01*
X202500Y316130D01*
X202500Y306170D01*
X195480Y299150D01*
X185520Y299150D01*
X178500Y306170D01*
X178500Y316130D01*
G37*
X254736Y298166D02*
G54D14*
D03*
X240594Y312308D02*
G54D14*
D03*
X254740Y298170D02*
G54D14*
D03*
X127000Y266700D02*
G54D16*
D03*
X82550Y257175D02*
G54D11*
D03*
X57150Y257175D02*
G54D11*
D03*
G36*
X19750Y211355D02*
X26770Y218375D01*
X36730Y218375D01*
X43750Y211355D01*
X43750Y201395D01*
X36730Y194375D01*
X26770Y194375D01*
X19750Y201395D01*
X19750Y211355D01*
G37*
G36*
X448150Y216375D02*
X448150Y196375D01*
X428150Y196375D01*
X428150Y216375D01*
X448150Y216375D01*
G37*
X438150Y180975D02*
G54D10*
D03*
X438150Y155575D02*
G54D10*
D03*
X438150Y130175D02*
G54D10*
D03*
X514350Y130175D02*
G54D10*
D03*
X514350Y155575D02*
G54D10*
D03*
X514350Y180975D02*
G54D10*
D03*
X514350Y206375D02*
G54D10*
D03*
X361950Y307975D02*
G54D11*
D03*
X361950Y282575D02*
G54D11*
D03*
X387350Y180975D02*
G54D11*
D03*
X412750Y206375D02*
G54D11*
D03*
X361950Y206375D02*
G54D11*
D03*
G36*
X324550Y287555D02*
X331570Y294575D01*
X341530Y294575D01*
X348550Y287555D01*
X348550Y277595D01*
X341530Y270575D01*
X331570Y270575D01*
X324550Y277595D01*
X324550Y287555D01*
G37*
G36*
X324550Y312955D02*
X331570Y319975D01*
X341530Y319975D01*
X348550Y312955D01*
X348550Y302995D01*
X341530Y295975D01*
X331570Y295975D01*
X324550Y302995D01*
X324550Y312955D01*
G37*
G36*
X324550Y338355D02*
X331570Y345375D01*
X341530Y345375D01*
X348550Y338355D01*
X348550Y328395D01*
X341530Y321375D01*
X331570Y321375D01*
X324550Y328395D01*
X324550Y338355D01*
G37*
G36*
X324550Y363755D02*
X331570Y370775D01*
X341530Y370775D01*
X348550Y363755D01*
X348550Y353795D01*
X341530Y346775D01*
X331570Y346775D01*
X324550Y353795D01*
X324550Y363755D01*
G37*
G36*
X578550Y135155D02*
X585570Y142175D01*
X595530Y142175D01*
X602550Y135155D01*
X602550Y125195D01*
X595530Y118175D01*
X585570Y118175D01*
X578550Y125195D01*
X578550Y135155D01*
G37*
G36*
X578550Y160555D02*
X585570Y167575D01*
X595530Y167575D01*
X602550Y160555D01*
X602550Y150595D01*
X595530Y143575D01*
X585570Y143575D01*
X578550Y150595D01*
X578550Y160555D01*
G37*
G36*
X578550Y185955D02*
X585570Y192975D01*
X595530Y192975D01*
X602550Y185955D01*
X602550Y175995D01*
X595530Y168975D01*
X585570Y168975D01*
X578550Y175995D01*
X578550Y185955D01*
G37*
G36*
X578550Y211355D02*
X585570Y218375D01*
X595530Y218375D01*
X602550Y211355D01*
X602550Y201395D01*
X595530Y194375D01*
X585570Y194375D01*
X578550Y201395D01*
X578550Y211355D01*
G37*
G36*
X324550Y109760D02*
X331570Y116780D01*
X341530Y116780D01*
X348550Y109760D01*
X348550Y99800D01*
X341530Y92780D01*
X331570Y92780D01*
X324550Y99800D01*
X324550Y109760D01*
G37*
G36*
X324550Y236755D02*
X331570Y243775D01*
X341530Y243775D01*
X348550Y236755D01*
X348550Y226795D01*
X341530Y219775D01*
X331570Y219775D01*
X324550Y226795D01*
X324550Y236755D01*
G37*
G36*
X324550Y312955D02*
X331570Y319975D01*
X341530Y319975D01*
X348550Y312955D01*
X348550Y302995D01*
X341530Y295975D01*
X331570Y295975D01*
X324550Y302995D01*
X324550Y312955D01*
G37*
X412750Y206375D02*
G54D12*
D03*
X361950Y307975D02*
G54D12*
D03*
X438150Y130175D02*
G54D12*
D03*
X590550Y155580D02*
G54D12*
D03*
X387350Y130175D02*
G54D11*
D03*
X387350Y155575D02*
G54D11*
D03*
G36*
X324550Y185955D02*
X331570Y192975D01*
X341530Y192975D01*
X348550Y185955D01*
X348550Y175995D01*
X341530Y168975D01*
X331570Y168975D01*
X324550Y175995D01*
X324550Y185955D01*
G37*
G36*
X451550Y109755D02*
X458570Y116775D01*
X468530Y116775D01*
X475550Y109755D01*
X475550Y99795D01*
X468530Y92775D01*
X458570Y92775D01*
X451550Y99795D01*
X451550Y109755D01*
G37*
G54D13*
X573088Y368300D02*
X569754Y377189D01*
X566421Y368300D01*
G54D13*
X571754Y371633D02*
X567754Y371633D01*
G54D13*
X561310Y368300D02*
X561310Y377189D01*
G54D13*
X563976Y377189D02*
X558643Y377189D01*
G54D13*
X553533Y368300D02*
X553533Y377189D01*
G54D13*
X556200Y377189D02*
X550866Y377189D01*
G54D13*
X548422Y368300D02*
X548422Y377189D01*
G54D13*
X545978Y368300D02*
X545978Y377189D01*
X540645Y368300D01*
X540645Y377189D01*
G54D13*
X538202Y377189D02*
X534868Y372744D01*
X534868Y368300D01*
G54D13*
X534868Y372744D02*
X531535Y377189D01*
G54D13*
X523757Y368300D02*
X529090Y368300D01*
X529090Y368856D01*
X528424Y369967D01*
X524424Y373300D01*
X523757Y374411D01*
X523757Y375522D01*
X524424Y376633D01*
X525757Y377189D01*
X527090Y377189D01*
X528424Y376633D01*
X529090Y375522D01*
G54D13*
X515980Y377189D02*
X521314Y377189D01*
X521314Y373300D01*
X520647Y373300D01*
X519314Y373856D01*
X517980Y373856D01*
X516647Y373300D01*
X515980Y372189D01*
X515980Y369967D01*
X516647Y368856D01*
X517980Y368300D01*
X519314Y368300D01*
X520647Y368856D01*
X521314Y369967D01*
G54D13*
X513536Y368300D02*
X508203Y377189D01*
G54D13*
X501760Y368300D02*
X501760Y377189D01*
X505760Y371633D01*
X505760Y370522D01*
X500426Y370522D01*
G54D13*
X492649Y377189D02*
X497982Y377189D01*
X497982Y373300D01*
X497316Y373300D01*
X495982Y373856D01*
X494649Y373856D01*
X493316Y373300D01*
X492649Y372189D01*
X492649Y369967D01*
X493316Y368856D01*
X494649Y368300D01*
X495982Y368300D01*
X497316Y368856D01*
X497982Y369967D01*
G54D13*
X490206Y368300D02*
X484872Y377189D01*
G54D13*
X479095Y372744D02*
X480428Y372744D01*
X481762Y373300D01*
X482428Y374411D01*
X482428Y375522D01*
X481762Y376633D01*
X480428Y377189D01*
X479095Y377189D01*
X477762Y376633D01*
X477095Y375522D01*
X477095Y374411D01*
X477762Y373300D01*
X479095Y372744D01*
X477762Y372189D01*
X477095Y371078D01*
X477095Y369967D01*
X477762Y368856D01*
X479095Y368300D01*
X480428Y368300D01*
X481762Y368856D01*
X482428Y369967D01*
X482428Y371078D01*
X481762Y372189D01*
X480428Y372744D01*
G54D13*
X469318Y377189D02*
X474652Y377189D01*
X474652Y373300D01*
X473985Y373300D01*
X472652Y373856D01*
X471318Y373856D01*
X469985Y373300D01*
X469318Y372189D01*
X469318Y369967D01*
X469985Y368856D01*
X471318Y368300D01*
X472652Y368300D01*
X473985Y368856D01*
X474652Y369967D01*
G54D13*
X464298Y368300D02*
X464298Y377189D01*
X460964Y377189D01*
X459631Y376633D01*
X458964Y375522D01*
X458964Y374411D01*
X459631Y373300D01*
X460964Y372744D01*
X459631Y372189D01*
X458964Y371078D01*
X458964Y369967D01*
X459631Y368856D01*
X460964Y368300D01*
X464298Y368300D01*
G54D13*
X464298Y372744D02*
X460964Y372744D01*
G54D13*
X456520Y368300D02*
X456520Y373300D01*
G54D13*
X456520Y372189D02*
X455187Y373300D01*
X453854Y373300D01*
G54D13*
X447410Y368856D02*
X448476Y368300D01*
X449810Y368300D01*
X451143Y368856D01*
X451410Y369967D01*
X451410Y371856D01*
X450743Y372967D01*
X449410Y373300D01*
X448076Y372967D01*
X447410Y372189D01*
X447410Y371078D01*
X451410Y371078D01*
G54D13*
X444966Y372744D02*
X443632Y373300D01*
X442032Y373300D01*
X440966Y372189D01*
X440966Y368300D01*
G54D13*
X440966Y369967D02*
X441632Y371078D01*
X442966Y371300D01*
X444299Y371078D01*
X444966Y369967D01*
X444699Y368856D01*
X443632Y368300D01*
X442966Y368300D01*
X442699Y368300D01*
X441632Y368856D01*
X440966Y369967D01*
G54D13*
X438522Y368300D02*
X438522Y377189D01*
G54D13*
X436522Y371633D02*
X434522Y368300D01*
G54D13*
X438522Y370522D02*
X434522Y373300D01*
G54D13*
X428078Y369633D02*
X428078Y371856D01*
X428744Y372967D01*
X430078Y373300D01*
X431411Y372967D01*
X432078Y371856D01*
X432078Y369633D01*
X431411Y368522D01*
X430078Y368300D01*
X428744Y368522D01*
X428078Y369633D01*
G54D13*
X421634Y373300D02*
X421634Y368300D01*
G54D13*
X421634Y369411D02*
X422300Y368522D01*
X423634Y368300D01*
X424967Y368522D01*
X425634Y369411D01*
X425634Y373300D01*
G54D13*
X417856Y377189D02*
X417856Y368856D01*
X417190Y368300D01*
X416523Y368522D01*
G54D13*
X419190Y373300D02*
X416523Y373300D01*
G54D13*
X411502Y368300D02*
X411502Y377189D01*
X408168Y377189D01*
X406835Y376633D01*
X406168Y375522D01*
X406168Y374411D01*
X406835Y373300D01*
X408168Y372744D01*
X411502Y372744D01*
G54D13*
X398391Y369967D02*
X399058Y368856D01*
X400391Y368300D01*
X401724Y368300D01*
X403058Y368856D01*
X403724Y369967D01*
X403724Y375522D01*
X403058Y376633D01*
X401724Y377189D01*
X400391Y377189D01*
X399058Y376633D01*
X398391Y375522D01*
G54D13*
X395948Y368300D02*
X395948Y377189D01*
X392614Y377189D01*
X391281Y376633D01*
X390614Y375522D01*
X390614Y374411D01*
X391281Y373300D01*
X392614Y372744D01*
X391281Y372189D01*
X390614Y371078D01*
X390614Y369967D01*
X391281Y368856D01*
X392614Y368300D01*
X395948Y368300D01*
G54D13*
X395948Y372744D02*
X392614Y372744D01*
X590550Y282575D02*
G54D14*
D03*
X590550Y257175D02*
G54D14*
D03*
X590550Y282575D02*
G54D14*
D03*
X565150Y231775D02*
G54D11*
D03*
X590550Y231775D02*
G54D11*
D03*
G36*
X426150Y109755D02*
X433170Y116775D01*
X443130Y116775D01*
X450150Y109755D01*
X450150Y99795D01*
X443130Y92775D01*
X433170Y92775D01*
X426150Y99795D01*
X426150Y109755D01*
G37*
G36*
X400750Y109755D02*
X407770Y116775D01*
X417730Y116775D01*
X424750Y109755D01*
X424750Y99795D01*
X417730Y92775D01*
X407770Y92775D01*
X400750Y99795D01*
X400750Y109755D01*
G37*
X539750Y104775D02*
G54D15*
D03*
X565150Y104775D02*
G54D15*
D03*
X590550Y104780D02*
G54D15*
D03*
X488950Y104775D02*
G54D11*
D03*
X514350Y104775D02*
G54D11*
D03*
X387350Y130175D02*
G54D11*
D03*
X387350Y104775D02*
G54D11*
D03*
X387350Y104780D02*
G54D12*
D03*
X565150Y206375D02*
G54D11*
D03*
X565150Y155575D02*
G54D11*
D03*
X387350Y206375D02*
G54D12*
D03*
G36*
X578550Y363755D02*
X585570Y370775D01*
X595530Y370775D01*
X602550Y363755D01*
X602550Y353795D01*
X595530Y346775D01*
X585570Y346775D01*
X578550Y353795D01*
X578550Y363755D01*
G37*
G36*
X578550Y338355D02*
X585570Y345375D01*
X595530Y345375D01*
X602550Y338355D01*
X602550Y328395D01*
X595530Y321375D01*
X585570Y321375D01*
X578550Y328395D01*
X578550Y338355D01*
G37*
G36*
X578550Y312955D02*
X585570Y319975D01*
X595530Y319975D01*
X602550Y312955D01*
X602550Y302995D01*
X595530Y295975D01*
X585570Y295975D01*
X578550Y302995D01*
X578550Y312955D01*
G37*
X539750Y155575D02*
G54D11*
D03*
X539750Y130175D02*
G54D11*
D03*
X488950Y104775D02*
G54D12*
D03*
G36*
X324550Y160560D02*
X331570Y167580D01*
X341530Y167580D01*
X348550Y160560D01*
X348550Y150600D01*
X341530Y143580D01*
X331570Y143580D01*
X324550Y150600D01*
X324550Y160560D01*
G37*
G36*
X324550Y135155D02*
X331570Y142175D01*
X341530Y142175D01*
X348550Y135155D01*
X348550Y125195D01*
X341530Y118175D01*
X331570Y118175D01*
X324550Y125195D01*
X324550Y135155D01*
G37*
G36*
X324550Y262155D02*
X331570Y269175D01*
X341530Y269175D01*
X348550Y262155D01*
X348550Y252195D01*
X341530Y245175D01*
X331570Y245175D01*
X324550Y252195D01*
X324550Y262155D01*
G37*
X469900Y257175D02*
G54D11*
D03*
X469900Y231775D02*
G54D11*
D03*
X469900Y257170D02*
G54D12*
D03*
X400050Y292100D02*
G54D15*
D03*
X425450Y292100D02*
G54D15*
D03*
X419100Y254000D02*
G54D16*
D03*
X431800Y266700D02*
G54D16*
D03*
X444500Y254000D02*
G54D16*
D03*
G36*
X457900Y290730D02*
X464920Y297750D01*
X474880Y297750D01*
X481900Y290730D01*
X481900Y280770D01*
X474880Y273750D01*
X464920Y273750D01*
X457900Y280770D01*
X457900Y290730D01*
G37*
G36*
X457900Y316130D02*
X464920Y323150D01*
X474880Y323150D01*
X481900Y316130D01*
X481900Y306170D01*
X474880Y299150D01*
X464920Y299150D01*
X457900Y306170D01*
X457900Y316130D01*
G37*
X514350Y251775D02*
G54D14*
D03*
X514350Y231775D02*
G54D14*
D03*
X514350Y251780D02*
G54D14*
D03*
X400050Y292100D02*
G54D15*
D03*
G36*
X483300Y316130D02*
X490320Y323150D01*
X500280Y323150D01*
X507300Y316130D01*
X507300Y306170D01*
X500280Y299150D01*
X490320Y299150D01*
X483300Y306170D01*
X483300Y316130D01*
G37*
X559536Y298166D02*
G54D14*
D03*
X545394Y312308D02*
G54D14*
D03*
X559540Y298170D02*
G54D14*
D03*
X431800Y266700D02*
G54D16*
D03*
X387350Y257175D02*
G54D11*
D03*
X361950Y257175D02*
G54D11*
D03*
G36*
X324550Y211355D02*
X331570Y218375D01*
X341530Y218375D01*
X348550Y211355D01*
X348550Y201395D01*
X341530Y194375D01*
X331570Y194375D01*
X324550Y201395D01*
X324550Y211355D01*
G37*
G36*
X752950Y216375D02*
X752950Y196375D01*
X732950Y196375D01*
X732950Y216375D01*
X752950Y216375D01*
G37*
X742950Y180975D02*
G54D10*
D03*
X742950Y155575D02*
G54D10*
D03*
X742950Y130175D02*
G54D10*
D03*
X819150Y130175D02*
G54D10*
D03*
X819150Y155575D02*
G54D10*
D03*
X819150Y180975D02*
G54D10*
D03*
X819150Y206375D02*
G54D10*
D03*
X666750Y307975D02*
G54D11*
D03*
X666750Y282575D02*
G54D11*
D03*
X692150Y180975D02*
G54D11*
D03*
X717550Y206375D02*
G54D11*
D03*
X666750Y206375D02*
G54D11*
D03*
G36*
X629350Y287555D02*
X636370Y294575D01*
X646330Y294575D01*
X653350Y287555D01*
X653350Y277595D01*
X646330Y270575D01*
X636370Y270575D01*
X629350Y277595D01*
X629350Y287555D01*
G37*
G36*
X629350Y312955D02*
X636370Y319975D01*
X646330Y319975D01*
X653350Y312955D01*
X653350Y302995D01*
X646330Y295975D01*
X636370Y295975D01*
X629350Y302995D01*
X629350Y312955D01*
G37*
G36*
X629350Y338355D02*
X636370Y345375D01*
X646330Y345375D01*
X653350Y338355D01*
X653350Y328395D01*
X646330Y321375D01*
X636370Y321375D01*
X629350Y328395D01*
X629350Y338355D01*
G37*
G36*
X629350Y363755D02*
X636370Y370775D01*
X646330Y370775D01*
X653350Y363755D01*
X653350Y353795D01*
X646330Y346775D01*
X636370Y346775D01*
X629350Y353795D01*
X629350Y363755D01*
G37*
G36*
X883350Y135155D02*
X890370Y142175D01*
X900330Y142175D01*
X907350Y135155D01*
X907350Y125195D01*
X900330Y118175D01*
X890370Y118175D01*
X883350Y125195D01*
X883350Y135155D01*
G37*
G36*
X883350Y160555D02*
X890370Y167575D01*
X900330Y167575D01*
X907350Y160555D01*
X907350Y150595D01*
X900330Y143575D01*
X890370Y143575D01*
X883350Y150595D01*
X883350Y160555D01*
G37*
G36*
X883350Y185955D02*
X890370Y192975D01*
X900330Y192975D01*
X907350Y185955D01*
X907350Y175995D01*
X900330Y168975D01*
X890370Y168975D01*
X883350Y175995D01*
X883350Y185955D01*
G37*
G36*
X883350Y211355D02*
X890370Y218375D01*
X900330Y218375D01*
X907350Y211355D01*
X907350Y201395D01*
X900330Y194375D01*
X890370Y194375D01*
X883350Y201395D01*
X883350Y211355D01*
G37*
G36*
X629350Y109760D02*
X636370Y116780D01*
X646330Y116780D01*
X653350Y109760D01*
X653350Y99800D01*
X646330Y92780D01*
X636370Y92780D01*
X629350Y99800D01*
X629350Y109760D01*
G37*
G36*
X629350Y236755D02*
X636370Y243775D01*
X646330Y243775D01*
X653350Y236755D01*
X653350Y226795D01*
X646330Y219775D01*
X636370Y219775D01*
X629350Y226795D01*
X629350Y236755D01*
G37*
G36*
X629350Y312955D02*
X636370Y319975D01*
X646330Y319975D01*
X653350Y312955D01*
X653350Y302995D01*
X646330Y295975D01*
X636370Y295975D01*
X629350Y302995D01*
X629350Y312955D01*
G37*
X717550Y206375D02*
G54D12*
D03*
X666750Y307975D02*
G54D12*
D03*
X742950Y130175D02*
G54D12*
D03*
X895350Y155580D02*
G54D12*
D03*
X692150Y130175D02*
G54D11*
D03*
X692150Y155575D02*
G54D11*
D03*
G36*
X629350Y185955D02*
X636370Y192975D01*
X646330Y192975D01*
X653350Y185955D01*
X653350Y175995D01*
X646330Y168975D01*
X636370Y168975D01*
X629350Y175995D01*
X629350Y185955D01*
G37*
G36*
X756350Y109755D02*
X763370Y116775D01*
X773330Y116775D01*
X780350Y109755D01*
X780350Y99795D01*
X773330Y92775D01*
X763370Y92775D01*
X756350Y99795D01*
X756350Y109755D01*
G37*
G54D13*
X877888Y368300D02*
X874554Y377189D01*
X871221Y368300D01*
G54D13*
X876554Y371633D02*
X872554Y371633D01*
G54D13*
X866110Y368300D02*
X866110Y377189D01*
G54D13*
X868776Y377189D02*
X863443Y377189D01*
G54D13*
X858333Y368300D02*
X858333Y377189D01*
G54D13*
X861000Y377189D02*
X855666Y377189D01*
G54D13*
X853222Y368300D02*
X853222Y377189D01*
G54D13*
X850778Y368300D02*
X850778Y377189D01*
X845445Y368300D01*
X845445Y377189D01*
G54D13*
X843002Y377189D02*
X839668Y372744D01*
X839668Y368300D01*
G54D13*
X839668Y372744D02*
X836335Y377189D01*
G54D13*
X828557Y368300D02*
X833890Y368300D01*
X833890Y368856D01*
X833224Y369967D01*
X829224Y373300D01*
X828557Y374411D01*
X828557Y375522D01*
X829224Y376633D01*
X830557Y377189D01*
X831890Y377189D01*
X833224Y376633D01*
X833890Y375522D01*
G54D13*
X820780Y377189D02*
X826114Y377189D01*
X826114Y373300D01*
X825447Y373300D01*
X824114Y373856D01*
X822780Y373856D01*
X821447Y373300D01*
X820780Y372189D01*
X820780Y369967D01*
X821447Y368856D01*
X822780Y368300D01*
X824114Y368300D01*
X825447Y368856D01*
X826114Y369967D01*
G54D13*
X818336Y368300D02*
X813003Y377189D01*
G54D13*
X806560Y368300D02*
X806560Y377189D01*
X810560Y371633D01*
X810560Y370522D01*
X805226Y370522D01*
G54D13*
X797449Y377189D02*
X802782Y377189D01*
X802782Y373300D01*
X802116Y373300D01*
X800782Y373856D01*
X799449Y373856D01*
X798116Y373300D01*
X797449Y372189D01*
X797449Y369967D01*
X798116Y368856D01*
X799449Y368300D01*
X800782Y368300D01*
X802116Y368856D01*
X802782Y369967D01*
G54D13*
X795006Y368300D02*
X789672Y377189D01*
G54D13*
X783895Y372744D02*
X785228Y372744D01*
X786562Y373300D01*
X787228Y374411D01*
X787228Y375522D01*
X786562Y376633D01*
X785228Y377189D01*
X783895Y377189D01*
X782562Y376633D01*
X781895Y375522D01*
X781895Y374411D01*
X782562Y373300D01*
X783895Y372744D01*
X782562Y372189D01*
X781895Y371078D01*
X781895Y369967D01*
X782562Y368856D01*
X783895Y368300D01*
X785228Y368300D01*
X786562Y368856D01*
X787228Y369967D01*
X787228Y371078D01*
X786562Y372189D01*
X785228Y372744D01*
G54D13*
X774118Y377189D02*
X779452Y377189D01*
X779452Y373300D01*
X778785Y373300D01*
X777452Y373856D01*
X776118Y373856D01*
X774785Y373300D01*
X774118Y372189D01*
X774118Y369967D01*
X774785Y368856D01*
X776118Y368300D01*
X777452Y368300D01*
X778785Y368856D01*
X779452Y369967D01*
G54D13*
X769098Y368300D02*
X769098Y377189D01*
X765764Y377189D01*
X764431Y376633D01*
X763764Y375522D01*
X763764Y374411D01*
X764431Y373300D01*
X765764Y372744D01*
X764431Y372189D01*
X763764Y371078D01*
X763764Y369967D01*
X764431Y368856D01*
X765764Y368300D01*
X769098Y368300D01*
G54D13*
X769098Y372744D02*
X765764Y372744D01*
G54D13*
X761320Y368300D02*
X761320Y373300D01*
G54D13*
X761320Y372189D02*
X759987Y373300D01*
X758654Y373300D01*
G54D13*
X752210Y368856D02*
X753276Y368300D01*
X754610Y368300D01*
X755943Y368856D01*
X756210Y369967D01*
X756210Y371856D01*
X755543Y372967D01*
X754210Y373300D01*
X752876Y372967D01*
X752210Y372189D01*
X752210Y371078D01*
X756210Y371078D01*
G54D13*
X749766Y372744D02*
X748432Y373300D01*
X746832Y373300D01*
X745766Y372189D01*
X745766Y368300D01*
G54D13*
X745766Y369967D02*
X746432Y371078D01*
X747766Y371300D01*
X749099Y371078D01*
X749766Y369967D01*
X749499Y368856D01*
X748432Y368300D01*
X747766Y368300D01*
X747499Y368300D01*
X746432Y368856D01*
X745766Y369967D01*
G54D13*
X743322Y368300D02*
X743322Y377189D01*
G54D13*
X741322Y371633D02*
X739322Y368300D01*
G54D13*
X743322Y370522D02*
X739322Y373300D01*
G54D13*
X732878Y369633D02*
X732878Y371856D01*
X733544Y372967D01*
X734878Y373300D01*
X736211Y372967D01*
X736878Y371856D01*
X736878Y369633D01*
X736211Y368522D01*
X734878Y368300D01*
X733544Y368522D01*
X732878Y369633D01*
G54D13*
X726434Y373300D02*
X726434Y368300D01*
G54D13*
X726434Y369411D02*
X727100Y368522D01*
X728434Y368300D01*
X729767Y368522D01*
X730434Y369411D01*
X730434Y373300D01*
G54D13*
X722656Y377189D02*
X722656Y368856D01*
X721990Y368300D01*
X721323Y368522D01*
G54D13*
X723990Y373300D02*
X721323Y373300D01*
G54D13*
X716302Y368300D02*
X716302Y377189D01*
X712968Y377189D01*
X711635Y376633D01*
X710968Y375522D01*
X710968Y374411D01*
X711635Y373300D01*
X712968Y372744D01*
X716302Y372744D01*
G54D13*
X703191Y369967D02*
X703858Y368856D01*
X705191Y368300D01*
X706524Y368300D01*
X707858Y368856D01*
X708524Y369967D01*
X708524Y375522D01*
X707858Y376633D01*
X706524Y377189D01*
X705191Y377189D01*
X703858Y376633D01*
X703191Y375522D01*
G54D13*
X700748Y368300D02*
X700748Y377189D01*
X697414Y377189D01*
X696081Y376633D01*
X695414Y375522D01*
X695414Y374411D01*
X696081Y373300D01*
X697414Y372744D01*
X696081Y372189D01*
X695414Y371078D01*
X695414Y369967D01*
X696081Y368856D01*
X697414Y368300D01*
X700748Y368300D01*
G54D13*
X700748Y372744D02*
X697414Y372744D01*
X895350Y282575D02*
G54D14*
D03*
X895350Y257175D02*
G54D14*
D03*
X895350Y282575D02*
G54D14*
D03*
X869950Y231775D02*
G54D11*
D03*
X895350Y231775D02*
G54D11*
D03*
G36*
X730950Y109755D02*
X737970Y116775D01*
X747930Y116775D01*
X754950Y109755D01*
X754950Y99795D01*
X747930Y92775D01*
X737970Y92775D01*
X730950Y99795D01*
X730950Y109755D01*
G37*
G36*
X705550Y109755D02*
X712570Y116775D01*
X722530Y116775D01*
X729550Y109755D01*
X729550Y99795D01*
X722530Y92775D01*
X712570Y92775D01*
X705550Y99795D01*
X705550Y109755D01*
G37*
X844550Y104775D02*
G54D15*
D03*
X869950Y104775D02*
G54D15*
D03*
X895350Y104780D02*
G54D15*
D03*
X793750Y104775D02*
G54D11*
D03*
X819150Y104775D02*
G54D11*
D03*
X692150Y130175D02*
G54D11*
D03*
X692150Y104775D02*
G54D11*
D03*
X692150Y104780D02*
G54D12*
D03*
X869950Y206375D02*
G54D11*
D03*
X869950Y155575D02*
G54D11*
D03*
X692150Y206375D02*
G54D12*
D03*
G36*
X883350Y363755D02*
X890370Y370775D01*
X900330Y370775D01*
X907350Y363755D01*
X907350Y353795D01*
X900330Y346775D01*
X890370Y346775D01*
X883350Y353795D01*
X883350Y363755D01*
G37*
G36*
X883350Y338355D02*
X890370Y345375D01*
X900330Y345375D01*
X907350Y338355D01*
X907350Y328395D01*
X900330Y321375D01*
X890370Y321375D01*
X883350Y328395D01*
X883350Y338355D01*
G37*
G36*
X883350Y312955D02*
X890370Y319975D01*
X900330Y319975D01*
X907350Y312955D01*
X907350Y302995D01*
X900330Y295975D01*
X890370Y295975D01*
X883350Y302995D01*
X883350Y312955D01*
G37*
X844550Y155575D02*
G54D11*
D03*
X844550Y130175D02*
G54D11*
D03*
X793750Y104775D02*
G54D12*
D03*
G36*
X629350Y160560D02*
X636370Y167580D01*
X646330Y167580D01*
X653350Y160560D01*
X653350Y150600D01*
X646330Y143580D01*
X636370Y143580D01*
X629350Y150600D01*
X629350Y160560D01*
G37*
G36*
X629350Y135155D02*
X636370Y142175D01*
X646330Y142175D01*
X653350Y135155D01*
X653350Y125195D01*
X646330Y118175D01*
X636370Y118175D01*
X629350Y125195D01*
X629350Y135155D01*
G37*
G36*
X629350Y262155D02*
X636370Y269175D01*
X646330Y269175D01*
X653350Y262155D01*
X653350Y252195D01*
X646330Y245175D01*
X636370Y245175D01*
X629350Y252195D01*
X629350Y262155D01*
G37*
X774700Y257175D02*
G54D11*
D03*
X774700Y231775D02*
G54D11*
D03*
X774700Y257170D02*
G54D12*
D03*
X704850Y292100D02*
G54D15*
D03*
X730250Y292100D02*
G54D15*
D03*
X723900Y254000D02*
G54D16*
D03*
X736600Y266700D02*
G54D16*
D03*
X749300Y254000D02*
G54D16*
D03*
G36*
X762700Y290730D02*
X769720Y297750D01*
X779680Y297750D01*
X786700Y290730D01*
X786700Y280770D01*
X779680Y273750D01*
X769720Y273750D01*
X762700Y280770D01*
X762700Y290730D01*
G37*
G36*
X762700Y316130D02*
X769720Y323150D01*
X779680Y323150D01*
X786700Y316130D01*
X786700Y306170D01*
X779680Y299150D01*
X769720Y299150D01*
X762700Y306170D01*
X762700Y316130D01*
G37*
X819150Y251775D02*
G54D14*
D03*
X819150Y231775D02*
G54D14*
D03*
X819150Y251780D02*
G54D14*
D03*
X704850Y292100D02*
G54D15*
D03*
G36*
X788100Y316130D02*
X795120Y323150D01*
X805080Y323150D01*
X812100Y316130D01*
X812100Y306170D01*
X805080Y299150D01*
X795120Y299150D01*
X788100Y306170D01*
X788100Y316130D01*
G37*
X864336Y298166D02*
G54D14*
D03*
X850194Y312308D02*
G54D14*
D03*
X864340Y298170D02*
G54D14*
D03*
X736600Y266700D02*
G54D16*
D03*
X692150Y257175D02*
G54D11*
D03*
X666750Y257175D02*
G54D11*
D03*
G36*
X629350Y211355D02*
X636370Y218375D01*
X646330Y218375D01*
X653350Y211355D01*
X653350Y201395D01*
X646330Y194375D01*
X636370Y194375D01*
X629350Y201395D01*
X629350Y211355D01*
G37*
M02*
