%FSLAX34Y34*%
%MOMM*%
%LNCOPPER_TOP*%
G71*
G01*
%ADD10C, 2.20*%
%ADD11C, 2.60*%
%ADD12C, 2.60*%
%ADD13C, 2.40*%
%ADD14C, 1.30*%
%ADD15C, 2.60*%
%ADD16C, 2.20*%
%ADD17C, 0.60*%
%ADD18C, 0.53*%
%ADD19C, 0.47*%
%ADD20C, 1.40*%
%ADD21C, 1.80*%
%ADD22C, 1.80*%
%ADD23C, 1.60*%
%ADD24C, 0.50*%
%ADD25C, 1.80*%
%ADD26C, 1.40*%
%LPD*%
G36*
X0Y1000000D02*
X930000Y1000000D01*
X930000Y70000D01*
X0Y70000D01*
X0Y1000000D01*
G37*
%LPC*%
G36*
X144350Y826975D02*
X144350Y804975D01*
X122350Y804975D01*
X122350Y826975D01*
X144350Y826975D01*
G37*
X133350Y790575D02*
G54D10*
D03*
X133350Y765175D02*
G54D10*
D03*
X133350Y739775D02*
G54D10*
D03*
X209550Y739775D02*
G54D10*
D03*
X209550Y765175D02*
G54D10*
D03*
X209550Y790575D02*
G54D10*
D03*
X209550Y815975D02*
G54D10*
D03*
X57150Y917575D02*
G54D11*
D03*
X57150Y892175D02*
G54D11*
D03*
X82550Y790575D02*
G54D11*
D03*
X107950Y815975D02*
G54D11*
D03*
X57150Y815975D02*
G54D11*
D03*
X31750Y892175D02*
G54D12*
D03*
X31750Y917575D02*
G54D12*
D03*
X31750Y942975D02*
G54D12*
D03*
X31750Y968375D02*
G54D12*
D03*
G36*
X272750Y745170D02*
X280355Y752775D01*
X291145Y752775D01*
X298750Y745170D01*
X298750Y734380D01*
X291145Y726775D01*
X280355Y726775D01*
X272750Y734380D01*
X272750Y745170D01*
G37*
G36*
X272750Y770570D02*
X280355Y778175D01*
X291145Y778175D01*
X298750Y770570D01*
X298750Y759780D01*
X291145Y752175D01*
X280355Y752175D01*
X272750Y759780D01*
X272750Y770570D01*
G37*
G36*
X272750Y795970D02*
X280355Y803575D01*
X291145Y803575D01*
X298750Y795970D01*
X298750Y785180D01*
X291145Y777575D01*
X280355Y777575D01*
X272750Y785180D01*
X272750Y795970D01*
G37*
G36*
X272750Y821370D02*
X280355Y828975D01*
X291145Y828975D01*
X298750Y821370D01*
X298750Y810580D01*
X291145Y802975D01*
X280355Y802975D01*
X272750Y810580D01*
X272750Y821370D01*
G37*
X31750Y714380D02*
G54D12*
D03*
X31750Y841375D02*
G54D12*
D03*
X31750Y917575D02*
G54D12*
D03*
X107950Y815975D02*
G54D12*
D03*
X57150Y917575D02*
G54D12*
D03*
X133350Y739775D02*
G54D12*
D03*
X285750Y765175D02*
G54D12*
D03*
X82550Y739775D02*
G54D11*
D03*
X82550Y765175D02*
G54D11*
D03*
X31750Y790575D02*
G54D12*
D03*
X158750Y714375D02*
G54D12*
D03*
X285750Y892175D02*
G54D13*
D03*
X285750Y866775D02*
G54D13*
D03*
X285750Y892175D02*
G54D13*
D03*
X260350Y841375D02*
G54D11*
D03*
X285750Y841375D02*
G54D11*
D03*
X133350Y714375D02*
G54D12*
D03*
X107950Y714375D02*
G54D12*
D03*
G36*
X221950Y719770D02*
X229555Y727375D01*
X240345Y727375D01*
X247950Y719770D01*
X247950Y708980D01*
X240345Y701375D01*
X229555Y701375D01*
X221950Y708980D01*
X221950Y719770D01*
G37*
G36*
X247350Y719770D02*
X254955Y727375D01*
X265745Y727375D01*
X273350Y719770D01*
X273350Y708980D01*
X265745Y701375D01*
X254955Y701375D01*
X247350Y708980D01*
X247350Y719770D01*
G37*
G36*
X272750Y719770D02*
X280355Y727375D01*
X291145Y727375D01*
X298750Y719770D01*
X298750Y708980D01*
X291145Y701375D01*
X280355Y701375D01*
X272750Y708980D01*
X272750Y719770D01*
G37*
G54D14*
X31750Y892175D02*
X57150Y892175D01*
G54D14*
X31750Y866775D02*
X57150Y866775D01*
G54D14*
X31750Y790575D02*
X133350Y790575D01*
X184150Y714375D02*
G54D11*
D03*
X209550Y714375D02*
G54D11*
D03*
G54D14*
X209550Y714375D02*
X234950Y714375D01*
G54D14*
X260350Y765175D02*
X260350Y714375D01*
G54D14*
X260350Y765175D02*
X260350Y790575D01*
X285750Y815975D01*
X82550Y739775D02*
G54D11*
D03*
X82550Y714375D02*
G54D11*
D03*
X82550Y714380D02*
G54D12*
D03*
G54D14*
X285750Y841375D02*
X285750Y866775D01*
X260350Y815975D02*
G54D11*
D03*
X260350Y765175D02*
G54D11*
D03*
G54D14*
X133350Y815975D02*
X158750Y790575D01*
X158750Y714375D01*
X82550Y815975D02*
G54D12*
D03*
G54D14*
X82550Y790575D02*
X82550Y815975D01*
G54D14*
X209550Y790575D02*
X225425Y806450D01*
X225425Y968375D01*
X31750Y968375D01*
X285750Y968375D02*
G54D12*
D03*
X285750Y942975D02*
G54D12*
D03*
X285750Y917575D02*
G54D12*
D03*
G54D14*
X225425Y968375D02*
X285750Y968375D01*
X209550Y942975D02*
G54D12*
D03*
X234950Y765175D02*
G54D11*
D03*
X234950Y739775D02*
G54D11*
D03*
G54D14*
X209550Y765175D02*
X234950Y765175D01*
G54D14*
X234950Y739775D02*
X234950Y714375D01*
X184150Y714375D02*
G54D12*
D03*
G54D14*
X190500Y942975D02*
X209550Y942975D01*
X31750Y765180D02*
G54D12*
D03*
X31750Y739775D02*
G54D12*
D03*
X31750Y866775D02*
G54D12*
D03*
G54D14*
X133350Y765175D02*
X107950Y765175D01*
X82550Y739775D01*
X57150Y714375D01*
X31750Y714380D01*
X165100Y866775D02*
G54D11*
D03*
X165100Y841375D02*
G54D11*
D03*
X165100Y866770D02*
G54D12*
D03*
X95250Y901700D02*
G54D15*
D03*
X120650Y901700D02*
G54D15*
D03*
X114300Y863600D02*
G54D16*
D03*
X127000Y876300D02*
G54D16*
D03*
X139700Y863600D02*
G54D16*
D03*
X165100Y895350D02*
G54D15*
D03*
X165100Y920750D02*
G54D15*
D03*
X209550Y861375D02*
G54D13*
D03*
X209550Y841375D02*
G54D13*
D03*
X209550Y861380D02*
G54D13*
D03*
X95250Y901700D02*
G54D15*
D03*
X190500Y920750D02*
G54D15*
D03*
G54D14*
X209550Y739775D02*
X190500Y758825D01*
X190500Y866775D01*
X209550Y885825D01*
X209550Y942975D01*
G54D14*
X212725Y942975D02*
X31750Y942975D01*
G54D14*
X234950Y765175D02*
X234950Y866775D01*
X285750Y917575D01*
X254736Y907766D02*
G54D13*
D03*
X240594Y921908D02*
G54D13*
D03*
X254740Y907770D02*
G54D13*
D03*
X127000Y876300D02*
G54D16*
D03*
X82550Y866775D02*
G54D11*
D03*
X57150Y866775D02*
G54D11*
D03*
X31750Y815975D02*
G54D12*
D03*
G36*
X449150Y826975D02*
X449150Y804975D01*
X427150Y804975D01*
X427150Y826975D01*
X449150Y826975D01*
G37*
X438150Y790575D02*
G54D10*
D03*
X438150Y765175D02*
G54D10*
D03*
X438150Y739775D02*
G54D10*
D03*
X514350Y739775D02*
G54D10*
D03*
X514350Y765175D02*
G54D10*
D03*
X514350Y790575D02*
G54D10*
D03*
X514350Y815975D02*
G54D10*
D03*
X361950Y917575D02*
G54D11*
D03*
X361950Y892175D02*
G54D11*
D03*
X387350Y790575D02*
G54D11*
D03*
X412750Y815975D02*
G54D11*
D03*
X361950Y815975D02*
G54D11*
D03*
X336550Y892175D02*
G54D12*
D03*
X336550Y917575D02*
G54D12*
D03*
X336550Y942975D02*
G54D12*
D03*
X336550Y968375D02*
G54D12*
D03*
G36*
X577550Y745170D02*
X585155Y752775D01*
X595945Y752775D01*
X603550Y745170D01*
X603550Y734380D01*
X595945Y726775D01*
X585155Y726775D01*
X577550Y734380D01*
X577550Y745170D01*
G37*
G36*
X577550Y770570D02*
X585155Y778175D01*
X595945Y778175D01*
X603550Y770570D01*
X603550Y759780D01*
X595945Y752175D01*
X585155Y752175D01*
X577550Y759780D01*
X577550Y770570D01*
G37*
G36*
X577550Y795970D02*
X585155Y803575D01*
X595945Y803575D01*
X603550Y795970D01*
X603550Y785180D01*
X595945Y777575D01*
X585155Y777575D01*
X577550Y785180D01*
X577550Y795970D01*
G37*
G36*
X577550Y821370D02*
X585155Y828975D01*
X595945Y828975D01*
X603550Y821370D01*
X603550Y810580D01*
X595945Y802975D01*
X585155Y802975D01*
X577550Y810580D01*
X577550Y821370D01*
G37*
X336550Y714380D02*
G54D12*
D03*
X336550Y841375D02*
G54D12*
D03*
X336550Y917575D02*
G54D12*
D03*
X412750Y815975D02*
G54D12*
D03*
X361950Y917575D02*
G54D12*
D03*
X438150Y739775D02*
G54D12*
D03*
X590550Y765175D02*
G54D12*
D03*
X387350Y739775D02*
G54D11*
D03*
X387350Y765175D02*
G54D11*
D03*
X336550Y790575D02*
G54D12*
D03*
X463550Y714375D02*
G54D12*
D03*
X590550Y892175D02*
G54D13*
D03*
X590550Y866775D02*
G54D13*
D03*
X590550Y892175D02*
G54D13*
D03*
X565150Y841375D02*
G54D11*
D03*
X590550Y841375D02*
G54D11*
D03*
X438150Y714375D02*
G54D12*
D03*
X412750Y714375D02*
G54D12*
D03*
G36*
X526750Y719770D02*
X534355Y727375D01*
X545145Y727375D01*
X552750Y719770D01*
X552750Y708980D01*
X545145Y701375D01*
X534355Y701375D01*
X526750Y708980D01*
X526750Y719770D01*
G37*
G36*
X552150Y719770D02*
X559755Y727375D01*
X570545Y727375D01*
X578150Y719770D01*
X578150Y708980D01*
X570545Y701375D01*
X559755Y701375D01*
X552150Y708980D01*
X552150Y719770D01*
G37*
G36*
X577550Y719770D02*
X585155Y727375D01*
X595945Y727375D01*
X603550Y719770D01*
X603550Y708980D01*
X595945Y701375D01*
X585155Y701375D01*
X577550Y708980D01*
X577550Y719770D01*
G37*
G54D14*
X336550Y892175D02*
X361950Y892175D01*
G54D14*
X336550Y866775D02*
X361950Y866775D01*
G54D14*
X336550Y790575D02*
X438150Y790575D01*
X488950Y714375D02*
G54D11*
D03*
X514350Y714375D02*
G54D11*
D03*
G54D14*
X514350Y714375D02*
X539750Y714375D01*
G54D14*
X565150Y765175D02*
X565150Y714375D01*
G54D14*
X565150Y765175D02*
X565150Y790575D01*
X590550Y815975D01*
X387350Y739775D02*
G54D11*
D03*
X387350Y714375D02*
G54D11*
D03*
X387350Y714380D02*
G54D12*
D03*
G54D14*
X590550Y841375D02*
X590550Y866775D01*
X565150Y815975D02*
G54D11*
D03*
X565150Y765175D02*
G54D11*
D03*
G54D14*
X438150Y815975D02*
X463550Y790575D01*
X463550Y714375D01*
X387350Y815975D02*
G54D12*
D03*
G54D14*
X387350Y790575D02*
X387350Y815975D01*
G54D14*
X514350Y790575D02*
X530225Y806450D01*
X530225Y968375D01*
X336550Y968375D01*
X590550Y968375D02*
G54D12*
D03*
X590550Y942975D02*
G54D12*
D03*
X590550Y917575D02*
G54D12*
D03*
G54D14*
X530225Y968375D02*
X590550Y968375D01*
X514350Y942975D02*
G54D12*
D03*
X539750Y765175D02*
G54D11*
D03*
X539750Y739775D02*
G54D11*
D03*
G54D14*
X514350Y765175D02*
X539750Y765175D01*
G54D14*
X539750Y739775D02*
X539750Y714375D01*
X488950Y714375D02*
G54D12*
D03*
G54D14*
X495300Y942975D02*
X514350Y942975D01*
X336550Y765180D02*
G54D12*
D03*
X336550Y739775D02*
G54D12*
D03*
X336550Y866775D02*
G54D12*
D03*
G54D14*
X438150Y765175D02*
X412750Y765175D01*
X387350Y739775D01*
X361950Y714375D01*
X336550Y714380D01*
X469900Y866775D02*
G54D11*
D03*
X469900Y841375D02*
G54D11*
D03*
X469900Y866770D02*
G54D12*
D03*
X400050Y901700D02*
G54D15*
D03*
X425450Y901700D02*
G54D15*
D03*
X419100Y863600D02*
G54D16*
D03*
X431800Y876300D02*
G54D16*
D03*
X444500Y863600D02*
G54D16*
D03*
X469900Y895350D02*
G54D15*
D03*
X469900Y920750D02*
G54D15*
D03*
X514350Y861375D02*
G54D13*
D03*
X514350Y841375D02*
G54D13*
D03*
X514350Y861380D02*
G54D13*
D03*
X400050Y901700D02*
G54D15*
D03*
X495300Y920750D02*
G54D15*
D03*
G54D14*
X514350Y739775D02*
X495300Y758825D01*
X495300Y866775D01*
X514350Y885825D01*
X514350Y942975D01*
G54D14*
X517525Y942975D02*
X336550Y942975D01*
G54D14*
X539750Y765175D02*
X539750Y866775D01*
X590550Y917575D01*
X559536Y907766D02*
G54D13*
D03*
X545394Y921908D02*
G54D13*
D03*
X559540Y907770D02*
G54D13*
D03*
X431800Y876300D02*
G54D16*
D03*
X387350Y866775D02*
G54D11*
D03*
X361950Y866775D02*
G54D11*
D03*
X336550Y815975D02*
G54D12*
D03*
G36*
X753950Y826975D02*
X753950Y804975D01*
X731950Y804975D01*
X731950Y826975D01*
X753950Y826975D01*
G37*
X742950Y790575D02*
G54D10*
D03*
X742950Y765175D02*
G54D10*
D03*
X742950Y739775D02*
G54D10*
D03*
X819150Y739775D02*
G54D10*
D03*
X819150Y765175D02*
G54D10*
D03*
X819150Y790575D02*
G54D10*
D03*
X819150Y815975D02*
G54D10*
D03*
X666750Y917575D02*
G54D11*
D03*
X666750Y892175D02*
G54D11*
D03*
X692150Y790575D02*
G54D11*
D03*
X717550Y815975D02*
G54D11*
D03*
X666750Y815975D02*
G54D11*
D03*
X641350Y892175D02*
G54D12*
D03*
X641350Y917575D02*
G54D12*
D03*
X641350Y942975D02*
G54D12*
D03*
X641350Y968375D02*
G54D12*
D03*
G36*
X882350Y745170D02*
X889955Y752775D01*
X900745Y752775D01*
X908350Y745170D01*
X908350Y734380D01*
X900745Y726775D01*
X889955Y726775D01*
X882350Y734380D01*
X882350Y745170D01*
G37*
G36*
X882350Y770570D02*
X889955Y778175D01*
X900745Y778175D01*
X908350Y770570D01*
X908350Y759780D01*
X900745Y752175D01*
X889955Y752175D01*
X882350Y759780D01*
X882350Y770570D01*
G37*
G36*
X882350Y795970D02*
X889955Y803575D01*
X900745Y803575D01*
X908350Y795970D01*
X908350Y785180D01*
X900745Y777575D01*
X889955Y777575D01*
X882350Y785180D01*
X882350Y795970D01*
G37*
G36*
X882350Y821370D02*
X889955Y828975D01*
X900745Y828975D01*
X908350Y821370D01*
X908350Y810580D01*
X900745Y802975D01*
X889955Y802975D01*
X882350Y810580D01*
X882350Y821370D01*
G37*
X641350Y714380D02*
G54D12*
D03*
X641350Y841375D02*
G54D12*
D03*
X641350Y917575D02*
G54D12*
D03*
X717550Y815975D02*
G54D12*
D03*
X666750Y917575D02*
G54D12*
D03*
X742950Y739775D02*
G54D12*
D03*
X895350Y765175D02*
G54D12*
D03*
X692150Y739775D02*
G54D11*
D03*
X692150Y765175D02*
G54D11*
D03*
X641350Y790575D02*
G54D12*
D03*
X768350Y714375D02*
G54D12*
D03*
X895350Y892175D02*
G54D13*
D03*
X895350Y866775D02*
G54D13*
D03*
X895350Y892175D02*
G54D13*
D03*
X869950Y841375D02*
G54D11*
D03*
X895350Y841375D02*
G54D11*
D03*
X742950Y714375D02*
G54D12*
D03*
X717550Y714375D02*
G54D12*
D03*
G36*
X831550Y719770D02*
X839155Y727375D01*
X849945Y727375D01*
X857550Y719770D01*
X857550Y708980D01*
X849945Y701375D01*
X839155Y701375D01*
X831550Y708980D01*
X831550Y719770D01*
G37*
G36*
X856950Y719770D02*
X864555Y727375D01*
X875345Y727375D01*
X882950Y719770D01*
X882950Y708980D01*
X875345Y701375D01*
X864555Y701375D01*
X856950Y708980D01*
X856950Y719770D01*
G37*
G36*
X882350Y719770D02*
X889955Y727375D01*
X900745Y727375D01*
X908350Y719770D01*
X908350Y708980D01*
X900745Y701375D01*
X889955Y701375D01*
X882350Y708980D01*
X882350Y719770D01*
G37*
G54D14*
X641350Y892175D02*
X666750Y892175D01*
G54D14*
X641350Y866775D02*
X666750Y866775D01*
G54D14*
X641350Y790575D02*
X742950Y790575D01*
X793750Y714375D02*
G54D11*
D03*
X819150Y714375D02*
G54D11*
D03*
G54D14*
X819150Y714375D02*
X844550Y714375D01*
G54D14*
X869950Y765175D02*
X869950Y714375D01*
G54D14*
X869950Y765175D02*
X869950Y790575D01*
X895350Y815975D01*
X692150Y739775D02*
G54D11*
D03*
X692150Y714375D02*
G54D11*
D03*
X692150Y714380D02*
G54D12*
D03*
G54D14*
X895350Y841375D02*
X895350Y866775D01*
X869950Y815975D02*
G54D11*
D03*
X869950Y765175D02*
G54D11*
D03*
G54D14*
X742950Y815975D02*
X768350Y790575D01*
X768350Y714375D01*
X692150Y815975D02*
G54D12*
D03*
G54D14*
X692150Y790575D02*
X692150Y815975D01*
G54D14*
X819150Y790575D02*
X835025Y806450D01*
X835025Y968375D01*
X641350Y968375D01*
X895350Y968375D02*
G54D12*
D03*
X895350Y942975D02*
G54D12*
D03*
X895350Y917575D02*
G54D12*
D03*
G54D14*
X835025Y968375D02*
X895350Y968375D01*
X819150Y942975D02*
G54D12*
D03*
X844550Y765175D02*
G54D11*
D03*
X844550Y739775D02*
G54D11*
D03*
G54D14*
X819150Y765175D02*
X844550Y765175D01*
G54D14*
X844550Y739775D02*
X844550Y714375D01*
X793750Y714375D02*
G54D12*
D03*
G54D14*
X800100Y942975D02*
X819150Y942975D01*
X641350Y765180D02*
G54D12*
D03*
X641350Y739775D02*
G54D12*
D03*
X641350Y866775D02*
G54D12*
D03*
G54D14*
X742950Y765175D02*
X717550Y765175D01*
X692150Y739775D01*
X666750Y714375D01*
X641350Y714380D01*
X774700Y866775D02*
G54D11*
D03*
X774700Y841375D02*
G54D11*
D03*
X774700Y866770D02*
G54D12*
D03*
X704850Y901700D02*
G54D15*
D03*
X730250Y901700D02*
G54D15*
D03*
X723900Y863600D02*
G54D16*
D03*
X736600Y876300D02*
G54D16*
D03*
X749300Y863600D02*
G54D16*
D03*
X774700Y895350D02*
G54D15*
D03*
X774700Y920750D02*
G54D15*
D03*
X819150Y861375D02*
G54D13*
D03*
X819150Y841375D02*
G54D13*
D03*
X819150Y861380D02*
G54D13*
D03*
X704850Y901700D02*
G54D15*
D03*
X800100Y920750D02*
G54D15*
D03*
G54D14*
X819150Y739775D02*
X800100Y758825D01*
X800100Y866775D01*
X819150Y885825D01*
X819150Y942975D01*
G54D14*
X822325Y942975D02*
X641350Y942975D01*
G54D14*
X844550Y765175D02*
X844550Y866775D01*
X895350Y917575D01*
X864336Y907766D02*
G54D13*
D03*
X850194Y921908D02*
G54D13*
D03*
X864340Y907770D02*
G54D13*
D03*
X736600Y876300D02*
G54D16*
D03*
X692150Y866775D02*
G54D11*
D03*
X666750Y866775D02*
G54D11*
D03*
X641350Y815975D02*
G54D12*
D03*
G36*
X144350Y522175D02*
X144350Y500175D01*
X122350Y500175D01*
X122350Y522175D01*
X144350Y522175D01*
G37*
X133350Y485775D02*
G54D10*
D03*
X133350Y460375D02*
G54D10*
D03*
X133350Y434975D02*
G54D10*
D03*
X209550Y434975D02*
G54D10*
D03*
X209550Y460375D02*
G54D10*
D03*
X209550Y485775D02*
G54D10*
D03*
X209550Y511175D02*
G54D10*
D03*
X57150Y612775D02*
G54D11*
D03*
X57150Y587375D02*
G54D11*
D03*
X82550Y485775D02*
G54D11*
D03*
X107950Y511175D02*
G54D11*
D03*
X57150Y511175D02*
G54D11*
D03*
X31750Y587375D02*
G54D12*
D03*
X31750Y612775D02*
G54D12*
D03*
X31750Y638175D02*
G54D12*
D03*
X31750Y663575D02*
G54D12*
D03*
G36*
X272750Y440370D02*
X280355Y447975D01*
X291145Y447975D01*
X298750Y440370D01*
X298750Y429580D01*
X291145Y421975D01*
X280355Y421975D01*
X272750Y429580D01*
X272750Y440370D01*
G37*
G36*
X272750Y465770D02*
X280355Y473375D01*
X291145Y473375D01*
X298750Y465770D01*
X298750Y454980D01*
X291145Y447375D01*
X280355Y447375D01*
X272750Y454980D01*
X272750Y465770D01*
G37*
G36*
X272750Y491170D02*
X280355Y498775D01*
X291145Y498775D01*
X298750Y491170D01*
X298750Y480380D01*
X291145Y472775D01*
X280355Y472775D01*
X272750Y480380D01*
X272750Y491170D01*
G37*
G36*
X272750Y516570D02*
X280355Y524175D01*
X291145Y524175D01*
X298750Y516570D01*
X298750Y505780D01*
X291145Y498175D01*
X280355Y498175D01*
X272750Y505780D01*
X272750Y516570D01*
G37*
X31750Y409580D02*
G54D12*
D03*
X31750Y536575D02*
G54D12*
D03*
X31750Y612775D02*
G54D12*
D03*
X107950Y511175D02*
G54D12*
D03*
X57150Y612775D02*
G54D12*
D03*
X133350Y434975D02*
G54D12*
D03*
X285750Y460375D02*
G54D12*
D03*
X82550Y434975D02*
G54D11*
D03*
X82550Y460375D02*
G54D11*
D03*
X31750Y485775D02*
G54D12*
D03*
X158750Y409575D02*
G54D12*
D03*
X285750Y587375D02*
G54D13*
D03*
X285750Y561975D02*
G54D13*
D03*
X285750Y587375D02*
G54D13*
D03*
X260350Y536575D02*
G54D11*
D03*
X285750Y536575D02*
G54D11*
D03*
X133350Y409575D02*
G54D12*
D03*
X107950Y409575D02*
G54D12*
D03*
G36*
X221950Y414970D02*
X229555Y422575D01*
X240345Y422575D01*
X247950Y414970D01*
X247950Y404180D01*
X240345Y396575D01*
X229555Y396575D01*
X221950Y404180D01*
X221950Y414970D01*
G37*
G36*
X247350Y414970D02*
X254955Y422575D01*
X265745Y422575D01*
X273350Y414970D01*
X273350Y404180D01*
X265745Y396575D01*
X254955Y396575D01*
X247350Y404180D01*
X247350Y414970D01*
G37*
G36*
X272750Y414970D02*
X280355Y422575D01*
X291145Y422575D01*
X298750Y414970D01*
X298750Y404180D01*
X291145Y396575D01*
X280355Y396575D01*
X272750Y404180D01*
X272750Y414970D01*
G37*
G54D14*
X31750Y587375D02*
X57150Y587375D01*
G54D14*
X31750Y561975D02*
X57150Y561975D01*
G54D14*
X31750Y485775D02*
X133350Y485775D01*
X184150Y409575D02*
G54D11*
D03*
X209550Y409575D02*
G54D11*
D03*
G54D14*
X209550Y409575D02*
X234950Y409575D01*
G54D14*
X260350Y460375D02*
X260350Y409575D01*
G54D14*
X260350Y460375D02*
X260350Y485775D01*
X285750Y511175D01*
X82550Y434975D02*
G54D11*
D03*
X82550Y409575D02*
G54D11*
D03*
X82550Y409580D02*
G54D12*
D03*
G54D14*
X285750Y536575D02*
X285750Y561975D01*
X260350Y511175D02*
G54D11*
D03*
X260350Y460375D02*
G54D11*
D03*
G54D14*
X133350Y511175D02*
X158750Y485775D01*
X158750Y409575D01*
X82550Y511175D02*
G54D12*
D03*
G54D14*
X82550Y485775D02*
X82550Y511175D01*
G54D14*
X209550Y485775D02*
X225425Y501650D01*
X225425Y663575D01*
X31750Y663575D01*
X285750Y663575D02*
G54D12*
D03*
X285750Y638175D02*
G54D12*
D03*
X285750Y612775D02*
G54D12*
D03*
G54D14*
X225425Y663575D02*
X285750Y663575D01*
X209550Y638175D02*
G54D12*
D03*
X234950Y460375D02*
G54D11*
D03*
X234950Y434975D02*
G54D11*
D03*
G54D14*
X209550Y460375D02*
X234950Y460375D01*
G54D14*
X234950Y434975D02*
X234950Y409575D01*
X184150Y409575D02*
G54D12*
D03*
G54D14*
X190500Y638175D02*
X209550Y638175D01*
X31750Y460380D02*
G54D12*
D03*
X31750Y434975D02*
G54D12*
D03*
X31750Y561975D02*
G54D12*
D03*
G54D14*
X133350Y460375D02*
X107950Y460375D01*
X82550Y434975D01*
X57150Y409575D01*
X31750Y409580D01*
X165100Y561975D02*
G54D11*
D03*
X165100Y536575D02*
G54D11*
D03*
X165100Y561970D02*
G54D12*
D03*
X95250Y596900D02*
G54D15*
D03*
X120650Y596900D02*
G54D15*
D03*
X114300Y558800D02*
G54D16*
D03*
X127000Y571500D02*
G54D16*
D03*
X139700Y558800D02*
G54D16*
D03*
X165100Y590550D02*
G54D15*
D03*
X165100Y615950D02*
G54D15*
D03*
X209550Y556575D02*
G54D13*
D03*
X209550Y536575D02*
G54D13*
D03*
X209550Y556580D02*
G54D13*
D03*
X95250Y596900D02*
G54D15*
D03*
X190500Y615950D02*
G54D15*
D03*
G54D14*
X209550Y434975D02*
X190500Y454025D01*
X190500Y561975D01*
X209550Y581025D01*
X209550Y638175D01*
G54D14*
X212725Y638175D02*
X31750Y638175D01*
G54D14*
X234950Y460375D02*
X234950Y561975D01*
X285750Y612775D01*
X254736Y602966D02*
G54D13*
D03*
X240594Y617108D02*
G54D13*
D03*
X254740Y602970D02*
G54D13*
D03*
X127000Y571500D02*
G54D16*
D03*
X82550Y561975D02*
G54D11*
D03*
X57150Y561975D02*
G54D11*
D03*
X31750Y511175D02*
G54D12*
D03*
G36*
X449150Y522175D02*
X449150Y500175D01*
X427150Y500175D01*
X427150Y522175D01*
X449150Y522175D01*
G37*
X438150Y485775D02*
G54D10*
D03*
X438150Y460375D02*
G54D10*
D03*
X438150Y434975D02*
G54D10*
D03*
X514350Y434975D02*
G54D10*
D03*
X514350Y460375D02*
G54D10*
D03*
X514350Y485775D02*
G54D10*
D03*
X514350Y511175D02*
G54D10*
D03*
X361950Y612775D02*
G54D11*
D03*
X361950Y587375D02*
G54D11*
D03*
X387350Y485775D02*
G54D11*
D03*
X412750Y511175D02*
G54D11*
D03*
X361950Y511175D02*
G54D11*
D03*
X336550Y587375D02*
G54D12*
D03*
X336550Y612775D02*
G54D12*
D03*
X336550Y638175D02*
G54D12*
D03*
X336550Y663575D02*
G54D12*
D03*
G36*
X577550Y440370D02*
X585155Y447975D01*
X595945Y447975D01*
X603550Y440370D01*
X603550Y429580D01*
X595945Y421975D01*
X585155Y421975D01*
X577550Y429580D01*
X577550Y440370D01*
G37*
G36*
X577550Y465770D02*
X585155Y473375D01*
X595945Y473375D01*
X603550Y465770D01*
X603550Y454980D01*
X595945Y447375D01*
X585155Y447375D01*
X577550Y454980D01*
X577550Y465770D01*
G37*
G36*
X577550Y491170D02*
X585155Y498775D01*
X595945Y498775D01*
X603550Y491170D01*
X603550Y480380D01*
X595945Y472775D01*
X585155Y472775D01*
X577550Y480380D01*
X577550Y491170D01*
G37*
G36*
X577550Y516570D02*
X585155Y524175D01*
X595945Y524175D01*
X603550Y516570D01*
X603550Y505780D01*
X595945Y498175D01*
X585155Y498175D01*
X577550Y505780D01*
X577550Y516570D01*
G37*
X336550Y409580D02*
G54D12*
D03*
X336550Y536575D02*
G54D12*
D03*
X336550Y612775D02*
G54D12*
D03*
X412750Y511175D02*
G54D12*
D03*
X361950Y612775D02*
G54D12*
D03*
X438150Y434975D02*
G54D12*
D03*
X590550Y460375D02*
G54D12*
D03*
X387350Y434975D02*
G54D11*
D03*
X387350Y460375D02*
G54D11*
D03*
X336550Y485775D02*
G54D12*
D03*
X463550Y409575D02*
G54D12*
D03*
X590550Y587375D02*
G54D13*
D03*
X590550Y561975D02*
G54D13*
D03*
X590550Y587375D02*
G54D13*
D03*
X565150Y536575D02*
G54D11*
D03*
X590550Y536575D02*
G54D11*
D03*
X438150Y409575D02*
G54D12*
D03*
X412750Y409575D02*
G54D12*
D03*
G36*
X526750Y414970D02*
X534355Y422575D01*
X545145Y422575D01*
X552750Y414970D01*
X552750Y404180D01*
X545145Y396575D01*
X534355Y396575D01*
X526750Y404180D01*
X526750Y414970D01*
G37*
G36*
X552150Y414970D02*
X559755Y422575D01*
X570545Y422575D01*
X578150Y414970D01*
X578150Y404180D01*
X570545Y396575D01*
X559755Y396575D01*
X552150Y404180D01*
X552150Y414970D01*
G37*
G36*
X577550Y414970D02*
X585155Y422575D01*
X595945Y422575D01*
X603550Y414970D01*
X603550Y404180D01*
X595945Y396575D01*
X585155Y396575D01*
X577550Y404180D01*
X577550Y414970D01*
G37*
G54D14*
X336550Y587375D02*
X361950Y587375D01*
G54D14*
X336550Y561975D02*
X361950Y561975D01*
G54D14*
X336550Y485775D02*
X438150Y485775D01*
X488950Y409575D02*
G54D11*
D03*
X514350Y409575D02*
G54D11*
D03*
G54D14*
X514350Y409575D02*
X539750Y409575D01*
G54D14*
X565150Y460375D02*
X565150Y409575D01*
G54D14*
X565150Y460375D02*
X565150Y485775D01*
X590550Y511175D01*
X387350Y434975D02*
G54D11*
D03*
X387350Y409575D02*
G54D11*
D03*
X387350Y409580D02*
G54D12*
D03*
G54D14*
X590550Y536575D02*
X590550Y561975D01*
X565150Y511175D02*
G54D11*
D03*
X565150Y460375D02*
G54D11*
D03*
G54D14*
X438150Y511175D02*
X463550Y485775D01*
X463550Y409575D01*
X387350Y511175D02*
G54D12*
D03*
G54D14*
X387350Y485775D02*
X387350Y511175D01*
G54D14*
X514350Y485775D02*
X530225Y501650D01*
X530225Y663575D01*
X336550Y663575D01*
X590550Y663575D02*
G54D12*
D03*
X590550Y638175D02*
G54D12*
D03*
X590550Y612775D02*
G54D12*
D03*
G54D14*
X530225Y663575D02*
X590550Y663575D01*
X514350Y638175D02*
G54D12*
D03*
X539750Y460375D02*
G54D11*
D03*
X539750Y434975D02*
G54D11*
D03*
G54D14*
X514350Y460375D02*
X539750Y460375D01*
G54D14*
X539750Y434975D02*
X539750Y409575D01*
X488950Y409575D02*
G54D12*
D03*
G54D14*
X495300Y638175D02*
X514350Y638175D01*
X336550Y460380D02*
G54D12*
D03*
X336550Y434975D02*
G54D12*
D03*
X336550Y561975D02*
G54D12*
D03*
G54D14*
X438150Y460375D02*
X412750Y460375D01*
X387350Y434975D01*
X361950Y409575D01*
X336550Y409580D01*
X469900Y561975D02*
G54D11*
D03*
X469900Y536575D02*
G54D11*
D03*
X469900Y561970D02*
G54D12*
D03*
X400050Y596900D02*
G54D15*
D03*
X425450Y596900D02*
G54D15*
D03*
X419100Y558800D02*
G54D16*
D03*
X431800Y571500D02*
G54D16*
D03*
X444500Y558800D02*
G54D16*
D03*
X469900Y590550D02*
G54D15*
D03*
X469900Y615950D02*
G54D15*
D03*
X514350Y556575D02*
G54D13*
D03*
X514350Y536575D02*
G54D13*
D03*
X514350Y556580D02*
G54D13*
D03*
X400050Y596900D02*
G54D15*
D03*
X495300Y615950D02*
G54D15*
D03*
G54D14*
X514350Y434975D02*
X495300Y454025D01*
X495300Y561975D01*
X514350Y581025D01*
X514350Y638175D01*
G54D14*
X517525Y638175D02*
X336550Y638175D01*
G54D14*
X539750Y460375D02*
X539750Y561975D01*
X590550Y612775D01*
X559536Y602966D02*
G54D13*
D03*
X545394Y617108D02*
G54D13*
D03*
X559540Y602970D02*
G54D13*
D03*
X431800Y571500D02*
G54D16*
D03*
X387350Y561975D02*
G54D11*
D03*
X361950Y561975D02*
G54D11*
D03*
X336550Y511175D02*
G54D12*
D03*
G36*
X753950Y522175D02*
X753950Y500175D01*
X731950Y500175D01*
X731950Y522175D01*
X753950Y522175D01*
G37*
X742950Y485775D02*
G54D10*
D03*
X742950Y460375D02*
G54D10*
D03*
X742950Y434975D02*
G54D10*
D03*
X819150Y434975D02*
G54D10*
D03*
X819150Y460375D02*
G54D10*
D03*
X819150Y485775D02*
G54D10*
D03*
X819150Y511175D02*
G54D10*
D03*
X666750Y612775D02*
G54D11*
D03*
X666750Y587375D02*
G54D11*
D03*
X692150Y485775D02*
G54D11*
D03*
X717550Y511175D02*
G54D11*
D03*
X666750Y511175D02*
G54D11*
D03*
X641350Y587375D02*
G54D12*
D03*
X641350Y612775D02*
G54D12*
D03*
X641350Y638175D02*
G54D12*
D03*
X641350Y663575D02*
G54D12*
D03*
G36*
X882350Y440370D02*
X889955Y447975D01*
X900745Y447975D01*
X908350Y440370D01*
X908350Y429580D01*
X900745Y421975D01*
X889955Y421975D01*
X882350Y429580D01*
X882350Y440370D01*
G37*
G36*
X882350Y465770D02*
X889955Y473375D01*
X900745Y473375D01*
X908350Y465770D01*
X908350Y454980D01*
X900745Y447375D01*
X889955Y447375D01*
X882350Y454980D01*
X882350Y465770D01*
G37*
G36*
X882350Y491170D02*
X889955Y498775D01*
X900745Y498775D01*
X908350Y491170D01*
X908350Y480380D01*
X900745Y472775D01*
X889955Y472775D01*
X882350Y480380D01*
X882350Y491170D01*
G37*
G36*
X882350Y516570D02*
X889955Y524175D01*
X900745Y524175D01*
X908350Y516570D01*
X908350Y505780D01*
X900745Y498175D01*
X889955Y498175D01*
X882350Y505780D01*
X882350Y516570D01*
G37*
X641350Y409580D02*
G54D12*
D03*
X641350Y536575D02*
G54D12*
D03*
X641350Y612775D02*
G54D12*
D03*
X717550Y511175D02*
G54D12*
D03*
X666750Y612775D02*
G54D12*
D03*
X742950Y434975D02*
G54D12*
D03*
X895350Y460375D02*
G54D12*
D03*
X692150Y434975D02*
G54D11*
D03*
X692150Y460375D02*
G54D11*
D03*
X641350Y485775D02*
G54D12*
D03*
X768350Y409575D02*
G54D12*
D03*
X895350Y587375D02*
G54D13*
D03*
X895350Y561975D02*
G54D13*
D03*
X895350Y587375D02*
G54D13*
D03*
X869950Y536575D02*
G54D11*
D03*
X895350Y536575D02*
G54D11*
D03*
X742950Y409575D02*
G54D12*
D03*
X717550Y409575D02*
G54D12*
D03*
G36*
X831550Y414970D02*
X839155Y422575D01*
X849945Y422575D01*
X857550Y414970D01*
X857550Y404180D01*
X849945Y396575D01*
X839155Y396575D01*
X831550Y404180D01*
X831550Y414970D01*
G37*
G36*
X856950Y414970D02*
X864555Y422575D01*
X875345Y422575D01*
X882950Y414970D01*
X882950Y404180D01*
X875345Y396575D01*
X864555Y396575D01*
X856950Y404180D01*
X856950Y414970D01*
G37*
G36*
X882350Y414970D02*
X889955Y422575D01*
X900745Y422575D01*
X908350Y414970D01*
X908350Y404180D01*
X900745Y396575D01*
X889955Y396575D01*
X882350Y404180D01*
X882350Y414970D01*
G37*
G54D14*
X641350Y587375D02*
X666750Y587375D01*
G54D14*
X641350Y561975D02*
X666750Y561975D01*
G54D14*
X641350Y485775D02*
X742950Y485775D01*
X793750Y409575D02*
G54D11*
D03*
X819150Y409575D02*
G54D11*
D03*
G54D14*
X819150Y409575D02*
X844550Y409575D01*
G54D14*
X869950Y460375D02*
X869950Y409575D01*
G54D14*
X869950Y460375D02*
X869950Y485775D01*
X895350Y511175D01*
X692150Y434975D02*
G54D11*
D03*
X692150Y409575D02*
G54D11*
D03*
X692150Y409580D02*
G54D12*
D03*
G54D14*
X895350Y536575D02*
X895350Y561975D01*
X869950Y511175D02*
G54D11*
D03*
X869950Y460375D02*
G54D11*
D03*
G54D14*
X742950Y511175D02*
X768350Y485775D01*
X768350Y409575D01*
X692150Y511175D02*
G54D12*
D03*
G54D14*
X692150Y485775D02*
X692150Y511175D01*
G54D14*
X819150Y485775D02*
X835025Y501650D01*
X835025Y663575D01*
X641350Y663575D01*
X895350Y663575D02*
G54D12*
D03*
X895350Y638175D02*
G54D12*
D03*
X895350Y612775D02*
G54D12*
D03*
G54D14*
X835025Y663575D02*
X895350Y663575D01*
X819150Y638175D02*
G54D12*
D03*
X844550Y460375D02*
G54D11*
D03*
X844550Y434975D02*
G54D11*
D03*
G54D14*
X819150Y460375D02*
X844550Y460375D01*
G54D14*
X844550Y434975D02*
X844550Y409575D01*
X793750Y409575D02*
G54D12*
D03*
G54D14*
X800100Y638175D02*
X819150Y638175D01*
X641350Y460380D02*
G54D12*
D03*
X641350Y434975D02*
G54D12*
D03*
X641350Y561975D02*
G54D12*
D03*
G54D14*
X742950Y460375D02*
X717550Y460375D01*
X692150Y434975D01*
X666750Y409575D01*
X641350Y409580D01*
X774700Y561975D02*
G54D11*
D03*
X774700Y536575D02*
G54D11*
D03*
X774700Y561970D02*
G54D12*
D03*
X704850Y596900D02*
G54D15*
D03*
X730250Y596900D02*
G54D15*
D03*
X723900Y558800D02*
G54D16*
D03*
X736600Y571500D02*
G54D16*
D03*
X749300Y558800D02*
G54D16*
D03*
X774700Y590550D02*
G54D15*
D03*
X774700Y615950D02*
G54D15*
D03*
X819150Y556575D02*
G54D13*
D03*
X819150Y536575D02*
G54D13*
D03*
X819150Y556580D02*
G54D13*
D03*
X704850Y596900D02*
G54D15*
D03*
X800100Y615950D02*
G54D15*
D03*
G54D14*
X819150Y434975D02*
X800100Y454025D01*
X800100Y561975D01*
X819150Y581025D01*
X819150Y638175D01*
G54D14*
X822325Y638175D02*
X641350Y638175D01*
G54D14*
X844550Y460375D02*
X844550Y561975D01*
X895350Y612775D01*
X864336Y602966D02*
G54D13*
D03*
X850194Y617108D02*
G54D13*
D03*
X864340Y602970D02*
G54D13*
D03*
X736600Y571500D02*
G54D16*
D03*
X692150Y561975D02*
G54D11*
D03*
X666750Y561975D02*
G54D11*
D03*
X641350Y511175D02*
G54D12*
D03*
G36*
X144350Y217375D02*
X144350Y195375D01*
X122350Y195375D01*
X122350Y217375D01*
X144350Y217375D01*
G37*
X133350Y180975D02*
G54D10*
D03*
X133350Y155575D02*
G54D10*
D03*
X133350Y130175D02*
G54D10*
D03*
X209550Y130175D02*
G54D10*
D03*
X209550Y155575D02*
G54D10*
D03*
X209550Y180975D02*
G54D10*
D03*
X209550Y206375D02*
G54D10*
D03*
X57150Y307975D02*
G54D11*
D03*
X57150Y282575D02*
G54D11*
D03*
X82550Y180975D02*
G54D11*
D03*
X107950Y206375D02*
G54D11*
D03*
X57150Y206375D02*
G54D11*
D03*
X31750Y282575D02*
G54D12*
D03*
X31750Y307975D02*
G54D12*
D03*
X31750Y333375D02*
G54D12*
D03*
X31750Y358775D02*
G54D12*
D03*
G36*
X272750Y135570D02*
X280355Y143175D01*
X291145Y143175D01*
X298750Y135570D01*
X298750Y124780D01*
X291145Y117175D01*
X280355Y117175D01*
X272750Y124780D01*
X272750Y135570D01*
G37*
G36*
X272750Y160970D02*
X280355Y168575D01*
X291145Y168575D01*
X298750Y160970D01*
X298750Y150180D01*
X291145Y142575D01*
X280355Y142575D01*
X272750Y150180D01*
X272750Y160970D01*
G37*
G36*
X272750Y186370D02*
X280355Y193975D01*
X291145Y193975D01*
X298750Y186370D01*
X298750Y175580D01*
X291145Y167975D01*
X280355Y167975D01*
X272750Y175580D01*
X272750Y186370D01*
G37*
G36*
X272750Y211770D02*
X280355Y219375D01*
X291145Y219375D01*
X298750Y211770D01*
X298750Y200980D01*
X291145Y193375D01*
X280355Y193375D01*
X272750Y200980D01*
X272750Y211770D01*
G37*
X31750Y104780D02*
G54D12*
D03*
X31750Y231775D02*
G54D12*
D03*
X31750Y307975D02*
G54D12*
D03*
X107950Y206375D02*
G54D12*
D03*
X57150Y307975D02*
G54D12*
D03*
X133350Y130175D02*
G54D12*
D03*
X285750Y155575D02*
G54D12*
D03*
X82550Y130175D02*
G54D11*
D03*
X82550Y155575D02*
G54D11*
D03*
X31750Y180975D02*
G54D12*
D03*
X158750Y104775D02*
G54D12*
D03*
X285750Y282575D02*
G54D13*
D03*
X285750Y257175D02*
G54D13*
D03*
X285750Y282575D02*
G54D13*
D03*
X260350Y231775D02*
G54D11*
D03*
X285750Y231775D02*
G54D11*
D03*
X133350Y104775D02*
G54D12*
D03*
X107950Y104775D02*
G54D12*
D03*
G36*
X221950Y110170D02*
X229555Y117775D01*
X240345Y117775D01*
X247950Y110170D01*
X247950Y99380D01*
X240345Y91775D01*
X229555Y91775D01*
X221950Y99380D01*
X221950Y110170D01*
G37*
G36*
X247350Y110170D02*
X254955Y117775D01*
X265745Y117775D01*
X273350Y110170D01*
X273350Y99380D01*
X265745Y91775D01*
X254955Y91775D01*
X247350Y99380D01*
X247350Y110170D01*
G37*
G36*
X272750Y110170D02*
X280355Y117775D01*
X291145Y117775D01*
X298750Y110170D01*
X298750Y99380D01*
X291145Y91775D01*
X280355Y91775D01*
X272750Y99380D01*
X272750Y110170D01*
G37*
G54D14*
X31750Y282575D02*
X57150Y282575D01*
G54D14*
X31750Y257175D02*
X57150Y257175D01*
G54D14*
X31750Y180975D02*
X133350Y180975D01*
X184150Y104775D02*
G54D11*
D03*
X209550Y104775D02*
G54D11*
D03*
G54D14*
X209550Y104775D02*
X234950Y104775D01*
G54D14*
X260350Y155575D02*
X260350Y104775D01*
G54D14*
X260350Y155575D02*
X260350Y180975D01*
X285750Y206375D01*
X82550Y130175D02*
G54D11*
D03*
X82550Y104775D02*
G54D11*
D03*
X82550Y104780D02*
G54D12*
D03*
G54D14*
X285750Y231775D02*
X285750Y257175D01*
X260350Y206375D02*
G54D11*
D03*
X260350Y155575D02*
G54D11*
D03*
G54D14*
X133350Y206375D02*
X158750Y180975D01*
X158750Y104775D01*
X82550Y206375D02*
G54D12*
D03*
G54D14*
X82550Y180975D02*
X82550Y206375D01*
G54D14*
X209550Y180975D02*
X225425Y196850D01*
X225425Y358775D01*
X31750Y358775D01*
X285750Y358775D02*
G54D12*
D03*
X285750Y333375D02*
G54D12*
D03*
X285750Y307975D02*
G54D12*
D03*
G54D14*
X225425Y358775D02*
X285750Y358775D01*
X209550Y333375D02*
G54D12*
D03*
X234950Y155575D02*
G54D11*
D03*
X234950Y130175D02*
G54D11*
D03*
G54D14*
X209550Y155575D02*
X234950Y155575D01*
G54D14*
X234950Y130175D02*
X234950Y104775D01*
X184150Y104775D02*
G54D12*
D03*
G54D14*
X190500Y333375D02*
X209550Y333375D01*
X31750Y155580D02*
G54D12*
D03*
X31750Y130175D02*
G54D12*
D03*
X31750Y257175D02*
G54D12*
D03*
G54D14*
X133350Y155575D02*
X107950Y155575D01*
X82550Y130175D01*
X57150Y104775D01*
X31750Y104780D01*
X165100Y257175D02*
G54D11*
D03*
X165100Y231775D02*
G54D11*
D03*
X165100Y257170D02*
G54D12*
D03*
X95250Y292100D02*
G54D15*
D03*
X120650Y292100D02*
G54D15*
D03*
X114300Y254000D02*
G54D16*
D03*
X127000Y266700D02*
G54D16*
D03*
X139700Y254000D02*
G54D16*
D03*
X165100Y285750D02*
G54D15*
D03*
X165100Y311150D02*
G54D15*
D03*
X209550Y251775D02*
G54D13*
D03*
X209550Y231775D02*
G54D13*
D03*
X209550Y251780D02*
G54D13*
D03*
X95250Y292100D02*
G54D15*
D03*
X190500Y311150D02*
G54D15*
D03*
G54D14*
X209550Y130175D02*
X190500Y149225D01*
X190500Y257175D01*
X209550Y276225D01*
X209550Y333375D01*
G54D14*
X212725Y333375D02*
X31750Y333375D01*
G54D14*
X234950Y155575D02*
X234950Y257175D01*
X285750Y307975D01*
X254736Y298166D02*
G54D13*
D03*
X240594Y312308D02*
G54D13*
D03*
X254740Y298170D02*
G54D13*
D03*
X127000Y266700D02*
G54D16*
D03*
X82550Y257175D02*
G54D11*
D03*
X57150Y257175D02*
G54D11*
D03*
X31750Y206375D02*
G54D12*
D03*
G36*
X449150Y217375D02*
X449150Y195375D01*
X427150Y195375D01*
X427150Y217375D01*
X449150Y217375D01*
G37*
X438150Y180975D02*
G54D10*
D03*
X438150Y155575D02*
G54D10*
D03*
X438150Y130175D02*
G54D10*
D03*
X514350Y130175D02*
G54D10*
D03*
X514350Y155575D02*
G54D10*
D03*
X514350Y180975D02*
G54D10*
D03*
X514350Y206375D02*
G54D10*
D03*
X361950Y307975D02*
G54D11*
D03*
X361950Y282575D02*
G54D11*
D03*
X387350Y180975D02*
G54D11*
D03*
X412750Y206375D02*
G54D11*
D03*
X361950Y206375D02*
G54D11*
D03*
X336550Y282575D02*
G54D12*
D03*
X336550Y307975D02*
G54D12*
D03*
X336550Y333375D02*
G54D12*
D03*
X336550Y358775D02*
G54D12*
D03*
G36*
X577550Y135570D02*
X585155Y143175D01*
X595945Y143175D01*
X603550Y135570D01*
X603550Y124780D01*
X595945Y117175D01*
X585155Y117175D01*
X577550Y124780D01*
X577550Y135570D01*
G37*
G36*
X577550Y160970D02*
X585155Y168575D01*
X595945Y168575D01*
X603550Y160970D01*
X603550Y150180D01*
X595945Y142575D01*
X585155Y142575D01*
X577550Y150180D01*
X577550Y160970D01*
G37*
G36*
X577550Y186370D02*
X585155Y193975D01*
X595945Y193975D01*
X603550Y186370D01*
X603550Y175580D01*
X595945Y167975D01*
X585155Y167975D01*
X577550Y175580D01*
X577550Y186370D01*
G37*
G36*
X577550Y211770D02*
X585155Y219375D01*
X595945Y219375D01*
X603550Y211770D01*
X603550Y200980D01*
X595945Y193375D01*
X585155Y193375D01*
X577550Y200980D01*
X577550Y211770D01*
G37*
X336550Y104780D02*
G54D12*
D03*
X336550Y231775D02*
G54D12*
D03*
X336550Y307975D02*
G54D12*
D03*
X412750Y206375D02*
G54D12*
D03*
X361950Y307975D02*
G54D12*
D03*
X438150Y130175D02*
G54D12*
D03*
X590550Y155575D02*
G54D12*
D03*
X387350Y130175D02*
G54D11*
D03*
X387350Y155575D02*
G54D11*
D03*
X336550Y180975D02*
G54D12*
D03*
X463550Y104775D02*
G54D12*
D03*
X590550Y282575D02*
G54D13*
D03*
X590550Y257175D02*
G54D13*
D03*
X590550Y282575D02*
G54D13*
D03*
X565150Y231775D02*
G54D11*
D03*
X590550Y231775D02*
G54D11*
D03*
X438150Y104775D02*
G54D12*
D03*
X412750Y104775D02*
G54D12*
D03*
G36*
X526750Y110170D02*
X534355Y117775D01*
X545145Y117775D01*
X552750Y110170D01*
X552750Y99380D01*
X545145Y91775D01*
X534355Y91775D01*
X526750Y99380D01*
X526750Y110170D01*
G37*
G36*
X552150Y110170D02*
X559755Y117775D01*
X570545Y117775D01*
X578150Y110170D01*
X578150Y99380D01*
X570545Y91775D01*
X559755Y91775D01*
X552150Y99380D01*
X552150Y110170D01*
G37*
G36*
X577550Y110170D02*
X585155Y117775D01*
X595945Y117775D01*
X603550Y110170D01*
X603550Y99380D01*
X595945Y91775D01*
X585155Y91775D01*
X577550Y99380D01*
X577550Y110170D01*
G37*
G54D14*
X336550Y282575D02*
X361950Y282575D01*
G54D14*
X336550Y257175D02*
X361950Y257175D01*
G54D14*
X336550Y180975D02*
X438150Y180975D01*
X488950Y104775D02*
G54D11*
D03*
X514350Y104775D02*
G54D11*
D03*
G54D14*
X514350Y104775D02*
X539750Y104775D01*
G54D14*
X565150Y155575D02*
X565150Y104775D01*
G54D14*
X565150Y155575D02*
X565150Y180975D01*
X590550Y206375D01*
X387350Y130175D02*
G54D11*
D03*
X387350Y104775D02*
G54D11*
D03*
X387350Y104780D02*
G54D12*
D03*
G54D14*
X590550Y231775D02*
X590550Y257175D01*
X565150Y206375D02*
G54D11*
D03*
X565150Y155575D02*
G54D11*
D03*
G54D14*
X438150Y206375D02*
X463550Y180975D01*
X463550Y104775D01*
X387350Y206375D02*
G54D12*
D03*
G54D14*
X387350Y180975D02*
X387350Y206375D01*
G54D14*
X514350Y180975D02*
X530225Y196850D01*
X530225Y358775D01*
X336550Y358775D01*
X590550Y358775D02*
G54D12*
D03*
X590550Y333375D02*
G54D12*
D03*
X590550Y307975D02*
G54D12*
D03*
G54D14*
X530225Y358775D02*
X590550Y358775D01*
X514350Y333375D02*
G54D12*
D03*
X539750Y155575D02*
G54D11*
D03*
X539750Y130175D02*
G54D11*
D03*
G54D14*
X514350Y155575D02*
X539750Y155575D01*
G54D14*
X539750Y130175D02*
X539750Y104775D01*
X488950Y104775D02*
G54D12*
D03*
G54D14*
X495300Y333375D02*
X514350Y333375D01*
X336550Y155580D02*
G54D12*
D03*
X336550Y130175D02*
G54D12*
D03*
X336550Y257175D02*
G54D12*
D03*
G54D14*
X438150Y155575D02*
X412750Y155575D01*
X387350Y130175D01*
X361950Y104775D01*
X336550Y104780D01*
X469900Y257175D02*
G54D11*
D03*
X469900Y231775D02*
G54D11*
D03*
X469900Y257170D02*
G54D12*
D03*
X400050Y292100D02*
G54D15*
D03*
X425450Y292100D02*
G54D15*
D03*
X419100Y254000D02*
G54D16*
D03*
X431800Y266700D02*
G54D16*
D03*
X444500Y254000D02*
G54D16*
D03*
X469900Y285750D02*
G54D15*
D03*
X469900Y311150D02*
G54D15*
D03*
X514350Y251775D02*
G54D13*
D03*
X514350Y231775D02*
G54D13*
D03*
X514350Y251780D02*
G54D13*
D03*
X400050Y292100D02*
G54D15*
D03*
X495300Y311150D02*
G54D15*
D03*
G54D14*
X514350Y130175D02*
X495300Y149225D01*
X495300Y257175D01*
X514350Y276225D01*
X514350Y333375D01*
G54D14*
X517525Y333375D02*
X336550Y333375D01*
G54D14*
X539750Y155575D02*
X539750Y257175D01*
X590550Y307975D01*
X559536Y298166D02*
G54D13*
D03*
X545394Y312308D02*
G54D13*
D03*
X559540Y298170D02*
G54D13*
D03*
X431800Y266700D02*
G54D16*
D03*
X387350Y257175D02*
G54D11*
D03*
X361950Y257175D02*
G54D11*
D03*
X336550Y206375D02*
G54D12*
D03*
G36*
X753950Y217375D02*
X753950Y195375D01*
X731950Y195375D01*
X731950Y217375D01*
X753950Y217375D01*
G37*
X742950Y180975D02*
G54D10*
D03*
X742950Y155575D02*
G54D10*
D03*
X742950Y130175D02*
G54D10*
D03*
X819150Y130175D02*
G54D10*
D03*
X819150Y155575D02*
G54D10*
D03*
X819150Y180975D02*
G54D10*
D03*
X819150Y206375D02*
G54D10*
D03*
X666750Y307975D02*
G54D11*
D03*
X666750Y282575D02*
G54D11*
D03*
X692150Y180975D02*
G54D11*
D03*
X717550Y206375D02*
G54D11*
D03*
X666750Y206375D02*
G54D11*
D03*
X641350Y282575D02*
G54D12*
D03*
X641350Y307975D02*
G54D12*
D03*
X641350Y333375D02*
G54D12*
D03*
X641350Y358775D02*
G54D12*
D03*
G36*
X882350Y135570D02*
X889955Y143175D01*
X900745Y143175D01*
X908350Y135570D01*
X908350Y124780D01*
X900745Y117175D01*
X889955Y117175D01*
X882350Y124780D01*
X882350Y135570D01*
G37*
G36*
X882350Y160970D02*
X889955Y168575D01*
X900745Y168575D01*
X908350Y160970D01*
X908350Y150180D01*
X900745Y142575D01*
X889955Y142575D01*
X882350Y150180D01*
X882350Y160970D01*
G37*
G36*
X882350Y186370D02*
X889955Y193975D01*
X900745Y193975D01*
X908350Y186370D01*
X908350Y175580D01*
X900745Y167975D01*
X889955Y167975D01*
X882350Y175580D01*
X882350Y186370D01*
G37*
G36*
X882350Y211770D02*
X889955Y219375D01*
X900745Y219375D01*
X908350Y211770D01*
X908350Y200980D01*
X900745Y193375D01*
X889955Y193375D01*
X882350Y200980D01*
X882350Y211770D01*
G37*
X641350Y104780D02*
G54D12*
D03*
X641350Y231775D02*
G54D12*
D03*
X641350Y307975D02*
G54D12*
D03*
X717550Y206375D02*
G54D12*
D03*
X666750Y307975D02*
G54D12*
D03*
X742950Y130175D02*
G54D12*
D03*
X895350Y155575D02*
G54D12*
D03*
X692150Y130175D02*
G54D11*
D03*
X692150Y155575D02*
G54D11*
D03*
X641350Y180975D02*
G54D12*
D03*
X768350Y104775D02*
G54D12*
D03*
X895350Y282575D02*
G54D13*
D03*
X895350Y257175D02*
G54D13*
D03*
X895350Y282575D02*
G54D13*
D03*
X869950Y231775D02*
G54D11*
D03*
X895350Y231775D02*
G54D11*
D03*
X742950Y104775D02*
G54D12*
D03*
X717550Y104775D02*
G54D12*
D03*
G36*
X831550Y110170D02*
X839155Y117775D01*
X849945Y117775D01*
X857550Y110170D01*
X857550Y99380D01*
X849945Y91775D01*
X839155Y91775D01*
X831550Y99380D01*
X831550Y110170D01*
G37*
G36*
X856950Y110170D02*
X864555Y117775D01*
X875345Y117775D01*
X882950Y110170D01*
X882950Y99380D01*
X875345Y91775D01*
X864555Y91775D01*
X856950Y99380D01*
X856950Y110170D01*
G37*
G36*
X882350Y110170D02*
X889955Y117775D01*
X900745Y117775D01*
X908350Y110170D01*
X908350Y99380D01*
X900745Y91775D01*
X889955Y91775D01*
X882350Y99380D01*
X882350Y110170D01*
G37*
G54D14*
X641350Y282575D02*
X666750Y282575D01*
G54D14*
X641350Y257175D02*
X666750Y257175D01*
G54D14*
X641350Y180975D02*
X742950Y180975D01*
X793750Y104775D02*
G54D11*
D03*
X819150Y104775D02*
G54D11*
D03*
G54D14*
X819150Y104775D02*
X844550Y104775D01*
G54D14*
X869950Y155575D02*
X869950Y104775D01*
G54D14*
X869950Y155575D02*
X869950Y180975D01*
X895350Y206375D01*
X692150Y130175D02*
G54D11*
D03*
X692150Y104775D02*
G54D11*
D03*
X692150Y104780D02*
G54D12*
D03*
G54D14*
X895350Y231775D02*
X895350Y257175D01*
X869950Y206375D02*
G54D11*
D03*
X869950Y155575D02*
G54D11*
D03*
G54D14*
X742950Y206375D02*
X768350Y180975D01*
X768350Y104775D01*
X692150Y206375D02*
G54D12*
D03*
G54D14*
X692150Y180975D02*
X692150Y206375D01*
G54D14*
X819150Y180975D02*
X835025Y196850D01*
X835025Y358775D01*
X641350Y358775D01*
X895350Y358775D02*
G54D12*
D03*
X895350Y333375D02*
G54D12*
D03*
X895350Y307975D02*
G54D12*
D03*
G54D14*
X835025Y358775D02*
X895350Y358775D01*
X819150Y333375D02*
G54D12*
D03*
X844550Y155575D02*
G54D11*
D03*
X844550Y130175D02*
G54D11*
D03*
G54D14*
X819150Y155575D02*
X844550Y155575D01*
G54D14*
X844550Y130175D02*
X844550Y104775D01*
X793750Y104775D02*
G54D12*
D03*
G54D14*
X800100Y333375D02*
X819150Y333375D01*
X641350Y155580D02*
G54D12*
D03*
X641350Y130175D02*
G54D12*
D03*
X641350Y257175D02*
G54D12*
D03*
G54D14*
X742950Y155575D02*
X717550Y155575D01*
X692150Y130175D01*
X666750Y104775D01*
X641350Y104780D01*
X774700Y257175D02*
G54D11*
D03*
X774700Y231775D02*
G54D11*
D03*
X774700Y257170D02*
G54D12*
D03*
X704850Y292100D02*
G54D15*
D03*
X730250Y292100D02*
G54D15*
D03*
X723900Y254000D02*
G54D16*
D03*
X736600Y266700D02*
G54D16*
D03*
X749300Y254000D02*
G54D16*
D03*
X774700Y285750D02*
G54D15*
D03*
X774700Y311150D02*
G54D15*
D03*
X819150Y251775D02*
G54D13*
D03*
X819150Y231775D02*
G54D13*
D03*
X819150Y251780D02*
G54D13*
D03*
X704850Y292100D02*
G54D15*
D03*
X800100Y311150D02*
G54D15*
D03*
G54D14*
X819150Y130175D02*
X800100Y149225D01*
X800100Y257175D01*
X819150Y276225D01*
X819150Y333375D01*
G54D14*
X822325Y333375D02*
X641350Y333375D01*
G54D14*
X844550Y155575D02*
X844550Y257175D01*
X895350Y307975D01*
X864336Y298166D02*
G54D13*
D03*
X850194Y312308D02*
G54D13*
D03*
X864340Y298170D02*
G54D13*
D03*
X736600Y266700D02*
G54D16*
D03*
X692150Y257175D02*
G54D11*
D03*
X666750Y257175D02*
G54D11*
D03*
X641350Y206375D02*
G54D12*
D03*
%LPD*%
G54D17*
G54D17*
G36*
X31750Y838375D02*
X18250Y838375D01*
X18250Y844375D01*
X31750Y844375D01*
X31750Y838375D01*
G37*
G54D17*
G36*
X31750Y920575D02*
X45250Y920575D01*
X45250Y914575D01*
X31750Y914575D01*
X31750Y920575D01*
G37*
G36*
X31750Y914575D02*
X18250Y914575D01*
X18250Y920575D01*
X31750Y920575D01*
X31750Y914575D01*
G37*
G54D17*
G36*
X104950Y815975D02*
X104950Y829475D01*
X110950Y829475D01*
X110950Y815975D01*
X104950Y815975D01*
G37*
G36*
X110950Y815975D02*
X110950Y802475D01*
X104950Y802475D01*
X104950Y815975D01*
X110950Y815975D01*
G37*
G54D17*
G36*
X54150Y917575D02*
X54150Y931075D01*
X60150Y931075D01*
X60150Y917575D01*
X54150Y917575D01*
G37*
G36*
X57150Y920575D02*
X70650Y920575D01*
X70650Y914575D01*
X57150Y914575D01*
X57150Y920575D01*
G37*
G36*
X57150Y914575D02*
X43650Y914575D01*
X43650Y920575D01*
X57150Y920575D01*
X57150Y914575D01*
G37*
G54D17*
G36*
X136350Y739775D02*
X136350Y726275D01*
X130350Y726275D01*
X130350Y739775D01*
X136350Y739775D01*
G37*
G36*
X133350Y736775D02*
X119850Y736775D01*
X119850Y742775D01*
X133350Y742775D01*
X133350Y736775D01*
G37*
G54D17*
G36*
X285750Y768175D02*
X299250Y768175D01*
X299250Y762175D01*
X285750Y762175D01*
X285750Y768175D01*
G37*
G54D18*
G36*
X285750Y894842D02*
X298250Y894842D01*
X298250Y889508D01*
X285750Y889508D01*
X285750Y894842D01*
G37*
G54D17*
G36*
X130350Y714375D02*
X130350Y727875D01*
X136350Y727875D01*
X136350Y714375D01*
X130350Y714375D01*
G37*
G36*
X136350Y714375D02*
X136350Y700875D01*
X130350Y700875D01*
X130350Y714375D01*
X136350Y714375D01*
G37*
G54D17*
G36*
X285750Y717375D02*
X299250Y717375D01*
X299250Y711375D01*
X285750Y711375D01*
X285750Y717375D01*
G37*
G36*
X288750Y714375D02*
X288750Y700875D01*
X282750Y700875D01*
X282750Y714375D01*
X288750Y714375D01*
G37*
G54D17*
G36*
X85550Y714380D02*
X85550Y700880D01*
X79550Y700880D01*
X79550Y714380D01*
X85550Y714380D01*
G37*
G36*
X82550Y711380D02*
X69050Y711380D01*
X69050Y717380D01*
X82550Y717380D01*
X82550Y711380D01*
G37*
G54D17*
G36*
X181150Y714375D02*
X181150Y727875D01*
X187150Y727875D01*
X187150Y714375D01*
X181150Y714375D01*
G37*
G36*
X187150Y714375D02*
X187150Y700875D01*
X181150Y700875D01*
X181150Y714375D01*
X187150Y714375D01*
G37*
G54D17*
G36*
X31750Y762180D02*
X18250Y762180D01*
X18250Y768180D01*
X31750Y768180D01*
X31750Y762180D01*
G37*
G54D17*
G36*
X167221Y868891D02*
X176767Y859345D01*
X172525Y855103D01*
X162979Y864649D01*
X167221Y868891D01*
G37*
G36*
X162979Y864649D02*
X153433Y874195D01*
X157675Y878437D01*
X167221Y868891D01*
X162979Y864649D01*
G37*
G54D18*
G36*
X206883Y861380D02*
X206883Y873880D01*
X212217Y873880D01*
X212217Y861380D01*
X206883Y861380D01*
G37*
G54D17*
G36*
X92250Y901700D02*
X92250Y915200D01*
X98250Y915200D01*
X98250Y901700D01*
X92250Y901700D01*
G37*
G36*
X98250Y901700D02*
X98250Y888200D01*
X92250Y888200D01*
X92250Y901700D01*
X98250Y901700D01*
G37*
G36*
X95250Y898700D02*
X81750Y898700D01*
X81750Y904700D01*
X95250Y904700D01*
X95250Y898700D01*
G37*
G54D18*
G36*
X252854Y909656D02*
X261693Y918494D01*
X265464Y914723D01*
X256626Y905884D01*
X252854Y909656D01*
G37*
G36*
X256626Y905884D02*
X247787Y897046D01*
X244016Y900817D01*
X252854Y909656D01*
X256626Y905884D01*
G37*
G54D19*
G36*
X124667Y876300D02*
X124667Y887800D01*
X129333Y887800D01*
X129333Y876300D01*
X124667Y876300D01*
G37*
G36*
X125350Y874650D02*
X117218Y882782D01*
X120518Y886082D01*
X128650Y877950D01*
X125350Y874650D01*
G37*
G54D17*
G54D17*
G36*
X336550Y838375D02*
X323050Y838375D01*
X323050Y844375D01*
X336550Y844375D01*
X336550Y838375D01*
G37*
G54D17*
G36*
X336550Y920575D02*
X350050Y920575D01*
X350050Y914575D01*
X336550Y914575D01*
X336550Y920575D01*
G37*
G36*
X336550Y914575D02*
X323050Y914575D01*
X323050Y920575D01*
X336550Y920575D01*
X336550Y914575D01*
G37*
G54D17*
G36*
X409750Y815975D02*
X409750Y829475D01*
X415750Y829475D01*
X415750Y815975D01*
X409750Y815975D01*
G37*
G36*
X415750Y815975D02*
X415750Y802475D01*
X409750Y802475D01*
X409750Y815975D01*
X415750Y815975D01*
G37*
G54D17*
G36*
X358950Y917575D02*
X358950Y931075D01*
X364950Y931075D01*
X364950Y917575D01*
X358950Y917575D01*
G37*
G36*
X361950Y920575D02*
X375450Y920575D01*
X375450Y914575D01*
X361950Y914575D01*
X361950Y920575D01*
G37*
G36*
X361950Y914575D02*
X348450Y914575D01*
X348450Y920575D01*
X361950Y920575D01*
X361950Y914575D01*
G37*
G54D17*
G36*
X441150Y739775D02*
X441150Y726275D01*
X435150Y726275D01*
X435150Y739775D01*
X441150Y739775D01*
G37*
G36*
X438150Y736775D02*
X424650Y736775D01*
X424650Y742775D01*
X438150Y742775D01*
X438150Y736775D01*
G37*
G54D17*
G36*
X590550Y768175D02*
X604050Y768175D01*
X604050Y762175D01*
X590550Y762175D01*
X590550Y768175D01*
G37*
G54D18*
G36*
X590550Y894842D02*
X603050Y894842D01*
X603050Y889508D01*
X590550Y889508D01*
X590550Y894842D01*
G37*
G54D17*
G36*
X435150Y714375D02*
X435150Y727875D01*
X441150Y727875D01*
X441150Y714375D01*
X435150Y714375D01*
G37*
G36*
X441150Y714375D02*
X441150Y700875D01*
X435150Y700875D01*
X435150Y714375D01*
X441150Y714375D01*
G37*
G54D17*
G36*
X590550Y717375D02*
X604050Y717375D01*
X604050Y711375D01*
X590550Y711375D01*
X590550Y717375D01*
G37*
G36*
X593550Y714375D02*
X593550Y700875D01*
X587550Y700875D01*
X587550Y714375D01*
X593550Y714375D01*
G37*
G54D17*
G36*
X390350Y714380D02*
X390350Y700880D01*
X384350Y700880D01*
X384350Y714380D01*
X390350Y714380D01*
G37*
G36*
X387350Y711380D02*
X373850Y711380D01*
X373850Y717380D01*
X387350Y717380D01*
X387350Y711380D01*
G37*
G54D17*
G36*
X485950Y714375D02*
X485950Y727875D01*
X491950Y727875D01*
X491950Y714375D01*
X485950Y714375D01*
G37*
G36*
X491950Y714375D02*
X491950Y700875D01*
X485950Y700875D01*
X485950Y714375D01*
X491950Y714375D01*
G37*
G54D17*
G36*
X336550Y762180D02*
X323050Y762180D01*
X323050Y768180D01*
X336550Y768180D01*
X336550Y762180D01*
G37*
G54D17*
G36*
X472021Y868891D02*
X481567Y859345D01*
X477325Y855103D01*
X467779Y864649D01*
X472021Y868891D01*
G37*
G36*
X467779Y864649D02*
X458233Y874195D01*
X462475Y878437D01*
X472021Y868891D01*
X467779Y864649D01*
G37*
G54D18*
G36*
X511683Y861380D02*
X511683Y873880D01*
X517017Y873880D01*
X517017Y861380D01*
X511683Y861380D01*
G37*
G54D17*
G36*
X397050Y901700D02*
X397050Y915200D01*
X403050Y915200D01*
X403050Y901700D01*
X397050Y901700D01*
G37*
G36*
X403050Y901700D02*
X403050Y888200D01*
X397050Y888200D01*
X397050Y901700D01*
X403050Y901700D01*
G37*
G36*
X400050Y898700D02*
X386550Y898700D01*
X386550Y904700D01*
X400050Y904700D01*
X400050Y898700D01*
G37*
G54D18*
G36*
X557654Y909656D02*
X566493Y918494D01*
X570264Y914723D01*
X561426Y905884D01*
X557654Y909656D01*
G37*
G36*
X561426Y905884D02*
X552587Y897046D01*
X548816Y900817D01*
X557654Y909656D01*
X561426Y905884D01*
G37*
G54D19*
G36*
X429467Y876300D02*
X429467Y887800D01*
X434133Y887800D01*
X434133Y876300D01*
X429467Y876300D01*
G37*
G36*
X430150Y874650D02*
X422018Y882782D01*
X425318Y886082D01*
X433450Y877950D01*
X430150Y874650D01*
G37*
G54D17*
G54D17*
G36*
X641350Y838375D02*
X627850Y838375D01*
X627850Y844375D01*
X641350Y844375D01*
X641350Y838375D01*
G37*
G54D17*
G36*
X641350Y920575D02*
X654850Y920575D01*
X654850Y914575D01*
X641350Y914575D01*
X641350Y920575D01*
G37*
G36*
X641350Y914575D02*
X627850Y914575D01*
X627850Y920575D01*
X641350Y920575D01*
X641350Y914575D01*
G37*
G54D17*
G36*
X714550Y815975D02*
X714550Y829475D01*
X720550Y829475D01*
X720550Y815975D01*
X714550Y815975D01*
G37*
G36*
X720550Y815975D02*
X720550Y802475D01*
X714550Y802475D01*
X714550Y815975D01*
X720550Y815975D01*
G37*
G54D17*
G36*
X663750Y917575D02*
X663750Y931075D01*
X669750Y931075D01*
X669750Y917575D01*
X663750Y917575D01*
G37*
G36*
X666750Y920575D02*
X680250Y920575D01*
X680250Y914575D01*
X666750Y914575D01*
X666750Y920575D01*
G37*
G36*
X666750Y914575D02*
X653250Y914575D01*
X653250Y920575D01*
X666750Y920575D01*
X666750Y914575D01*
G37*
G54D17*
G36*
X745950Y739775D02*
X745950Y726275D01*
X739950Y726275D01*
X739950Y739775D01*
X745950Y739775D01*
G37*
G36*
X742950Y736775D02*
X729450Y736775D01*
X729450Y742775D01*
X742950Y742775D01*
X742950Y736775D01*
G37*
G54D17*
G36*
X895350Y768175D02*
X908850Y768175D01*
X908850Y762175D01*
X895350Y762175D01*
X895350Y768175D01*
G37*
G54D18*
G36*
X895350Y894842D02*
X907850Y894842D01*
X907850Y889508D01*
X895350Y889508D01*
X895350Y894842D01*
G37*
G54D17*
G36*
X739950Y714375D02*
X739950Y727875D01*
X745950Y727875D01*
X745950Y714375D01*
X739950Y714375D01*
G37*
G36*
X745950Y714375D02*
X745950Y700875D01*
X739950Y700875D01*
X739950Y714375D01*
X745950Y714375D01*
G37*
G54D17*
G36*
X895350Y717375D02*
X908850Y717375D01*
X908850Y711375D01*
X895350Y711375D01*
X895350Y717375D01*
G37*
G36*
X898350Y714375D02*
X898350Y700875D01*
X892350Y700875D01*
X892350Y714375D01*
X898350Y714375D01*
G37*
G54D17*
G36*
X695150Y714380D02*
X695150Y700880D01*
X689150Y700880D01*
X689150Y714380D01*
X695150Y714380D01*
G37*
G36*
X692150Y711380D02*
X678650Y711380D01*
X678650Y717380D01*
X692150Y717380D01*
X692150Y711380D01*
G37*
G54D17*
G36*
X790750Y714375D02*
X790750Y727875D01*
X796750Y727875D01*
X796750Y714375D01*
X790750Y714375D01*
G37*
G36*
X796750Y714375D02*
X796750Y700875D01*
X790750Y700875D01*
X790750Y714375D01*
X796750Y714375D01*
G37*
G54D17*
G36*
X641350Y762180D02*
X627850Y762180D01*
X627850Y768180D01*
X641350Y768180D01*
X641350Y762180D01*
G37*
G54D17*
G36*
X776821Y868891D02*
X786367Y859345D01*
X782125Y855103D01*
X772579Y864649D01*
X776821Y868891D01*
G37*
G36*
X772579Y864649D02*
X763033Y874195D01*
X767275Y878437D01*
X776821Y868891D01*
X772579Y864649D01*
G37*
G54D18*
G36*
X816483Y861380D02*
X816483Y873880D01*
X821817Y873880D01*
X821817Y861380D01*
X816483Y861380D01*
G37*
G54D17*
G36*
X701850Y901700D02*
X701850Y915200D01*
X707850Y915200D01*
X707850Y901700D01*
X701850Y901700D01*
G37*
G36*
X707850Y901700D02*
X707850Y888200D01*
X701850Y888200D01*
X701850Y901700D01*
X707850Y901700D01*
G37*
G36*
X704850Y898700D02*
X691350Y898700D01*
X691350Y904700D01*
X704850Y904700D01*
X704850Y898700D01*
G37*
G54D18*
G36*
X862454Y909656D02*
X871293Y918494D01*
X875064Y914723D01*
X866226Y905884D01*
X862454Y909656D01*
G37*
G36*
X866226Y905884D02*
X857387Y897046D01*
X853616Y900817D01*
X862454Y909656D01*
X866226Y905884D01*
G37*
G54D19*
G36*
X734267Y876300D02*
X734267Y887800D01*
X738933Y887800D01*
X738933Y876300D01*
X734267Y876300D01*
G37*
G36*
X734950Y874650D02*
X726818Y882782D01*
X730118Y886082D01*
X738250Y877950D01*
X734950Y874650D01*
G37*
G54D17*
G54D17*
G36*
X31750Y533575D02*
X18250Y533575D01*
X18250Y539575D01*
X31750Y539575D01*
X31750Y533575D01*
G37*
G54D17*
G36*
X31750Y615775D02*
X45250Y615775D01*
X45250Y609775D01*
X31750Y609775D01*
X31750Y615775D01*
G37*
G36*
X31750Y609775D02*
X18250Y609775D01*
X18250Y615775D01*
X31750Y615775D01*
X31750Y609775D01*
G37*
G54D17*
G36*
X104950Y511175D02*
X104950Y524675D01*
X110950Y524675D01*
X110950Y511175D01*
X104950Y511175D01*
G37*
G36*
X110950Y511175D02*
X110950Y497675D01*
X104950Y497675D01*
X104950Y511175D01*
X110950Y511175D01*
G37*
G54D17*
G36*
X54150Y612775D02*
X54150Y626275D01*
X60150Y626275D01*
X60150Y612775D01*
X54150Y612775D01*
G37*
G36*
X57150Y615775D02*
X70650Y615775D01*
X70650Y609775D01*
X57150Y609775D01*
X57150Y615775D01*
G37*
G36*
X57150Y609775D02*
X43650Y609775D01*
X43650Y615775D01*
X57150Y615775D01*
X57150Y609775D01*
G37*
G54D17*
G36*
X136350Y434975D02*
X136350Y421475D01*
X130350Y421475D01*
X130350Y434975D01*
X136350Y434975D01*
G37*
G36*
X133350Y431975D02*
X119850Y431975D01*
X119850Y437975D01*
X133350Y437975D01*
X133350Y431975D01*
G37*
G54D17*
G36*
X285750Y463375D02*
X299250Y463375D01*
X299250Y457375D01*
X285750Y457375D01*
X285750Y463375D01*
G37*
G54D18*
G36*
X285750Y590042D02*
X298250Y590042D01*
X298250Y584708D01*
X285750Y584708D01*
X285750Y590042D01*
G37*
G54D17*
G36*
X130350Y409575D02*
X130350Y423075D01*
X136350Y423075D01*
X136350Y409575D01*
X130350Y409575D01*
G37*
G36*
X136350Y409575D02*
X136350Y396075D01*
X130350Y396075D01*
X130350Y409575D01*
X136350Y409575D01*
G37*
G54D17*
G36*
X285750Y412575D02*
X299250Y412575D01*
X299250Y406575D01*
X285750Y406575D01*
X285750Y412575D01*
G37*
G36*
X288750Y409575D02*
X288750Y396075D01*
X282750Y396075D01*
X282750Y409575D01*
X288750Y409575D01*
G37*
G54D17*
G36*
X85550Y409580D02*
X85550Y396080D01*
X79550Y396080D01*
X79550Y409580D01*
X85550Y409580D01*
G37*
G36*
X82550Y406580D02*
X69050Y406580D01*
X69050Y412580D01*
X82550Y412580D01*
X82550Y406580D01*
G37*
G54D17*
G36*
X181150Y409575D02*
X181150Y423075D01*
X187150Y423075D01*
X187150Y409575D01*
X181150Y409575D01*
G37*
G36*
X187150Y409575D02*
X187150Y396075D01*
X181150Y396075D01*
X181150Y409575D01*
X187150Y409575D01*
G37*
G54D17*
G36*
X31750Y457380D02*
X18250Y457380D01*
X18250Y463380D01*
X31750Y463380D01*
X31750Y457380D01*
G37*
G54D17*
G36*
X167221Y564091D02*
X176767Y554545D01*
X172525Y550303D01*
X162979Y559849D01*
X167221Y564091D01*
G37*
G36*
X162979Y559849D02*
X153433Y569395D01*
X157675Y573637D01*
X167221Y564091D01*
X162979Y559849D01*
G37*
G54D18*
G36*
X206883Y556580D02*
X206883Y569080D01*
X212217Y569080D01*
X212217Y556580D01*
X206883Y556580D01*
G37*
G54D17*
G36*
X92250Y596900D02*
X92250Y610400D01*
X98250Y610400D01*
X98250Y596900D01*
X92250Y596900D01*
G37*
G36*
X98250Y596900D02*
X98250Y583400D01*
X92250Y583400D01*
X92250Y596900D01*
X98250Y596900D01*
G37*
G36*
X95250Y593900D02*
X81750Y593900D01*
X81750Y599900D01*
X95250Y599900D01*
X95250Y593900D01*
G37*
G54D18*
G36*
X252854Y604856D02*
X261693Y613694D01*
X265464Y609923D01*
X256626Y601084D01*
X252854Y604856D01*
G37*
G36*
X256626Y601084D02*
X247787Y592246D01*
X244016Y596017D01*
X252854Y604856D01*
X256626Y601084D01*
G37*
G54D19*
G36*
X124667Y571500D02*
X124667Y583000D01*
X129333Y583000D01*
X129333Y571500D01*
X124667Y571500D01*
G37*
G36*
X125350Y569850D02*
X117218Y577982D01*
X120518Y581282D01*
X128650Y573150D01*
X125350Y569850D01*
G37*
G54D17*
G54D17*
G36*
X336550Y533575D02*
X323050Y533575D01*
X323050Y539575D01*
X336550Y539575D01*
X336550Y533575D01*
G37*
G54D17*
G36*
X336550Y615775D02*
X350050Y615775D01*
X350050Y609775D01*
X336550Y609775D01*
X336550Y615775D01*
G37*
G36*
X336550Y609775D02*
X323050Y609775D01*
X323050Y615775D01*
X336550Y615775D01*
X336550Y609775D01*
G37*
G54D17*
G36*
X409750Y511175D02*
X409750Y524675D01*
X415750Y524675D01*
X415750Y511175D01*
X409750Y511175D01*
G37*
G36*
X415750Y511175D02*
X415750Y497675D01*
X409750Y497675D01*
X409750Y511175D01*
X415750Y511175D01*
G37*
G54D17*
G36*
X358950Y612775D02*
X358950Y626275D01*
X364950Y626275D01*
X364950Y612775D01*
X358950Y612775D01*
G37*
G36*
X361950Y615775D02*
X375450Y615775D01*
X375450Y609775D01*
X361950Y609775D01*
X361950Y615775D01*
G37*
G36*
X361950Y609775D02*
X348450Y609775D01*
X348450Y615775D01*
X361950Y615775D01*
X361950Y609775D01*
G37*
G54D17*
G36*
X441150Y434975D02*
X441150Y421475D01*
X435150Y421475D01*
X435150Y434975D01*
X441150Y434975D01*
G37*
G36*
X438150Y431975D02*
X424650Y431975D01*
X424650Y437975D01*
X438150Y437975D01*
X438150Y431975D01*
G37*
G54D17*
G36*
X590550Y463375D02*
X604050Y463375D01*
X604050Y457375D01*
X590550Y457375D01*
X590550Y463375D01*
G37*
G54D18*
G36*
X590550Y590042D02*
X603050Y590042D01*
X603050Y584708D01*
X590550Y584708D01*
X590550Y590042D01*
G37*
G54D17*
G36*
X435150Y409575D02*
X435150Y423075D01*
X441150Y423075D01*
X441150Y409575D01*
X435150Y409575D01*
G37*
G36*
X441150Y409575D02*
X441150Y396075D01*
X435150Y396075D01*
X435150Y409575D01*
X441150Y409575D01*
G37*
G54D17*
G36*
X590550Y412575D02*
X604050Y412575D01*
X604050Y406575D01*
X590550Y406575D01*
X590550Y412575D01*
G37*
G36*
X593550Y409575D02*
X593550Y396075D01*
X587550Y396075D01*
X587550Y409575D01*
X593550Y409575D01*
G37*
G54D17*
G36*
X390350Y409580D02*
X390350Y396080D01*
X384350Y396080D01*
X384350Y409580D01*
X390350Y409580D01*
G37*
G36*
X387350Y406580D02*
X373850Y406580D01*
X373850Y412580D01*
X387350Y412580D01*
X387350Y406580D01*
G37*
G54D17*
G36*
X485950Y409575D02*
X485950Y423075D01*
X491950Y423075D01*
X491950Y409575D01*
X485950Y409575D01*
G37*
G36*
X491950Y409575D02*
X491950Y396075D01*
X485950Y396075D01*
X485950Y409575D01*
X491950Y409575D01*
G37*
G54D17*
G36*
X336550Y457380D02*
X323050Y457380D01*
X323050Y463380D01*
X336550Y463380D01*
X336550Y457380D01*
G37*
G54D17*
G36*
X472021Y564091D02*
X481567Y554545D01*
X477325Y550303D01*
X467779Y559849D01*
X472021Y564091D01*
G37*
G36*
X467779Y559849D02*
X458233Y569395D01*
X462475Y573637D01*
X472021Y564091D01*
X467779Y559849D01*
G37*
G54D18*
G36*
X511683Y556580D02*
X511683Y569080D01*
X517017Y569080D01*
X517017Y556580D01*
X511683Y556580D01*
G37*
G54D17*
G36*
X397050Y596900D02*
X397050Y610400D01*
X403050Y610400D01*
X403050Y596900D01*
X397050Y596900D01*
G37*
G36*
X403050Y596900D02*
X403050Y583400D01*
X397050Y583400D01*
X397050Y596900D01*
X403050Y596900D01*
G37*
G36*
X400050Y593900D02*
X386550Y593900D01*
X386550Y599900D01*
X400050Y599900D01*
X400050Y593900D01*
G37*
G54D18*
G36*
X557654Y604856D02*
X566493Y613694D01*
X570264Y609923D01*
X561426Y601084D01*
X557654Y604856D01*
G37*
G36*
X561426Y601084D02*
X552587Y592246D01*
X548816Y596017D01*
X557654Y604856D01*
X561426Y601084D01*
G37*
G54D19*
G36*
X429467Y571500D02*
X429467Y583000D01*
X434133Y583000D01*
X434133Y571500D01*
X429467Y571500D01*
G37*
G36*
X430150Y569850D02*
X422018Y577982D01*
X425318Y581282D01*
X433450Y573150D01*
X430150Y569850D01*
G37*
G54D17*
G54D17*
G36*
X641350Y533575D02*
X627850Y533575D01*
X627850Y539575D01*
X641350Y539575D01*
X641350Y533575D01*
G37*
G54D17*
G36*
X641350Y615775D02*
X654850Y615775D01*
X654850Y609775D01*
X641350Y609775D01*
X641350Y615775D01*
G37*
G36*
X641350Y609775D02*
X627850Y609775D01*
X627850Y615775D01*
X641350Y615775D01*
X641350Y609775D01*
G37*
G54D17*
G36*
X714550Y511175D02*
X714550Y524675D01*
X720550Y524675D01*
X720550Y511175D01*
X714550Y511175D01*
G37*
G36*
X720550Y511175D02*
X720550Y497675D01*
X714550Y497675D01*
X714550Y511175D01*
X720550Y511175D01*
G37*
G54D17*
G36*
X663750Y612775D02*
X663750Y626275D01*
X669750Y626275D01*
X669750Y612775D01*
X663750Y612775D01*
G37*
G36*
X666750Y615775D02*
X680250Y615775D01*
X680250Y609775D01*
X666750Y609775D01*
X666750Y615775D01*
G37*
G36*
X666750Y609775D02*
X653250Y609775D01*
X653250Y615775D01*
X666750Y615775D01*
X666750Y609775D01*
G37*
G54D17*
G36*
X745950Y434975D02*
X745950Y421475D01*
X739950Y421475D01*
X739950Y434975D01*
X745950Y434975D01*
G37*
G36*
X742950Y431975D02*
X729450Y431975D01*
X729450Y437975D01*
X742950Y437975D01*
X742950Y431975D01*
G37*
G54D17*
G36*
X895350Y463375D02*
X908850Y463375D01*
X908850Y457375D01*
X895350Y457375D01*
X895350Y463375D01*
G37*
G54D18*
G36*
X895350Y590042D02*
X907850Y590042D01*
X907850Y584708D01*
X895350Y584708D01*
X895350Y590042D01*
G37*
G54D17*
G36*
X739950Y409575D02*
X739950Y423075D01*
X745950Y423075D01*
X745950Y409575D01*
X739950Y409575D01*
G37*
G36*
X745950Y409575D02*
X745950Y396075D01*
X739950Y396075D01*
X739950Y409575D01*
X745950Y409575D01*
G37*
G54D17*
G36*
X895350Y412575D02*
X908850Y412575D01*
X908850Y406575D01*
X895350Y406575D01*
X895350Y412575D01*
G37*
G36*
X898350Y409575D02*
X898350Y396075D01*
X892350Y396075D01*
X892350Y409575D01*
X898350Y409575D01*
G37*
G54D17*
G36*
X695150Y409580D02*
X695150Y396080D01*
X689150Y396080D01*
X689150Y409580D01*
X695150Y409580D01*
G37*
G36*
X692150Y406580D02*
X678650Y406580D01*
X678650Y412580D01*
X692150Y412580D01*
X692150Y406580D01*
G37*
G54D17*
G36*
X790750Y409575D02*
X790750Y423075D01*
X796750Y423075D01*
X796750Y409575D01*
X790750Y409575D01*
G37*
G36*
X796750Y409575D02*
X796750Y396075D01*
X790750Y396075D01*
X790750Y409575D01*
X796750Y409575D01*
G37*
G54D17*
G36*
X641350Y457380D02*
X627850Y457380D01*
X627850Y463380D01*
X641350Y463380D01*
X641350Y457380D01*
G37*
G54D17*
G36*
X776821Y564091D02*
X786367Y554545D01*
X782125Y550303D01*
X772579Y559849D01*
X776821Y564091D01*
G37*
G36*
X772579Y559849D02*
X763033Y569395D01*
X767275Y573637D01*
X776821Y564091D01*
X772579Y559849D01*
G37*
G54D18*
G36*
X816483Y556580D02*
X816483Y569080D01*
X821817Y569080D01*
X821817Y556580D01*
X816483Y556580D01*
G37*
G54D17*
G36*
X701850Y596900D02*
X701850Y610400D01*
X707850Y610400D01*
X707850Y596900D01*
X701850Y596900D01*
G37*
G36*
X707850Y596900D02*
X707850Y583400D01*
X701850Y583400D01*
X701850Y596900D01*
X707850Y596900D01*
G37*
G36*
X704850Y593900D02*
X691350Y593900D01*
X691350Y599900D01*
X704850Y599900D01*
X704850Y593900D01*
G37*
G54D18*
G36*
X862454Y604856D02*
X871293Y613694D01*
X875064Y609923D01*
X866226Y601084D01*
X862454Y604856D01*
G37*
G36*
X866226Y601084D02*
X857387Y592246D01*
X853616Y596017D01*
X862454Y604856D01*
X866226Y601084D01*
G37*
G54D19*
G36*
X734267Y571500D02*
X734267Y583000D01*
X738933Y583000D01*
X738933Y571500D01*
X734267Y571500D01*
G37*
G36*
X734950Y569850D02*
X726818Y577982D01*
X730118Y581282D01*
X738250Y573150D01*
X734950Y569850D01*
G37*
G54D17*
G54D17*
G36*
X31750Y228775D02*
X18250Y228775D01*
X18250Y234775D01*
X31750Y234775D01*
X31750Y228775D01*
G37*
G54D17*
G36*
X31750Y310975D02*
X45250Y310975D01*
X45250Y304975D01*
X31750Y304975D01*
X31750Y310975D01*
G37*
G36*
X31750Y304975D02*
X18250Y304975D01*
X18250Y310975D01*
X31750Y310975D01*
X31750Y304975D01*
G37*
G54D17*
G36*
X104950Y206375D02*
X104950Y219875D01*
X110950Y219875D01*
X110950Y206375D01*
X104950Y206375D01*
G37*
G36*
X110950Y206375D02*
X110950Y192875D01*
X104950Y192875D01*
X104950Y206375D01*
X110950Y206375D01*
G37*
G54D17*
G36*
X54150Y307975D02*
X54150Y321475D01*
X60150Y321475D01*
X60150Y307975D01*
X54150Y307975D01*
G37*
G36*
X57150Y310975D02*
X70650Y310975D01*
X70650Y304975D01*
X57150Y304975D01*
X57150Y310975D01*
G37*
G36*
X57150Y304975D02*
X43650Y304975D01*
X43650Y310975D01*
X57150Y310975D01*
X57150Y304975D01*
G37*
G54D17*
G36*
X136350Y130175D02*
X136350Y116675D01*
X130350Y116675D01*
X130350Y130175D01*
X136350Y130175D01*
G37*
G36*
X133350Y127175D02*
X119850Y127175D01*
X119850Y133175D01*
X133350Y133175D01*
X133350Y127175D01*
G37*
G54D17*
G36*
X285750Y158575D02*
X299250Y158575D01*
X299250Y152575D01*
X285750Y152575D01*
X285750Y158575D01*
G37*
G54D18*
G36*
X285750Y285242D02*
X298250Y285242D01*
X298250Y279908D01*
X285750Y279908D01*
X285750Y285242D01*
G37*
G54D17*
G36*
X130350Y104775D02*
X130350Y118275D01*
X136350Y118275D01*
X136350Y104775D01*
X130350Y104775D01*
G37*
G36*
X136350Y104775D02*
X136350Y91275D01*
X130350Y91275D01*
X130350Y104775D01*
X136350Y104775D01*
G37*
G54D17*
G36*
X285750Y107775D02*
X299250Y107775D01*
X299250Y101775D01*
X285750Y101775D01*
X285750Y107775D01*
G37*
G36*
X288750Y104775D02*
X288750Y91275D01*
X282750Y91275D01*
X282750Y104775D01*
X288750Y104775D01*
G37*
G54D17*
G36*
X85550Y104780D02*
X85550Y91280D01*
X79550Y91280D01*
X79550Y104780D01*
X85550Y104780D01*
G37*
G36*
X82550Y101780D02*
X69050Y101780D01*
X69050Y107780D01*
X82550Y107780D01*
X82550Y101780D01*
G37*
G54D17*
G36*
X181150Y104775D02*
X181150Y118275D01*
X187150Y118275D01*
X187150Y104775D01*
X181150Y104775D01*
G37*
G36*
X187150Y104775D02*
X187150Y91275D01*
X181150Y91275D01*
X181150Y104775D01*
X187150Y104775D01*
G37*
G54D17*
G36*
X31750Y152580D02*
X18250Y152580D01*
X18250Y158580D01*
X31750Y158580D01*
X31750Y152580D01*
G37*
G54D17*
G36*
X167221Y259291D02*
X176767Y249745D01*
X172525Y245503D01*
X162979Y255049D01*
X167221Y259291D01*
G37*
G36*
X162979Y255049D02*
X153433Y264595D01*
X157675Y268837D01*
X167221Y259291D01*
X162979Y255049D01*
G37*
G54D18*
G36*
X206883Y251780D02*
X206883Y264280D01*
X212217Y264280D01*
X212217Y251780D01*
X206883Y251780D01*
G37*
G54D17*
G36*
X92250Y292100D02*
X92250Y305600D01*
X98250Y305600D01*
X98250Y292100D01*
X92250Y292100D01*
G37*
G36*
X98250Y292100D02*
X98250Y278600D01*
X92250Y278600D01*
X92250Y292100D01*
X98250Y292100D01*
G37*
G36*
X95250Y289100D02*
X81750Y289100D01*
X81750Y295100D01*
X95250Y295100D01*
X95250Y289100D01*
G37*
G54D18*
G36*
X252854Y300056D02*
X261693Y308894D01*
X265464Y305123D01*
X256626Y296284D01*
X252854Y300056D01*
G37*
G36*
X256626Y296284D02*
X247787Y287446D01*
X244016Y291217D01*
X252854Y300056D01*
X256626Y296284D01*
G37*
G54D19*
G36*
X124667Y266700D02*
X124667Y278200D01*
X129333Y278200D01*
X129333Y266700D01*
X124667Y266700D01*
G37*
G36*
X125350Y265050D02*
X117218Y273182D01*
X120518Y276482D01*
X128650Y268350D01*
X125350Y265050D01*
G37*
G54D17*
G54D17*
G36*
X336550Y228775D02*
X323050Y228775D01*
X323050Y234775D01*
X336550Y234775D01*
X336550Y228775D01*
G37*
G54D17*
G36*
X336550Y310975D02*
X350050Y310975D01*
X350050Y304975D01*
X336550Y304975D01*
X336550Y310975D01*
G37*
G36*
X336550Y304975D02*
X323050Y304975D01*
X323050Y310975D01*
X336550Y310975D01*
X336550Y304975D01*
G37*
G54D17*
G36*
X409750Y206375D02*
X409750Y219875D01*
X415750Y219875D01*
X415750Y206375D01*
X409750Y206375D01*
G37*
G36*
X415750Y206375D02*
X415750Y192875D01*
X409750Y192875D01*
X409750Y206375D01*
X415750Y206375D01*
G37*
G54D17*
G36*
X358950Y307975D02*
X358950Y321475D01*
X364950Y321475D01*
X364950Y307975D01*
X358950Y307975D01*
G37*
G36*
X361950Y310975D02*
X375450Y310975D01*
X375450Y304975D01*
X361950Y304975D01*
X361950Y310975D01*
G37*
G36*
X361950Y304975D02*
X348450Y304975D01*
X348450Y310975D01*
X361950Y310975D01*
X361950Y304975D01*
G37*
G54D17*
G36*
X441150Y130175D02*
X441150Y116675D01*
X435150Y116675D01*
X435150Y130175D01*
X441150Y130175D01*
G37*
G36*
X438150Y127175D02*
X424650Y127175D01*
X424650Y133175D01*
X438150Y133175D01*
X438150Y127175D01*
G37*
G54D17*
G36*
X590550Y158575D02*
X604050Y158575D01*
X604050Y152575D01*
X590550Y152575D01*
X590550Y158575D01*
G37*
G54D18*
G36*
X590550Y285242D02*
X603050Y285242D01*
X603050Y279908D01*
X590550Y279908D01*
X590550Y285242D01*
G37*
G54D17*
G36*
X435150Y104775D02*
X435150Y118275D01*
X441150Y118275D01*
X441150Y104775D01*
X435150Y104775D01*
G37*
G36*
X441150Y104775D02*
X441150Y91275D01*
X435150Y91275D01*
X435150Y104775D01*
X441150Y104775D01*
G37*
G54D17*
G36*
X590550Y107775D02*
X604050Y107775D01*
X604050Y101775D01*
X590550Y101775D01*
X590550Y107775D01*
G37*
G36*
X593550Y104775D02*
X593550Y91275D01*
X587550Y91275D01*
X587550Y104775D01*
X593550Y104775D01*
G37*
G54D17*
G36*
X390350Y104780D02*
X390350Y91280D01*
X384350Y91280D01*
X384350Y104780D01*
X390350Y104780D01*
G37*
G36*
X387350Y101780D02*
X373850Y101780D01*
X373850Y107780D01*
X387350Y107780D01*
X387350Y101780D01*
G37*
G54D17*
G36*
X485950Y104775D02*
X485950Y118275D01*
X491950Y118275D01*
X491950Y104775D01*
X485950Y104775D01*
G37*
G36*
X491950Y104775D02*
X491950Y91275D01*
X485950Y91275D01*
X485950Y104775D01*
X491950Y104775D01*
G37*
G54D17*
G36*
X336550Y152580D02*
X323050Y152580D01*
X323050Y158580D01*
X336550Y158580D01*
X336550Y152580D01*
G37*
G54D17*
G36*
X472021Y259291D02*
X481567Y249745D01*
X477325Y245503D01*
X467779Y255049D01*
X472021Y259291D01*
G37*
G36*
X467779Y255049D02*
X458233Y264595D01*
X462475Y268837D01*
X472021Y259291D01*
X467779Y255049D01*
G37*
G54D18*
G36*
X511683Y251780D02*
X511683Y264280D01*
X517017Y264280D01*
X517017Y251780D01*
X511683Y251780D01*
G37*
G54D17*
G36*
X397050Y292100D02*
X397050Y305600D01*
X403050Y305600D01*
X403050Y292100D01*
X397050Y292100D01*
G37*
G36*
X403050Y292100D02*
X403050Y278600D01*
X397050Y278600D01*
X397050Y292100D01*
X403050Y292100D01*
G37*
G36*
X400050Y289100D02*
X386550Y289100D01*
X386550Y295100D01*
X400050Y295100D01*
X400050Y289100D01*
G37*
G54D18*
G36*
X557654Y300056D02*
X566493Y308894D01*
X570264Y305123D01*
X561426Y296284D01*
X557654Y300056D01*
G37*
G36*
X561426Y296284D02*
X552587Y287446D01*
X548816Y291217D01*
X557654Y300056D01*
X561426Y296284D01*
G37*
G54D19*
G36*
X429467Y266700D02*
X429467Y278200D01*
X434133Y278200D01*
X434133Y266700D01*
X429467Y266700D01*
G37*
G36*
X430150Y265050D02*
X422018Y273182D01*
X425318Y276482D01*
X433450Y268350D01*
X430150Y265050D01*
G37*
G54D17*
G54D17*
G36*
X641350Y228775D02*
X627850Y228775D01*
X627850Y234775D01*
X641350Y234775D01*
X641350Y228775D01*
G37*
G54D17*
G36*
X641350Y310975D02*
X654850Y310975D01*
X654850Y304975D01*
X641350Y304975D01*
X641350Y310975D01*
G37*
G36*
X641350Y304975D02*
X627850Y304975D01*
X627850Y310975D01*
X641350Y310975D01*
X641350Y304975D01*
G37*
G54D17*
G36*
X714550Y206375D02*
X714550Y219875D01*
X720550Y219875D01*
X720550Y206375D01*
X714550Y206375D01*
G37*
G36*
X720550Y206375D02*
X720550Y192875D01*
X714550Y192875D01*
X714550Y206375D01*
X720550Y206375D01*
G37*
G54D17*
G36*
X663750Y307975D02*
X663750Y321475D01*
X669750Y321475D01*
X669750Y307975D01*
X663750Y307975D01*
G37*
G36*
X666750Y310975D02*
X680250Y310975D01*
X680250Y304975D01*
X666750Y304975D01*
X666750Y310975D01*
G37*
G36*
X666750Y304975D02*
X653250Y304975D01*
X653250Y310975D01*
X666750Y310975D01*
X666750Y304975D01*
G37*
G54D17*
G36*
X745950Y130175D02*
X745950Y116675D01*
X739950Y116675D01*
X739950Y130175D01*
X745950Y130175D01*
G37*
G36*
X742950Y127175D02*
X729450Y127175D01*
X729450Y133175D01*
X742950Y133175D01*
X742950Y127175D01*
G37*
G54D17*
G36*
X895350Y158575D02*
X908850Y158575D01*
X908850Y152575D01*
X895350Y152575D01*
X895350Y158575D01*
G37*
G54D18*
G36*
X895350Y285242D02*
X907850Y285242D01*
X907850Y279908D01*
X895350Y279908D01*
X895350Y285242D01*
G37*
G54D17*
G36*
X739950Y104775D02*
X739950Y118275D01*
X745950Y118275D01*
X745950Y104775D01*
X739950Y104775D01*
G37*
G36*
X745950Y104775D02*
X745950Y91275D01*
X739950Y91275D01*
X739950Y104775D01*
X745950Y104775D01*
G37*
G54D17*
G36*
X895350Y107775D02*
X908850Y107775D01*
X908850Y101775D01*
X895350Y101775D01*
X895350Y107775D01*
G37*
G36*
X898350Y104775D02*
X898350Y91275D01*
X892350Y91275D01*
X892350Y104775D01*
X898350Y104775D01*
G37*
G54D17*
G36*
X695150Y104780D02*
X695150Y91280D01*
X689150Y91280D01*
X689150Y104780D01*
X695150Y104780D01*
G37*
G36*
X692150Y101780D02*
X678650Y101780D01*
X678650Y107780D01*
X692150Y107780D01*
X692150Y101780D01*
G37*
G54D17*
G36*
X790750Y104775D02*
X790750Y118275D01*
X796750Y118275D01*
X796750Y104775D01*
X790750Y104775D01*
G37*
G36*
X796750Y104775D02*
X796750Y91275D01*
X790750Y91275D01*
X790750Y104775D01*
X796750Y104775D01*
G37*
G54D17*
G36*
X641350Y152580D02*
X627850Y152580D01*
X627850Y158580D01*
X641350Y158580D01*
X641350Y152580D01*
G37*
G54D17*
G36*
X776821Y259291D02*
X786367Y249745D01*
X782125Y245503D01*
X772579Y255049D01*
X776821Y259291D01*
G37*
G36*
X772579Y255049D02*
X763033Y264595D01*
X767275Y268837D01*
X776821Y259291D01*
X772579Y255049D01*
G37*
G54D18*
G36*
X816483Y251780D02*
X816483Y264280D01*
X821817Y264280D01*
X821817Y251780D01*
X816483Y251780D01*
G37*
G54D17*
G36*
X701850Y292100D02*
X701850Y305600D01*
X707850Y305600D01*
X707850Y292100D01*
X701850Y292100D01*
G37*
G36*
X707850Y292100D02*
X707850Y278600D01*
X701850Y278600D01*
X701850Y292100D01*
X707850Y292100D01*
G37*
G36*
X704850Y289100D02*
X691350Y289100D01*
X691350Y295100D01*
X704850Y295100D01*
X704850Y289100D01*
G37*
G54D18*
G36*
X862454Y300056D02*
X871293Y308894D01*
X875064Y305123D01*
X866226Y296284D01*
X862454Y300056D01*
G37*
G36*
X866226Y296284D02*
X857387Y287446D01*
X853616Y291217D01*
X862454Y300056D01*
X866226Y296284D01*
G37*
G54D19*
G36*
X734267Y266700D02*
X734267Y278200D01*
X738933Y278200D01*
X738933Y266700D01*
X734267Y266700D01*
G37*
G36*
X734950Y265050D02*
X726818Y273182D01*
X730118Y276482D01*
X738250Y268350D01*
X734950Y265050D01*
G37*
G36*
X140350Y822975D02*
X140350Y808975D01*
X126350Y808975D01*
X126350Y822975D01*
X140350Y822975D01*
G37*
X133350Y790575D02*
G54D20*
D03*
X133350Y765175D02*
G54D20*
D03*
X133350Y739775D02*
G54D20*
D03*
X209550Y739775D02*
G54D20*
D03*
X209550Y765175D02*
G54D20*
D03*
X209550Y790575D02*
G54D20*
D03*
X209550Y815975D02*
G54D20*
D03*
X57150Y917575D02*
G54D21*
D03*
X57150Y892175D02*
G54D21*
D03*
X82550Y790575D02*
G54D21*
D03*
X107950Y815975D02*
G54D21*
D03*
X57150Y815975D02*
G54D21*
D03*
X31750Y892175D02*
G54D22*
D03*
X31750Y917575D02*
G54D22*
D03*
X31750Y942975D02*
G54D22*
D03*
X31750Y968375D02*
G54D22*
D03*
G36*
X276750Y743510D02*
X282015Y748775D01*
X289485Y748775D01*
X294750Y743510D01*
X294750Y736040D01*
X289485Y730775D01*
X282015Y730775D01*
X276750Y736040D01*
X276750Y743510D01*
G37*
G36*
X276750Y768910D02*
X282015Y774175D01*
X289485Y774175D01*
X294750Y768910D01*
X294750Y761440D01*
X289485Y756175D01*
X282015Y756175D01*
X276750Y761440D01*
X276750Y768910D01*
G37*
G36*
X276750Y794310D02*
X282015Y799575D01*
X289485Y799575D01*
X294750Y794310D01*
X294750Y786840D01*
X289485Y781575D01*
X282015Y781575D01*
X276750Y786840D01*
X276750Y794310D01*
G37*
G36*
X276750Y819710D02*
X282015Y824975D01*
X289485Y824975D01*
X294750Y819710D01*
X294750Y812240D01*
X289485Y806975D01*
X282015Y806975D01*
X276750Y812240D01*
X276750Y819710D01*
G37*
X31750Y714380D02*
G54D22*
D03*
X31750Y841375D02*
G54D22*
D03*
X31750Y917575D02*
G54D22*
D03*
X107950Y815975D02*
G54D22*
D03*
X57150Y917575D02*
G54D22*
D03*
X133350Y739775D02*
G54D22*
D03*
X285750Y765175D02*
G54D22*
D03*
X82550Y739775D02*
G54D21*
D03*
X82550Y765175D02*
G54D21*
D03*
X31750Y790575D02*
G54D22*
D03*
X158750Y714375D02*
G54D22*
D03*
X285750Y892175D02*
G54D23*
D03*
X285750Y866775D02*
G54D23*
D03*
X285750Y892175D02*
G54D23*
D03*
X260350Y841375D02*
G54D21*
D03*
X285750Y841375D02*
G54D21*
D03*
X133350Y714375D02*
G54D22*
D03*
X107950Y714375D02*
G54D22*
D03*
G36*
X225950Y718110D02*
X231215Y723375D01*
X238685Y723375D01*
X243950Y718110D01*
X243950Y710640D01*
X238685Y705375D01*
X231215Y705375D01*
X225950Y710640D01*
X225950Y718110D01*
G37*
G36*
X251350Y718110D02*
X256615Y723375D01*
X264085Y723375D01*
X269350Y718110D01*
X269350Y710640D01*
X264085Y705375D01*
X256615Y705375D01*
X251350Y710640D01*
X251350Y718110D01*
G37*
G36*
X276750Y718110D02*
X282015Y723375D01*
X289485Y723375D01*
X294750Y718110D01*
X294750Y710640D01*
X289485Y705375D01*
X282015Y705375D01*
X276750Y710640D01*
X276750Y718110D01*
G37*
G54D24*
X31750Y892175D02*
X57150Y892175D01*
G54D24*
X31750Y866775D02*
X57150Y866775D01*
G54D24*
X31750Y790575D02*
X133350Y790575D01*
X184150Y714375D02*
G54D21*
D03*
X209550Y714375D02*
G54D21*
D03*
G54D24*
X209550Y714375D02*
X234950Y714375D01*
G54D24*
X260350Y765175D02*
X260350Y714375D01*
G54D24*
X260350Y765175D02*
X260350Y790575D01*
X285750Y815975D01*
X82550Y739775D02*
G54D21*
D03*
X82550Y714375D02*
G54D21*
D03*
X82550Y714380D02*
G54D22*
D03*
G54D24*
X285750Y841375D02*
X285750Y866775D01*
X260350Y815975D02*
G54D21*
D03*
X260350Y765175D02*
G54D21*
D03*
G54D24*
X133350Y815975D02*
X158750Y790575D01*
X158750Y714375D01*
X82550Y815975D02*
G54D22*
D03*
G54D24*
X82550Y790575D02*
X82550Y815975D01*
G54D24*
X209550Y790575D02*
X225425Y806450D01*
X225425Y968375D01*
X31750Y968375D01*
X285750Y968375D02*
G54D22*
D03*
X285750Y942975D02*
G54D22*
D03*
X285750Y917575D02*
G54D22*
D03*
G54D24*
X225425Y968375D02*
X285750Y968375D01*
X209550Y942975D02*
G54D22*
D03*
X234950Y765175D02*
G54D21*
D03*
X234950Y739775D02*
G54D21*
D03*
G54D24*
X209550Y765175D02*
X234950Y765175D01*
G54D24*
X234950Y739775D02*
X234950Y714375D01*
X184150Y714375D02*
G54D22*
D03*
G54D24*
X190500Y942975D02*
X209550Y942975D01*
X31750Y765180D02*
G54D22*
D03*
X31750Y739775D02*
G54D22*
D03*
X31750Y866775D02*
G54D22*
D03*
G54D24*
X133350Y765175D02*
X107950Y765175D01*
X82550Y739775D01*
X57150Y714375D01*
X31750Y714380D01*
X165100Y866775D02*
G54D21*
D03*
X165100Y841375D02*
G54D21*
D03*
X165100Y866770D02*
G54D22*
D03*
X95250Y901700D02*
G54D25*
D03*
X120650Y901700D02*
G54D25*
D03*
X114300Y863600D02*
G54D26*
D03*
X127000Y876300D02*
G54D26*
D03*
X139700Y863600D02*
G54D26*
D03*
X165100Y895350D02*
G54D25*
D03*
X165100Y920750D02*
G54D25*
D03*
X209550Y861375D02*
G54D23*
D03*
X209550Y841375D02*
G54D23*
D03*
X209550Y861380D02*
G54D23*
D03*
X95250Y901700D02*
G54D25*
D03*
X190500Y920750D02*
G54D25*
D03*
G54D24*
X209550Y739775D02*
X190500Y758825D01*
X190500Y866775D01*
X209550Y885825D01*
X209550Y942975D01*
G54D24*
X212725Y942975D02*
X31750Y942975D01*
G54D24*
X234950Y765175D02*
X234950Y866775D01*
X285750Y917575D01*
X254736Y907766D02*
G54D23*
D03*
X240594Y921908D02*
G54D23*
D03*
X254740Y907770D02*
G54D23*
D03*
X127000Y876300D02*
G54D26*
D03*
X82550Y866775D02*
G54D21*
D03*
X57150Y866775D02*
G54D21*
D03*
X31750Y815975D02*
G54D22*
D03*
G36*
X445150Y822975D02*
X445150Y808975D01*
X431150Y808975D01*
X431150Y822975D01*
X445150Y822975D01*
G37*
X438150Y790575D02*
G54D20*
D03*
X438150Y765175D02*
G54D20*
D03*
X438150Y739775D02*
G54D20*
D03*
X514350Y739775D02*
G54D20*
D03*
X514350Y765175D02*
G54D20*
D03*
X514350Y790575D02*
G54D20*
D03*
X514350Y815975D02*
G54D20*
D03*
X361950Y917575D02*
G54D21*
D03*
X361950Y892175D02*
G54D21*
D03*
X387350Y790575D02*
G54D21*
D03*
X412750Y815975D02*
G54D21*
D03*
X361950Y815975D02*
G54D21*
D03*
X336550Y892175D02*
G54D22*
D03*
X336550Y917575D02*
G54D22*
D03*
X336550Y942975D02*
G54D22*
D03*
X336550Y968375D02*
G54D22*
D03*
G36*
X581550Y743510D02*
X586815Y748775D01*
X594285Y748775D01*
X599550Y743510D01*
X599550Y736040D01*
X594285Y730775D01*
X586815Y730775D01*
X581550Y736040D01*
X581550Y743510D01*
G37*
G36*
X581550Y768910D02*
X586815Y774175D01*
X594285Y774175D01*
X599550Y768910D01*
X599550Y761440D01*
X594285Y756175D01*
X586815Y756175D01*
X581550Y761440D01*
X581550Y768910D01*
G37*
G36*
X581550Y794310D02*
X586815Y799575D01*
X594285Y799575D01*
X599550Y794310D01*
X599550Y786840D01*
X594285Y781575D01*
X586815Y781575D01*
X581550Y786840D01*
X581550Y794310D01*
G37*
G36*
X581550Y819710D02*
X586815Y824975D01*
X594285Y824975D01*
X599550Y819710D01*
X599550Y812240D01*
X594285Y806975D01*
X586815Y806975D01*
X581550Y812240D01*
X581550Y819710D01*
G37*
X336550Y714380D02*
G54D22*
D03*
X336550Y841375D02*
G54D22*
D03*
X336550Y917575D02*
G54D22*
D03*
X412750Y815975D02*
G54D22*
D03*
X361950Y917575D02*
G54D22*
D03*
X438150Y739775D02*
G54D22*
D03*
X590550Y765175D02*
G54D22*
D03*
X387350Y739775D02*
G54D21*
D03*
X387350Y765175D02*
G54D21*
D03*
X336550Y790575D02*
G54D22*
D03*
X463550Y714375D02*
G54D22*
D03*
X590550Y892175D02*
G54D23*
D03*
X590550Y866775D02*
G54D23*
D03*
X590550Y892175D02*
G54D23*
D03*
X565150Y841375D02*
G54D21*
D03*
X590550Y841375D02*
G54D21*
D03*
X438150Y714375D02*
G54D22*
D03*
X412750Y714375D02*
G54D22*
D03*
G36*
X530750Y718110D02*
X536015Y723375D01*
X543485Y723375D01*
X548750Y718110D01*
X548750Y710640D01*
X543485Y705375D01*
X536015Y705375D01*
X530750Y710640D01*
X530750Y718110D01*
G37*
G36*
X556150Y718110D02*
X561415Y723375D01*
X568885Y723375D01*
X574150Y718110D01*
X574150Y710640D01*
X568885Y705375D01*
X561415Y705375D01*
X556150Y710640D01*
X556150Y718110D01*
G37*
G36*
X581550Y718110D02*
X586815Y723375D01*
X594285Y723375D01*
X599550Y718110D01*
X599550Y710640D01*
X594285Y705375D01*
X586815Y705375D01*
X581550Y710640D01*
X581550Y718110D01*
G37*
G54D24*
X336550Y892175D02*
X361950Y892175D01*
G54D24*
X336550Y866775D02*
X361950Y866775D01*
G54D24*
X336550Y790575D02*
X438150Y790575D01*
X488950Y714375D02*
G54D21*
D03*
X514350Y714375D02*
G54D21*
D03*
G54D24*
X514350Y714375D02*
X539750Y714375D01*
G54D24*
X565150Y765175D02*
X565150Y714375D01*
G54D24*
X565150Y765175D02*
X565150Y790575D01*
X590550Y815975D01*
X387350Y739775D02*
G54D21*
D03*
X387350Y714375D02*
G54D21*
D03*
X387350Y714380D02*
G54D22*
D03*
G54D24*
X590550Y841375D02*
X590550Y866775D01*
X565150Y815975D02*
G54D21*
D03*
X565150Y765175D02*
G54D21*
D03*
G54D24*
X438150Y815975D02*
X463550Y790575D01*
X463550Y714375D01*
X387350Y815975D02*
G54D22*
D03*
G54D24*
X387350Y790575D02*
X387350Y815975D01*
G54D24*
X514350Y790575D02*
X530225Y806450D01*
X530225Y968375D01*
X336550Y968375D01*
X590550Y968375D02*
G54D22*
D03*
X590550Y942975D02*
G54D22*
D03*
X590550Y917575D02*
G54D22*
D03*
G54D24*
X530225Y968375D02*
X590550Y968375D01*
X514350Y942975D02*
G54D22*
D03*
X539750Y765175D02*
G54D21*
D03*
X539750Y739775D02*
G54D21*
D03*
G54D24*
X514350Y765175D02*
X539750Y765175D01*
G54D24*
X539750Y739775D02*
X539750Y714375D01*
X488950Y714375D02*
G54D22*
D03*
G54D24*
X495300Y942975D02*
X514350Y942975D01*
X336550Y765180D02*
G54D22*
D03*
X336550Y739775D02*
G54D22*
D03*
X336550Y866775D02*
G54D22*
D03*
G54D24*
X438150Y765175D02*
X412750Y765175D01*
X387350Y739775D01*
X361950Y714375D01*
X336550Y714380D01*
X469900Y866775D02*
G54D21*
D03*
X469900Y841375D02*
G54D21*
D03*
X469900Y866770D02*
G54D22*
D03*
X400050Y901700D02*
G54D25*
D03*
X425450Y901700D02*
G54D25*
D03*
X419100Y863600D02*
G54D26*
D03*
X431800Y876300D02*
G54D26*
D03*
X444500Y863600D02*
G54D26*
D03*
X469900Y895350D02*
G54D25*
D03*
X469900Y920750D02*
G54D25*
D03*
X514350Y861375D02*
G54D23*
D03*
X514350Y841375D02*
G54D23*
D03*
X514350Y861380D02*
G54D23*
D03*
X400050Y901700D02*
G54D25*
D03*
X495300Y920750D02*
G54D25*
D03*
G54D24*
X514350Y739775D02*
X495300Y758825D01*
X495300Y866775D01*
X514350Y885825D01*
X514350Y942975D01*
G54D24*
X517525Y942975D02*
X336550Y942975D01*
G54D24*
X539750Y765175D02*
X539750Y866775D01*
X590550Y917575D01*
X559536Y907766D02*
G54D23*
D03*
X545394Y921908D02*
G54D23*
D03*
X559540Y907770D02*
G54D23*
D03*
X431800Y876300D02*
G54D26*
D03*
X387350Y866775D02*
G54D21*
D03*
X361950Y866775D02*
G54D21*
D03*
X336550Y815975D02*
G54D22*
D03*
G36*
X749950Y822975D02*
X749950Y808975D01*
X735950Y808975D01*
X735950Y822975D01*
X749950Y822975D01*
G37*
X742950Y790575D02*
G54D20*
D03*
X742950Y765175D02*
G54D20*
D03*
X742950Y739775D02*
G54D20*
D03*
X819150Y739775D02*
G54D20*
D03*
X819150Y765175D02*
G54D20*
D03*
X819150Y790575D02*
G54D20*
D03*
X819150Y815975D02*
G54D20*
D03*
X666750Y917575D02*
G54D21*
D03*
X666750Y892175D02*
G54D21*
D03*
X692150Y790575D02*
G54D21*
D03*
X717550Y815975D02*
G54D21*
D03*
X666750Y815975D02*
G54D21*
D03*
X641350Y892175D02*
G54D22*
D03*
X641350Y917575D02*
G54D22*
D03*
X641350Y942975D02*
G54D22*
D03*
X641350Y968375D02*
G54D22*
D03*
G36*
X886350Y743510D02*
X891615Y748775D01*
X899085Y748775D01*
X904350Y743510D01*
X904350Y736040D01*
X899085Y730775D01*
X891615Y730775D01*
X886350Y736040D01*
X886350Y743510D01*
G37*
G36*
X886350Y768910D02*
X891615Y774175D01*
X899085Y774175D01*
X904350Y768910D01*
X904350Y761440D01*
X899085Y756175D01*
X891615Y756175D01*
X886350Y761440D01*
X886350Y768910D01*
G37*
G36*
X886350Y794310D02*
X891615Y799575D01*
X899085Y799575D01*
X904350Y794310D01*
X904350Y786840D01*
X899085Y781575D01*
X891615Y781575D01*
X886350Y786840D01*
X886350Y794310D01*
G37*
G36*
X886350Y819710D02*
X891615Y824975D01*
X899085Y824975D01*
X904350Y819710D01*
X904350Y812240D01*
X899085Y806975D01*
X891615Y806975D01*
X886350Y812240D01*
X886350Y819710D01*
G37*
X641350Y714380D02*
G54D22*
D03*
X641350Y841375D02*
G54D22*
D03*
X641350Y917575D02*
G54D22*
D03*
X717550Y815975D02*
G54D22*
D03*
X666750Y917575D02*
G54D22*
D03*
X742950Y739775D02*
G54D22*
D03*
X895350Y765175D02*
G54D22*
D03*
X692150Y739775D02*
G54D21*
D03*
X692150Y765175D02*
G54D21*
D03*
X641350Y790575D02*
G54D22*
D03*
X768350Y714375D02*
G54D22*
D03*
X895350Y892175D02*
G54D23*
D03*
X895350Y866775D02*
G54D23*
D03*
X895350Y892175D02*
G54D23*
D03*
X869950Y841375D02*
G54D21*
D03*
X895350Y841375D02*
G54D21*
D03*
X742950Y714375D02*
G54D22*
D03*
X717550Y714375D02*
G54D22*
D03*
G36*
X835550Y718110D02*
X840815Y723375D01*
X848285Y723375D01*
X853550Y718110D01*
X853550Y710640D01*
X848285Y705375D01*
X840815Y705375D01*
X835550Y710640D01*
X835550Y718110D01*
G37*
G36*
X860950Y718110D02*
X866215Y723375D01*
X873685Y723375D01*
X878950Y718110D01*
X878950Y710640D01*
X873685Y705375D01*
X866215Y705375D01*
X860950Y710640D01*
X860950Y718110D01*
G37*
G36*
X886350Y718110D02*
X891615Y723375D01*
X899085Y723375D01*
X904350Y718110D01*
X904350Y710640D01*
X899085Y705375D01*
X891615Y705375D01*
X886350Y710640D01*
X886350Y718110D01*
G37*
G54D24*
X641350Y892175D02*
X666750Y892175D01*
G54D24*
X641350Y866775D02*
X666750Y866775D01*
G54D24*
X641350Y790575D02*
X742950Y790575D01*
X793750Y714375D02*
G54D21*
D03*
X819150Y714375D02*
G54D21*
D03*
G54D24*
X819150Y714375D02*
X844550Y714375D01*
G54D24*
X869950Y765175D02*
X869950Y714375D01*
G54D24*
X869950Y765175D02*
X869950Y790575D01*
X895350Y815975D01*
X692150Y739775D02*
G54D21*
D03*
X692150Y714375D02*
G54D21*
D03*
X692150Y714380D02*
G54D22*
D03*
G54D24*
X895350Y841375D02*
X895350Y866775D01*
X869950Y815975D02*
G54D21*
D03*
X869950Y765175D02*
G54D21*
D03*
G54D24*
X742950Y815975D02*
X768350Y790575D01*
X768350Y714375D01*
X692150Y815975D02*
G54D22*
D03*
G54D24*
X692150Y790575D02*
X692150Y815975D01*
G54D24*
X819150Y790575D02*
X835025Y806450D01*
X835025Y968375D01*
X641350Y968375D01*
X895350Y968375D02*
G54D22*
D03*
X895350Y942975D02*
G54D22*
D03*
X895350Y917575D02*
G54D22*
D03*
G54D24*
X835025Y968375D02*
X895350Y968375D01*
X819150Y942975D02*
G54D22*
D03*
X844550Y765175D02*
G54D21*
D03*
X844550Y739775D02*
G54D21*
D03*
G54D24*
X819150Y765175D02*
X844550Y765175D01*
G54D24*
X844550Y739775D02*
X844550Y714375D01*
X793750Y714375D02*
G54D22*
D03*
G54D24*
X800100Y942975D02*
X819150Y942975D01*
X641350Y765180D02*
G54D22*
D03*
X641350Y739775D02*
G54D22*
D03*
X641350Y866775D02*
G54D22*
D03*
G54D24*
X742950Y765175D02*
X717550Y765175D01*
X692150Y739775D01*
X666750Y714375D01*
X641350Y714380D01*
X774700Y866775D02*
G54D21*
D03*
X774700Y841375D02*
G54D21*
D03*
X774700Y866770D02*
G54D22*
D03*
X704850Y901700D02*
G54D25*
D03*
X730250Y901700D02*
G54D25*
D03*
X723900Y863600D02*
G54D26*
D03*
X736600Y876300D02*
G54D26*
D03*
X749300Y863600D02*
G54D26*
D03*
X774700Y895350D02*
G54D25*
D03*
X774700Y920750D02*
G54D25*
D03*
X819150Y861375D02*
G54D23*
D03*
X819150Y841375D02*
G54D23*
D03*
X819150Y861380D02*
G54D23*
D03*
X704850Y901700D02*
G54D25*
D03*
X800100Y920750D02*
G54D25*
D03*
G54D24*
X819150Y739775D02*
X800100Y758825D01*
X800100Y866775D01*
X819150Y885825D01*
X819150Y942975D01*
G54D24*
X822325Y942975D02*
X641350Y942975D01*
G54D24*
X844550Y765175D02*
X844550Y866775D01*
X895350Y917575D01*
X864336Y907766D02*
G54D23*
D03*
X850194Y921908D02*
G54D23*
D03*
X864340Y907770D02*
G54D23*
D03*
X736600Y876300D02*
G54D26*
D03*
X692150Y866775D02*
G54D21*
D03*
X666750Y866775D02*
G54D21*
D03*
X641350Y815975D02*
G54D22*
D03*
G36*
X140350Y518175D02*
X140350Y504175D01*
X126350Y504175D01*
X126350Y518175D01*
X140350Y518175D01*
G37*
X133350Y485775D02*
G54D20*
D03*
X133350Y460375D02*
G54D20*
D03*
X133350Y434975D02*
G54D20*
D03*
X209550Y434975D02*
G54D20*
D03*
X209550Y460375D02*
G54D20*
D03*
X209550Y485775D02*
G54D20*
D03*
X209550Y511175D02*
G54D20*
D03*
X57150Y612775D02*
G54D21*
D03*
X57150Y587375D02*
G54D21*
D03*
X82550Y485775D02*
G54D21*
D03*
X107950Y511175D02*
G54D21*
D03*
X57150Y511175D02*
G54D21*
D03*
X31750Y587375D02*
G54D22*
D03*
X31750Y612775D02*
G54D22*
D03*
X31750Y638175D02*
G54D22*
D03*
X31750Y663575D02*
G54D22*
D03*
G36*
X276750Y438710D02*
X282015Y443975D01*
X289485Y443975D01*
X294750Y438710D01*
X294750Y431240D01*
X289485Y425975D01*
X282015Y425975D01*
X276750Y431240D01*
X276750Y438710D01*
G37*
G36*
X276750Y464110D02*
X282015Y469375D01*
X289485Y469375D01*
X294750Y464110D01*
X294750Y456640D01*
X289485Y451375D01*
X282015Y451375D01*
X276750Y456640D01*
X276750Y464110D01*
G37*
G36*
X276750Y489510D02*
X282015Y494775D01*
X289485Y494775D01*
X294750Y489510D01*
X294750Y482040D01*
X289485Y476775D01*
X282015Y476775D01*
X276750Y482040D01*
X276750Y489510D01*
G37*
G36*
X276750Y514910D02*
X282015Y520175D01*
X289485Y520175D01*
X294750Y514910D01*
X294750Y507440D01*
X289485Y502175D01*
X282015Y502175D01*
X276750Y507440D01*
X276750Y514910D01*
G37*
X31750Y409580D02*
G54D22*
D03*
X31750Y536575D02*
G54D22*
D03*
X31750Y612775D02*
G54D22*
D03*
X107950Y511175D02*
G54D22*
D03*
X57150Y612775D02*
G54D22*
D03*
X133350Y434975D02*
G54D22*
D03*
X285750Y460375D02*
G54D22*
D03*
X82550Y434975D02*
G54D21*
D03*
X82550Y460375D02*
G54D21*
D03*
X31750Y485775D02*
G54D22*
D03*
X158750Y409575D02*
G54D22*
D03*
X285750Y587375D02*
G54D23*
D03*
X285750Y561975D02*
G54D23*
D03*
X285750Y587375D02*
G54D23*
D03*
X260350Y536575D02*
G54D21*
D03*
X285750Y536575D02*
G54D21*
D03*
X133350Y409575D02*
G54D22*
D03*
X107950Y409575D02*
G54D22*
D03*
G36*
X225950Y413310D02*
X231215Y418575D01*
X238685Y418575D01*
X243950Y413310D01*
X243950Y405840D01*
X238685Y400575D01*
X231215Y400575D01*
X225950Y405840D01*
X225950Y413310D01*
G37*
G36*
X251350Y413310D02*
X256615Y418575D01*
X264085Y418575D01*
X269350Y413310D01*
X269350Y405840D01*
X264085Y400575D01*
X256615Y400575D01*
X251350Y405840D01*
X251350Y413310D01*
G37*
G36*
X276750Y413310D02*
X282015Y418575D01*
X289485Y418575D01*
X294750Y413310D01*
X294750Y405840D01*
X289485Y400575D01*
X282015Y400575D01*
X276750Y405840D01*
X276750Y413310D01*
G37*
G54D24*
X31750Y587375D02*
X57150Y587375D01*
G54D24*
X31750Y561975D02*
X57150Y561975D01*
G54D24*
X31750Y485775D02*
X133350Y485775D01*
X184150Y409575D02*
G54D21*
D03*
X209550Y409575D02*
G54D21*
D03*
G54D24*
X209550Y409575D02*
X234950Y409575D01*
G54D24*
X260350Y460375D02*
X260350Y409575D01*
G54D24*
X260350Y460375D02*
X260350Y485775D01*
X285750Y511175D01*
X82550Y434975D02*
G54D21*
D03*
X82550Y409575D02*
G54D21*
D03*
X82550Y409580D02*
G54D22*
D03*
G54D24*
X285750Y536575D02*
X285750Y561975D01*
X260350Y511175D02*
G54D21*
D03*
X260350Y460375D02*
G54D21*
D03*
G54D24*
X133350Y511175D02*
X158750Y485775D01*
X158750Y409575D01*
X82550Y511175D02*
G54D22*
D03*
G54D24*
X82550Y485775D02*
X82550Y511175D01*
G54D24*
X209550Y485775D02*
X225425Y501650D01*
X225425Y663575D01*
X31750Y663575D01*
X285750Y663575D02*
G54D22*
D03*
X285750Y638175D02*
G54D22*
D03*
X285750Y612775D02*
G54D22*
D03*
G54D24*
X225425Y663575D02*
X285750Y663575D01*
X209550Y638175D02*
G54D22*
D03*
X234950Y460375D02*
G54D21*
D03*
X234950Y434975D02*
G54D21*
D03*
G54D24*
X209550Y460375D02*
X234950Y460375D01*
G54D24*
X234950Y434975D02*
X234950Y409575D01*
X184150Y409575D02*
G54D22*
D03*
G54D24*
X190500Y638175D02*
X209550Y638175D01*
X31750Y460380D02*
G54D22*
D03*
X31750Y434975D02*
G54D22*
D03*
X31750Y561975D02*
G54D22*
D03*
G54D24*
X133350Y460375D02*
X107950Y460375D01*
X82550Y434975D01*
X57150Y409575D01*
X31750Y409580D01*
X165100Y561975D02*
G54D21*
D03*
X165100Y536575D02*
G54D21*
D03*
X165100Y561970D02*
G54D22*
D03*
X95250Y596900D02*
G54D25*
D03*
X120650Y596900D02*
G54D25*
D03*
X114300Y558800D02*
G54D26*
D03*
X127000Y571500D02*
G54D26*
D03*
X139700Y558800D02*
G54D26*
D03*
X165100Y590550D02*
G54D25*
D03*
X165100Y615950D02*
G54D25*
D03*
X209550Y556575D02*
G54D23*
D03*
X209550Y536575D02*
G54D23*
D03*
X209550Y556580D02*
G54D23*
D03*
X95250Y596900D02*
G54D25*
D03*
X190500Y615950D02*
G54D25*
D03*
G54D24*
X209550Y434975D02*
X190500Y454025D01*
X190500Y561975D01*
X209550Y581025D01*
X209550Y638175D01*
G54D24*
X212725Y638175D02*
X31750Y638175D01*
G54D24*
X234950Y460375D02*
X234950Y561975D01*
X285750Y612775D01*
X254736Y602966D02*
G54D23*
D03*
X240594Y617108D02*
G54D23*
D03*
X254740Y602970D02*
G54D23*
D03*
X127000Y571500D02*
G54D26*
D03*
X82550Y561975D02*
G54D21*
D03*
X57150Y561975D02*
G54D21*
D03*
X31750Y511175D02*
G54D22*
D03*
G36*
X445150Y518175D02*
X445150Y504175D01*
X431150Y504175D01*
X431150Y518175D01*
X445150Y518175D01*
G37*
X438150Y485775D02*
G54D20*
D03*
X438150Y460375D02*
G54D20*
D03*
X438150Y434975D02*
G54D20*
D03*
X514350Y434975D02*
G54D20*
D03*
X514350Y460375D02*
G54D20*
D03*
X514350Y485775D02*
G54D20*
D03*
X514350Y511175D02*
G54D20*
D03*
X361950Y612775D02*
G54D21*
D03*
X361950Y587375D02*
G54D21*
D03*
X387350Y485775D02*
G54D21*
D03*
X412750Y511175D02*
G54D21*
D03*
X361950Y511175D02*
G54D21*
D03*
X336550Y587375D02*
G54D22*
D03*
X336550Y612775D02*
G54D22*
D03*
X336550Y638175D02*
G54D22*
D03*
X336550Y663575D02*
G54D22*
D03*
G36*
X581550Y438710D02*
X586815Y443975D01*
X594285Y443975D01*
X599550Y438710D01*
X599550Y431240D01*
X594285Y425975D01*
X586815Y425975D01*
X581550Y431240D01*
X581550Y438710D01*
G37*
G36*
X581550Y464110D02*
X586815Y469375D01*
X594285Y469375D01*
X599550Y464110D01*
X599550Y456640D01*
X594285Y451375D01*
X586815Y451375D01*
X581550Y456640D01*
X581550Y464110D01*
G37*
G36*
X581550Y489510D02*
X586815Y494775D01*
X594285Y494775D01*
X599550Y489510D01*
X599550Y482040D01*
X594285Y476775D01*
X586815Y476775D01*
X581550Y482040D01*
X581550Y489510D01*
G37*
G36*
X581550Y514910D02*
X586815Y520175D01*
X594285Y520175D01*
X599550Y514910D01*
X599550Y507440D01*
X594285Y502175D01*
X586815Y502175D01*
X581550Y507440D01*
X581550Y514910D01*
G37*
X336550Y409580D02*
G54D22*
D03*
X336550Y536575D02*
G54D22*
D03*
X336550Y612775D02*
G54D22*
D03*
X412750Y511175D02*
G54D22*
D03*
X361950Y612775D02*
G54D22*
D03*
X438150Y434975D02*
G54D22*
D03*
X590550Y460375D02*
G54D22*
D03*
X387350Y434975D02*
G54D21*
D03*
X387350Y460375D02*
G54D21*
D03*
X336550Y485775D02*
G54D22*
D03*
X463550Y409575D02*
G54D22*
D03*
X590550Y587375D02*
G54D23*
D03*
X590550Y561975D02*
G54D23*
D03*
X590550Y587375D02*
G54D23*
D03*
X565150Y536575D02*
G54D21*
D03*
X590550Y536575D02*
G54D21*
D03*
X438150Y409575D02*
G54D22*
D03*
X412750Y409575D02*
G54D22*
D03*
G36*
X530750Y413310D02*
X536015Y418575D01*
X543485Y418575D01*
X548750Y413310D01*
X548750Y405840D01*
X543485Y400575D01*
X536015Y400575D01*
X530750Y405840D01*
X530750Y413310D01*
G37*
G36*
X556150Y413310D02*
X561415Y418575D01*
X568885Y418575D01*
X574150Y413310D01*
X574150Y405840D01*
X568885Y400575D01*
X561415Y400575D01*
X556150Y405840D01*
X556150Y413310D01*
G37*
G36*
X581550Y413310D02*
X586815Y418575D01*
X594285Y418575D01*
X599550Y413310D01*
X599550Y405840D01*
X594285Y400575D01*
X586815Y400575D01*
X581550Y405840D01*
X581550Y413310D01*
G37*
G54D24*
X336550Y587375D02*
X361950Y587375D01*
G54D24*
X336550Y561975D02*
X361950Y561975D01*
G54D24*
X336550Y485775D02*
X438150Y485775D01*
X488950Y409575D02*
G54D21*
D03*
X514350Y409575D02*
G54D21*
D03*
G54D24*
X514350Y409575D02*
X539750Y409575D01*
G54D24*
X565150Y460375D02*
X565150Y409575D01*
G54D24*
X565150Y460375D02*
X565150Y485775D01*
X590550Y511175D01*
X387350Y434975D02*
G54D21*
D03*
X387350Y409575D02*
G54D21*
D03*
X387350Y409580D02*
G54D22*
D03*
G54D24*
X590550Y536575D02*
X590550Y561975D01*
X565150Y511175D02*
G54D21*
D03*
X565150Y460375D02*
G54D21*
D03*
G54D24*
X438150Y511175D02*
X463550Y485775D01*
X463550Y409575D01*
X387350Y511175D02*
G54D22*
D03*
G54D24*
X387350Y485775D02*
X387350Y511175D01*
G54D24*
X514350Y485775D02*
X530225Y501650D01*
X530225Y663575D01*
X336550Y663575D01*
X590550Y663575D02*
G54D22*
D03*
X590550Y638175D02*
G54D22*
D03*
X590550Y612775D02*
G54D22*
D03*
G54D24*
X530225Y663575D02*
X590550Y663575D01*
X514350Y638175D02*
G54D22*
D03*
X539750Y460375D02*
G54D21*
D03*
X539750Y434975D02*
G54D21*
D03*
G54D24*
X514350Y460375D02*
X539750Y460375D01*
G54D24*
X539750Y434975D02*
X539750Y409575D01*
X488950Y409575D02*
G54D22*
D03*
G54D24*
X495300Y638175D02*
X514350Y638175D01*
X336550Y460380D02*
G54D22*
D03*
X336550Y434975D02*
G54D22*
D03*
X336550Y561975D02*
G54D22*
D03*
G54D24*
X438150Y460375D02*
X412750Y460375D01*
X387350Y434975D01*
X361950Y409575D01*
X336550Y409580D01*
X469900Y561975D02*
G54D21*
D03*
X469900Y536575D02*
G54D21*
D03*
X469900Y561970D02*
G54D22*
D03*
X400050Y596900D02*
G54D25*
D03*
X425450Y596900D02*
G54D25*
D03*
X419100Y558800D02*
G54D26*
D03*
X431800Y571500D02*
G54D26*
D03*
X444500Y558800D02*
G54D26*
D03*
X469900Y590550D02*
G54D25*
D03*
X469900Y615950D02*
G54D25*
D03*
X514350Y556575D02*
G54D23*
D03*
X514350Y536575D02*
G54D23*
D03*
X514350Y556580D02*
G54D23*
D03*
X400050Y596900D02*
G54D25*
D03*
X495300Y615950D02*
G54D25*
D03*
G54D24*
X514350Y434975D02*
X495300Y454025D01*
X495300Y561975D01*
X514350Y581025D01*
X514350Y638175D01*
G54D24*
X517525Y638175D02*
X336550Y638175D01*
G54D24*
X539750Y460375D02*
X539750Y561975D01*
X590550Y612775D01*
X559536Y602966D02*
G54D23*
D03*
X545394Y617108D02*
G54D23*
D03*
X559540Y602970D02*
G54D23*
D03*
X431800Y571500D02*
G54D26*
D03*
X387350Y561975D02*
G54D21*
D03*
X361950Y561975D02*
G54D21*
D03*
X336550Y511175D02*
G54D22*
D03*
G36*
X749950Y518175D02*
X749950Y504175D01*
X735950Y504175D01*
X735950Y518175D01*
X749950Y518175D01*
G37*
X742950Y485775D02*
G54D20*
D03*
X742950Y460375D02*
G54D20*
D03*
X742950Y434975D02*
G54D20*
D03*
X819150Y434975D02*
G54D20*
D03*
X819150Y460375D02*
G54D20*
D03*
X819150Y485775D02*
G54D20*
D03*
X819150Y511175D02*
G54D20*
D03*
X666750Y612775D02*
G54D21*
D03*
X666750Y587375D02*
G54D21*
D03*
X692150Y485775D02*
G54D21*
D03*
X717550Y511175D02*
G54D21*
D03*
X666750Y511175D02*
G54D21*
D03*
X641350Y587375D02*
G54D22*
D03*
X641350Y612775D02*
G54D22*
D03*
X641350Y638175D02*
G54D22*
D03*
X641350Y663575D02*
G54D22*
D03*
G36*
X886350Y438710D02*
X891615Y443975D01*
X899085Y443975D01*
X904350Y438710D01*
X904350Y431240D01*
X899085Y425975D01*
X891615Y425975D01*
X886350Y431240D01*
X886350Y438710D01*
G37*
G36*
X886350Y464110D02*
X891615Y469375D01*
X899085Y469375D01*
X904350Y464110D01*
X904350Y456640D01*
X899085Y451375D01*
X891615Y451375D01*
X886350Y456640D01*
X886350Y464110D01*
G37*
G36*
X886350Y489510D02*
X891615Y494775D01*
X899085Y494775D01*
X904350Y489510D01*
X904350Y482040D01*
X899085Y476775D01*
X891615Y476775D01*
X886350Y482040D01*
X886350Y489510D01*
G37*
G36*
X886350Y514910D02*
X891615Y520175D01*
X899085Y520175D01*
X904350Y514910D01*
X904350Y507440D01*
X899085Y502175D01*
X891615Y502175D01*
X886350Y507440D01*
X886350Y514910D01*
G37*
X641350Y409580D02*
G54D22*
D03*
X641350Y536575D02*
G54D22*
D03*
X641350Y612775D02*
G54D22*
D03*
X717550Y511175D02*
G54D22*
D03*
X666750Y612775D02*
G54D22*
D03*
X742950Y434975D02*
G54D22*
D03*
X895350Y460375D02*
G54D22*
D03*
X692150Y434975D02*
G54D21*
D03*
X692150Y460375D02*
G54D21*
D03*
X641350Y485775D02*
G54D22*
D03*
X768350Y409575D02*
G54D22*
D03*
X895350Y587375D02*
G54D23*
D03*
X895350Y561975D02*
G54D23*
D03*
X895350Y587375D02*
G54D23*
D03*
X869950Y536575D02*
G54D21*
D03*
X895350Y536575D02*
G54D21*
D03*
X742950Y409575D02*
G54D22*
D03*
X717550Y409575D02*
G54D22*
D03*
G36*
X835550Y413310D02*
X840815Y418575D01*
X848285Y418575D01*
X853550Y413310D01*
X853550Y405840D01*
X848285Y400575D01*
X840815Y400575D01*
X835550Y405840D01*
X835550Y413310D01*
G37*
G36*
X860950Y413310D02*
X866215Y418575D01*
X873685Y418575D01*
X878950Y413310D01*
X878950Y405840D01*
X873685Y400575D01*
X866215Y400575D01*
X860950Y405840D01*
X860950Y413310D01*
G37*
G36*
X886350Y413310D02*
X891615Y418575D01*
X899085Y418575D01*
X904350Y413310D01*
X904350Y405840D01*
X899085Y400575D01*
X891615Y400575D01*
X886350Y405840D01*
X886350Y413310D01*
G37*
G54D24*
X641350Y587375D02*
X666750Y587375D01*
G54D24*
X641350Y561975D02*
X666750Y561975D01*
G54D24*
X641350Y485775D02*
X742950Y485775D01*
X793750Y409575D02*
G54D21*
D03*
X819150Y409575D02*
G54D21*
D03*
G54D24*
X819150Y409575D02*
X844550Y409575D01*
G54D24*
X869950Y460375D02*
X869950Y409575D01*
G54D24*
X869950Y460375D02*
X869950Y485775D01*
X895350Y511175D01*
X692150Y434975D02*
G54D21*
D03*
X692150Y409575D02*
G54D21*
D03*
X692150Y409580D02*
G54D22*
D03*
G54D24*
X895350Y536575D02*
X895350Y561975D01*
X869950Y511175D02*
G54D21*
D03*
X869950Y460375D02*
G54D21*
D03*
G54D24*
X742950Y511175D02*
X768350Y485775D01*
X768350Y409575D01*
X692150Y511175D02*
G54D22*
D03*
G54D24*
X692150Y485775D02*
X692150Y511175D01*
G54D24*
X819150Y485775D02*
X835025Y501650D01*
X835025Y663575D01*
X641350Y663575D01*
X895350Y663575D02*
G54D22*
D03*
X895350Y638175D02*
G54D22*
D03*
X895350Y612775D02*
G54D22*
D03*
G54D24*
X835025Y663575D02*
X895350Y663575D01*
X819150Y638175D02*
G54D22*
D03*
X844550Y460375D02*
G54D21*
D03*
X844550Y434975D02*
G54D21*
D03*
G54D24*
X819150Y460375D02*
X844550Y460375D01*
G54D24*
X844550Y434975D02*
X844550Y409575D01*
X793750Y409575D02*
G54D22*
D03*
G54D24*
X800100Y638175D02*
X819150Y638175D01*
X641350Y460380D02*
G54D22*
D03*
X641350Y434975D02*
G54D22*
D03*
X641350Y561975D02*
G54D22*
D03*
G54D24*
X742950Y460375D02*
X717550Y460375D01*
X692150Y434975D01*
X666750Y409575D01*
X641350Y409580D01*
X774700Y561975D02*
G54D21*
D03*
X774700Y536575D02*
G54D21*
D03*
X774700Y561970D02*
G54D22*
D03*
X704850Y596900D02*
G54D25*
D03*
X730250Y596900D02*
G54D25*
D03*
X723900Y558800D02*
G54D26*
D03*
X736600Y571500D02*
G54D26*
D03*
X749300Y558800D02*
G54D26*
D03*
X774700Y590550D02*
G54D25*
D03*
X774700Y615950D02*
G54D25*
D03*
X819150Y556575D02*
G54D23*
D03*
X819150Y536575D02*
G54D23*
D03*
X819150Y556580D02*
G54D23*
D03*
X704850Y596900D02*
G54D25*
D03*
X800100Y615950D02*
G54D25*
D03*
G54D24*
X819150Y434975D02*
X800100Y454025D01*
X800100Y561975D01*
X819150Y581025D01*
X819150Y638175D01*
G54D24*
X822325Y638175D02*
X641350Y638175D01*
G54D24*
X844550Y460375D02*
X844550Y561975D01*
X895350Y612775D01*
X864336Y602966D02*
G54D23*
D03*
X850194Y617108D02*
G54D23*
D03*
X864340Y602970D02*
G54D23*
D03*
X736600Y571500D02*
G54D26*
D03*
X692150Y561975D02*
G54D21*
D03*
X666750Y561975D02*
G54D21*
D03*
X641350Y511175D02*
G54D22*
D03*
G36*
X140350Y213375D02*
X140350Y199375D01*
X126350Y199375D01*
X126350Y213375D01*
X140350Y213375D01*
G37*
X133350Y180975D02*
G54D20*
D03*
X133350Y155575D02*
G54D20*
D03*
X133350Y130175D02*
G54D20*
D03*
X209550Y130175D02*
G54D20*
D03*
X209550Y155575D02*
G54D20*
D03*
X209550Y180975D02*
G54D20*
D03*
X209550Y206375D02*
G54D20*
D03*
X57150Y307975D02*
G54D21*
D03*
X57150Y282575D02*
G54D21*
D03*
X82550Y180975D02*
G54D21*
D03*
X107950Y206375D02*
G54D21*
D03*
X57150Y206375D02*
G54D21*
D03*
X31750Y282575D02*
G54D22*
D03*
X31750Y307975D02*
G54D22*
D03*
X31750Y333375D02*
G54D22*
D03*
X31750Y358775D02*
G54D22*
D03*
G36*
X276750Y133910D02*
X282015Y139175D01*
X289485Y139175D01*
X294750Y133910D01*
X294750Y126440D01*
X289485Y121175D01*
X282015Y121175D01*
X276750Y126440D01*
X276750Y133910D01*
G37*
G36*
X276750Y159310D02*
X282015Y164575D01*
X289485Y164575D01*
X294750Y159310D01*
X294750Y151840D01*
X289485Y146575D01*
X282015Y146575D01*
X276750Y151840D01*
X276750Y159310D01*
G37*
G36*
X276750Y184710D02*
X282015Y189975D01*
X289485Y189975D01*
X294750Y184710D01*
X294750Y177240D01*
X289485Y171975D01*
X282015Y171975D01*
X276750Y177240D01*
X276750Y184710D01*
G37*
G36*
X276750Y210110D02*
X282015Y215375D01*
X289485Y215375D01*
X294750Y210110D01*
X294750Y202640D01*
X289485Y197375D01*
X282015Y197375D01*
X276750Y202640D01*
X276750Y210110D01*
G37*
X31750Y104780D02*
G54D22*
D03*
X31750Y231775D02*
G54D22*
D03*
X31750Y307975D02*
G54D22*
D03*
X107950Y206375D02*
G54D22*
D03*
X57150Y307975D02*
G54D22*
D03*
X133350Y130175D02*
G54D22*
D03*
X285750Y155575D02*
G54D22*
D03*
X82550Y130175D02*
G54D21*
D03*
X82550Y155575D02*
G54D21*
D03*
X31750Y180975D02*
G54D22*
D03*
X158750Y104775D02*
G54D22*
D03*
X285750Y282575D02*
G54D23*
D03*
X285750Y257175D02*
G54D23*
D03*
X285750Y282575D02*
G54D23*
D03*
X260350Y231775D02*
G54D21*
D03*
X285750Y231775D02*
G54D21*
D03*
X133350Y104775D02*
G54D22*
D03*
X107950Y104775D02*
G54D22*
D03*
G36*
X225950Y108510D02*
X231215Y113775D01*
X238685Y113775D01*
X243950Y108510D01*
X243950Y101040D01*
X238685Y95775D01*
X231215Y95775D01*
X225950Y101040D01*
X225950Y108510D01*
G37*
G36*
X251350Y108510D02*
X256615Y113775D01*
X264085Y113775D01*
X269350Y108510D01*
X269350Y101040D01*
X264085Y95775D01*
X256615Y95775D01*
X251350Y101040D01*
X251350Y108510D01*
G37*
G36*
X276750Y108510D02*
X282015Y113775D01*
X289485Y113775D01*
X294750Y108510D01*
X294750Y101040D01*
X289485Y95775D01*
X282015Y95775D01*
X276750Y101040D01*
X276750Y108510D01*
G37*
G54D24*
X31750Y282575D02*
X57150Y282575D01*
G54D24*
X31750Y257175D02*
X57150Y257175D01*
G54D24*
X31750Y180975D02*
X133350Y180975D01*
X184150Y104775D02*
G54D21*
D03*
X209550Y104775D02*
G54D21*
D03*
G54D24*
X209550Y104775D02*
X234950Y104775D01*
G54D24*
X260350Y155575D02*
X260350Y104775D01*
G54D24*
X260350Y155575D02*
X260350Y180975D01*
X285750Y206375D01*
X82550Y130175D02*
G54D21*
D03*
X82550Y104775D02*
G54D21*
D03*
X82550Y104780D02*
G54D22*
D03*
G54D24*
X285750Y231775D02*
X285750Y257175D01*
X260350Y206375D02*
G54D21*
D03*
X260350Y155575D02*
G54D21*
D03*
G54D24*
X133350Y206375D02*
X158750Y180975D01*
X158750Y104775D01*
X82550Y206375D02*
G54D22*
D03*
G54D24*
X82550Y180975D02*
X82550Y206375D01*
G54D24*
X209550Y180975D02*
X225425Y196850D01*
X225425Y358775D01*
X31750Y358775D01*
X285750Y358775D02*
G54D22*
D03*
X285750Y333375D02*
G54D22*
D03*
X285750Y307975D02*
G54D22*
D03*
G54D24*
X225425Y358775D02*
X285750Y358775D01*
X209550Y333375D02*
G54D22*
D03*
X234950Y155575D02*
G54D21*
D03*
X234950Y130175D02*
G54D21*
D03*
G54D24*
X209550Y155575D02*
X234950Y155575D01*
G54D24*
X234950Y130175D02*
X234950Y104775D01*
X184150Y104775D02*
G54D22*
D03*
G54D24*
X190500Y333375D02*
X209550Y333375D01*
X31750Y155580D02*
G54D22*
D03*
X31750Y130175D02*
G54D22*
D03*
X31750Y257175D02*
G54D22*
D03*
G54D24*
X133350Y155575D02*
X107950Y155575D01*
X82550Y130175D01*
X57150Y104775D01*
X31750Y104780D01*
X165100Y257175D02*
G54D21*
D03*
X165100Y231775D02*
G54D21*
D03*
X165100Y257170D02*
G54D22*
D03*
X95250Y292100D02*
G54D25*
D03*
X120650Y292100D02*
G54D25*
D03*
X114300Y254000D02*
G54D26*
D03*
X127000Y266700D02*
G54D26*
D03*
X139700Y254000D02*
G54D26*
D03*
X165100Y285750D02*
G54D25*
D03*
X165100Y311150D02*
G54D25*
D03*
X209550Y251775D02*
G54D23*
D03*
X209550Y231775D02*
G54D23*
D03*
X209550Y251780D02*
G54D23*
D03*
X95250Y292100D02*
G54D25*
D03*
X190500Y311150D02*
G54D25*
D03*
G54D24*
X209550Y130175D02*
X190500Y149225D01*
X190500Y257175D01*
X209550Y276225D01*
X209550Y333375D01*
G54D24*
X212725Y333375D02*
X31750Y333375D01*
G54D24*
X234950Y155575D02*
X234950Y257175D01*
X285750Y307975D01*
X254736Y298166D02*
G54D23*
D03*
X240594Y312308D02*
G54D23*
D03*
X254740Y298170D02*
G54D23*
D03*
X127000Y266700D02*
G54D26*
D03*
X82550Y257175D02*
G54D21*
D03*
X57150Y257175D02*
G54D21*
D03*
X31750Y206375D02*
G54D22*
D03*
G36*
X445150Y213375D02*
X445150Y199375D01*
X431150Y199375D01*
X431150Y213375D01*
X445150Y213375D01*
G37*
X438150Y180975D02*
G54D20*
D03*
X438150Y155575D02*
G54D20*
D03*
X438150Y130175D02*
G54D20*
D03*
X514350Y130175D02*
G54D20*
D03*
X514350Y155575D02*
G54D20*
D03*
X514350Y180975D02*
G54D20*
D03*
X514350Y206375D02*
G54D20*
D03*
X361950Y307975D02*
G54D21*
D03*
X361950Y282575D02*
G54D21*
D03*
X387350Y180975D02*
G54D21*
D03*
X412750Y206375D02*
G54D21*
D03*
X361950Y206375D02*
G54D21*
D03*
X336550Y282575D02*
G54D22*
D03*
X336550Y307975D02*
G54D22*
D03*
X336550Y333375D02*
G54D22*
D03*
X336550Y358775D02*
G54D22*
D03*
G36*
X581550Y133910D02*
X586815Y139175D01*
X594285Y139175D01*
X599550Y133910D01*
X599550Y126440D01*
X594285Y121175D01*
X586815Y121175D01*
X581550Y126440D01*
X581550Y133910D01*
G37*
G36*
X581550Y159310D02*
X586815Y164575D01*
X594285Y164575D01*
X599550Y159310D01*
X599550Y151840D01*
X594285Y146575D01*
X586815Y146575D01*
X581550Y151840D01*
X581550Y159310D01*
G37*
G36*
X581550Y184710D02*
X586815Y189975D01*
X594285Y189975D01*
X599550Y184710D01*
X599550Y177240D01*
X594285Y171975D01*
X586815Y171975D01*
X581550Y177240D01*
X581550Y184710D01*
G37*
G36*
X581550Y210110D02*
X586815Y215375D01*
X594285Y215375D01*
X599550Y210110D01*
X599550Y202640D01*
X594285Y197375D01*
X586815Y197375D01*
X581550Y202640D01*
X581550Y210110D01*
G37*
X336550Y104780D02*
G54D22*
D03*
X336550Y231775D02*
G54D22*
D03*
X336550Y307975D02*
G54D22*
D03*
X412750Y206375D02*
G54D22*
D03*
X361950Y307975D02*
G54D22*
D03*
X438150Y130175D02*
G54D22*
D03*
X590550Y155575D02*
G54D22*
D03*
X387350Y130175D02*
G54D21*
D03*
X387350Y155575D02*
G54D21*
D03*
X336550Y180975D02*
G54D22*
D03*
X463550Y104775D02*
G54D22*
D03*
X590550Y282575D02*
G54D23*
D03*
X590550Y257175D02*
G54D23*
D03*
X590550Y282575D02*
G54D23*
D03*
X565150Y231775D02*
G54D21*
D03*
X590550Y231775D02*
G54D21*
D03*
X438150Y104775D02*
G54D22*
D03*
X412750Y104775D02*
G54D22*
D03*
G36*
X530750Y108510D02*
X536015Y113775D01*
X543485Y113775D01*
X548750Y108510D01*
X548750Y101040D01*
X543485Y95775D01*
X536015Y95775D01*
X530750Y101040D01*
X530750Y108510D01*
G37*
G36*
X556150Y108510D02*
X561415Y113775D01*
X568885Y113775D01*
X574150Y108510D01*
X574150Y101040D01*
X568885Y95775D01*
X561415Y95775D01*
X556150Y101040D01*
X556150Y108510D01*
G37*
G36*
X581550Y108510D02*
X586815Y113775D01*
X594285Y113775D01*
X599550Y108510D01*
X599550Y101040D01*
X594285Y95775D01*
X586815Y95775D01*
X581550Y101040D01*
X581550Y108510D01*
G37*
G54D24*
X336550Y282575D02*
X361950Y282575D01*
G54D24*
X336550Y257175D02*
X361950Y257175D01*
G54D24*
X336550Y180975D02*
X438150Y180975D01*
X488950Y104775D02*
G54D21*
D03*
X514350Y104775D02*
G54D21*
D03*
G54D24*
X514350Y104775D02*
X539750Y104775D01*
G54D24*
X565150Y155575D02*
X565150Y104775D01*
G54D24*
X565150Y155575D02*
X565150Y180975D01*
X590550Y206375D01*
X387350Y130175D02*
G54D21*
D03*
X387350Y104775D02*
G54D21*
D03*
X387350Y104780D02*
G54D22*
D03*
G54D24*
X590550Y231775D02*
X590550Y257175D01*
X565150Y206375D02*
G54D21*
D03*
X565150Y155575D02*
G54D21*
D03*
G54D24*
X438150Y206375D02*
X463550Y180975D01*
X463550Y104775D01*
X387350Y206375D02*
G54D22*
D03*
G54D24*
X387350Y180975D02*
X387350Y206375D01*
G54D24*
X514350Y180975D02*
X530225Y196850D01*
X530225Y358775D01*
X336550Y358775D01*
X590550Y358775D02*
G54D22*
D03*
X590550Y333375D02*
G54D22*
D03*
X590550Y307975D02*
G54D22*
D03*
G54D24*
X530225Y358775D02*
X590550Y358775D01*
X514350Y333375D02*
G54D22*
D03*
X539750Y155575D02*
G54D21*
D03*
X539750Y130175D02*
G54D21*
D03*
G54D24*
X514350Y155575D02*
X539750Y155575D01*
G54D24*
X539750Y130175D02*
X539750Y104775D01*
X488950Y104775D02*
G54D22*
D03*
G54D24*
X495300Y333375D02*
X514350Y333375D01*
X336550Y155580D02*
G54D22*
D03*
X336550Y130175D02*
G54D22*
D03*
X336550Y257175D02*
G54D22*
D03*
G54D24*
X438150Y155575D02*
X412750Y155575D01*
X387350Y130175D01*
X361950Y104775D01*
X336550Y104780D01*
X469900Y257175D02*
G54D21*
D03*
X469900Y231775D02*
G54D21*
D03*
X469900Y257170D02*
G54D22*
D03*
X400050Y292100D02*
G54D25*
D03*
X425450Y292100D02*
G54D25*
D03*
X419100Y254000D02*
G54D26*
D03*
X431800Y266700D02*
G54D26*
D03*
X444500Y254000D02*
G54D26*
D03*
X469900Y285750D02*
G54D25*
D03*
X469900Y311150D02*
G54D25*
D03*
X514350Y251775D02*
G54D23*
D03*
X514350Y231775D02*
G54D23*
D03*
X514350Y251780D02*
G54D23*
D03*
X400050Y292100D02*
G54D25*
D03*
X495300Y311150D02*
G54D25*
D03*
G54D24*
X514350Y130175D02*
X495300Y149225D01*
X495300Y257175D01*
X514350Y276225D01*
X514350Y333375D01*
G54D24*
X517525Y333375D02*
X336550Y333375D01*
G54D24*
X539750Y155575D02*
X539750Y257175D01*
X590550Y307975D01*
X559536Y298166D02*
G54D23*
D03*
X545394Y312308D02*
G54D23*
D03*
X559540Y298170D02*
G54D23*
D03*
X431800Y266700D02*
G54D26*
D03*
X387350Y257175D02*
G54D21*
D03*
X361950Y257175D02*
G54D21*
D03*
X336550Y206375D02*
G54D22*
D03*
G36*
X749950Y213375D02*
X749950Y199375D01*
X735950Y199375D01*
X735950Y213375D01*
X749950Y213375D01*
G37*
X742950Y180975D02*
G54D20*
D03*
X742950Y155575D02*
G54D20*
D03*
X742950Y130175D02*
G54D20*
D03*
X819150Y130175D02*
G54D20*
D03*
X819150Y155575D02*
G54D20*
D03*
X819150Y180975D02*
G54D20*
D03*
X819150Y206375D02*
G54D20*
D03*
X666750Y307975D02*
G54D21*
D03*
X666750Y282575D02*
G54D21*
D03*
X692150Y180975D02*
G54D21*
D03*
X717550Y206375D02*
G54D21*
D03*
X666750Y206375D02*
G54D21*
D03*
X641350Y282575D02*
G54D22*
D03*
X641350Y307975D02*
G54D22*
D03*
X641350Y333375D02*
G54D22*
D03*
X641350Y358775D02*
G54D22*
D03*
G36*
X886350Y133910D02*
X891615Y139175D01*
X899085Y139175D01*
X904350Y133910D01*
X904350Y126440D01*
X899085Y121175D01*
X891615Y121175D01*
X886350Y126440D01*
X886350Y133910D01*
G37*
G36*
X886350Y159310D02*
X891615Y164575D01*
X899085Y164575D01*
X904350Y159310D01*
X904350Y151840D01*
X899085Y146575D01*
X891615Y146575D01*
X886350Y151840D01*
X886350Y159310D01*
G37*
G36*
X886350Y184710D02*
X891615Y189975D01*
X899085Y189975D01*
X904350Y184710D01*
X904350Y177240D01*
X899085Y171975D01*
X891615Y171975D01*
X886350Y177240D01*
X886350Y184710D01*
G37*
G36*
X886350Y210110D02*
X891615Y215375D01*
X899085Y215375D01*
X904350Y210110D01*
X904350Y202640D01*
X899085Y197375D01*
X891615Y197375D01*
X886350Y202640D01*
X886350Y210110D01*
G37*
X641350Y104780D02*
G54D22*
D03*
X641350Y231775D02*
G54D22*
D03*
X641350Y307975D02*
G54D22*
D03*
X717550Y206375D02*
G54D22*
D03*
X666750Y307975D02*
G54D22*
D03*
X742950Y130175D02*
G54D22*
D03*
X895350Y155575D02*
G54D22*
D03*
X692150Y130175D02*
G54D21*
D03*
X692150Y155575D02*
G54D21*
D03*
X641350Y180975D02*
G54D22*
D03*
X768350Y104775D02*
G54D22*
D03*
X895350Y282575D02*
G54D23*
D03*
X895350Y257175D02*
G54D23*
D03*
X895350Y282575D02*
G54D23*
D03*
X869950Y231775D02*
G54D21*
D03*
X895350Y231775D02*
G54D21*
D03*
X742950Y104775D02*
G54D22*
D03*
X717550Y104775D02*
G54D22*
D03*
G36*
X835550Y108510D02*
X840815Y113775D01*
X848285Y113775D01*
X853550Y108510D01*
X853550Y101040D01*
X848285Y95775D01*
X840815Y95775D01*
X835550Y101040D01*
X835550Y108510D01*
G37*
G36*
X860950Y108510D02*
X866215Y113775D01*
X873685Y113775D01*
X878950Y108510D01*
X878950Y101040D01*
X873685Y95775D01*
X866215Y95775D01*
X860950Y101040D01*
X860950Y108510D01*
G37*
G36*
X886350Y108510D02*
X891615Y113775D01*
X899085Y113775D01*
X904350Y108510D01*
X904350Y101040D01*
X899085Y95775D01*
X891615Y95775D01*
X886350Y101040D01*
X886350Y108510D01*
G37*
G54D24*
X641350Y282575D02*
X666750Y282575D01*
G54D24*
X641350Y257175D02*
X666750Y257175D01*
G54D24*
X641350Y180975D02*
X742950Y180975D01*
X793750Y104775D02*
G54D21*
D03*
X819150Y104775D02*
G54D21*
D03*
G54D24*
X819150Y104775D02*
X844550Y104775D01*
G54D24*
X869950Y155575D02*
X869950Y104775D01*
G54D24*
X869950Y155575D02*
X869950Y180975D01*
X895350Y206375D01*
X692150Y130175D02*
G54D21*
D03*
X692150Y104775D02*
G54D21*
D03*
X692150Y104780D02*
G54D22*
D03*
G54D24*
X895350Y231775D02*
X895350Y257175D01*
X869950Y206375D02*
G54D21*
D03*
X869950Y155575D02*
G54D21*
D03*
G54D24*
X742950Y206375D02*
X768350Y180975D01*
X768350Y104775D01*
X692150Y206375D02*
G54D22*
D03*
G54D24*
X692150Y180975D02*
X692150Y206375D01*
G54D24*
X819150Y180975D02*
X835025Y196850D01*
X835025Y358775D01*
X641350Y358775D01*
X895350Y358775D02*
G54D22*
D03*
X895350Y333375D02*
G54D22*
D03*
X895350Y307975D02*
G54D22*
D03*
G54D24*
X835025Y358775D02*
X895350Y358775D01*
X819150Y333375D02*
G54D22*
D03*
X844550Y155575D02*
G54D21*
D03*
X844550Y130175D02*
G54D21*
D03*
G54D24*
X819150Y155575D02*
X844550Y155575D01*
G54D24*
X844550Y130175D02*
X844550Y104775D01*
X793750Y104775D02*
G54D22*
D03*
G54D24*
X800100Y333375D02*
X819150Y333375D01*
X641350Y155580D02*
G54D22*
D03*
X641350Y130175D02*
G54D22*
D03*
X641350Y257175D02*
G54D22*
D03*
G54D24*
X742950Y155575D02*
X717550Y155575D01*
X692150Y130175D01*
X666750Y104775D01*
X641350Y104780D01*
X774700Y257175D02*
G54D21*
D03*
X774700Y231775D02*
G54D21*
D03*
X774700Y257170D02*
G54D22*
D03*
X704850Y292100D02*
G54D25*
D03*
X730250Y292100D02*
G54D25*
D03*
X723900Y254000D02*
G54D26*
D03*
X736600Y266700D02*
G54D26*
D03*
X749300Y254000D02*
G54D26*
D03*
X774700Y285750D02*
G54D25*
D03*
X774700Y311150D02*
G54D25*
D03*
X819150Y251775D02*
G54D23*
D03*
X819150Y231775D02*
G54D23*
D03*
X819150Y251780D02*
G54D23*
D03*
X704850Y292100D02*
G54D25*
D03*
X800100Y311150D02*
G54D25*
D03*
G54D24*
X819150Y130175D02*
X800100Y149225D01*
X800100Y257175D01*
X819150Y276225D01*
X819150Y333375D01*
G54D24*
X822325Y333375D02*
X641350Y333375D01*
G54D24*
X844550Y155575D02*
X844550Y257175D01*
X895350Y307975D01*
X864336Y298166D02*
G54D23*
D03*
X850194Y312308D02*
G54D23*
D03*
X864340Y298170D02*
G54D23*
D03*
X736600Y266700D02*
G54D26*
D03*
X692150Y257175D02*
G54D21*
D03*
X666750Y257175D02*
G54D21*
D03*
X641350Y206375D02*
G54D22*
D03*
M02*
