%FSLAX34Y34*%
%MOMM*%
%LNSOLDERMASK_TOP*%
G71*
G01*
%ADD10C, 2.00*%
%ADD11C, 2.40*%
%ADD12C, 2.40*%
%ADD13C, 2.20*%
%ADD14C, 2.40*%
%ADD15C, 2.00*%
%LPD*%
G36*
X143350Y825975D02*
X143350Y805975D01*
X123350Y805975D01*
X123350Y825975D01*
X143350Y825975D01*
G37*
X133350Y790575D02*
G54D10*
D03*
X133350Y765175D02*
G54D10*
D03*
X133350Y739775D02*
G54D10*
D03*
X209550Y739775D02*
G54D10*
D03*
X209550Y765175D02*
G54D10*
D03*
X209550Y790575D02*
G54D10*
D03*
X209550Y815975D02*
G54D10*
D03*
X57150Y917575D02*
G54D11*
D03*
X57150Y892175D02*
G54D11*
D03*
X82550Y790575D02*
G54D11*
D03*
X107950Y815975D02*
G54D11*
D03*
X57150Y815975D02*
G54D11*
D03*
X31750Y892175D02*
G54D12*
D03*
X31750Y917575D02*
G54D12*
D03*
X31750Y942975D02*
G54D12*
D03*
X31750Y968375D02*
G54D12*
D03*
G36*
X273750Y744755D02*
X280770Y751775D01*
X290730Y751775D01*
X297750Y744755D01*
X297750Y734795D01*
X290730Y727775D01*
X280770Y727775D01*
X273750Y734795D01*
X273750Y744755D01*
G37*
G36*
X273750Y770155D02*
X280770Y777175D01*
X290730Y777175D01*
X297750Y770155D01*
X297750Y760195D01*
X290730Y753175D01*
X280770Y753175D01*
X273750Y760195D01*
X273750Y770155D01*
G37*
G36*
X273750Y795555D02*
X280770Y802575D01*
X290730Y802575D01*
X297750Y795555D01*
X297750Y785595D01*
X290730Y778575D01*
X280770Y778575D01*
X273750Y785595D01*
X273750Y795555D01*
G37*
G36*
X273750Y820955D02*
X280770Y827975D01*
X290730Y827975D01*
X297750Y820955D01*
X297750Y810995D01*
X290730Y803975D01*
X280770Y803975D01*
X273750Y810995D01*
X273750Y820955D01*
G37*
X31750Y714380D02*
G54D12*
D03*
X31750Y841375D02*
G54D12*
D03*
X31750Y917575D02*
G54D12*
D03*
X107950Y815975D02*
G54D12*
D03*
X57150Y917575D02*
G54D12*
D03*
X133350Y739775D02*
G54D12*
D03*
X285750Y765175D02*
G54D12*
D03*
X82550Y739775D02*
G54D11*
D03*
X82550Y765175D02*
G54D11*
D03*
X31750Y790575D02*
G54D12*
D03*
X158750Y714375D02*
G54D12*
D03*
X285750Y892175D02*
G54D13*
D03*
X285750Y866775D02*
G54D13*
D03*
X285750Y892175D02*
G54D13*
D03*
X260350Y841375D02*
G54D11*
D03*
X285750Y841375D02*
G54D11*
D03*
X133350Y714375D02*
G54D12*
D03*
X107950Y714375D02*
G54D12*
D03*
G36*
X222950Y719355D02*
X229970Y726375D01*
X239930Y726375D01*
X246950Y719355D01*
X246950Y709395D01*
X239930Y702375D01*
X229970Y702375D01*
X222950Y709395D01*
X222950Y719355D01*
G37*
G36*
X248350Y719355D02*
X255370Y726375D01*
X265330Y726375D01*
X272350Y719355D01*
X272350Y709395D01*
X265330Y702375D01*
X255370Y702375D01*
X248350Y709395D01*
X248350Y719355D01*
G37*
G36*
X273750Y719355D02*
X280770Y726375D01*
X290730Y726375D01*
X297750Y719355D01*
X297750Y709395D01*
X290730Y702375D01*
X280770Y702375D01*
X273750Y709395D01*
X273750Y719355D01*
G37*
X184150Y714375D02*
G54D11*
D03*
X209550Y714375D02*
G54D11*
D03*
X82550Y739775D02*
G54D11*
D03*
X82550Y714375D02*
G54D11*
D03*
X82550Y714380D02*
G54D12*
D03*
X260350Y815975D02*
G54D11*
D03*
X260350Y765175D02*
G54D11*
D03*
X82550Y815975D02*
G54D12*
D03*
X285750Y968375D02*
G54D12*
D03*
X285750Y942975D02*
G54D12*
D03*
X285750Y917575D02*
G54D12*
D03*
X234950Y765175D02*
G54D11*
D03*
X234950Y739775D02*
G54D11*
D03*
X184150Y714375D02*
G54D12*
D03*
X31750Y765180D02*
G54D12*
D03*
X31750Y739775D02*
G54D12*
D03*
X31750Y866775D02*
G54D12*
D03*
X165100Y866775D02*
G54D11*
D03*
X165100Y841375D02*
G54D11*
D03*
X165100Y866770D02*
G54D12*
D03*
X95250Y901700D02*
G54D14*
D03*
X120650Y901700D02*
G54D14*
D03*
X114300Y863600D02*
G54D15*
D03*
X127000Y876300D02*
G54D15*
D03*
X139700Y863600D02*
G54D15*
D03*
X165100Y895350D02*
G54D14*
D03*
X165100Y920750D02*
G54D14*
D03*
X209550Y861375D02*
G54D13*
D03*
X209550Y841375D02*
G54D13*
D03*
X209550Y861380D02*
G54D13*
D03*
X95250Y901700D02*
G54D14*
D03*
X190500Y920750D02*
G54D14*
D03*
X254736Y907766D02*
G54D13*
D03*
X240594Y921908D02*
G54D13*
D03*
X254740Y907770D02*
G54D13*
D03*
X127000Y876300D02*
G54D15*
D03*
X82550Y866775D02*
G54D11*
D03*
X57150Y866775D02*
G54D11*
D03*
X31750Y815975D02*
G54D12*
D03*
G36*
X448150Y825975D02*
X448150Y805975D01*
X428150Y805975D01*
X428150Y825975D01*
X448150Y825975D01*
G37*
X438150Y790575D02*
G54D10*
D03*
X438150Y765175D02*
G54D10*
D03*
X438150Y739775D02*
G54D10*
D03*
X514350Y739775D02*
G54D10*
D03*
X514350Y765175D02*
G54D10*
D03*
X514350Y790575D02*
G54D10*
D03*
X514350Y815975D02*
G54D10*
D03*
X361950Y917575D02*
G54D11*
D03*
X361950Y892175D02*
G54D11*
D03*
X387350Y790575D02*
G54D11*
D03*
X412750Y815975D02*
G54D11*
D03*
X361950Y815975D02*
G54D11*
D03*
X336550Y892175D02*
G54D12*
D03*
X336550Y917575D02*
G54D12*
D03*
X336550Y942975D02*
G54D12*
D03*
X336550Y968375D02*
G54D12*
D03*
G36*
X578550Y744755D02*
X585570Y751775D01*
X595530Y751775D01*
X602550Y744755D01*
X602550Y734795D01*
X595530Y727775D01*
X585570Y727775D01*
X578550Y734795D01*
X578550Y744755D01*
G37*
G36*
X578550Y770155D02*
X585570Y777175D01*
X595530Y777175D01*
X602550Y770155D01*
X602550Y760195D01*
X595530Y753175D01*
X585570Y753175D01*
X578550Y760195D01*
X578550Y770155D01*
G37*
G36*
X578550Y795555D02*
X585570Y802575D01*
X595530Y802575D01*
X602550Y795555D01*
X602550Y785595D01*
X595530Y778575D01*
X585570Y778575D01*
X578550Y785595D01*
X578550Y795555D01*
G37*
G36*
X578550Y820955D02*
X585570Y827975D01*
X595530Y827975D01*
X602550Y820955D01*
X602550Y810995D01*
X595530Y803975D01*
X585570Y803975D01*
X578550Y810995D01*
X578550Y820955D01*
G37*
X336550Y714380D02*
G54D12*
D03*
X336550Y841375D02*
G54D12*
D03*
X336550Y917575D02*
G54D12*
D03*
X412750Y815975D02*
G54D12*
D03*
X361950Y917575D02*
G54D12*
D03*
X438150Y739775D02*
G54D12*
D03*
X590550Y765175D02*
G54D12*
D03*
X387350Y739775D02*
G54D11*
D03*
X387350Y765175D02*
G54D11*
D03*
X336550Y790575D02*
G54D12*
D03*
X463550Y714375D02*
G54D12*
D03*
X590550Y892175D02*
G54D13*
D03*
X590550Y866775D02*
G54D13*
D03*
X590550Y892175D02*
G54D13*
D03*
X565150Y841375D02*
G54D11*
D03*
X590550Y841375D02*
G54D11*
D03*
X438150Y714375D02*
G54D12*
D03*
X412750Y714375D02*
G54D12*
D03*
G36*
X527750Y719355D02*
X534770Y726375D01*
X544730Y726375D01*
X551750Y719355D01*
X551750Y709395D01*
X544730Y702375D01*
X534770Y702375D01*
X527750Y709395D01*
X527750Y719355D01*
G37*
G36*
X553150Y719355D02*
X560170Y726375D01*
X570130Y726375D01*
X577150Y719355D01*
X577150Y709395D01*
X570130Y702375D01*
X560170Y702375D01*
X553150Y709395D01*
X553150Y719355D01*
G37*
G36*
X578550Y719355D02*
X585570Y726375D01*
X595530Y726375D01*
X602550Y719355D01*
X602550Y709395D01*
X595530Y702375D01*
X585570Y702375D01*
X578550Y709395D01*
X578550Y719355D01*
G37*
X488950Y714375D02*
G54D11*
D03*
X514350Y714375D02*
G54D11*
D03*
X387350Y739775D02*
G54D11*
D03*
X387350Y714375D02*
G54D11*
D03*
X387350Y714380D02*
G54D12*
D03*
X565150Y815975D02*
G54D11*
D03*
X565150Y765175D02*
G54D11*
D03*
X387350Y815975D02*
G54D12*
D03*
X590550Y968375D02*
G54D12*
D03*
X590550Y942975D02*
G54D12*
D03*
X590550Y917575D02*
G54D12*
D03*
X539750Y765175D02*
G54D11*
D03*
X539750Y739775D02*
G54D11*
D03*
X488950Y714375D02*
G54D12*
D03*
X336550Y765180D02*
G54D12*
D03*
X336550Y739775D02*
G54D12*
D03*
X336550Y866775D02*
G54D12*
D03*
X469900Y866775D02*
G54D11*
D03*
X469900Y841375D02*
G54D11*
D03*
X469900Y866770D02*
G54D12*
D03*
X400050Y901700D02*
G54D14*
D03*
X425450Y901700D02*
G54D14*
D03*
X419100Y863600D02*
G54D15*
D03*
X431800Y876300D02*
G54D15*
D03*
X444500Y863600D02*
G54D15*
D03*
X469900Y895350D02*
G54D14*
D03*
X469900Y920750D02*
G54D14*
D03*
X514350Y861375D02*
G54D13*
D03*
X514350Y841375D02*
G54D13*
D03*
X514350Y861380D02*
G54D13*
D03*
X400050Y901700D02*
G54D14*
D03*
X495300Y920750D02*
G54D14*
D03*
X559536Y907766D02*
G54D13*
D03*
X545394Y921908D02*
G54D13*
D03*
X559540Y907770D02*
G54D13*
D03*
X431800Y876300D02*
G54D15*
D03*
X387350Y866775D02*
G54D11*
D03*
X361950Y866775D02*
G54D11*
D03*
X336550Y815975D02*
G54D12*
D03*
G36*
X752950Y825975D02*
X752950Y805975D01*
X732950Y805975D01*
X732950Y825975D01*
X752950Y825975D01*
G37*
X742950Y790575D02*
G54D10*
D03*
X742950Y765175D02*
G54D10*
D03*
X742950Y739775D02*
G54D10*
D03*
X819150Y739775D02*
G54D10*
D03*
X819150Y765175D02*
G54D10*
D03*
X819150Y790575D02*
G54D10*
D03*
X819150Y815975D02*
G54D10*
D03*
X666750Y917575D02*
G54D11*
D03*
X666750Y892175D02*
G54D11*
D03*
X692150Y790575D02*
G54D11*
D03*
X717550Y815975D02*
G54D11*
D03*
X666750Y815975D02*
G54D11*
D03*
X641350Y892175D02*
G54D12*
D03*
X641350Y917575D02*
G54D12*
D03*
X641350Y942975D02*
G54D12*
D03*
X641350Y968375D02*
G54D12*
D03*
G36*
X883350Y744755D02*
X890370Y751775D01*
X900330Y751775D01*
X907350Y744755D01*
X907350Y734795D01*
X900330Y727775D01*
X890370Y727775D01*
X883350Y734795D01*
X883350Y744755D01*
G37*
G36*
X883350Y770155D02*
X890370Y777175D01*
X900330Y777175D01*
X907350Y770155D01*
X907350Y760195D01*
X900330Y753175D01*
X890370Y753175D01*
X883350Y760195D01*
X883350Y770155D01*
G37*
G36*
X883350Y795555D02*
X890370Y802575D01*
X900330Y802575D01*
X907350Y795555D01*
X907350Y785595D01*
X900330Y778575D01*
X890370Y778575D01*
X883350Y785595D01*
X883350Y795555D01*
G37*
G36*
X883350Y820955D02*
X890370Y827975D01*
X900330Y827975D01*
X907350Y820955D01*
X907350Y810995D01*
X900330Y803975D01*
X890370Y803975D01*
X883350Y810995D01*
X883350Y820955D01*
G37*
X641350Y714380D02*
G54D12*
D03*
X641350Y841375D02*
G54D12*
D03*
X641350Y917575D02*
G54D12*
D03*
X717550Y815975D02*
G54D12*
D03*
X666750Y917575D02*
G54D12*
D03*
X742950Y739775D02*
G54D12*
D03*
X895350Y765175D02*
G54D12*
D03*
X692150Y739775D02*
G54D11*
D03*
X692150Y765175D02*
G54D11*
D03*
X641350Y790575D02*
G54D12*
D03*
X768350Y714375D02*
G54D12*
D03*
X895350Y892175D02*
G54D13*
D03*
X895350Y866775D02*
G54D13*
D03*
X895350Y892175D02*
G54D13*
D03*
X869950Y841375D02*
G54D11*
D03*
X895350Y841375D02*
G54D11*
D03*
X742950Y714375D02*
G54D12*
D03*
X717550Y714375D02*
G54D12*
D03*
G36*
X832550Y719355D02*
X839570Y726375D01*
X849530Y726375D01*
X856550Y719355D01*
X856550Y709395D01*
X849530Y702375D01*
X839570Y702375D01*
X832550Y709395D01*
X832550Y719355D01*
G37*
G36*
X857950Y719355D02*
X864970Y726375D01*
X874930Y726375D01*
X881950Y719355D01*
X881950Y709395D01*
X874930Y702375D01*
X864970Y702375D01*
X857950Y709395D01*
X857950Y719355D01*
G37*
G36*
X883350Y719355D02*
X890370Y726375D01*
X900330Y726375D01*
X907350Y719355D01*
X907350Y709395D01*
X900330Y702375D01*
X890370Y702375D01*
X883350Y709395D01*
X883350Y719355D01*
G37*
X793750Y714375D02*
G54D11*
D03*
X819150Y714375D02*
G54D11*
D03*
X692150Y739775D02*
G54D11*
D03*
X692150Y714375D02*
G54D11*
D03*
X692150Y714380D02*
G54D12*
D03*
X869950Y815975D02*
G54D11*
D03*
X869950Y765175D02*
G54D11*
D03*
X692150Y815975D02*
G54D12*
D03*
X895350Y968375D02*
G54D12*
D03*
X895350Y942975D02*
G54D12*
D03*
X895350Y917575D02*
G54D12*
D03*
X844550Y765175D02*
G54D11*
D03*
X844550Y739775D02*
G54D11*
D03*
X793750Y714375D02*
G54D12*
D03*
X641350Y765180D02*
G54D12*
D03*
X641350Y739775D02*
G54D12*
D03*
X641350Y866775D02*
G54D12*
D03*
X774700Y866775D02*
G54D11*
D03*
X774700Y841375D02*
G54D11*
D03*
X774700Y866770D02*
G54D12*
D03*
X704850Y901700D02*
G54D14*
D03*
X730250Y901700D02*
G54D14*
D03*
X723900Y863600D02*
G54D15*
D03*
X736600Y876300D02*
G54D15*
D03*
X749300Y863600D02*
G54D15*
D03*
X774700Y895350D02*
G54D14*
D03*
X774700Y920750D02*
G54D14*
D03*
X819150Y861375D02*
G54D13*
D03*
X819150Y841375D02*
G54D13*
D03*
X819150Y861380D02*
G54D13*
D03*
X704850Y901700D02*
G54D14*
D03*
X800100Y920750D02*
G54D14*
D03*
X864336Y907766D02*
G54D13*
D03*
X850194Y921908D02*
G54D13*
D03*
X864340Y907770D02*
G54D13*
D03*
X736600Y876300D02*
G54D15*
D03*
X692150Y866775D02*
G54D11*
D03*
X666750Y866775D02*
G54D11*
D03*
X641350Y815975D02*
G54D12*
D03*
G36*
X143350Y521175D02*
X143350Y501175D01*
X123350Y501175D01*
X123350Y521175D01*
X143350Y521175D01*
G37*
X133350Y485775D02*
G54D10*
D03*
X133350Y460375D02*
G54D10*
D03*
X133350Y434975D02*
G54D10*
D03*
X209550Y434975D02*
G54D10*
D03*
X209550Y460375D02*
G54D10*
D03*
X209550Y485775D02*
G54D10*
D03*
X209550Y511175D02*
G54D10*
D03*
X57150Y612775D02*
G54D11*
D03*
X57150Y587375D02*
G54D11*
D03*
X82550Y485775D02*
G54D11*
D03*
X107950Y511175D02*
G54D11*
D03*
X57150Y511175D02*
G54D11*
D03*
X31750Y587375D02*
G54D12*
D03*
X31750Y612775D02*
G54D12*
D03*
X31750Y638175D02*
G54D12*
D03*
X31750Y663575D02*
G54D12*
D03*
G36*
X273750Y439955D02*
X280770Y446975D01*
X290730Y446975D01*
X297750Y439955D01*
X297750Y429995D01*
X290730Y422975D01*
X280770Y422975D01*
X273750Y429995D01*
X273750Y439955D01*
G37*
G36*
X273750Y465355D02*
X280770Y472375D01*
X290730Y472375D01*
X297750Y465355D01*
X297750Y455395D01*
X290730Y448375D01*
X280770Y448375D01*
X273750Y455395D01*
X273750Y465355D01*
G37*
G36*
X273750Y490755D02*
X280770Y497775D01*
X290730Y497775D01*
X297750Y490755D01*
X297750Y480795D01*
X290730Y473775D01*
X280770Y473775D01*
X273750Y480795D01*
X273750Y490755D01*
G37*
G36*
X273750Y516155D02*
X280770Y523175D01*
X290730Y523175D01*
X297750Y516155D01*
X297750Y506195D01*
X290730Y499175D01*
X280770Y499175D01*
X273750Y506195D01*
X273750Y516155D01*
G37*
X31750Y409580D02*
G54D12*
D03*
X31750Y536575D02*
G54D12*
D03*
X31750Y612775D02*
G54D12*
D03*
X107950Y511175D02*
G54D12*
D03*
X57150Y612775D02*
G54D12*
D03*
X133350Y434975D02*
G54D12*
D03*
X285750Y460375D02*
G54D12*
D03*
X82550Y434975D02*
G54D11*
D03*
X82550Y460375D02*
G54D11*
D03*
X31750Y485775D02*
G54D12*
D03*
X158750Y409575D02*
G54D12*
D03*
X285750Y587375D02*
G54D13*
D03*
X285750Y561975D02*
G54D13*
D03*
X285750Y587375D02*
G54D13*
D03*
X260350Y536575D02*
G54D11*
D03*
X285750Y536575D02*
G54D11*
D03*
X133350Y409575D02*
G54D12*
D03*
X107950Y409575D02*
G54D12*
D03*
G36*
X222950Y414555D02*
X229970Y421575D01*
X239930Y421575D01*
X246950Y414555D01*
X246950Y404595D01*
X239930Y397575D01*
X229970Y397575D01*
X222950Y404595D01*
X222950Y414555D01*
G37*
G36*
X248350Y414555D02*
X255370Y421575D01*
X265330Y421575D01*
X272350Y414555D01*
X272350Y404595D01*
X265330Y397575D01*
X255370Y397575D01*
X248350Y404595D01*
X248350Y414555D01*
G37*
G36*
X273750Y414555D02*
X280770Y421575D01*
X290730Y421575D01*
X297750Y414555D01*
X297750Y404595D01*
X290730Y397575D01*
X280770Y397575D01*
X273750Y404595D01*
X273750Y414555D01*
G37*
X184150Y409575D02*
G54D11*
D03*
X209550Y409575D02*
G54D11*
D03*
X82550Y434975D02*
G54D11*
D03*
X82550Y409575D02*
G54D11*
D03*
X82550Y409580D02*
G54D12*
D03*
X260350Y511175D02*
G54D11*
D03*
X260350Y460375D02*
G54D11*
D03*
X82550Y511175D02*
G54D12*
D03*
X285750Y663575D02*
G54D12*
D03*
X285750Y638175D02*
G54D12*
D03*
X285750Y612775D02*
G54D12*
D03*
X234950Y460375D02*
G54D11*
D03*
X234950Y434975D02*
G54D11*
D03*
X184150Y409575D02*
G54D12*
D03*
X31750Y460380D02*
G54D12*
D03*
X31750Y434975D02*
G54D12*
D03*
X31750Y561975D02*
G54D12*
D03*
X165100Y561975D02*
G54D11*
D03*
X165100Y536575D02*
G54D11*
D03*
X165100Y561970D02*
G54D12*
D03*
X95250Y596900D02*
G54D14*
D03*
X120650Y596900D02*
G54D14*
D03*
X114300Y558800D02*
G54D15*
D03*
X127000Y571500D02*
G54D15*
D03*
X139700Y558800D02*
G54D15*
D03*
X165100Y590550D02*
G54D14*
D03*
X165100Y615950D02*
G54D14*
D03*
X209550Y556575D02*
G54D13*
D03*
X209550Y536575D02*
G54D13*
D03*
X209550Y556580D02*
G54D13*
D03*
X95250Y596900D02*
G54D14*
D03*
X190500Y615950D02*
G54D14*
D03*
X254736Y602966D02*
G54D13*
D03*
X240594Y617108D02*
G54D13*
D03*
X254740Y602970D02*
G54D13*
D03*
X127000Y571500D02*
G54D15*
D03*
X82550Y561975D02*
G54D11*
D03*
X57150Y561975D02*
G54D11*
D03*
X31750Y511175D02*
G54D12*
D03*
G36*
X448150Y521175D02*
X448150Y501175D01*
X428150Y501175D01*
X428150Y521175D01*
X448150Y521175D01*
G37*
X438150Y485775D02*
G54D10*
D03*
X438150Y460375D02*
G54D10*
D03*
X438150Y434975D02*
G54D10*
D03*
X514350Y434975D02*
G54D10*
D03*
X514350Y460375D02*
G54D10*
D03*
X514350Y485775D02*
G54D10*
D03*
X514350Y511175D02*
G54D10*
D03*
X361950Y612775D02*
G54D11*
D03*
X361950Y587375D02*
G54D11*
D03*
X387350Y485775D02*
G54D11*
D03*
X412750Y511175D02*
G54D11*
D03*
X361950Y511175D02*
G54D11*
D03*
X336550Y587375D02*
G54D12*
D03*
X336550Y612775D02*
G54D12*
D03*
X336550Y638175D02*
G54D12*
D03*
X336550Y663575D02*
G54D12*
D03*
G36*
X578550Y439955D02*
X585570Y446975D01*
X595530Y446975D01*
X602550Y439955D01*
X602550Y429995D01*
X595530Y422975D01*
X585570Y422975D01*
X578550Y429995D01*
X578550Y439955D01*
G37*
G36*
X578550Y465355D02*
X585570Y472375D01*
X595530Y472375D01*
X602550Y465355D01*
X602550Y455395D01*
X595530Y448375D01*
X585570Y448375D01*
X578550Y455395D01*
X578550Y465355D01*
G37*
G36*
X578550Y490755D02*
X585570Y497775D01*
X595530Y497775D01*
X602550Y490755D01*
X602550Y480795D01*
X595530Y473775D01*
X585570Y473775D01*
X578550Y480795D01*
X578550Y490755D01*
G37*
G36*
X578550Y516155D02*
X585570Y523175D01*
X595530Y523175D01*
X602550Y516155D01*
X602550Y506195D01*
X595530Y499175D01*
X585570Y499175D01*
X578550Y506195D01*
X578550Y516155D01*
G37*
X336550Y409580D02*
G54D12*
D03*
X336550Y536575D02*
G54D12*
D03*
X336550Y612775D02*
G54D12*
D03*
X412750Y511175D02*
G54D12*
D03*
X361950Y612775D02*
G54D12*
D03*
X438150Y434975D02*
G54D12*
D03*
X590550Y460375D02*
G54D12*
D03*
X387350Y434975D02*
G54D11*
D03*
X387350Y460375D02*
G54D11*
D03*
X336550Y485775D02*
G54D12*
D03*
X463550Y409575D02*
G54D12*
D03*
X590550Y587375D02*
G54D13*
D03*
X590550Y561975D02*
G54D13*
D03*
X590550Y587375D02*
G54D13*
D03*
X565150Y536575D02*
G54D11*
D03*
X590550Y536575D02*
G54D11*
D03*
X438150Y409575D02*
G54D12*
D03*
X412750Y409575D02*
G54D12*
D03*
G36*
X527750Y414555D02*
X534770Y421575D01*
X544730Y421575D01*
X551750Y414555D01*
X551750Y404595D01*
X544730Y397575D01*
X534770Y397575D01*
X527750Y404595D01*
X527750Y414555D01*
G37*
G36*
X553150Y414555D02*
X560170Y421575D01*
X570130Y421575D01*
X577150Y414555D01*
X577150Y404595D01*
X570130Y397575D01*
X560170Y397575D01*
X553150Y404595D01*
X553150Y414555D01*
G37*
G36*
X578550Y414555D02*
X585570Y421575D01*
X595530Y421575D01*
X602550Y414555D01*
X602550Y404595D01*
X595530Y397575D01*
X585570Y397575D01*
X578550Y404595D01*
X578550Y414555D01*
G37*
X488950Y409575D02*
G54D11*
D03*
X514350Y409575D02*
G54D11*
D03*
X387350Y434975D02*
G54D11*
D03*
X387350Y409575D02*
G54D11*
D03*
X387350Y409580D02*
G54D12*
D03*
X565150Y511175D02*
G54D11*
D03*
X565150Y460375D02*
G54D11*
D03*
X387350Y511175D02*
G54D12*
D03*
X590550Y663575D02*
G54D12*
D03*
X590550Y638175D02*
G54D12*
D03*
X590550Y612775D02*
G54D12*
D03*
X539750Y460375D02*
G54D11*
D03*
X539750Y434975D02*
G54D11*
D03*
X488950Y409575D02*
G54D12*
D03*
X336550Y460380D02*
G54D12*
D03*
X336550Y434975D02*
G54D12*
D03*
X336550Y561975D02*
G54D12*
D03*
X469900Y561975D02*
G54D11*
D03*
X469900Y536575D02*
G54D11*
D03*
X469900Y561970D02*
G54D12*
D03*
X400050Y596900D02*
G54D14*
D03*
X425450Y596900D02*
G54D14*
D03*
X419100Y558800D02*
G54D15*
D03*
X431800Y571500D02*
G54D15*
D03*
X444500Y558800D02*
G54D15*
D03*
X469900Y590550D02*
G54D14*
D03*
X469900Y615950D02*
G54D14*
D03*
X514350Y556575D02*
G54D13*
D03*
X514350Y536575D02*
G54D13*
D03*
X514350Y556580D02*
G54D13*
D03*
X400050Y596900D02*
G54D14*
D03*
X495300Y615950D02*
G54D14*
D03*
X559536Y602966D02*
G54D13*
D03*
X545394Y617108D02*
G54D13*
D03*
X559540Y602970D02*
G54D13*
D03*
X431800Y571500D02*
G54D15*
D03*
X387350Y561975D02*
G54D11*
D03*
X361950Y561975D02*
G54D11*
D03*
X336550Y511175D02*
G54D12*
D03*
G36*
X752950Y521175D02*
X752950Y501175D01*
X732950Y501175D01*
X732950Y521175D01*
X752950Y521175D01*
G37*
X742950Y485775D02*
G54D10*
D03*
X742950Y460375D02*
G54D10*
D03*
X742950Y434975D02*
G54D10*
D03*
X819150Y434975D02*
G54D10*
D03*
X819150Y460375D02*
G54D10*
D03*
X819150Y485775D02*
G54D10*
D03*
X819150Y511175D02*
G54D10*
D03*
X666750Y612775D02*
G54D11*
D03*
X666750Y587375D02*
G54D11*
D03*
X692150Y485775D02*
G54D11*
D03*
X717550Y511175D02*
G54D11*
D03*
X666750Y511175D02*
G54D11*
D03*
X641350Y587375D02*
G54D12*
D03*
X641350Y612775D02*
G54D12*
D03*
X641350Y638175D02*
G54D12*
D03*
X641350Y663575D02*
G54D12*
D03*
G36*
X883350Y439955D02*
X890370Y446975D01*
X900330Y446975D01*
X907350Y439955D01*
X907350Y429995D01*
X900330Y422975D01*
X890370Y422975D01*
X883350Y429995D01*
X883350Y439955D01*
G37*
G36*
X883350Y465355D02*
X890370Y472375D01*
X900330Y472375D01*
X907350Y465355D01*
X907350Y455395D01*
X900330Y448375D01*
X890370Y448375D01*
X883350Y455395D01*
X883350Y465355D01*
G37*
G36*
X883350Y490755D02*
X890370Y497775D01*
X900330Y497775D01*
X907350Y490755D01*
X907350Y480795D01*
X900330Y473775D01*
X890370Y473775D01*
X883350Y480795D01*
X883350Y490755D01*
G37*
G36*
X883350Y516155D02*
X890370Y523175D01*
X900330Y523175D01*
X907350Y516155D01*
X907350Y506195D01*
X900330Y499175D01*
X890370Y499175D01*
X883350Y506195D01*
X883350Y516155D01*
G37*
X641350Y409580D02*
G54D12*
D03*
X641350Y536575D02*
G54D12*
D03*
X641350Y612775D02*
G54D12*
D03*
X717550Y511175D02*
G54D12*
D03*
X666750Y612775D02*
G54D12*
D03*
X742950Y434975D02*
G54D12*
D03*
X895350Y460375D02*
G54D12*
D03*
X692150Y434975D02*
G54D11*
D03*
X692150Y460375D02*
G54D11*
D03*
X641350Y485775D02*
G54D12*
D03*
X768350Y409575D02*
G54D12*
D03*
X895350Y587375D02*
G54D13*
D03*
X895350Y561975D02*
G54D13*
D03*
X895350Y587375D02*
G54D13*
D03*
X869950Y536575D02*
G54D11*
D03*
X895350Y536575D02*
G54D11*
D03*
X742950Y409575D02*
G54D12*
D03*
X717550Y409575D02*
G54D12*
D03*
G36*
X832550Y414555D02*
X839570Y421575D01*
X849530Y421575D01*
X856550Y414555D01*
X856550Y404595D01*
X849530Y397575D01*
X839570Y397575D01*
X832550Y404595D01*
X832550Y414555D01*
G37*
G36*
X857950Y414555D02*
X864970Y421575D01*
X874930Y421575D01*
X881950Y414555D01*
X881950Y404595D01*
X874930Y397575D01*
X864970Y397575D01*
X857950Y404595D01*
X857950Y414555D01*
G37*
G36*
X883350Y414555D02*
X890370Y421575D01*
X900330Y421575D01*
X907350Y414555D01*
X907350Y404595D01*
X900330Y397575D01*
X890370Y397575D01*
X883350Y404595D01*
X883350Y414555D01*
G37*
X793750Y409575D02*
G54D11*
D03*
X819150Y409575D02*
G54D11*
D03*
X692150Y434975D02*
G54D11*
D03*
X692150Y409575D02*
G54D11*
D03*
X692150Y409580D02*
G54D12*
D03*
X869950Y511175D02*
G54D11*
D03*
X869950Y460375D02*
G54D11*
D03*
X692150Y511175D02*
G54D12*
D03*
X895350Y663575D02*
G54D12*
D03*
X895350Y638175D02*
G54D12*
D03*
X895350Y612775D02*
G54D12*
D03*
X844550Y460375D02*
G54D11*
D03*
X844550Y434975D02*
G54D11*
D03*
X793750Y409575D02*
G54D12*
D03*
X641350Y460380D02*
G54D12*
D03*
X641350Y434975D02*
G54D12*
D03*
X641350Y561975D02*
G54D12*
D03*
X774700Y561975D02*
G54D11*
D03*
X774700Y536575D02*
G54D11*
D03*
X774700Y561970D02*
G54D12*
D03*
X704850Y596900D02*
G54D14*
D03*
X730250Y596900D02*
G54D14*
D03*
X723900Y558800D02*
G54D15*
D03*
X736600Y571500D02*
G54D15*
D03*
X749300Y558800D02*
G54D15*
D03*
X774700Y590550D02*
G54D14*
D03*
X774700Y615950D02*
G54D14*
D03*
X819150Y556575D02*
G54D13*
D03*
X819150Y536575D02*
G54D13*
D03*
X819150Y556580D02*
G54D13*
D03*
X704850Y596900D02*
G54D14*
D03*
X800100Y615950D02*
G54D14*
D03*
X864336Y602966D02*
G54D13*
D03*
X850194Y617108D02*
G54D13*
D03*
X864340Y602970D02*
G54D13*
D03*
X736600Y571500D02*
G54D15*
D03*
X692150Y561975D02*
G54D11*
D03*
X666750Y561975D02*
G54D11*
D03*
X641350Y511175D02*
G54D12*
D03*
G36*
X143350Y216375D02*
X143350Y196375D01*
X123350Y196375D01*
X123350Y216375D01*
X143350Y216375D01*
G37*
X133350Y180975D02*
G54D10*
D03*
X133350Y155575D02*
G54D10*
D03*
X133350Y130175D02*
G54D10*
D03*
X209550Y130175D02*
G54D10*
D03*
X209550Y155575D02*
G54D10*
D03*
X209550Y180975D02*
G54D10*
D03*
X209550Y206375D02*
G54D10*
D03*
X57150Y307975D02*
G54D11*
D03*
X57150Y282575D02*
G54D11*
D03*
X82550Y180975D02*
G54D11*
D03*
X107950Y206375D02*
G54D11*
D03*
X57150Y206375D02*
G54D11*
D03*
X31750Y282575D02*
G54D12*
D03*
X31750Y307975D02*
G54D12*
D03*
X31750Y333375D02*
G54D12*
D03*
X31750Y358775D02*
G54D12*
D03*
G36*
X273750Y135155D02*
X280770Y142175D01*
X290730Y142175D01*
X297750Y135155D01*
X297750Y125195D01*
X290730Y118175D01*
X280770Y118175D01*
X273750Y125195D01*
X273750Y135155D01*
G37*
G36*
X273750Y160555D02*
X280770Y167575D01*
X290730Y167575D01*
X297750Y160555D01*
X297750Y150595D01*
X290730Y143575D01*
X280770Y143575D01*
X273750Y150595D01*
X273750Y160555D01*
G37*
G36*
X273750Y185955D02*
X280770Y192975D01*
X290730Y192975D01*
X297750Y185955D01*
X297750Y175995D01*
X290730Y168975D01*
X280770Y168975D01*
X273750Y175995D01*
X273750Y185955D01*
G37*
G36*
X273750Y211355D02*
X280770Y218375D01*
X290730Y218375D01*
X297750Y211355D01*
X297750Y201395D01*
X290730Y194375D01*
X280770Y194375D01*
X273750Y201395D01*
X273750Y211355D01*
G37*
X31750Y104780D02*
G54D12*
D03*
X31750Y231775D02*
G54D12*
D03*
X31750Y307975D02*
G54D12*
D03*
X107950Y206375D02*
G54D12*
D03*
X57150Y307975D02*
G54D12*
D03*
X133350Y130175D02*
G54D12*
D03*
X285750Y155575D02*
G54D12*
D03*
X82550Y130175D02*
G54D11*
D03*
X82550Y155575D02*
G54D11*
D03*
X31750Y180975D02*
G54D12*
D03*
X158750Y104775D02*
G54D12*
D03*
X285750Y282575D02*
G54D13*
D03*
X285750Y257175D02*
G54D13*
D03*
X285750Y282575D02*
G54D13*
D03*
X260350Y231775D02*
G54D11*
D03*
X285750Y231775D02*
G54D11*
D03*
X133350Y104775D02*
G54D12*
D03*
X107950Y104775D02*
G54D12*
D03*
G36*
X222950Y109755D02*
X229970Y116775D01*
X239930Y116775D01*
X246950Y109755D01*
X246950Y99795D01*
X239930Y92775D01*
X229970Y92775D01*
X222950Y99795D01*
X222950Y109755D01*
G37*
G36*
X248350Y109755D02*
X255370Y116775D01*
X265330Y116775D01*
X272350Y109755D01*
X272350Y99795D01*
X265330Y92775D01*
X255370Y92775D01*
X248350Y99795D01*
X248350Y109755D01*
G37*
G36*
X273750Y109755D02*
X280770Y116775D01*
X290730Y116775D01*
X297750Y109755D01*
X297750Y99795D01*
X290730Y92775D01*
X280770Y92775D01*
X273750Y99795D01*
X273750Y109755D01*
G37*
X184150Y104775D02*
G54D11*
D03*
X209550Y104775D02*
G54D11*
D03*
X82550Y130175D02*
G54D11*
D03*
X82550Y104775D02*
G54D11*
D03*
X82550Y104780D02*
G54D12*
D03*
X260350Y206375D02*
G54D11*
D03*
X260350Y155575D02*
G54D11*
D03*
X82550Y206375D02*
G54D12*
D03*
X285750Y358775D02*
G54D12*
D03*
X285750Y333375D02*
G54D12*
D03*
X285750Y307975D02*
G54D12*
D03*
X234950Y155575D02*
G54D11*
D03*
X234950Y130175D02*
G54D11*
D03*
X184150Y104775D02*
G54D12*
D03*
X31750Y155580D02*
G54D12*
D03*
X31750Y130175D02*
G54D12*
D03*
X31750Y257175D02*
G54D12*
D03*
X165100Y257175D02*
G54D11*
D03*
X165100Y231775D02*
G54D11*
D03*
X165100Y257170D02*
G54D12*
D03*
X95250Y292100D02*
G54D14*
D03*
X120650Y292100D02*
G54D14*
D03*
X114300Y254000D02*
G54D15*
D03*
X127000Y266700D02*
G54D15*
D03*
X139700Y254000D02*
G54D15*
D03*
X165100Y285750D02*
G54D14*
D03*
X165100Y311150D02*
G54D14*
D03*
X209550Y251775D02*
G54D13*
D03*
X209550Y231775D02*
G54D13*
D03*
X209550Y251780D02*
G54D13*
D03*
X95250Y292100D02*
G54D14*
D03*
X190500Y311150D02*
G54D14*
D03*
X254736Y298166D02*
G54D13*
D03*
X240594Y312308D02*
G54D13*
D03*
X254740Y298170D02*
G54D13*
D03*
X127000Y266700D02*
G54D15*
D03*
X82550Y257175D02*
G54D11*
D03*
X57150Y257175D02*
G54D11*
D03*
X31750Y206375D02*
G54D12*
D03*
G36*
X448150Y216375D02*
X448150Y196375D01*
X428150Y196375D01*
X428150Y216375D01*
X448150Y216375D01*
G37*
X438150Y180975D02*
G54D10*
D03*
X438150Y155575D02*
G54D10*
D03*
X438150Y130175D02*
G54D10*
D03*
X514350Y130175D02*
G54D10*
D03*
X514350Y155575D02*
G54D10*
D03*
X514350Y180975D02*
G54D10*
D03*
X514350Y206375D02*
G54D10*
D03*
X361950Y307975D02*
G54D11*
D03*
X361950Y282575D02*
G54D11*
D03*
X387350Y180975D02*
G54D11*
D03*
X412750Y206375D02*
G54D11*
D03*
X361950Y206375D02*
G54D11*
D03*
X336550Y282575D02*
G54D12*
D03*
X336550Y307975D02*
G54D12*
D03*
X336550Y333375D02*
G54D12*
D03*
X336550Y358775D02*
G54D12*
D03*
G36*
X578550Y135155D02*
X585570Y142175D01*
X595530Y142175D01*
X602550Y135155D01*
X602550Y125195D01*
X595530Y118175D01*
X585570Y118175D01*
X578550Y125195D01*
X578550Y135155D01*
G37*
G36*
X578550Y160555D02*
X585570Y167575D01*
X595530Y167575D01*
X602550Y160555D01*
X602550Y150595D01*
X595530Y143575D01*
X585570Y143575D01*
X578550Y150595D01*
X578550Y160555D01*
G37*
G36*
X578550Y185955D02*
X585570Y192975D01*
X595530Y192975D01*
X602550Y185955D01*
X602550Y175995D01*
X595530Y168975D01*
X585570Y168975D01*
X578550Y175995D01*
X578550Y185955D01*
G37*
G36*
X578550Y211355D02*
X585570Y218375D01*
X595530Y218375D01*
X602550Y211355D01*
X602550Y201395D01*
X595530Y194375D01*
X585570Y194375D01*
X578550Y201395D01*
X578550Y211355D01*
G37*
X336550Y104780D02*
G54D12*
D03*
X336550Y231775D02*
G54D12*
D03*
X336550Y307975D02*
G54D12*
D03*
X412750Y206375D02*
G54D12*
D03*
X361950Y307975D02*
G54D12*
D03*
X438150Y130175D02*
G54D12*
D03*
X590550Y155575D02*
G54D12*
D03*
X387350Y130175D02*
G54D11*
D03*
X387350Y155575D02*
G54D11*
D03*
X336550Y180975D02*
G54D12*
D03*
X463550Y104775D02*
G54D12*
D03*
X590550Y282575D02*
G54D13*
D03*
X590550Y257175D02*
G54D13*
D03*
X590550Y282575D02*
G54D13*
D03*
X565150Y231775D02*
G54D11*
D03*
X590550Y231775D02*
G54D11*
D03*
X438150Y104775D02*
G54D12*
D03*
X412750Y104775D02*
G54D12*
D03*
G36*
X527750Y109755D02*
X534770Y116775D01*
X544730Y116775D01*
X551750Y109755D01*
X551750Y99795D01*
X544730Y92775D01*
X534770Y92775D01*
X527750Y99795D01*
X527750Y109755D01*
G37*
G36*
X553150Y109755D02*
X560170Y116775D01*
X570130Y116775D01*
X577150Y109755D01*
X577150Y99795D01*
X570130Y92775D01*
X560170Y92775D01*
X553150Y99795D01*
X553150Y109755D01*
G37*
G36*
X578550Y109755D02*
X585570Y116775D01*
X595530Y116775D01*
X602550Y109755D01*
X602550Y99795D01*
X595530Y92775D01*
X585570Y92775D01*
X578550Y99795D01*
X578550Y109755D01*
G37*
X488950Y104775D02*
G54D11*
D03*
X514350Y104775D02*
G54D11*
D03*
X387350Y130175D02*
G54D11*
D03*
X387350Y104775D02*
G54D11*
D03*
X387350Y104780D02*
G54D12*
D03*
X565150Y206375D02*
G54D11*
D03*
X565150Y155575D02*
G54D11*
D03*
X387350Y206375D02*
G54D12*
D03*
X590550Y358775D02*
G54D12*
D03*
X590550Y333375D02*
G54D12*
D03*
X590550Y307975D02*
G54D12*
D03*
X539750Y155575D02*
G54D11*
D03*
X539750Y130175D02*
G54D11*
D03*
X488950Y104775D02*
G54D12*
D03*
X336550Y155580D02*
G54D12*
D03*
X336550Y130175D02*
G54D12*
D03*
X336550Y257175D02*
G54D12*
D03*
X469900Y257175D02*
G54D11*
D03*
X469900Y231775D02*
G54D11*
D03*
X469900Y257170D02*
G54D12*
D03*
X400050Y292100D02*
G54D14*
D03*
X425450Y292100D02*
G54D14*
D03*
X419100Y254000D02*
G54D15*
D03*
X431800Y266700D02*
G54D15*
D03*
X444500Y254000D02*
G54D15*
D03*
X469900Y285750D02*
G54D14*
D03*
X469900Y311150D02*
G54D14*
D03*
X514350Y251775D02*
G54D13*
D03*
X514350Y231775D02*
G54D13*
D03*
X514350Y251780D02*
G54D13*
D03*
X400050Y292100D02*
G54D14*
D03*
X495300Y311150D02*
G54D14*
D03*
X559536Y298166D02*
G54D13*
D03*
X545394Y312308D02*
G54D13*
D03*
X559540Y298170D02*
G54D13*
D03*
X431800Y266700D02*
G54D15*
D03*
X387350Y257175D02*
G54D11*
D03*
X361950Y257175D02*
G54D11*
D03*
X336550Y206375D02*
G54D12*
D03*
G36*
X752950Y216375D02*
X752950Y196375D01*
X732950Y196375D01*
X732950Y216375D01*
X752950Y216375D01*
G37*
X742950Y180975D02*
G54D10*
D03*
X742950Y155575D02*
G54D10*
D03*
X742950Y130175D02*
G54D10*
D03*
X819150Y130175D02*
G54D10*
D03*
X819150Y155575D02*
G54D10*
D03*
X819150Y180975D02*
G54D10*
D03*
X819150Y206375D02*
G54D10*
D03*
X666750Y307975D02*
G54D11*
D03*
X666750Y282575D02*
G54D11*
D03*
X692150Y180975D02*
G54D11*
D03*
X717550Y206375D02*
G54D11*
D03*
X666750Y206375D02*
G54D11*
D03*
X641350Y282575D02*
G54D12*
D03*
X641350Y307975D02*
G54D12*
D03*
X641350Y333375D02*
G54D12*
D03*
X641350Y358775D02*
G54D12*
D03*
G36*
X883350Y135155D02*
X890370Y142175D01*
X900330Y142175D01*
X907350Y135155D01*
X907350Y125195D01*
X900330Y118175D01*
X890370Y118175D01*
X883350Y125195D01*
X883350Y135155D01*
G37*
G36*
X883350Y160555D02*
X890370Y167575D01*
X900330Y167575D01*
X907350Y160555D01*
X907350Y150595D01*
X900330Y143575D01*
X890370Y143575D01*
X883350Y150595D01*
X883350Y160555D01*
G37*
G36*
X883350Y185955D02*
X890370Y192975D01*
X900330Y192975D01*
X907350Y185955D01*
X907350Y175995D01*
X900330Y168975D01*
X890370Y168975D01*
X883350Y175995D01*
X883350Y185955D01*
G37*
G36*
X883350Y211355D02*
X890370Y218375D01*
X900330Y218375D01*
X907350Y211355D01*
X907350Y201395D01*
X900330Y194375D01*
X890370Y194375D01*
X883350Y201395D01*
X883350Y211355D01*
G37*
X641350Y104780D02*
G54D12*
D03*
X641350Y231775D02*
G54D12*
D03*
X641350Y307975D02*
G54D12*
D03*
X717550Y206375D02*
G54D12*
D03*
X666750Y307975D02*
G54D12*
D03*
X742950Y130175D02*
G54D12*
D03*
X895350Y155575D02*
G54D12*
D03*
X692150Y130175D02*
G54D11*
D03*
X692150Y155575D02*
G54D11*
D03*
X641350Y180975D02*
G54D12*
D03*
X768350Y104775D02*
G54D12*
D03*
X895350Y282575D02*
G54D13*
D03*
X895350Y257175D02*
G54D13*
D03*
X895350Y282575D02*
G54D13*
D03*
X869950Y231775D02*
G54D11*
D03*
X895350Y231775D02*
G54D11*
D03*
X742950Y104775D02*
G54D12*
D03*
X717550Y104775D02*
G54D12*
D03*
G36*
X832550Y109755D02*
X839570Y116775D01*
X849530Y116775D01*
X856550Y109755D01*
X856550Y99795D01*
X849530Y92775D01*
X839570Y92775D01*
X832550Y99795D01*
X832550Y109755D01*
G37*
G36*
X857950Y109755D02*
X864970Y116775D01*
X874930Y116775D01*
X881950Y109755D01*
X881950Y99795D01*
X874930Y92775D01*
X864970Y92775D01*
X857950Y99795D01*
X857950Y109755D01*
G37*
G36*
X883350Y109755D02*
X890370Y116775D01*
X900330Y116775D01*
X907350Y109755D01*
X907350Y99795D01*
X900330Y92775D01*
X890370Y92775D01*
X883350Y99795D01*
X883350Y109755D01*
G37*
X793750Y104775D02*
G54D11*
D03*
X819150Y104775D02*
G54D11*
D03*
X692150Y130175D02*
G54D11*
D03*
X692150Y104775D02*
G54D11*
D03*
X692150Y104780D02*
G54D12*
D03*
X869950Y206375D02*
G54D11*
D03*
X869950Y155575D02*
G54D11*
D03*
X692150Y206375D02*
G54D12*
D03*
X895350Y358775D02*
G54D12*
D03*
X895350Y333375D02*
G54D12*
D03*
X895350Y307975D02*
G54D12*
D03*
X844550Y155575D02*
G54D11*
D03*
X844550Y130175D02*
G54D11*
D03*
X793750Y104775D02*
G54D12*
D03*
X641350Y155580D02*
G54D12*
D03*
X641350Y130175D02*
G54D12*
D03*
X641350Y257175D02*
G54D12*
D03*
X774700Y257175D02*
G54D11*
D03*
X774700Y231775D02*
G54D11*
D03*
X774700Y257170D02*
G54D12*
D03*
X704850Y292100D02*
G54D14*
D03*
X730250Y292100D02*
G54D14*
D03*
X723900Y254000D02*
G54D15*
D03*
X736600Y266700D02*
G54D15*
D03*
X749300Y254000D02*
G54D15*
D03*
X774700Y285750D02*
G54D14*
D03*
X774700Y311150D02*
G54D14*
D03*
X819150Y251775D02*
G54D13*
D03*
X819150Y231775D02*
G54D13*
D03*
X819150Y251780D02*
G54D13*
D03*
X704850Y292100D02*
G54D14*
D03*
X800100Y311150D02*
G54D14*
D03*
X864336Y298166D02*
G54D13*
D03*
X850194Y312308D02*
G54D13*
D03*
X864340Y298170D02*
G54D13*
D03*
X736600Y266700D02*
G54D15*
D03*
X692150Y257175D02*
G54D11*
D03*
X666750Y257175D02*
G54D11*
D03*
X641350Y206375D02*
G54D12*
D03*
M02*
