; Drill file
; Format: 2.4 (00.0000)
M48
INCH
T01C0.0236
T02C0.0283
T03C0.0315
T04C0.0394
%
G05
G90
T01
X003250Y005120
X003250Y006130
X003250Y007130
X002250Y008120
X002250Y010120
X002250Y011130
X003250Y010120
X004500Y010000
X005000Y010500
X005500Y010000
X006500Y009120
X008250Y009120
X008250Y009910
X010250Y009120
X010250Y008120
X011250Y009120
X011250Y010120
X011250Y011130
X010030Y011740
X009470Y012300
X008250Y016130
X009250Y017120
X009250Y018120
X010250Y018120
X010250Y020130
X010250Y021120
X011250Y021120
X011250Y022120
X011250Y023120
X010030Y023740
X009470Y024300
X008250Y021910
X008250Y021120
X006500Y021120
X005500Y022000
X005000Y022500
X004500Y022000
X003250Y022120
X002250Y022120
X002250Y023120
X002250Y020130
X003250Y019130
X003250Y018120
X003250Y017120
X014250Y020130
X015250Y019130
X015250Y018120
X015250Y017120
X015250Y022120
X014250Y022120
X014250Y023120
X016500Y022000
X017000Y022500
X017500Y022000
X018500Y021120
X020250Y021120
X020250Y021910
X022250Y021120
X022250Y020130
X023250Y021120
X023250Y022120
X023250Y023120
X022030Y023740
X021470Y024300
X020250Y028120
X021250Y029130
X021250Y030130
X022250Y030130
X022250Y032120
X022250Y033120
X023250Y033120
X023250Y034130
X023250Y035130
X022030Y035740
X021470Y036300
X020250Y033910
X020250Y033120
X018500Y033120
X017500Y034000
X017000Y034500
X016500Y034000
X015250Y034130
X014250Y034130
X014250Y035130
X014250Y032120
X015250Y031120
X015250Y030130
X015250Y029130
X010250Y030130
X009250Y030130
X009250Y029130
X008250Y028120
X010250Y032120
X010250Y033120
X011250Y033120
X011250Y034130
X011250Y035130
X010030Y035740
X009470Y036300
X008250Y033910
X008250Y033120
X006500Y033120
X005500Y034000
X005000Y034500
X004500Y034000
X003250Y034130
X002250Y034130
X002250Y035130
X002250Y032120
X003250Y031120
X003250Y030130
X003250Y029130
X021250Y018120
X022250Y018120
X021250Y017120
X020250Y016130
X021470Y012300
X022030Y011740
X023250Y011130
X023250Y010120
X023250Y009120
X022250Y009120
X022250Y008120
X022250Y006130
X021250Y006130
X021250Y005120
X020250Y004120
X020250Y009120
X020250Y009910
X018500Y009120
X017500Y010000
X017000Y010500
X016500Y010000
X015250Y010120
X014250Y010120
X014250Y011130
X014250Y008120
X015250Y007130
X015250Y006130
X015250Y005120
X010250Y006130
X009250Y006130
X009250Y005120
X008250Y004120
X026250Y008120
X027250Y007130
X027250Y006130
X027250Y005120
X027250Y010120
X026250Y010120
X026250Y011130
X028500Y010000
X029000Y010500
X029500Y010000
X030500Y009120
X032250Y009120
X032250Y009910
X034250Y009120
X034250Y008120
X035250Y009120
X035250Y010120
X035250Y011130
X034030Y011740
X033470Y012300
X032250Y016130
X033250Y017120
X033250Y018120
X034250Y018120
X034250Y020130
X034250Y021120
X035250Y021120
X035250Y022120
X035250Y023120
X034030Y023740
X033470Y024300
X032250Y021910
X032250Y021120
X030500Y021120
X029500Y022000
X029000Y022500
X028500Y022000
X027250Y022120
X026250Y022120
X026250Y023120
X026250Y020130
X027250Y019130
X027250Y018120
X027250Y017120
X027250Y029130
X027250Y030130
X027250Y031120
X026250Y032120
X026250Y034130
X026250Y035130
X027250Y034130
X028500Y034000
X029000Y034500
X029500Y034000
X030500Y033120
X032250Y033120
X032250Y033910
X034250Y033120
X034250Y032120
X035250Y033120
X035250Y034130
X035250Y035130
X034030Y035740
X033470Y036300
X033250Y030130
X034250Y030130
X033250Y029130
X032250Y028120
X033250Y006130
X034250Y006130
X033250Y005120
X032250Y004120
T02
X005250Y006130
X005250Y007130
X005250Y008120
X008250Y008120
X008250Y007130
X008250Y006130
X008250Y005120
X017250Y006130
X017250Y007130
X017250Y008120
X020250Y008120
X020250Y007130
X020250Y006130
X020250Y005120
X029250Y006130
X029250Y007130
X029250Y008120
X032250Y008120
X032250Y007130
X032250Y006130
X032250Y005120
X032250Y017120
X032250Y018120
X032250Y019130
X032250Y020130
X029250Y020130
X029250Y019130
X029250Y018120
X020250Y018120
X020250Y017120
X020250Y019130
X020250Y020130
X017250Y020130
X017250Y019130
X017250Y018120
X008250Y018120
X008250Y017120
X008250Y019130
X008250Y020130
X005250Y020130
X005250Y019130
X005250Y018120
X008250Y029130
X008250Y030130
X008250Y031120
X008250Y032120
X005250Y032120
X005250Y031120
X005250Y030130
X017250Y030130
X017250Y031120
X017250Y032120
X020250Y032120
X020250Y031120
X020250Y030130
X020250Y029130
X029250Y030130
X029250Y031120
X029250Y032120
X032250Y032120
X032250Y031120
X032250Y030130
X032250Y029130
T03
X001250Y004130
X001250Y005120
X001250Y006130
X001250Y007130
X001250Y008120
X001250Y009120
X001250Y010120
X001250Y011130
X001250Y012120
X001250Y013120
X001250Y014130
X001250Y016130
X001250Y017120
X001250Y018130
X001250Y019130
X001250Y020130
X001250Y021120
X001250Y022120
X001250Y023120
X001250Y024130
X001250Y025130
X001250Y026120
X001250Y028130
X001250Y029130
X001250Y030130
X001250Y031120
X001250Y032120
X001250Y033120
X001250Y034130
X001250Y035130
X001250Y036120
X001250Y037120
X001250Y038120
X002250Y036120
X003250Y032120
X004250Y032120
X006500Y034120
X006500Y035250
X006500Y036250
X007500Y036250
X008250Y037120
X011250Y037120
X011250Y038120
X011250Y036120
X013250Y036120
X013250Y035130
X013250Y034130
X013250Y033120
X013250Y032120
X013250Y031120
X013250Y030130
X013250Y029130
X013250Y028130
X015250Y028130
X016250Y028120
X017250Y028120
X017250Y029130
X018250Y028120
X019250Y028120
X020250Y025130
X019500Y024250
X018500Y024250
X018500Y023250
X018500Y022120
X016250Y020130
X015250Y020130
X013250Y020130
X013250Y021120
X013250Y022120
X013250Y023120
X013250Y024130
X013250Y025130
X013250Y026120
X011250Y026120
X011250Y025130
X011250Y024130
X014250Y024130
X011250Y020130
X011250Y019130
X011250Y018130
X011250Y017120
X013250Y017120
X013250Y016130
X015250Y016130
X016250Y016130
X017250Y016130
X017250Y017120
X018250Y016130
X019250Y016130
X020250Y013120
X019500Y012250
X018500Y012250
X018500Y011250
X018500Y010120
X016250Y008120
X015250Y008120
X013250Y008120
X013250Y009120
X013250Y010120
X013250Y011130
X013250Y012120
X013250Y013120
X013250Y014130
X011250Y014130
X011250Y013120
X011250Y012120
X014250Y012120
X011250Y008120
X011250Y007130
X011250Y006130
X011250Y005120
X013250Y005120
X013250Y004130
X015250Y004130
X016250Y004120
X017250Y004120
X017250Y005120
X018250Y004120
X019250Y004120
X023250Y005120
X023250Y006130
X023250Y007130
X023250Y008120
X025250Y008120
X025250Y009120
X025250Y010120
X025250Y011130
X025250Y012120
X025250Y013120
X025250Y014130
X023250Y014130
X023250Y013120
X023250Y012120
X026250Y012120
X027250Y008120
X028250Y008120
X030500Y010120
X030500Y011250
X030500Y012250
X031500Y012250
X032250Y013120
X035250Y013120
X035250Y014130
X035250Y012120
X035250Y008120
X035250Y007130
X035250Y006130
X035250Y005120
X031250Y004120
X030250Y004120
X029250Y004120
X029250Y005120
X028250Y004120
X027250Y004130
X025250Y004130
X025250Y005120
X025250Y006130
X025250Y007130
X025250Y016130
X025250Y017120
X025250Y018130
X025250Y019130
X025250Y020130
X025250Y021120
X025250Y022120
X025250Y023120
X025250Y024130
X025250Y025130
X025250Y026120
X023250Y026120
X023250Y025130
X023250Y024130
X026250Y024130
X027250Y020130
X028250Y020130
X030500Y022120
X030500Y023250
X030500Y024250
X031500Y024250
X032250Y025130
X035250Y025130
X035250Y026120
X035250Y024130
X035250Y020130
X035250Y019130
X035250Y018130
X035250Y017120
X031250Y016130
X030250Y016130
X029250Y016130
X029250Y017120
X028250Y016130
X027250Y016130
X023250Y017120
X023250Y018130
X023250Y019130
X023250Y020130
X025250Y028130
X025250Y029130
X025250Y030130
X025250Y031120
X025250Y032120
X025250Y033120
X025250Y034130
X025250Y035130
X025250Y036120
X025250Y037120
X025250Y038120
X023250Y038120
X023250Y037120
X023250Y036120
X026250Y036120
X027250Y032120
X028250Y032120
X030500Y034120
X030500Y035250
X030500Y036250
X031500Y036250
X032250Y037120
X035250Y037120
X035250Y038120
X035250Y036120
X035250Y032120
X035250Y031120
X035250Y030130
X035250Y029130
X031250Y028120
X030250Y028120
X029250Y028120
X029250Y029130
X028250Y028120
X027250Y028130
X023250Y029130
X023250Y030130
X023250Y031120
X023250Y032120
X018500Y034120
X018500Y035250
X018500Y036250
X019500Y036250
X020250Y037120
X014250Y036120
X013250Y037120
X013250Y038120
X011250Y032120
X011250Y031120
X011250Y030130
X011250Y029130
X007250Y028120
X006250Y028120
X005250Y028120
X005250Y029130
X004250Y028120
X003250Y028130
X002250Y024130
X003250Y020130
X004250Y020130
X006500Y022120
X006500Y023250
X006500Y024250
X007500Y024250
X008250Y025130
X013250Y019130
X013250Y018130
X007250Y016130
X006250Y016130
X005250Y016130
X005250Y017120
X004250Y016130
X003250Y016130
X002250Y012120
X003250Y008120
X004250Y008120
X006500Y010120
X006500Y011250
X006500Y012250
X007500Y012250
X008250Y013120
X013250Y007130
X013250Y006130
X007250Y004120
X006250Y004120
X005250Y004120
X005250Y005120
X004250Y004120
X003250Y004130
X015250Y032120
X016250Y032120
T04
X009250Y004120
X010250Y004120
X011250Y004130
X015750Y011500
X016750Y011500
X021250Y016130
X022250Y016130
X023250Y016130
X027750Y011500
X028750Y011500
X033250Y016130
X034250Y016130
X035250Y016130
X028750Y023500
X027750Y023500
X023250Y028130
X022250Y028120
X021250Y028120
X016750Y023500
X015750Y023500
X011250Y028130
X010250Y028120
X009250Y028120
X004750Y023500
X003750Y023500
X009250Y016130
X010250Y016130
X011250Y016130
X004750Y011500
X003750Y011500
X021250Y004120
X022250Y004120
X023250Y004130
X033250Y004120
X034250Y004120
X035250Y004130
X035250Y028130
X034250Y028120
X033250Y028120
X028750Y035500
X027750Y035500
X016750Y035500
X015750Y035500
X004750Y035500
X003750Y035500
M30
