%FSLAX34Y34*%
%MOMM*%
%LNCOPPER_TOP*%
G71*
G01*
%ADD10C, 1.400*%
%ADD11C, 1.600*%
%ADD12C, 1.800*%
%ADD13C, 1.800*%
%ADD14C, 0.500*%
%LPD*%
G36*
X140350Y822975D02*
X140350Y808975D01*
X126350Y808975D01*
X126350Y822975D01*
X140350Y822975D01*
G37*
X133350Y790575D02*
G54D10*
D03*
X133350Y765175D02*
G54D10*
D03*
X133350Y739775D02*
G54D10*
D03*
X209550Y739775D02*
G54D10*
D03*
X209550Y765175D02*
G54D10*
D03*
X209550Y790575D02*
G54D10*
D03*
X209550Y815975D02*
G54D10*
D03*
X209550Y892175D02*
G54D11*
D03*
X209550Y872175D02*
G54D11*
D03*
X57150Y917575D02*
G54D12*
D03*
X57150Y892175D02*
G54D12*
D03*
X82550Y790575D02*
G54D12*
D03*
X107950Y815975D02*
G54D12*
D03*
X57150Y815975D02*
G54D12*
D03*
X95250Y866775D02*
G54D13*
D03*
X171450Y866775D02*
G54D13*
D03*
X95250Y917575D02*
G54D13*
D03*
X171450Y917575D02*
G54D13*
D03*
X31750Y714375D02*
G54D13*
D03*
X31750Y739775D02*
G54D13*
D03*
X31750Y815975D02*
G54D13*
D03*
X31750Y841375D02*
G54D13*
D03*
X31750Y892175D02*
G54D13*
D03*
X31750Y917575D02*
G54D13*
D03*
X31750Y942975D02*
G54D13*
D03*
X31750Y968375D02*
G54D13*
D03*
X184150Y714375D02*
G54D12*
D03*
X209550Y714375D02*
G54D12*
D03*
G36*
X225950Y718110D02*
X231215Y723375D01*
X238685Y723375D01*
X243950Y718110D01*
X243950Y710640D01*
X238685Y705375D01*
X231215Y705375D01*
X225950Y710640D01*
X225950Y718110D01*
G37*
G36*
X251350Y718110D02*
X256615Y723375D01*
X264085Y723375D01*
X269350Y718110D01*
X269350Y710640D01*
X264085Y705375D01*
X256615Y705375D01*
X251350Y710640D01*
X251350Y718110D01*
G37*
G36*
X276750Y718110D02*
X282015Y723375D01*
X289485Y723375D01*
X294750Y718110D01*
X294750Y710640D01*
X289485Y705375D01*
X282015Y705375D01*
X276750Y710640D01*
X276750Y718110D01*
G37*
G36*
X276750Y743510D02*
X282015Y748775D01*
X289485Y748775D01*
X294750Y743510D01*
X294750Y736040D01*
X289485Y730775D01*
X282015Y730775D01*
X276750Y736040D01*
X276750Y743510D01*
G37*
G36*
X276750Y768910D02*
X282015Y774175D01*
X289485Y774175D01*
X294750Y768910D01*
X294750Y761440D01*
X289485Y756175D01*
X282015Y756175D01*
X276750Y761440D01*
X276750Y768910D01*
G37*
G36*
X276750Y794310D02*
X282015Y799575D01*
X289485Y799575D01*
X294750Y794310D01*
X294750Y786840D01*
X289485Y781575D01*
X282015Y781575D01*
X276750Y786840D01*
X276750Y794310D01*
G37*
G36*
X276750Y819710D02*
X282015Y824975D01*
X289485Y824975D01*
X294750Y819710D01*
X294750Y812240D01*
X289485Y806975D01*
X282015Y806975D01*
X276750Y812240D01*
X276750Y819710D01*
G37*
G54D14*
X31750Y892175D02*
X57150Y892175D01*
X57150Y841375D01*
X209550Y841375D01*
X209550Y815975D01*
X57150Y866775D02*
G54D12*
D03*
X31750Y866775D02*
G54D12*
D03*
G54D14*
X209550Y714375D02*
X234950Y714375D01*
X260350Y841375D02*
G54D12*
D03*
X260350Y765175D02*
G54D12*
D03*
X31750Y765175D02*
G54D13*
D03*
X31750Y714375D02*
G54D13*
D03*
X31750Y815975D02*
G54D13*
D03*
X31750Y917575D02*
G54D13*
D03*
X95250Y917575D02*
G54D13*
D03*
X171450Y917575D02*
G54D13*
D03*
X107950Y815975D02*
G54D13*
D03*
X57150Y917575D02*
G54D13*
D03*
X133350Y739775D02*
G54D13*
D03*
X285750Y714375D02*
G54D13*
D03*
X285750Y765175D02*
G54D13*
D03*
G54D14*
X209550Y841375D02*
X209550Y872175D01*
X209550Y892175D02*
G54D13*
D03*
G54D14*
X82550Y790575D02*
X133350Y790575D01*
G54D14*
X31750Y841375D02*
X31750Y866775D01*
G54D14*
X57150Y815975D02*
X57150Y841375D01*
X57150Y765175D02*
G54D12*
D03*
X82550Y765175D02*
G54D12*
D03*
G54D14*
X31750Y765175D02*
X57150Y765175D01*
X57150Y815975D01*
G54D14*
X184150Y714375D02*
X184150Y727075D01*
X196850Y739775D01*
X209550Y739775D01*
G54D14*
X82550Y765175D02*
X133350Y765175D01*
G54D14*
X260350Y714375D02*
X260350Y765175D01*
G54D14*
X260350Y765175D02*
X260350Y790575D01*
X285750Y815975D01*
X31750Y790575D02*
G54D13*
D03*
X133350Y714375D02*
G54D13*
D03*
X158750Y714375D02*
G54D13*
D03*
X107950Y714375D02*
G54D13*
D03*
G54D14*
X133350Y815975D02*
X149225Y815975D01*
X158750Y806450D01*
X158750Y714375D01*
G36*
X213285Y936100D02*
X218550Y930835D01*
X218550Y923365D01*
X213285Y918100D01*
X205815Y918100D01*
X200550Y923365D01*
X200550Y930835D01*
X205815Y936100D01*
X213285Y936100D01*
G37*
G36*
X213285Y961500D02*
X218550Y956235D01*
X218550Y948765D01*
X213285Y943500D01*
X205815Y943500D01*
X200550Y948765D01*
X200550Y956235D01*
X205815Y961500D01*
X213285Y961500D01*
G37*
X285750Y917575D02*
G54D11*
D03*
X285750Y892175D02*
G54D11*
D03*
X285750Y968375D02*
G54D11*
D03*
X285750Y942975D02*
G54D11*
D03*
X285750Y968375D02*
G54D11*
D03*
G54D14*
X257175Y917575D02*
X241300Y917575D01*
G54D14*
X209550Y765175D02*
X241300Y796925D01*
X241300Y952500D01*
X225425Y968375D01*
X31750Y968375D01*
G54D14*
X209550Y790575D02*
X215900Y790575D01*
X228600Y803275D01*
X228600Y908050D01*
X209550Y927100D01*
X193675Y942975D01*
X31750Y942975D01*
X257175Y917575D02*
G54D12*
D03*
X257175Y942975D02*
G54D12*
D03*
G54D14*
X257175Y942975D02*
X285750Y942975D01*
X285750Y917575D02*
G54D11*
D03*
X260350Y866775D02*
G54D12*
D03*
X285750Y866775D02*
G54D12*
D03*
G54D14*
X260350Y841375D02*
X260350Y866775D01*
G54D14*
X285750Y866775D02*
X285750Y892175D01*
G54D14*
X31750Y739775D02*
X73025Y739775D01*
X82550Y749300D01*
X82550Y765175D01*
G36*
X445150Y822975D02*
X445150Y808975D01*
X431150Y808975D01*
X431150Y822975D01*
X445150Y822975D01*
G37*
X438150Y790575D02*
G54D10*
D03*
X438150Y765175D02*
G54D10*
D03*
X438150Y739775D02*
G54D10*
D03*
X514350Y739775D02*
G54D10*
D03*
X514350Y765175D02*
G54D10*
D03*
X514350Y790575D02*
G54D10*
D03*
X514350Y815975D02*
G54D10*
D03*
X514350Y892175D02*
G54D11*
D03*
X514350Y872175D02*
G54D11*
D03*
X361950Y917575D02*
G54D12*
D03*
X361950Y892175D02*
G54D12*
D03*
X387350Y790575D02*
G54D12*
D03*
X412750Y815975D02*
G54D12*
D03*
X361950Y815975D02*
G54D12*
D03*
X400050Y866775D02*
G54D13*
D03*
X476250Y866775D02*
G54D13*
D03*
X400050Y917575D02*
G54D13*
D03*
X476250Y917575D02*
G54D13*
D03*
X336550Y714375D02*
G54D13*
D03*
X336550Y739775D02*
G54D13*
D03*
X336550Y815975D02*
G54D13*
D03*
X336550Y841375D02*
G54D13*
D03*
X336550Y892175D02*
G54D13*
D03*
X336550Y917575D02*
G54D13*
D03*
X336550Y942975D02*
G54D13*
D03*
X336550Y968375D02*
G54D13*
D03*
X488950Y714375D02*
G54D12*
D03*
X514350Y714375D02*
G54D12*
D03*
G36*
X530750Y718110D02*
X536015Y723375D01*
X543485Y723375D01*
X548750Y718110D01*
X548750Y710640D01*
X543485Y705375D01*
X536015Y705375D01*
X530750Y710640D01*
X530750Y718110D01*
G37*
G36*
X556150Y718110D02*
X561415Y723375D01*
X568885Y723375D01*
X574150Y718110D01*
X574150Y710640D01*
X568885Y705375D01*
X561415Y705375D01*
X556150Y710640D01*
X556150Y718110D01*
G37*
G36*
X581550Y718110D02*
X586815Y723375D01*
X594285Y723375D01*
X599550Y718110D01*
X599550Y710640D01*
X594285Y705375D01*
X586815Y705375D01*
X581550Y710640D01*
X581550Y718110D01*
G37*
G36*
X581550Y743510D02*
X586815Y748775D01*
X594285Y748775D01*
X599550Y743510D01*
X599550Y736040D01*
X594285Y730775D01*
X586815Y730775D01*
X581550Y736040D01*
X581550Y743510D01*
G37*
G36*
X581550Y768910D02*
X586815Y774175D01*
X594285Y774175D01*
X599550Y768910D01*
X599550Y761440D01*
X594285Y756175D01*
X586815Y756175D01*
X581550Y761440D01*
X581550Y768910D01*
G37*
G36*
X581550Y794310D02*
X586815Y799575D01*
X594285Y799575D01*
X599550Y794310D01*
X599550Y786840D01*
X594285Y781575D01*
X586815Y781575D01*
X581550Y786840D01*
X581550Y794310D01*
G37*
G36*
X581550Y819710D02*
X586815Y824975D01*
X594285Y824975D01*
X599550Y819710D01*
X599550Y812240D01*
X594285Y806975D01*
X586815Y806975D01*
X581550Y812240D01*
X581550Y819710D01*
G37*
G54D14*
X336550Y892175D02*
X361950Y892175D01*
X361950Y841375D01*
X514350Y841375D01*
X514350Y815975D01*
X361950Y866775D02*
G54D12*
D03*
X336550Y866775D02*
G54D12*
D03*
G54D14*
X514350Y714375D02*
X539750Y714375D01*
X565150Y841375D02*
G54D12*
D03*
X565150Y765175D02*
G54D12*
D03*
X336550Y765175D02*
G54D13*
D03*
X336550Y714375D02*
G54D13*
D03*
X336550Y815975D02*
G54D13*
D03*
X336550Y917575D02*
G54D13*
D03*
X400050Y917575D02*
G54D13*
D03*
X476250Y917575D02*
G54D13*
D03*
X412750Y815975D02*
G54D13*
D03*
X361950Y917575D02*
G54D13*
D03*
X438150Y739775D02*
G54D13*
D03*
X590550Y714375D02*
G54D13*
D03*
X590550Y765175D02*
G54D13*
D03*
G54D14*
X514350Y841375D02*
X514350Y872175D01*
X514350Y892175D02*
G54D13*
D03*
G54D14*
X387350Y790575D02*
X438150Y790575D01*
G54D14*
X336550Y841375D02*
X336550Y866775D01*
G54D14*
X361950Y815975D02*
X361950Y841375D01*
X361950Y765175D02*
G54D12*
D03*
X387350Y765175D02*
G54D12*
D03*
G54D14*
X336550Y765175D02*
X361950Y765175D01*
X361950Y815975D01*
G54D14*
X488950Y714375D02*
X488950Y727075D01*
X501650Y739775D01*
X514350Y739775D01*
G54D14*
X387350Y765175D02*
X438150Y765175D01*
G54D14*
X565150Y714375D02*
X565150Y765175D01*
G54D14*
X565150Y765175D02*
X565150Y790575D01*
X590550Y815975D01*
X336550Y790575D02*
G54D13*
D03*
X438150Y714375D02*
G54D13*
D03*
X463550Y714375D02*
G54D13*
D03*
X412750Y714375D02*
G54D13*
D03*
G54D14*
X438150Y815975D02*
X454025Y815975D01*
X463550Y806450D01*
X463550Y714375D01*
G36*
X518085Y936100D02*
X523350Y930835D01*
X523350Y923365D01*
X518085Y918100D01*
X510615Y918100D01*
X505350Y923365D01*
X505350Y930835D01*
X510615Y936100D01*
X518085Y936100D01*
G37*
G36*
X518085Y961500D02*
X523350Y956235D01*
X523350Y948765D01*
X518085Y943500D01*
X510615Y943500D01*
X505350Y948765D01*
X505350Y956235D01*
X510615Y961500D01*
X518085Y961500D01*
G37*
X590550Y917575D02*
G54D11*
D03*
X590550Y892175D02*
G54D11*
D03*
X590550Y968375D02*
G54D11*
D03*
X590550Y942975D02*
G54D11*
D03*
X590550Y968375D02*
G54D11*
D03*
G54D14*
X561975Y917575D02*
X546100Y917575D01*
G54D14*
X514350Y765175D02*
X546100Y796925D01*
X546100Y952500D01*
X530225Y968375D01*
X336550Y968375D01*
G54D14*
X514350Y790575D02*
X520700Y790575D01*
X533400Y803275D01*
X533400Y908050D01*
X514350Y927100D01*
X498475Y942975D01*
X336550Y942975D01*
X561975Y917575D02*
G54D12*
D03*
X561975Y942975D02*
G54D12*
D03*
G54D14*
X561975Y942975D02*
X590550Y942975D01*
X590550Y917575D02*
G54D11*
D03*
X565150Y866775D02*
G54D12*
D03*
X590550Y866775D02*
G54D12*
D03*
G54D14*
X565150Y841375D02*
X565150Y866775D01*
G54D14*
X590550Y866775D02*
X590550Y892175D01*
G54D14*
X336550Y739775D02*
X377825Y739775D01*
X387350Y749300D01*
X387350Y765175D01*
G36*
X749950Y822975D02*
X749950Y808975D01*
X735950Y808975D01*
X735950Y822975D01*
X749950Y822975D01*
G37*
X742950Y790575D02*
G54D10*
D03*
X742950Y765175D02*
G54D10*
D03*
X742950Y739775D02*
G54D10*
D03*
X819150Y739775D02*
G54D10*
D03*
X819150Y765175D02*
G54D10*
D03*
X819150Y790575D02*
G54D10*
D03*
X819150Y815975D02*
G54D10*
D03*
X819150Y892175D02*
G54D11*
D03*
X819150Y872175D02*
G54D11*
D03*
X666750Y917575D02*
G54D12*
D03*
X666750Y892175D02*
G54D12*
D03*
X692150Y790575D02*
G54D12*
D03*
X717550Y815975D02*
G54D12*
D03*
X666750Y815975D02*
G54D12*
D03*
X704850Y866775D02*
G54D13*
D03*
X781050Y866775D02*
G54D13*
D03*
X704850Y917575D02*
G54D13*
D03*
X781050Y917575D02*
G54D13*
D03*
X641350Y714375D02*
G54D13*
D03*
X641350Y739775D02*
G54D13*
D03*
X641350Y815975D02*
G54D13*
D03*
X641350Y841375D02*
G54D13*
D03*
X641350Y892175D02*
G54D13*
D03*
X641350Y917575D02*
G54D13*
D03*
X641350Y942975D02*
G54D13*
D03*
X641350Y968375D02*
G54D13*
D03*
X793750Y714375D02*
G54D12*
D03*
X819150Y714375D02*
G54D12*
D03*
G36*
X835550Y718110D02*
X840815Y723375D01*
X848285Y723375D01*
X853550Y718110D01*
X853550Y710640D01*
X848285Y705375D01*
X840815Y705375D01*
X835550Y710640D01*
X835550Y718110D01*
G37*
G36*
X860950Y718110D02*
X866215Y723375D01*
X873685Y723375D01*
X878950Y718110D01*
X878950Y710640D01*
X873685Y705375D01*
X866215Y705375D01*
X860950Y710640D01*
X860950Y718110D01*
G37*
G36*
X886350Y718110D02*
X891615Y723375D01*
X899085Y723375D01*
X904350Y718110D01*
X904350Y710640D01*
X899085Y705375D01*
X891615Y705375D01*
X886350Y710640D01*
X886350Y718110D01*
G37*
G36*
X886350Y743510D02*
X891615Y748775D01*
X899085Y748775D01*
X904350Y743510D01*
X904350Y736040D01*
X899085Y730775D01*
X891615Y730775D01*
X886350Y736040D01*
X886350Y743510D01*
G37*
G36*
X886350Y768910D02*
X891615Y774175D01*
X899085Y774175D01*
X904350Y768910D01*
X904350Y761440D01*
X899085Y756175D01*
X891615Y756175D01*
X886350Y761440D01*
X886350Y768910D01*
G37*
G36*
X886350Y794310D02*
X891615Y799575D01*
X899085Y799575D01*
X904350Y794310D01*
X904350Y786840D01*
X899085Y781575D01*
X891615Y781575D01*
X886350Y786840D01*
X886350Y794310D01*
G37*
G36*
X886350Y819710D02*
X891615Y824975D01*
X899085Y824975D01*
X904350Y819710D01*
X904350Y812240D01*
X899085Y806975D01*
X891615Y806975D01*
X886350Y812240D01*
X886350Y819710D01*
G37*
G54D14*
X641350Y892175D02*
X666750Y892175D01*
X666750Y841375D01*
X819150Y841375D01*
X819150Y815975D01*
X666750Y866775D02*
G54D12*
D03*
X641350Y866775D02*
G54D12*
D03*
G54D14*
X819150Y714375D02*
X844550Y714375D01*
X869950Y841375D02*
G54D12*
D03*
X869950Y765175D02*
G54D12*
D03*
X641350Y765175D02*
G54D13*
D03*
X641350Y714375D02*
G54D13*
D03*
X641350Y815975D02*
G54D13*
D03*
X641350Y917575D02*
G54D13*
D03*
X704850Y917575D02*
G54D13*
D03*
X781050Y917575D02*
G54D13*
D03*
X717550Y815975D02*
G54D13*
D03*
X666750Y917575D02*
G54D13*
D03*
X742950Y739775D02*
G54D13*
D03*
X895350Y714375D02*
G54D13*
D03*
X895350Y765175D02*
G54D13*
D03*
G54D14*
X819150Y841375D02*
X819150Y872175D01*
X819150Y892175D02*
G54D13*
D03*
G54D14*
X692150Y790575D02*
X742950Y790575D01*
G54D14*
X641350Y841375D02*
X641350Y866775D01*
G54D14*
X666750Y815975D02*
X666750Y841375D01*
X666750Y765175D02*
G54D12*
D03*
X692150Y765175D02*
G54D12*
D03*
G54D14*
X641350Y765175D02*
X666750Y765175D01*
X666750Y815975D01*
G54D14*
X793750Y714375D02*
X793750Y727075D01*
X806450Y739775D01*
X819150Y739775D01*
G54D14*
X692150Y765175D02*
X742950Y765175D01*
G54D14*
X869950Y714375D02*
X869950Y765175D01*
G54D14*
X869950Y765175D02*
X869950Y790575D01*
X895350Y815975D01*
X641350Y790575D02*
G54D13*
D03*
X742950Y714375D02*
G54D13*
D03*
X768350Y714375D02*
G54D13*
D03*
X717550Y714375D02*
G54D13*
D03*
G54D14*
X742950Y815975D02*
X758825Y815975D01*
X768350Y806450D01*
X768350Y714375D01*
G36*
X822885Y936100D02*
X828150Y930835D01*
X828150Y923365D01*
X822885Y918100D01*
X815415Y918100D01*
X810150Y923365D01*
X810150Y930835D01*
X815415Y936100D01*
X822885Y936100D01*
G37*
G36*
X822885Y961500D02*
X828150Y956235D01*
X828150Y948765D01*
X822885Y943500D01*
X815415Y943500D01*
X810150Y948765D01*
X810150Y956235D01*
X815415Y961500D01*
X822885Y961500D01*
G37*
X895350Y917575D02*
G54D11*
D03*
X895350Y892175D02*
G54D11*
D03*
X895350Y968375D02*
G54D11*
D03*
X895350Y942975D02*
G54D11*
D03*
X895350Y968375D02*
G54D11*
D03*
G54D14*
X866775Y917575D02*
X850900Y917575D01*
G54D14*
X819150Y765175D02*
X850900Y796925D01*
X850900Y952500D01*
X835025Y968375D01*
X641350Y968375D01*
G54D14*
X819150Y790575D02*
X825500Y790575D01*
X838200Y803275D01*
X838200Y908050D01*
X819150Y927100D01*
X803275Y942975D01*
X641350Y942975D01*
X866775Y917575D02*
G54D12*
D03*
X866775Y942975D02*
G54D12*
D03*
G54D14*
X866775Y942975D02*
X895350Y942975D01*
X895350Y917575D02*
G54D11*
D03*
X869950Y866775D02*
G54D12*
D03*
X895350Y866775D02*
G54D12*
D03*
G54D14*
X869950Y841375D02*
X869950Y866775D01*
G54D14*
X895350Y866775D02*
X895350Y892175D01*
G54D14*
X641350Y739775D02*
X682625Y739775D01*
X692150Y749300D01*
X692150Y765175D01*
G36*
X140350Y518175D02*
X140350Y504175D01*
X126350Y504175D01*
X126350Y518175D01*
X140350Y518175D01*
G37*
X133350Y485775D02*
G54D10*
D03*
X133350Y460375D02*
G54D10*
D03*
X133350Y434975D02*
G54D10*
D03*
X209550Y434975D02*
G54D10*
D03*
X209550Y460375D02*
G54D10*
D03*
X209550Y485775D02*
G54D10*
D03*
X209550Y511175D02*
G54D10*
D03*
X209550Y587375D02*
G54D11*
D03*
X209550Y567375D02*
G54D11*
D03*
X57150Y612775D02*
G54D12*
D03*
X57150Y587375D02*
G54D12*
D03*
X82550Y485775D02*
G54D12*
D03*
X107950Y511175D02*
G54D12*
D03*
X57150Y511175D02*
G54D12*
D03*
X95250Y561975D02*
G54D13*
D03*
X171450Y561975D02*
G54D13*
D03*
X95250Y612775D02*
G54D13*
D03*
X171450Y612775D02*
G54D13*
D03*
X31750Y409575D02*
G54D13*
D03*
X31750Y434975D02*
G54D13*
D03*
X31750Y511175D02*
G54D13*
D03*
X31750Y536575D02*
G54D13*
D03*
X31750Y587375D02*
G54D13*
D03*
X31750Y612775D02*
G54D13*
D03*
X31750Y638175D02*
G54D13*
D03*
X31750Y663575D02*
G54D13*
D03*
X184150Y409575D02*
G54D12*
D03*
X209550Y409575D02*
G54D12*
D03*
G36*
X225950Y413310D02*
X231215Y418575D01*
X238685Y418575D01*
X243950Y413310D01*
X243950Y405840D01*
X238685Y400575D01*
X231215Y400575D01*
X225950Y405840D01*
X225950Y413310D01*
G37*
G36*
X251350Y413310D02*
X256615Y418575D01*
X264085Y418575D01*
X269350Y413310D01*
X269350Y405840D01*
X264085Y400575D01*
X256615Y400575D01*
X251350Y405840D01*
X251350Y413310D01*
G37*
G36*
X276750Y413310D02*
X282015Y418575D01*
X289485Y418575D01*
X294750Y413310D01*
X294750Y405840D01*
X289485Y400575D01*
X282015Y400575D01*
X276750Y405840D01*
X276750Y413310D01*
G37*
G36*
X276750Y438710D02*
X282015Y443975D01*
X289485Y443975D01*
X294750Y438710D01*
X294750Y431240D01*
X289485Y425975D01*
X282015Y425975D01*
X276750Y431240D01*
X276750Y438710D01*
G37*
G36*
X276750Y464110D02*
X282015Y469375D01*
X289485Y469375D01*
X294750Y464110D01*
X294750Y456640D01*
X289485Y451375D01*
X282015Y451375D01*
X276750Y456640D01*
X276750Y464110D01*
G37*
G36*
X276750Y489510D02*
X282015Y494775D01*
X289485Y494775D01*
X294750Y489510D01*
X294750Y482040D01*
X289485Y476775D01*
X282015Y476775D01*
X276750Y482040D01*
X276750Y489510D01*
G37*
G36*
X276750Y514910D02*
X282015Y520175D01*
X289485Y520175D01*
X294750Y514910D01*
X294750Y507440D01*
X289485Y502175D01*
X282015Y502175D01*
X276750Y507440D01*
X276750Y514910D01*
G37*
G54D14*
X31750Y587375D02*
X57150Y587375D01*
X57150Y536575D01*
X209550Y536575D01*
X209550Y511175D01*
X57150Y561975D02*
G54D12*
D03*
X31750Y561975D02*
G54D12*
D03*
G54D14*
X209550Y409575D02*
X234950Y409575D01*
X260350Y536575D02*
G54D12*
D03*
X260350Y460375D02*
G54D12*
D03*
X31750Y460375D02*
G54D13*
D03*
X31750Y409575D02*
G54D13*
D03*
X31750Y511175D02*
G54D13*
D03*
X31750Y612775D02*
G54D13*
D03*
X95250Y612775D02*
G54D13*
D03*
X171450Y612775D02*
G54D13*
D03*
X107950Y511175D02*
G54D13*
D03*
X57150Y612775D02*
G54D13*
D03*
X133350Y434975D02*
G54D13*
D03*
X285750Y409575D02*
G54D13*
D03*
X285750Y460375D02*
G54D13*
D03*
G54D14*
X209550Y536575D02*
X209550Y567375D01*
X209550Y587375D02*
G54D13*
D03*
G54D14*
X82550Y485775D02*
X133350Y485775D01*
G54D14*
X31750Y536575D02*
X31750Y561975D01*
G54D14*
X57150Y511175D02*
X57150Y536575D01*
X57150Y460375D02*
G54D12*
D03*
X82550Y460375D02*
G54D12*
D03*
G54D14*
X31750Y460375D02*
X57150Y460375D01*
X57150Y511175D01*
G54D14*
X184150Y409575D02*
X184150Y422275D01*
X196850Y434975D01*
X209550Y434975D01*
G54D14*
X82550Y460375D02*
X133350Y460375D01*
G54D14*
X260350Y409575D02*
X260350Y460375D01*
G54D14*
X260350Y460375D02*
X260350Y485775D01*
X285750Y511175D01*
X31750Y485775D02*
G54D13*
D03*
X133350Y409575D02*
G54D13*
D03*
X158750Y409575D02*
G54D13*
D03*
X107950Y409575D02*
G54D13*
D03*
G54D14*
X133350Y511175D02*
X149225Y511175D01*
X158750Y501650D01*
X158750Y409575D01*
G36*
X213285Y631300D02*
X218550Y626035D01*
X218550Y618565D01*
X213285Y613300D01*
X205815Y613300D01*
X200550Y618565D01*
X200550Y626035D01*
X205815Y631300D01*
X213285Y631300D01*
G37*
G36*
X213285Y656700D02*
X218550Y651435D01*
X218550Y643965D01*
X213285Y638700D01*
X205815Y638700D01*
X200550Y643965D01*
X200550Y651435D01*
X205815Y656700D01*
X213285Y656700D01*
G37*
X285750Y612775D02*
G54D11*
D03*
X285750Y587375D02*
G54D11*
D03*
X285750Y663575D02*
G54D11*
D03*
X285750Y638175D02*
G54D11*
D03*
X285750Y663575D02*
G54D11*
D03*
G54D14*
X257175Y612775D02*
X241300Y612775D01*
G54D14*
X209550Y460375D02*
X241300Y492125D01*
X241300Y647700D01*
X225425Y663575D01*
X31750Y663575D01*
G54D14*
X209550Y485775D02*
X215900Y485775D01*
X228600Y498475D01*
X228600Y603250D01*
X209550Y622300D01*
X193675Y638175D01*
X31750Y638175D01*
X257175Y612775D02*
G54D12*
D03*
X257175Y638175D02*
G54D12*
D03*
G54D14*
X257175Y638175D02*
X285750Y638175D01*
X285750Y612775D02*
G54D11*
D03*
X260350Y561975D02*
G54D12*
D03*
X285750Y561975D02*
G54D12*
D03*
G54D14*
X260350Y536575D02*
X260350Y561975D01*
G54D14*
X285750Y561975D02*
X285750Y587375D01*
G54D14*
X31750Y434975D02*
X73025Y434975D01*
X82550Y444500D01*
X82550Y460375D01*
G36*
X445150Y518175D02*
X445150Y504175D01*
X431150Y504175D01*
X431150Y518175D01*
X445150Y518175D01*
G37*
X438150Y485775D02*
G54D10*
D03*
X438150Y460375D02*
G54D10*
D03*
X438150Y434975D02*
G54D10*
D03*
X514350Y434975D02*
G54D10*
D03*
X514350Y460375D02*
G54D10*
D03*
X514350Y485775D02*
G54D10*
D03*
X514350Y511175D02*
G54D10*
D03*
X514350Y587375D02*
G54D11*
D03*
X514350Y567375D02*
G54D11*
D03*
X361950Y612775D02*
G54D12*
D03*
X361950Y587375D02*
G54D12*
D03*
X387350Y485775D02*
G54D12*
D03*
X412750Y511175D02*
G54D12*
D03*
X361950Y511175D02*
G54D12*
D03*
X400050Y561975D02*
G54D13*
D03*
X476250Y561975D02*
G54D13*
D03*
X400050Y612775D02*
G54D13*
D03*
X476250Y612775D02*
G54D13*
D03*
X336550Y409575D02*
G54D13*
D03*
X336550Y434975D02*
G54D13*
D03*
X336550Y511175D02*
G54D13*
D03*
X336550Y536575D02*
G54D13*
D03*
X336550Y587375D02*
G54D13*
D03*
X336550Y612775D02*
G54D13*
D03*
X336550Y638175D02*
G54D13*
D03*
X336550Y663575D02*
G54D13*
D03*
X488950Y409575D02*
G54D12*
D03*
X514350Y409575D02*
G54D12*
D03*
G36*
X530750Y413310D02*
X536015Y418575D01*
X543485Y418575D01*
X548750Y413310D01*
X548750Y405840D01*
X543485Y400575D01*
X536015Y400575D01*
X530750Y405840D01*
X530750Y413310D01*
G37*
G36*
X556150Y413310D02*
X561415Y418575D01*
X568885Y418575D01*
X574150Y413310D01*
X574150Y405840D01*
X568885Y400575D01*
X561415Y400575D01*
X556150Y405840D01*
X556150Y413310D01*
G37*
G36*
X581550Y413310D02*
X586815Y418575D01*
X594285Y418575D01*
X599550Y413310D01*
X599550Y405840D01*
X594285Y400575D01*
X586815Y400575D01*
X581550Y405840D01*
X581550Y413310D01*
G37*
G36*
X581550Y438710D02*
X586815Y443975D01*
X594285Y443975D01*
X599550Y438710D01*
X599550Y431240D01*
X594285Y425975D01*
X586815Y425975D01*
X581550Y431240D01*
X581550Y438710D01*
G37*
G36*
X581550Y464110D02*
X586815Y469375D01*
X594285Y469375D01*
X599550Y464110D01*
X599550Y456640D01*
X594285Y451375D01*
X586815Y451375D01*
X581550Y456640D01*
X581550Y464110D01*
G37*
G36*
X581550Y489510D02*
X586815Y494775D01*
X594285Y494775D01*
X599550Y489510D01*
X599550Y482040D01*
X594285Y476775D01*
X586815Y476775D01*
X581550Y482040D01*
X581550Y489510D01*
G37*
G36*
X581550Y514910D02*
X586815Y520175D01*
X594285Y520175D01*
X599550Y514910D01*
X599550Y507440D01*
X594285Y502175D01*
X586815Y502175D01*
X581550Y507440D01*
X581550Y514910D01*
G37*
G54D14*
X336550Y587375D02*
X361950Y587375D01*
X361950Y536575D01*
X514350Y536575D01*
X514350Y511175D01*
X361950Y561975D02*
G54D12*
D03*
X336550Y561975D02*
G54D12*
D03*
G54D14*
X514350Y409575D02*
X539750Y409575D01*
X565150Y536575D02*
G54D12*
D03*
X565150Y460375D02*
G54D12*
D03*
X336550Y460375D02*
G54D13*
D03*
X336550Y409575D02*
G54D13*
D03*
X336550Y511175D02*
G54D13*
D03*
X336550Y612775D02*
G54D13*
D03*
X400050Y612775D02*
G54D13*
D03*
X476250Y612775D02*
G54D13*
D03*
X412750Y511175D02*
G54D13*
D03*
X361950Y612775D02*
G54D13*
D03*
X438150Y434975D02*
G54D13*
D03*
X590550Y409575D02*
G54D13*
D03*
X590550Y460375D02*
G54D13*
D03*
G54D14*
X514350Y536575D02*
X514350Y567375D01*
X514350Y587375D02*
G54D13*
D03*
G54D14*
X387350Y485775D02*
X438150Y485775D01*
G54D14*
X336550Y536575D02*
X336550Y561975D01*
G54D14*
X361950Y511175D02*
X361950Y536575D01*
X361950Y460375D02*
G54D12*
D03*
X387350Y460375D02*
G54D12*
D03*
G54D14*
X336550Y460375D02*
X361950Y460375D01*
X361950Y511175D01*
G54D14*
X488950Y409575D02*
X488950Y422275D01*
X501650Y434975D01*
X514350Y434975D01*
G54D14*
X387350Y460375D02*
X438150Y460375D01*
G54D14*
X565150Y409575D02*
X565150Y460375D01*
G54D14*
X565150Y460375D02*
X565150Y485775D01*
X590550Y511175D01*
X336550Y485775D02*
G54D13*
D03*
X438150Y409575D02*
G54D13*
D03*
X463550Y409575D02*
G54D13*
D03*
X412750Y409575D02*
G54D13*
D03*
G54D14*
X438150Y511175D02*
X454025Y511175D01*
X463550Y501650D01*
X463550Y409575D01*
G36*
X518085Y631300D02*
X523350Y626035D01*
X523350Y618565D01*
X518085Y613300D01*
X510615Y613300D01*
X505350Y618565D01*
X505350Y626035D01*
X510615Y631300D01*
X518085Y631300D01*
G37*
G36*
X518085Y656700D02*
X523350Y651435D01*
X523350Y643965D01*
X518085Y638700D01*
X510615Y638700D01*
X505350Y643965D01*
X505350Y651435D01*
X510615Y656700D01*
X518085Y656700D01*
G37*
X590550Y612775D02*
G54D11*
D03*
X590550Y587375D02*
G54D11*
D03*
X590550Y663575D02*
G54D11*
D03*
X590550Y638175D02*
G54D11*
D03*
X590550Y663575D02*
G54D11*
D03*
G54D14*
X561975Y612775D02*
X546100Y612775D01*
G54D14*
X514350Y460375D02*
X546100Y492125D01*
X546100Y647700D01*
X530225Y663575D01*
X336550Y663575D01*
G54D14*
X514350Y485775D02*
X520700Y485775D01*
X533400Y498475D01*
X533400Y603250D01*
X514350Y622300D01*
X498475Y638175D01*
X336550Y638175D01*
X561975Y612775D02*
G54D12*
D03*
X561975Y638175D02*
G54D12*
D03*
G54D14*
X561975Y638175D02*
X590550Y638175D01*
X590550Y612775D02*
G54D11*
D03*
X565150Y561975D02*
G54D12*
D03*
X590550Y561975D02*
G54D12*
D03*
G54D14*
X565150Y536575D02*
X565150Y561975D01*
G54D14*
X590550Y561975D02*
X590550Y587375D01*
G54D14*
X336550Y434975D02*
X377825Y434975D01*
X387350Y444500D01*
X387350Y460375D01*
G36*
X749950Y518175D02*
X749950Y504175D01*
X735950Y504175D01*
X735950Y518175D01*
X749950Y518175D01*
G37*
X742950Y485775D02*
G54D10*
D03*
X742950Y460375D02*
G54D10*
D03*
X742950Y434975D02*
G54D10*
D03*
X819150Y434975D02*
G54D10*
D03*
X819150Y460375D02*
G54D10*
D03*
X819150Y485775D02*
G54D10*
D03*
X819150Y511175D02*
G54D10*
D03*
X819150Y587375D02*
G54D11*
D03*
X819150Y567375D02*
G54D11*
D03*
X666750Y612775D02*
G54D12*
D03*
X666750Y587375D02*
G54D12*
D03*
X692150Y485775D02*
G54D12*
D03*
X717550Y511175D02*
G54D12*
D03*
X666750Y511175D02*
G54D12*
D03*
X704850Y561975D02*
G54D13*
D03*
X781050Y561975D02*
G54D13*
D03*
X704850Y612775D02*
G54D13*
D03*
X781050Y612775D02*
G54D13*
D03*
X641350Y409575D02*
G54D13*
D03*
X641350Y434975D02*
G54D13*
D03*
X641350Y511175D02*
G54D13*
D03*
X641350Y536575D02*
G54D13*
D03*
X641350Y587375D02*
G54D13*
D03*
X641350Y612775D02*
G54D13*
D03*
X641350Y638175D02*
G54D13*
D03*
X641350Y663575D02*
G54D13*
D03*
X793750Y409575D02*
G54D12*
D03*
X819150Y409575D02*
G54D12*
D03*
G36*
X835550Y413310D02*
X840815Y418575D01*
X848285Y418575D01*
X853550Y413310D01*
X853550Y405840D01*
X848285Y400575D01*
X840815Y400575D01*
X835550Y405840D01*
X835550Y413310D01*
G37*
G36*
X860950Y413310D02*
X866215Y418575D01*
X873685Y418575D01*
X878950Y413310D01*
X878950Y405840D01*
X873685Y400575D01*
X866215Y400575D01*
X860950Y405840D01*
X860950Y413310D01*
G37*
G36*
X886350Y413310D02*
X891615Y418575D01*
X899085Y418575D01*
X904350Y413310D01*
X904350Y405840D01*
X899085Y400575D01*
X891615Y400575D01*
X886350Y405840D01*
X886350Y413310D01*
G37*
G36*
X886350Y438710D02*
X891615Y443975D01*
X899085Y443975D01*
X904350Y438710D01*
X904350Y431240D01*
X899085Y425975D01*
X891615Y425975D01*
X886350Y431240D01*
X886350Y438710D01*
G37*
G36*
X886350Y464110D02*
X891615Y469375D01*
X899085Y469375D01*
X904350Y464110D01*
X904350Y456640D01*
X899085Y451375D01*
X891615Y451375D01*
X886350Y456640D01*
X886350Y464110D01*
G37*
G36*
X886350Y489510D02*
X891615Y494775D01*
X899085Y494775D01*
X904350Y489510D01*
X904350Y482040D01*
X899085Y476775D01*
X891615Y476775D01*
X886350Y482040D01*
X886350Y489510D01*
G37*
G36*
X886350Y514910D02*
X891615Y520175D01*
X899085Y520175D01*
X904350Y514910D01*
X904350Y507440D01*
X899085Y502175D01*
X891615Y502175D01*
X886350Y507440D01*
X886350Y514910D01*
G37*
G54D14*
X641350Y587375D02*
X666750Y587375D01*
X666750Y536575D01*
X819150Y536575D01*
X819150Y511175D01*
X666750Y561975D02*
G54D12*
D03*
X641350Y561975D02*
G54D12*
D03*
G54D14*
X819150Y409575D02*
X844550Y409575D01*
X869950Y536575D02*
G54D12*
D03*
X869950Y460375D02*
G54D12*
D03*
X641350Y460375D02*
G54D13*
D03*
X641350Y409575D02*
G54D13*
D03*
X641350Y511175D02*
G54D13*
D03*
X641350Y612775D02*
G54D13*
D03*
X704850Y612775D02*
G54D13*
D03*
X781050Y612775D02*
G54D13*
D03*
X717550Y511175D02*
G54D13*
D03*
X666750Y612775D02*
G54D13*
D03*
X742950Y434975D02*
G54D13*
D03*
X895350Y409575D02*
G54D13*
D03*
X895350Y460375D02*
G54D13*
D03*
G54D14*
X819150Y536575D02*
X819150Y567375D01*
X819150Y587375D02*
G54D13*
D03*
G54D14*
X692150Y485775D02*
X742950Y485775D01*
G54D14*
X641350Y536575D02*
X641350Y561975D01*
G54D14*
X666750Y511175D02*
X666750Y536575D01*
X666750Y460375D02*
G54D12*
D03*
X692150Y460375D02*
G54D12*
D03*
G54D14*
X641350Y460375D02*
X666750Y460375D01*
X666750Y511175D01*
G54D14*
X793750Y409575D02*
X793750Y422275D01*
X806450Y434975D01*
X819150Y434975D01*
G54D14*
X692150Y460375D02*
X742950Y460375D01*
G54D14*
X869950Y409575D02*
X869950Y460375D01*
G54D14*
X869950Y460375D02*
X869950Y485775D01*
X895350Y511175D01*
X641350Y485775D02*
G54D13*
D03*
X742950Y409575D02*
G54D13*
D03*
X768350Y409575D02*
G54D13*
D03*
X717550Y409575D02*
G54D13*
D03*
G54D14*
X742950Y511175D02*
X758825Y511175D01*
X768350Y501650D01*
X768350Y409575D01*
G36*
X822885Y631300D02*
X828150Y626035D01*
X828150Y618565D01*
X822885Y613300D01*
X815415Y613300D01*
X810150Y618565D01*
X810150Y626035D01*
X815415Y631300D01*
X822885Y631300D01*
G37*
G36*
X822885Y656700D02*
X828150Y651435D01*
X828150Y643965D01*
X822885Y638700D01*
X815415Y638700D01*
X810150Y643965D01*
X810150Y651435D01*
X815415Y656700D01*
X822885Y656700D01*
G37*
X895350Y612775D02*
G54D11*
D03*
X895350Y587375D02*
G54D11*
D03*
X895350Y663575D02*
G54D11*
D03*
X895350Y638175D02*
G54D11*
D03*
X895350Y663575D02*
G54D11*
D03*
G54D14*
X866775Y612775D02*
X850900Y612775D01*
G54D14*
X819150Y460375D02*
X850900Y492125D01*
X850900Y647700D01*
X835025Y663575D01*
X641350Y663575D01*
G54D14*
X819150Y485775D02*
X825500Y485775D01*
X838200Y498475D01*
X838200Y603250D01*
X819150Y622300D01*
X803275Y638175D01*
X641350Y638175D01*
X866775Y612775D02*
G54D12*
D03*
X866775Y638175D02*
G54D12*
D03*
G54D14*
X866775Y638175D02*
X895350Y638175D01*
X895350Y612775D02*
G54D11*
D03*
X869950Y561975D02*
G54D12*
D03*
X895350Y561975D02*
G54D12*
D03*
G54D14*
X869950Y536575D02*
X869950Y561975D01*
G54D14*
X895350Y561975D02*
X895350Y587375D01*
G54D14*
X641350Y434975D02*
X682625Y434975D01*
X692150Y444500D01*
X692150Y460375D01*
G36*
X140350Y213375D02*
X140350Y199375D01*
X126350Y199375D01*
X126350Y213375D01*
X140350Y213375D01*
G37*
X133350Y180975D02*
G54D10*
D03*
X133350Y155575D02*
G54D10*
D03*
X133350Y130175D02*
G54D10*
D03*
X209550Y130175D02*
G54D10*
D03*
X209550Y155575D02*
G54D10*
D03*
X209550Y180975D02*
G54D10*
D03*
X209550Y206375D02*
G54D10*
D03*
X209550Y282575D02*
G54D11*
D03*
X209550Y262575D02*
G54D11*
D03*
X57150Y307975D02*
G54D12*
D03*
X57150Y282575D02*
G54D12*
D03*
X82550Y180975D02*
G54D12*
D03*
X107950Y206375D02*
G54D12*
D03*
X57150Y206375D02*
G54D12*
D03*
X95250Y257175D02*
G54D13*
D03*
X171450Y257175D02*
G54D13*
D03*
X95250Y307975D02*
G54D13*
D03*
X171450Y307975D02*
G54D13*
D03*
X31750Y104775D02*
G54D13*
D03*
X31750Y130175D02*
G54D13*
D03*
X31750Y206375D02*
G54D13*
D03*
X31750Y231775D02*
G54D13*
D03*
X31750Y282575D02*
G54D13*
D03*
X31750Y307975D02*
G54D13*
D03*
X31750Y333375D02*
G54D13*
D03*
X31750Y358775D02*
G54D13*
D03*
X184150Y104775D02*
G54D12*
D03*
X209550Y104775D02*
G54D12*
D03*
G36*
X225950Y108510D02*
X231215Y113775D01*
X238685Y113775D01*
X243950Y108510D01*
X243950Y101040D01*
X238685Y95775D01*
X231215Y95775D01*
X225950Y101040D01*
X225950Y108510D01*
G37*
G36*
X251350Y108510D02*
X256615Y113775D01*
X264085Y113775D01*
X269350Y108510D01*
X269350Y101040D01*
X264085Y95775D01*
X256615Y95775D01*
X251350Y101040D01*
X251350Y108510D01*
G37*
G36*
X276750Y108510D02*
X282015Y113775D01*
X289485Y113775D01*
X294750Y108510D01*
X294750Y101040D01*
X289485Y95775D01*
X282015Y95775D01*
X276750Y101040D01*
X276750Y108510D01*
G37*
G36*
X276750Y133910D02*
X282015Y139175D01*
X289485Y139175D01*
X294750Y133910D01*
X294750Y126440D01*
X289485Y121175D01*
X282015Y121175D01*
X276750Y126440D01*
X276750Y133910D01*
G37*
G36*
X276750Y159310D02*
X282015Y164575D01*
X289485Y164575D01*
X294750Y159310D01*
X294750Y151840D01*
X289485Y146575D01*
X282015Y146575D01*
X276750Y151840D01*
X276750Y159310D01*
G37*
G36*
X276750Y184710D02*
X282015Y189975D01*
X289485Y189975D01*
X294750Y184710D01*
X294750Y177240D01*
X289485Y171975D01*
X282015Y171975D01*
X276750Y177240D01*
X276750Y184710D01*
G37*
G36*
X276750Y210110D02*
X282015Y215375D01*
X289485Y215375D01*
X294750Y210110D01*
X294750Y202640D01*
X289485Y197375D01*
X282015Y197375D01*
X276750Y202640D01*
X276750Y210110D01*
G37*
G54D14*
X31750Y282575D02*
X57150Y282575D01*
X57150Y231775D01*
X209550Y231775D01*
X209550Y206375D01*
X57150Y257175D02*
G54D12*
D03*
X31750Y257175D02*
G54D12*
D03*
G54D14*
X209550Y104775D02*
X234950Y104775D01*
X260350Y231775D02*
G54D12*
D03*
X260350Y155575D02*
G54D12*
D03*
X31750Y155575D02*
G54D13*
D03*
X31750Y104775D02*
G54D13*
D03*
X31750Y206375D02*
G54D13*
D03*
X31750Y307975D02*
G54D13*
D03*
X95250Y307975D02*
G54D13*
D03*
X171450Y307975D02*
G54D13*
D03*
X107950Y206375D02*
G54D13*
D03*
X57150Y307975D02*
G54D13*
D03*
X133350Y130175D02*
G54D13*
D03*
X285750Y104775D02*
G54D13*
D03*
X285750Y155575D02*
G54D13*
D03*
G54D14*
X209550Y231775D02*
X209550Y262575D01*
X209550Y282575D02*
G54D13*
D03*
G54D14*
X82550Y180975D02*
X133350Y180975D01*
G54D14*
X31750Y231775D02*
X31750Y257175D01*
G54D14*
X57150Y206375D02*
X57150Y231775D01*
X57150Y155575D02*
G54D12*
D03*
X82550Y155575D02*
G54D12*
D03*
G54D14*
X31750Y155575D02*
X57150Y155575D01*
X57150Y206375D01*
G54D14*
X184150Y104775D02*
X184150Y117475D01*
X196850Y130175D01*
X209550Y130175D01*
G54D14*
X82550Y155575D02*
X133350Y155575D01*
G54D14*
X260350Y104775D02*
X260350Y155575D01*
G54D14*
X260350Y155575D02*
X260350Y180975D01*
X285750Y206375D01*
X31750Y180975D02*
G54D13*
D03*
X133350Y104775D02*
G54D13*
D03*
X158750Y104775D02*
G54D13*
D03*
X107950Y104775D02*
G54D13*
D03*
G54D14*
X133350Y206375D02*
X149225Y206375D01*
X158750Y196850D01*
X158750Y104775D01*
G36*
X213285Y326500D02*
X218550Y321235D01*
X218550Y313765D01*
X213285Y308500D01*
X205815Y308500D01*
X200550Y313765D01*
X200550Y321235D01*
X205815Y326500D01*
X213285Y326500D01*
G37*
G36*
X213285Y351900D02*
X218550Y346635D01*
X218550Y339165D01*
X213285Y333900D01*
X205815Y333900D01*
X200550Y339165D01*
X200550Y346635D01*
X205815Y351900D01*
X213285Y351900D01*
G37*
X285750Y307975D02*
G54D11*
D03*
X285750Y282575D02*
G54D11*
D03*
X285750Y358775D02*
G54D11*
D03*
X285750Y333375D02*
G54D11*
D03*
X285750Y358775D02*
G54D11*
D03*
G54D14*
X257175Y307975D02*
X241300Y307975D01*
G54D14*
X209550Y155575D02*
X241300Y187325D01*
X241300Y342900D01*
X225425Y358775D01*
X31750Y358775D01*
G54D14*
X209550Y180975D02*
X215900Y180975D01*
X228600Y193675D01*
X228600Y298450D01*
X209550Y317500D01*
X193675Y333375D01*
X31750Y333375D01*
X257175Y307975D02*
G54D12*
D03*
X257175Y333375D02*
G54D12*
D03*
G54D14*
X257175Y333375D02*
X285750Y333375D01*
X285750Y307975D02*
G54D11*
D03*
X260350Y257175D02*
G54D12*
D03*
X285750Y257175D02*
G54D12*
D03*
G54D14*
X260350Y231775D02*
X260350Y257175D01*
G54D14*
X285750Y257175D02*
X285750Y282575D01*
G54D14*
X31750Y130175D02*
X73025Y130175D01*
X82550Y139700D01*
X82550Y155575D01*
G36*
X445150Y213375D02*
X445150Y199375D01*
X431150Y199375D01*
X431150Y213375D01*
X445150Y213375D01*
G37*
X438150Y180975D02*
G54D10*
D03*
X438150Y155575D02*
G54D10*
D03*
X438150Y130175D02*
G54D10*
D03*
X514350Y130175D02*
G54D10*
D03*
X514350Y155575D02*
G54D10*
D03*
X514350Y180975D02*
G54D10*
D03*
X514350Y206375D02*
G54D10*
D03*
X514350Y282575D02*
G54D11*
D03*
X514350Y262575D02*
G54D11*
D03*
X361950Y307975D02*
G54D12*
D03*
X361950Y282575D02*
G54D12*
D03*
X387350Y180975D02*
G54D12*
D03*
X412750Y206375D02*
G54D12*
D03*
X361950Y206375D02*
G54D12*
D03*
X400050Y257175D02*
G54D13*
D03*
X476250Y257175D02*
G54D13*
D03*
X400050Y307975D02*
G54D13*
D03*
X476250Y307975D02*
G54D13*
D03*
X336550Y104775D02*
G54D13*
D03*
X336550Y130175D02*
G54D13*
D03*
X336550Y206375D02*
G54D13*
D03*
X336550Y231775D02*
G54D13*
D03*
X336550Y282575D02*
G54D13*
D03*
X336550Y307975D02*
G54D13*
D03*
X336550Y333375D02*
G54D13*
D03*
X336550Y358775D02*
G54D13*
D03*
X488950Y104775D02*
G54D12*
D03*
X514350Y104775D02*
G54D12*
D03*
G36*
X530750Y108510D02*
X536015Y113775D01*
X543485Y113775D01*
X548750Y108510D01*
X548750Y101040D01*
X543485Y95775D01*
X536015Y95775D01*
X530750Y101040D01*
X530750Y108510D01*
G37*
G36*
X556150Y108510D02*
X561415Y113775D01*
X568885Y113775D01*
X574150Y108510D01*
X574150Y101040D01*
X568885Y95775D01*
X561415Y95775D01*
X556150Y101040D01*
X556150Y108510D01*
G37*
G36*
X581550Y108510D02*
X586815Y113775D01*
X594285Y113775D01*
X599550Y108510D01*
X599550Y101040D01*
X594285Y95775D01*
X586815Y95775D01*
X581550Y101040D01*
X581550Y108510D01*
G37*
G36*
X581550Y133910D02*
X586815Y139175D01*
X594285Y139175D01*
X599550Y133910D01*
X599550Y126440D01*
X594285Y121175D01*
X586815Y121175D01*
X581550Y126440D01*
X581550Y133910D01*
G37*
G36*
X581550Y159310D02*
X586815Y164575D01*
X594285Y164575D01*
X599550Y159310D01*
X599550Y151840D01*
X594285Y146575D01*
X586815Y146575D01*
X581550Y151840D01*
X581550Y159310D01*
G37*
G36*
X581550Y184710D02*
X586815Y189975D01*
X594285Y189975D01*
X599550Y184710D01*
X599550Y177240D01*
X594285Y171975D01*
X586815Y171975D01*
X581550Y177240D01*
X581550Y184710D01*
G37*
G36*
X581550Y210110D02*
X586815Y215375D01*
X594285Y215375D01*
X599550Y210110D01*
X599550Y202640D01*
X594285Y197375D01*
X586815Y197375D01*
X581550Y202640D01*
X581550Y210110D01*
G37*
G54D14*
X336550Y282575D02*
X361950Y282575D01*
X361950Y231775D01*
X514350Y231775D01*
X514350Y206375D01*
X361950Y257175D02*
G54D12*
D03*
X336550Y257175D02*
G54D12*
D03*
G54D14*
X514350Y104775D02*
X539750Y104775D01*
X565150Y231775D02*
G54D12*
D03*
X565150Y155575D02*
G54D12*
D03*
X336550Y155575D02*
G54D13*
D03*
X336550Y104775D02*
G54D13*
D03*
X336550Y206375D02*
G54D13*
D03*
X336550Y307975D02*
G54D13*
D03*
X400050Y307975D02*
G54D13*
D03*
X476250Y307975D02*
G54D13*
D03*
X412750Y206375D02*
G54D13*
D03*
X361950Y307975D02*
G54D13*
D03*
X438150Y130175D02*
G54D13*
D03*
X590550Y104775D02*
G54D13*
D03*
X590550Y155575D02*
G54D13*
D03*
G54D14*
X514350Y231775D02*
X514350Y262575D01*
X514350Y282575D02*
G54D13*
D03*
G54D14*
X387350Y180975D02*
X438150Y180975D01*
G54D14*
X336550Y231775D02*
X336550Y257175D01*
G54D14*
X361950Y206375D02*
X361950Y231775D01*
X361950Y155575D02*
G54D12*
D03*
X387350Y155575D02*
G54D12*
D03*
G54D14*
X336550Y155575D02*
X361950Y155575D01*
X361950Y206375D01*
G54D14*
X488950Y104775D02*
X488950Y117475D01*
X501650Y130175D01*
X514350Y130175D01*
G54D14*
X387350Y155575D02*
X438150Y155575D01*
G54D14*
X565150Y104775D02*
X565150Y155575D01*
G54D14*
X565150Y155575D02*
X565150Y180975D01*
X590550Y206375D01*
X336550Y180975D02*
G54D13*
D03*
X438150Y104775D02*
G54D13*
D03*
X463550Y104775D02*
G54D13*
D03*
X412750Y104775D02*
G54D13*
D03*
G54D14*
X438150Y206375D02*
X454025Y206375D01*
X463550Y196850D01*
X463550Y104775D01*
G36*
X518085Y326500D02*
X523350Y321235D01*
X523350Y313765D01*
X518085Y308500D01*
X510615Y308500D01*
X505350Y313765D01*
X505350Y321235D01*
X510615Y326500D01*
X518085Y326500D01*
G37*
G36*
X518085Y351900D02*
X523350Y346635D01*
X523350Y339165D01*
X518085Y333900D01*
X510615Y333900D01*
X505350Y339165D01*
X505350Y346635D01*
X510615Y351900D01*
X518085Y351900D01*
G37*
X590550Y307975D02*
G54D11*
D03*
X590550Y282575D02*
G54D11*
D03*
X590550Y358775D02*
G54D11*
D03*
X590550Y333375D02*
G54D11*
D03*
X590550Y358775D02*
G54D11*
D03*
G54D14*
X561975Y307975D02*
X546100Y307975D01*
G54D14*
X514350Y155575D02*
X546100Y187325D01*
X546100Y342900D01*
X530225Y358775D01*
X336550Y358775D01*
G54D14*
X514350Y180975D02*
X520700Y180975D01*
X533400Y193675D01*
X533400Y298450D01*
X514350Y317500D01*
X498475Y333375D01*
X336550Y333375D01*
X561975Y307975D02*
G54D12*
D03*
X561975Y333375D02*
G54D12*
D03*
G54D14*
X561975Y333375D02*
X590550Y333375D01*
X590550Y307975D02*
G54D11*
D03*
X565150Y257175D02*
G54D12*
D03*
X590550Y257175D02*
G54D12*
D03*
G54D14*
X565150Y231775D02*
X565150Y257175D01*
G54D14*
X590550Y257175D02*
X590550Y282575D01*
G54D14*
X336550Y130175D02*
X377825Y130175D01*
X387350Y139700D01*
X387350Y155575D01*
G36*
X749950Y213375D02*
X749950Y199375D01*
X735950Y199375D01*
X735950Y213375D01*
X749950Y213375D01*
G37*
X742950Y180975D02*
G54D10*
D03*
X742950Y155575D02*
G54D10*
D03*
X742950Y130175D02*
G54D10*
D03*
X819150Y130175D02*
G54D10*
D03*
X819150Y155575D02*
G54D10*
D03*
X819150Y180975D02*
G54D10*
D03*
X819150Y206375D02*
G54D10*
D03*
X819150Y282575D02*
G54D11*
D03*
X819150Y262575D02*
G54D11*
D03*
X666750Y307975D02*
G54D12*
D03*
X666750Y282575D02*
G54D12*
D03*
X692150Y180975D02*
G54D12*
D03*
X717550Y206375D02*
G54D12*
D03*
X666750Y206375D02*
G54D12*
D03*
X704850Y257175D02*
G54D13*
D03*
X781050Y257175D02*
G54D13*
D03*
X704850Y307975D02*
G54D13*
D03*
X781050Y307975D02*
G54D13*
D03*
X641350Y104775D02*
G54D13*
D03*
X641350Y130175D02*
G54D13*
D03*
X641350Y206375D02*
G54D13*
D03*
X641350Y231775D02*
G54D13*
D03*
X641350Y282575D02*
G54D13*
D03*
X641350Y307975D02*
G54D13*
D03*
X641350Y333375D02*
G54D13*
D03*
X641350Y358775D02*
G54D13*
D03*
X793750Y104775D02*
G54D12*
D03*
X819150Y104775D02*
G54D12*
D03*
G36*
X835550Y108510D02*
X840815Y113775D01*
X848285Y113775D01*
X853550Y108510D01*
X853550Y101040D01*
X848285Y95775D01*
X840815Y95775D01*
X835550Y101040D01*
X835550Y108510D01*
G37*
G36*
X860950Y108510D02*
X866215Y113775D01*
X873685Y113775D01*
X878950Y108510D01*
X878950Y101040D01*
X873685Y95775D01*
X866215Y95775D01*
X860950Y101040D01*
X860950Y108510D01*
G37*
G36*
X886350Y108510D02*
X891615Y113775D01*
X899085Y113775D01*
X904350Y108510D01*
X904350Y101040D01*
X899085Y95775D01*
X891615Y95775D01*
X886350Y101040D01*
X886350Y108510D01*
G37*
G36*
X886350Y133910D02*
X891615Y139175D01*
X899085Y139175D01*
X904350Y133910D01*
X904350Y126440D01*
X899085Y121175D01*
X891615Y121175D01*
X886350Y126440D01*
X886350Y133910D01*
G37*
G36*
X886350Y159310D02*
X891615Y164575D01*
X899085Y164575D01*
X904350Y159310D01*
X904350Y151840D01*
X899085Y146575D01*
X891615Y146575D01*
X886350Y151840D01*
X886350Y159310D01*
G37*
G36*
X886350Y184710D02*
X891615Y189975D01*
X899085Y189975D01*
X904350Y184710D01*
X904350Y177240D01*
X899085Y171975D01*
X891615Y171975D01*
X886350Y177240D01*
X886350Y184710D01*
G37*
G36*
X886350Y210110D02*
X891615Y215375D01*
X899085Y215375D01*
X904350Y210110D01*
X904350Y202640D01*
X899085Y197375D01*
X891615Y197375D01*
X886350Y202640D01*
X886350Y210110D01*
G37*
G54D14*
X641350Y282575D02*
X666750Y282575D01*
X666750Y231775D01*
X819150Y231775D01*
X819150Y206375D01*
X666750Y257175D02*
G54D12*
D03*
X641350Y257175D02*
G54D12*
D03*
G54D14*
X819150Y104775D02*
X844550Y104775D01*
X869950Y231775D02*
G54D12*
D03*
X869950Y155575D02*
G54D12*
D03*
X641350Y155575D02*
G54D13*
D03*
X641350Y104775D02*
G54D13*
D03*
X641350Y206375D02*
G54D13*
D03*
X641350Y307975D02*
G54D13*
D03*
X704850Y307975D02*
G54D13*
D03*
X781050Y307975D02*
G54D13*
D03*
X717550Y206375D02*
G54D13*
D03*
X666750Y307975D02*
G54D13*
D03*
X742950Y130175D02*
G54D13*
D03*
X895350Y104775D02*
G54D13*
D03*
X895350Y155575D02*
G54D13*
D03*
G54D14*
X819150Y231775D02*
X819150Y262575D01*
X819150Y282575D02*
G54D13*
D03*
G54D14*
X692150Y180975D02*
X742950Y180975D01*
G54D14*
X641350Y231775D02*
X641350Y257175D01*
G54D14*
X666750Y206375D02*
X666750Y231775D01*
X666750Y155575D02*
G54D12*
D03*
X692150Y155575D02*
G54D12*
D03*
G54D14*
X641350Y155575D02*
X666750Y155575D01*
X666750Y206375D01*
G54D14*
X793750Y104775D02*
X793750Y117475D01*
X806450Y130175D01*
X819150Y130175D01*
G54D14*
X692150Y155575D02*
X742950Y155575D01*
G54D14*
X869950Y104775D02*
X869950Y155575D01*
G54D14*
X869950Y155575D02*
X869950Y180975D01*
X895350Y206375D01*
X641350Y180975D02*
G54D13*
D03*
X742950Y104775D02*
G54D13*
D03*
X768350Y104775D02*
G54D13*
D03*
X717550Y104775D02*
G54D13*
D03*
G54D14*
X742950Y206375D02*
X758825Y206375D01*
X768350Y196850D01*
X768350Y104775D01*
G36*
X822885Y326500D02*
X828150Y321235D01*
X828150Y313765D01*
X822885Y308500D01*
X815415Y308500D01*
X810150Y313765D01*
X810150Y321235D01*
X815415Y326500D01*
X822885Y326500D01*
G37*
G36*
X822885Y351900D02*
X828150Y346635D01*
X828150Y339165D01*
X822885Y333900D01*
X815415Y333900D01*
X810150Y339165D01*
X810150Y346635D01*
X815415Y351900D01*
X822885Y351900D01*
G37*
X895350Y307975D02*
G54D11*
D03*
X895350Y282575D02*
G54D11*
D03*
X895350Y358775D02*
G54D11*
D03*
X895350Y333375D02*
G54D11*
D03*
X895350Y358775D02*
G54D11*
D03*
G54D14*
X866775Y307975D02*
X850900Y307975D01*
G54D14*
X819150Y155575D02*
X850900Y187325D01*
X850900Y342900D01*
X835025Y358775D01*
X641350Y358775D01*
G54D14*
X819150Y180975D02*
X825500Y180975D01*
X838200Y193675D01*
X838200Y298450D01*
X819150Y317500D01*
X803275Y333375D01*
X641350Y333375D01*
X866775Y307975D02*
G54D12*
D03*
X866775Y333375D02*
G54D12*
D03*
G54D14*
X866775Y333375D02*
X895350Y333375D01*
X895350Y307975D02*
G54D11*
D03*
X869950Y257175D02*
G54D12*
D03*
X895350Y257175D02*
G54D12*
D03*
G54D14*
X869950Y231775D02*
X869950Y257175D01*
G54D14*
X895350Y257175D02*
X895350Y282575D01*
G54D14*
X641350Y130175D02*
X682625Y130175D01*
X692150Y139700D01*
X692150Y155575D01*
M02*
