; Drill file
; Format: 2.4 (00.0000)
M48
INCH
T01C0.0236
T02C0.0283
T03C0.0315
%
G05
G90
T01
X002250Y006130
X003250Y006130
X003250Y007130
X002250Y008120
X002250Y010120
X002250Y011130
X001250Y010120
X008250Y010340
X010250Y010120
X010250Y009120
X011250Y010120
X011250Y011130
X011250Y012120
X011250Y013120
X011250Y014130
X010120Y013120
X010120Y012120
X013250Y010120
X014250Y010120
X014250Y011130
X014250Y008120
X015250Y007130
X015250Y006130
X014250Y006130
X010250Y006130
X008250Y004120
X007250Y004120
X019250Y004120
X020250Y004120
X022250Y006130
X022250Y009120
X022250Y010120
X023250Y010120
X023250Y011130
X023250Y012120
X023250Y013120
X023250Y014130
X022120Y013120
X022120Y012120
X020250Y010340
X025250Y010120
X026250Y010120
X026250Y011130
X026250Y008120
X027250Y007130
X027250Y006130
X026250Y006130
X031250Y004120
X032250Y004120
X034250Y006130
X034250Y009120
X034250Y010120
X035250Y010120
X035250Y011130
X035250Y012120
X035250Y013120
X035250Y014130
X034130Y013120
X034130Y012120
X032250Y010340
X032250Y016130
X031250Y016130
X034250Y018120
X034250Y021120
X034250Y022120
X035250Y022120
X035250Y023120
X035250Y024130
X035250Y025130
X035250Y026120
X034130Y025130
X034130Y024130
X032250Y022340
X032250Y028120
X031250Y028120
X034250Y030130
X034250Y033120
X034250Y034130
X035250Y034130
X035250Y035130
X035250Y036120
X035250Y037120
X035250Y038120
X034130Y037120
X034130Y036120
X032250Y034340
X027250Y031120
X027250Y030130
X026250Y030130
X026250Y032120
X026250Y034130
X025250Y034130
X026250Y035130
X023250Y035130
X023250Y036120
X023250Y037120
X023250Y038120
X022120Y037120
X022120Y036120
X022250Y034130
X022250Y033120
X023250Y034130
X020250Y034340
X022250Y030130
X020250Y028120
X019250Y028120
X022120Y025130
X022120Y024130
X023250Y024130
X023250Y023120
X023250Y022120
X022250Y022120
X022250Y021120
X020250Y022340
X023250Y025130
X023250Y026120
X026250Y023120
X026250Y022120
X025250Y022120
X026250Y020130
X027250Y019130
X027250Y018120
X026250Y018120
X022250Y018120
X020250Y016130
X019250Y016130
X015250Y018120
X015250Y019130
X014250Y020130
X014250Y022120
X014250Y023120
X013250Y022120
X011250Y022120
X011250Y023120
X011250Y024130
X011250Y025130
X011250Y026120
X010120Y025130
X010120Y024130
X010250Y022120
X010250Y021120
X008250Y022340
X010250Y018120
X008250Y016130
X007250Y016130
X003250Y018120
X003250Y019130
X002250Y020130
X002250Y022120
X002250Y023120
X001250Y022120
X002250Y018120
X007250Y028120
X008250Y028120
X010250Y030130
X010250Y033120
X010250Y034130
X011250Y034130
X011250Y035130
X011250Y036120
X011250Y037120
X011250Y038120
X010120Y037120
X010120Y036120
X008250Y034340
X013250Y034130
X014250Y034130
X014250Y035130
X014250Y032120
X015250Y031120
X015250Y030130
X014250Y030130
X003250Y030130
X003250Y031120
X002250Y030130
X002250Y032120
X002250Y034130
X002250Y035130
X001250Y034130
X014250Y018120
T02
X005250Y006130
X005250Y007130
X005250Y008120
X008250Y008120
X008250Y007130
X008250Y006130
X008250Y005120
X017250Y006130
X017250Y007130
X017250Y008120
X020250Y008120
X020250Y007130
X020250Y006130
X020250Y005120
X029250Y006130
X029250Y007130
X029250Y008120
X032250Y008120
X032250Y007130
X032250Y006130
X032250Y005120
X032250Y017120
X032250Y018120
X032250Y019130
X032250Y020130
X029250Y020130
X029250Y019130
X029250Y018120
X020250Y018120
X020250Y017120
X020250Y019130
X020250Y020130
X017250Y020130
X017250Y019130
X017250Y018120
X008250Y018120
X008250Y017120
X008250Y019130
X008250Y020130
X005250Y020130
X005250Y019130
X005250Y018120
X008250Y029130
X008250Y030130
X008250Y031120
X008250Y032120
X005250Y032120
X005250Y031120
X005250Y030130
X017250Y030130
X017250Y031120
X017250Y032120
X020250Y032120
X020250Y031120
X020250Y030130
X020250Y029130
X029250Y030130
X029250Y031120
X029250Y032120
X032250Y032120
X032250Y031120
X032250Y030130
X032250Y029130
T03
X001250Y004120
X001250Y005120
X001250Y006130
X001250Y007130
X001250Y008120
X001250Y009120
X001250Y011130
X001250Y012120
X001250Y013120
X001250Y014130
X001250Y016130
X001250Y017120
X001250Y018120
X001250Y019130
X001250Y020130
X001250Y021120
X001250Y023120
X001250Y024130
X001250Y025130
X001250Y026120
X001250Y028120
X001250Y029130
X001250Y030130
X001250Y031120
X001250Y032120
X001250Y033120
X001250Y035130
X001250Y036120
X001250Y037120
X001250Y038120
X002250Y036120
X003750Y036120
X003750Y034130
X004250Y032120
X005250Y029130
X005250Y028120
X006250Y028120
X004250Y028120
X003750Y024130
X002250Y024130
X003750Y022120
X004250Y020130
X005250Y017120
X005250Y016130
X006250Y016130
X004250Y016130
X003750Y012120
X002250Y012120
X003750Y010120
X004250Y008120
X005250Y005120
X005250Y004120
X006250Y004120
X004250Y004120
X009250Y004120
X010250Y004120
X011250Y004120
X011250Y005120
X011250Y006130
X011250Y007130
X011250Y008120
X013250Y008120
X013250Y009120
X013250Y011130
X013250Y012120
X013250Y013120
X013250Y014130
X013250Y016130
X013250Y017120
X013250Y018120
X013250Y019130
X013250Y020130
X013250Y021120
X013250Y023120
X013250Y024130
X013250Y025130
X013250Y026120
X013250Y028120
X013250Y029130
X013250Y030130
X013250Y031120
X013250Y032120
X013250Y033120
X013250Y035130
X013250Y036120
X013250Y037120
X013250Y038120
X014250Y036120
X015750Y036120
X015750Y034130
X016250Y032120
X017250Y029130
X017250Y028120
X018250Y028120
X016250Y028120
X015750Y024130
X014250Y024130
X015750Y022120
X016250Y020130
X017250Y017120
X017250Y016130
X018250Y016130
X016250Y016130
X015750Y012120
X014250Y012120
X015750Y010120
X016250Y008120
X017250Y005120
X017250Y004120
X018250Y004120
X016250Y004120
X013250Y004120
X013250Y005120
X013250Y006130
X013250Y007130
X018750Y010120
X020250Y011130
X020250Y012500
X020250Y013500
X018750Y012120
X021250Y016130
X022250Y016130
X023250Y016130
X023250Y017120
X023250Y018120
X023250Y019130
X023250Y020130
X025250Y020130
X025250Y021120
X025250Y023120
X025250Y024130
X025250Y025130
X025250Y026120
X025250Y028120
X025250Y029130
X025250Y030130
X025250Y031120
X025250Y032120
X025250Y033120
X025250Y035130
X025250Y036120
X025250Y037120
X025250Y038120
X026250Y036120
X027750Y036120
X027750Y034130
X028250Y032120
X029250Y029130
X029250Y028120
X030250Y028120
X028250Y028120
X027750Y024130
X026250Y024130
X027750Y022120
X028250Y020130
X025250Y019130
X025250Y018120
X025250Y017120
X025250Y016130
X025250Y014130
X025250Y013120
X025250Y012120
X025250Y011130
X026250Y012120
X027750Y012120
X027750Y010120
X028250Y008120
X025250Y008120
X025250Y009120
X025250Y007130
X025250Y006130
X025250Y005120
X025250Y004120
X023250Y004120
X023250Y005120
X023250Y006130
X023250Y007130
X023250Y008120
X022250Y004120
X021250Y004120
X028250Y004120
X029250Y004120
X030250Y004120
X029250Y005120
X033250Y004120
X034250Y004120
X035250Y004120
X035250Y005120
X035250Y006130
X035250Y007130
X035250Y008120
X032250Y011130
X032250Y012500
X032250Y013500
X030750Y012120
X030750Y010120
X030250Y016130
X029250Y016130
X029250Y017120
X028250Y016130
X033250Y016130
X034250Y016130
X035250Y016130
X035250Y017120
X035250Y018120
X035250Y019130
X035250Y020130
X032250Y023120
X032250Y024500
X032250Y025500
X030750Y024130
X030750Y022120
X033250Y028120
X034250Y028120
X035250Y028120
X035250Y029130
X035250Y030130
X035250Y031120
X035250Y032120
X032250Y035130
X032250Y036500
X032250Y037500
X030750Y036120
X030750Y034130
X023250Y032120
X023250Y031120
X023250Y030130
X023250Y029130
X023250Y028120
X022250Y028120
X021250Y028120
X020250Y025500
X020250Y024500
X020250Y023120
X018750Y022120
X018750Y024130
X011250Y028120
X011250Y029130
X011250Y030130
X011250Y031120
X011250Y032120
X010250Y028120
X009250Y028120
X008250Y025500
X008250Y024500
X008250Y023120
X006750Y022120
X006750Y024130
X011250Y020130
X011250Y019130
X011250Y018120
X011250Y017120
X011250Y016130
X010250Y016130
X009250Y016130
X008250Y013500
X008250Y012500
X008250Y011130
X006750Y010120
X006750Y012120
X006750Y034130
X008250Y035130
X008250Y036500
X008250Y037500
X006750Y036120
X018750Y036120
X020250Y036500
X020250Y037500
X020250Y035130
X018750Y034130
M30
